%TF.GenerationSoftware,KiCad,Pcbnew,(5.1.2-1)-1*%
%TF.CreationDate,2019-08-21T19:10:38+02:00*%
%TF.ProjectId,Kiel_50,4b69656c-5f35-4302-9e6b-696361645f70,rev?*%
%TF.SameCoordinates,PX69db1f0PY7882d48*%
%TF.FileFunction,Legend,Bot*%
%TF.FilePolarity,Positive*%
%FSLAX46Y46*%
G04 Gerber Fmt 4.6, Leading zero omitted, Abs format (unit mm)*
G04 Created by KiCad (PCBNEW (5.1.2-1)-1) date 2019-08-21 19:10:38*
%MOMM*%
%LPD*%
G04 APERTURE LIST*
%ADD10C,0.150000*%
%ADD11C,0.550000*%
%ADD12C,0.120000*%
G04 APERTURE END LIST*
D10*
X47781333Y8573000D02*
X48481333Y8573000D01*
X47981333Y8806334D01*
X48481333Y9039667D01*
X47781333Y9039667D01*
X47781333Y9673000D02*
X48148000Y9673000D01*
X48214666Y9639667D01*
X48248000Y9573000D01*
X48248000Y9439667D01*
X48214666Y9373000D01*
X47814666Y9673000D02*
X47781333Y9606334D01*
X47781333Y9439667D01*
X47814666Y9373000D01*
X47881333Y9339667D01*
X47948000Y9339667D01*
X48014666Y9373000D01*
X48048000Y9439667D01*
X48048000Y9606334D01*
X48081333Y9673000D01*
X47781333Y10006334D02*
X48248000Y10006334D01*
X48114666Y10006334D02*
X48181333Y10039667D01*
X48214666Y10073000D01*
X48248000Y10139667D01*
X48248000Y10206334D01*
X47781333Y10439667D02*
X48481333Y10439667D01*
X48048000Y10506334D02*
X47781333Y10706334D01*
X48248000Y10706334D02*
X47981333Y10439667D01*
X48448000Y12439667D02*
X48481333Y12373000D01*
X48481333Y12273000D01*
X48448000Y12173000D01*
X48381333Y12106334D01*
X48314666Y12073000D01*
X48181333Y12039667D01*
X48081333Y12039667D01*
X47948000Y12073000D01*
X47881333Y12106334D01*
X47814666Y12173000D01*
X47781333Y12273000D01*
X47781333Y12339667D01*
X47814666Y12439667D01*
X47848000Y12473000D01*
X48081333Y12473000D01*
X48081333Y12339667D01*
X47781333Y13073000D02*
X48148000Y13073000D01*
X48214666Y13039667D01*
X48248000Y12973000D01*
X48248000Y12839667D01*
X48214666Y12773000D01*
X47814666Y13073000D02*
X47781333Y13006334D01*
X47781333Y12839667D01*
X47814666Y12773000D01*
X47881333Y12739667D01*
X47948000Y12739667D01*
X48014666Y12773000D01*
X48048000Y12839667D01*
X48048000Y13006334D01*
X48081333Y13073000D01*
X48248000Y13406334D02*
X47648000Y13406334D01*
X47581333Y13373000D01*
X47548000Y13306334D01*
X47548000Y13273000D01*
X48481333Y13406334D02*
X48448000Y13373000D01*
X48414666Y13406334D01*
X48448000Y13439667D01*
X48481333Y13406334D01*
X48414666Y13406334D01*
X47814666Y14006334D02*
X47781333Y13939667D01*
X47781333Y13806334D01*
X47814666Y13739667D01*
X47881333Y13706334D01*
X48148000Y13706334D01*
X48214666Y13739667D01*
X48248000Y13806334D01*
X48248000Y13939667D01*
X48214666Y14006334D01*
X48148000Y14039667D01*
X48081333Y14039667D01*
X48014666Y13706334D01*
X48248000Y14273000D02*
X47781333Y14439667D01*
X48248000Y14606334D01*
X47814666Y14839667D02*
X47781333Y14906334D01*
X47781333Y15039667D01*
X47814666Y15106334D01*
X47881333Y15139667D01*
X47914666Y15139667D01*
X47981333Y15106334D01*
X48014666Y15039667D01*
X48014666Y14939667D01*
X48048000Y14873000D01*
X48114666Y14839667D01*
X48148000Y14839667D01*
X48214666Y14873000D01*
X48248000Y14939667D01*
X48248000Y15039667D01*
X48214666Y15106334D01*
X47781333Y15439667D02*
X48481333Y15439667D01*
X48048000Y15506334D02*
X47781333Y15706334D01*
X48248000Y15706334D02*
X47981333Y15439667D01*
X47781333Y16006334D02*
X48248000Y16006334D01*
X48481333Y16006334D02*
X48448000Y15973000D01*
X48414666Y16006334D01*
X48448000Y16039667D01*
X48481333Y16006334D01*
X48414666Y16006334D01*
X47814666Y16306334D02*
X47781333Y16373000D01*
X47781333Y16506334D01*
X47814666Y16573000D01*
X47881333Y16606334D01*
X47914666Y16606334D01*
X47981333Y16573000D01*
X48014666Y16506334D01*
X48014666Y16406334D01*
X48048000Y16339667D01*
X48114666Y16306334D01*
X48148000Y16306334D01*
X48214666Y16339667D01*
X48248000Y16406334D01*
X48248000Y16506334D01*
X48214666Y16573000D01*
X46581333Y8623000D02*
X46914666Y8389667D01*
X46581333Y8223000D02*
X47281333Y8223000D01*
X47281333Y8489667D01*
X47248000Y8556334D01*
X47214666Y8589667D01*
X47148000Y8623000D01*
X47048000Y8623000D01*
X46981333Y8589667D01*
X46948000Y8556334D01*
X46914666Y8489667D01*
X46914666Y8223000D01*
X46614666Y9189667D02*
X46581333Y9123000D01*
X46581333Y8989667D01*
X46614666Y8923000D01*
X46681333Y8889667D01*
X46948000Y8889667D01*
X47014666Y8923000D01*
X47048000Y8989667D01*
X47048000Y9123000D01*
X47014666Y9189667D01*
X46948000Y9223000D01*
X46881333Y9223000D01*
X46814666Y8889667D01*
X47048000Y9456334D02*
X46581333Y9623000D01*
X47048000Y9789667D01*
X46781333Y10556334D02*
X46781333Y10889667D01*
X46581333Y10489667D02*
X47281333Y10723000D01*
X46581333Y10956334D01*
X46348000Y11889667D02*
X47348000Y11889667D01*
X47281333Y13056334D02*
X47281333Y13123000D01*
X47248000Y13189667D01*
X47214666Y13223000D01*
X47148000Y13256334D01*
X47014666Y13289667D01*
X46848000Y13289667D01*
X46714666Y13256334D01*
X46648000Y13223000D01*
X46614666Y13189667D01*
X46581333Y13123000D01*
X46581333Y13056334D01*
X46614666Y12989667D01*
X46648000Y12956334D01*
X46714666Y12923000D01*
X46848000Y12889667D01*
X47014666Y12889667D01*
X47148000Y12923000D01*
X47214666Y12956334D01*
X47248000Y12989667D01*
X47281333Y13056334D01*
X46981333Y13689667D02*
X47014666Y13623000D01*
X47048000Y13589667D01*
X47114666Y13556334D01*
X47148000Y13556334D01*
X47214666Y13589667D01*
X47248000Y13623000D01*
X47281333Y13689667D01*
X47281333Y13823000D01*
X47248000Y13889667D01*
X47214666Y13923000D01*
X47148000Y13956334D01*
X47114666Y13956334D01*
X47048000Y13923000D01*
X47014666Y13889667D01*
X46981333Y13823000D01*
X46981333Y13689667D01*
X46948000Y13623000D01*
X46914666Y13589667D01*
X46848000Y13556334D01*
X46714666Y13556334D01*
X46648000Y13589667D01*
X46614666Y13623000D01*
X46581333Y13689667D01*
X46581333Y13823000D01*
X46614666Y13889667D01*
X46648000Y13923000D01*
X46714666Y13956334D01*
X46848000Y13956334D01*
X46914666Y13923000D01*
X46948000Y13889667D01*
X46981333Y13823000D01*
X46648000Y14256334D02*
X46614666Y14289667D01*
X46581333Y14256334D01*
X46614666Y14223000D01*
X46648000Y14256334D01*
X46581333Y14256334D01*
X47214666Y14556334D02*
X47248000Y14589667D01*
X47281333Y14656334D01*
X47281333Y14823000D01*
X47248000Y14889667D01*
X47214666Y14923000D01*
X47148000Y14956334D01*
X47081333Y14956334D01*
X46981333Y14923000D01*
X46581333Y14523000D01*
X46581333Y14956334D01*
X47281333Y15389667D02*
X47281333Y15456334D01*
X47248000Y15523000D01*
X47214666Y15556334D01*
X47148000Y15589667D01*
X47014666Y15623000D01*
X46848000Y15623000D01*
X46714666Y15589667D01*
X46648000Y15556334D01*
X46614666Y15523000D01*
X46581333Y15456334D01*
X46581333Y15389667D01*
X46614666Y15323000D01*
X46648000Y15289667D01*
X46714666Y15256334D01*
X46848000Y15223000D01*
X47014666Y15223000D01*
X47148000Y15256334D01*
X47214666Y15289667D01*
X47248000Y15323000D01*
X47281333Y15389667D01*
X46581333Y16289667D02*
X46581333Y15889667D01*
X46581333Y16089667D02*
X47281333Y16089667D01*
X47181333Y16023000D01*
X47114666Y15956334D01*
X47081333Y15889667D01*
X46581333Y16623000D02*
X46581333Y16756334D01*
X46614666Y16823000D01*
X46648000Y16856334D01*
X46748000Y16923000D01*
X46881333Y16956334D01*
X47148000Y16956334D01*
X47214666Y16923000D01*
X47248000Y16889667D01*
X47281333Y16823000D01*
X47281333Y16689667D01*
X47248000Y16623000D01*
X47214666Y16589667D01*
X47148000Y16556334D01*
X46981333Y16556334D01*
X46914666Y16589667D01*
X46881333Y16623000D01*
X46848000Y16689667D01*
X46848000Y16823000D01*
X46881333Y16889667D01*
X46914666Y16923000D01*
X46981333Y16956334D01*
D11*
X46140857Y20241572D02*
X49140857Y20241572D01*
X46140857Y21955858D02*
X47855142Y20670143D01*
X49140857Y21955858D02*
X47426571Y20241572D01*
X46140857Y23241572D02*
X48140857Y23241572D01*
X49140857Y23241572D02*
X48998000Y23098715D01*
X48855142Y23241572D01*
X48998000Y23384429D01*
X49140857Y23241572D01*
X48855142Y23241572D01*
X46283714Y25813000D02*
X46140857Y25527286D01*
X46140857Y24955858D01*
X46283714Y24670143D01*
X46569428Y24527286D01*
X47712285Y24527286D01*
X47998000Y24670143D01*
X48140857Y24955858D01*
X48140857Y25527286D01*
X47998000Y25813000D01*
X47712285Y25955858D01*
X47426571Y25955858D01*
X47140857Y24527286D01*
X46140857Y27670143D02*
X46283714Y27384429D01*
X46569428Y27241572D01*
X49140857Y27241572D01*
X49140857Y32527286D02*
X49140857Y31098715D01*
X47712285Y30955858D01*
X47855142Y31098715D01*
X47998000Y31384429D01*
X47998000Y32098715D01*
X47855142Y32384429D01*
X47712285Y32527286D01*
X47426571Y32670143D01*
X46712285Y32670143D01*
X46426571Y32527286D01*
X46283714Y32384429D01*
X46140857Y32098715D01*
X46140857Y31384429D01*
X46283714Y31098715D01*
X46426571Y30955858D01*
X49140857Y34527286D02*
X49140857Y34813000D01*
X48998000Y35098715D01*
X48855142Y35241572D01*
X48569428Y35384429D01*
X47998000Y35527286D01*
X47283714Y35527286D01*
X46712285Y35384429D01*
X46426571Y35241572D01*
X46283714Y35098715D01*
X46140857Y34813000D01*
X46140857Y34527286D01*
X46283714Y34241572D01*
X46426571Y34098715D01*
X46712285Y33955858D01*
X47283714Y33813000D01*
X47998000Y33813000D01*
X48569428Y33955858D01*
X48855142Y34098715D01*
X48998000Y34241572D01*
X49140857Y34527286D01*
D10*
X68580000Y5080000D02*
X78740000Y5080000D01*
X83820000Y9906000D02*
X78740000Y5080000D01*
X78994000Y53340000D02*
X78740000Y53340000D01*
X83820000Y48260000D02*
X78994000Y53340000D01*
X83820000Y9906000D02*
X83820000Y48260000D01*
X64516000Y53340000D02*
X78994000Y53340000D01*
X64516000Y53340000D02*
X0Y53340000D01*
X66040000Y2540000D02*
X68580000Y5080000D01*
X66040000Y0D02*
X66040000Y2540000D01*
X0Y0D02*
X66040000Y0D01*
X0Y53340000D02*
X0Y0D01*
D12*
X25092000Y25900000D02*
X23777000Y25900000D01*
X25092000Y25600000D02*
X25092000Y25900000D01*
X25392000Y25600000D02*
X25092000Y25600000D01*
X32312000Y25600000D02*
X32312000Y25900000D01*
X32012000Y25600000D02*
X32312000Y25600000D01*
X25092000Y32820000D02*
X25092000Y32520000D01*
X25392000Y32820000D02*
X25092000Y32820000D01*
X32312000Y32820000D02*
X32312000Y32520000D01*
X32012000Y32820000D02*
X32312000Y32820000D01*
X73427000Y51529064D02*
X73427000Y50324936D01*
X71607000Y51529064D02*
X71607000Y50324936D01*
X75840000Y51529064D02*
X75840000Y50324936D01*
X74020000Y51529064D02*
X74020000Y50324936D01*
X71014000Y51529064D02*
X71014000Y50324936D01*
X69194000Y51529064D02*
X69194000Y50324936D01*
X78253000Y51529064D02*
X78253000Y50324936D01*
X76433000Y51529064D02*
X76433000Y50324936D01*
X20007078Y20880000D02*
X19489922Y20880000D01*
X20007078Y22300000D02*
X19489922Y22300000D01*
X68601000Y51529064D02*
X68601000Y50324936D01*
X66781000Y51529064D02*
X66781000Y50324936D01*
X14616500Y16514578D02*
X14616500Y15997422D01*
X13196500Y16514578D02*
X13196500Y15997422D01*
X65718000Y38628064D02*
X65718000Y34523936D01*
X62298000Y38628064D02*
X62298000Y34523936D01*
X16272000Y4637000D02*
X16272000Y3237000D01*
X16972000Y2537000D02*
X17572000Y2537000D01*
X18272000Y3237000D02*
X18272000Y4637000D01*
X17572000Y5337000D02*
X16972000Y5337000D01*
X16972000Y5337000D02*
G75*
G03X16272000Y4637000I0J-700000D01*
G01*
X18272000Y4637000D02*
G75*
G03X17572000Y5337000I-700000J0D01*
G01*
X17572000Y2537000D02*
G75*
G03X18272000Y3237000I0J700000D01*
G01*
X16272000Y3237000D02*
G75*
G03X16972000Y2537000I700000J0D01*
G01*
X31685000Y45863000D02*
X33085000Y45863000D01*
X33785000Y46563000D02*
X33785000Y47163000D01*
X33085000Y47863000D02*
X31685000Y47863000D01*
X30985000Y47163000D02*
X30985000Y46563000D01*
X30985000Y46563000D02*
G75*
G03X31685000Y45863000I700000J0D01*
G01*
X31685000Y47863000D02*
G75*
G03X30985000Y47163000I0J-700000D01*
G01*
X33785000Y47163000D02*
G75*
G03X33085000Y47863000I-700000J0D01*
G01*
X33085000Y45863000D02*
G75*
G03X33785000Y46563000I0J700000D01*
G01*
X31618422Y42874000D02*
X32135578Y42874000D01*
X31618422Y41454000D02*
X32135578Y41454000D01*
X19054578Y23674000D02*
X18537422Y23674000D01*
X19054578Y25094000D02*
X18537422Y25094000D01*
X18800578Y33834000D02*
X18283422Y33834000D01*
X18800578Y35254000D02*
X18283422Y35254000D01*
X18802878Y31103500D02*
X18285722Y31103500D01*
X18802878Y32523500D02*
X18285722Y32523500D01*
X18800578Y28754000D02*
X18283422Y28754000D01*
X18800578Y30174000D02*
X18283422Y30174000D01*
X18800578Y26214000D02*
X18283422Y26214000D01*
X18800578Y27634000D02*
X18283422Y27634000D01*
X26531500Y41841922D02*
X26531500Y42359078D01*
X27951500Y41841922D02*
X27951500Y42359078D01*
X25395422Y13638600D02*
X25912578Y13638600D01*
X25395422Y12218600D02*
X25912578Y12218600D01*
X10466000Y45588422D02*
X10466000Y46105578D01*
X11886000Y45588422D02*
X11886000Y46105578D01*
X6227578Y42660500D02*
X5710422Y42660500D01*
X6227578Y44080500D02*
X5710422Y44080500D01*
X13600500Y42041578D02*
X13600500Y41524422D01*
X12180500Y42041578D02*
X12180500Y41524422D01*
X12775000Y38231578D02*
X12775000Y37714422D01*
X11355000Y38231578D02*
X11355000Y37714422D01*
X37832388Y46670796D02*
X37466704Y46305112D01*
X36828296Y47674888D02*
X36462612Y47309204D01*
X28833578Y9450000D02*
X28316422Y9450000D01*
X28833578Y10870000D02*
X28316422Y10870000D01*
X28833578Y6910000D02*
X28316422Y6910000D01*
X28833578Y8330000D02*
X28316422Y8330000D01*
X6729000Y39743500D02*
X5269000Y39743500D01*
X6729000Y36583500D02*
X4569000Y36583500D01*
X6729000Y36583500D02*
X6729000Y37513500D01*
X6729000Y39743500D02*
X6729000Y38813500D01*
X2865000Y34415000D02*
X2865000Y32955000D01*
X6025000Y34415000D02*
X6025000Y32255000D01*
X6025000Y34415000D02*
X5095000Y34415000D01*
X2865000Y34415000D02*
X3795000Y34415000D01*
X41750064Y41762000D02*
X40545936Y41762000D01*
X41750064Y43582000D02*
X40545936Y43582000D01*
X18795000Y12983000D02*
X18795000Y18383000D01*
X15495000Y12983000D02*
X15495000Y18383000D01*
X18795000Y12983000D02*
X15495000Y12983000D01*
X25498000Y43814000D02*
X20098000Y43814000D01*
X25498000Y40514000D02*
X20098000Y40514000D01*
X25498000Y43814000D02*
X25498000Y40514000D01*
X60119522Y17905800D02*
X60636678Y17905800D01*
X60119522Y16485800D02*
X60636678Y16485800D01*
X60119522Y21667400D02*
X60636678Y21667400D01*
X60119522Y23087400D02*
X60636678Y23087400D01*
X60119522Y28675400D02*
X60636678Y28675400D01*
X60119522Y27255400D02*
X60636678Y27255400D01*
X36555000Y20162436D02*
X36555000Y21366564D01*
X38375000Y20162436D02*
X38375000Y21366564D01*
X37116936Y27199000D02*
X38321064Y27199000D01*
X37116936Y25379000D02*
X38321064Y25379000D01*
X38005936Y32088500D02*
X39210064Y32088500D01*
X38005936Y30268500D02*
X39210064Y30268500D01*
X32310000Y19934422D02*
X32310000Y20451578D01*
X33730000Y19934422D02*
X33730000Y20451578D01*
X29897000Y19934422D02*
X29897000Y20451578D01*
X31317000Y19934422D02*
X31317000Y20451578D01*
X27018064Y18775000D02*
X25813936Y18775000D01*
X27018064Y20595000D02*
X25813936Y20595000D01*
D10*
X29463904Y23877620D02*
X29463904Y23068096D01*
X29416285Y22972858D01*
X29368666Y22925239D01*
X29273428Y22877620D01*
X29082952Y22877620D01*
X28987714Y22925239D01*
X28940095Y22972858D01*
X28892476Y23068096D01*
X28892476Y23877620D01*
X27892476Y22877620D02*
X28463904Y22877620D01*
X28178190Y22877620D02*
X28178190Y23877620D01*
X28273428Y23734762D01*
X28368666Y23639524D01*
X28463904Y23591905D01*
X71054142Y51569858D02*
X71101761Y51617477D01*
X71149380Y51760334D01*
X71149380Y51855572D01*
X71101761Y51998429D01*
X71006523Y52093667D01*
X70911285Y52141286D01*
X70720809Y52188905D01*
X70577952Y52188905D01*
X70387476Y52141286D01*
X70292238Y52093667D01*
X70197000Y51998429D01*
X70149380Y51855572D01*
X70149380Y51760334D01*
X70197000Y51617477D01*
X70244619Y51569858D01*
X70244619Y51188905D02*
X70197000Y51141286D01*
X70149380Y51046048D01*
X70149380Y50807953D01*
X70197000Y50712715D01*
X70244619Y50665096D01*
X70339857Y50617477D01*
X70435095Y50617477D01*
X70577952Y50665096D01*
X71149380Y51236524D01*
X71149380Y50617477D01*
X70149380Y49712715D02*
X70149380Y50188905D01*
X70625571Y50236524D01*
X70577952Y50188905D01*
X70530333Y50093667D01*
X70530333Y49855572D01*
X70577952Y49760334D01*
X70625571Y49712715D01*
X70720809Y49665096D01*
X70958904Y49665096D01*
X71054142Y49712715D01*
X71101761Y49760334D01*
X71149380Y49855572D01*
X71149380Y50093667D01*
X71101761Y50188905D01*
X71054142Y50236524D01*
X73467142Y51569858D02*
X73514761Y51617477D01*
X73562380Y51760334D01*
X73562380Y51855572D01*
X73514761Y51998429D01*
X73419523Y52093667D01*
X73324285Y52141286D01*
X73133809Y52188905D01*
X72990952Y52188905D01*
X72800476Y52141286D01*
X72705238Y52093667D01*
X72610000Y51998429D01*
X72562380Y51855572D01*
X72562380Y51760334D01*
X72610000Y51617477D01*
X72657619Y51569858D01*
X72657619Y51188905D02*
X72610000Y51141286D01*
X72562380Y51046048D01*
X72562380Y50807953D01*
X72610000Y50712715D01*
X72657619Y50665096D01*
X72752857Y50617477D01*
X72848095Y50617477D01*
X72990952Y50665096D01*
X73562380Y51236524D01*
X73562380Y50617477D01*
X72895714Y49760334D02*
X73562380Y49760334D01*
X72514761Y49998429D02*
X73229047Y50236524D01*
X73229047Y49617477D01*
X68641142Y51569858D02*
X68688761Y51617477D01*
X68736380Y51760334D01*
X68736380Y51855572D01*
X68688761Y51998429D01*
X68593523Y52093667D01*
X68498285Y52141286D01*
X68307809Y52188905D01*
X68164952Y52188905D01*
X67974476Y52141286D01*
X67879238Y52093667D01*
X67784000Y51998429D01*
X67736380Y51855572D01*
X67736380Y51760334D01*
X67784000Y51617477D01*
X67831619Y51569858D01*
X67831619Y51188905D02*
X67784000Y51141286D01*
X67736380Y51046048D01*
X67736380Y50807953D01*
X67784000Y50712715D01*
X67831619Y50665096D01*
X67926857Y50617477D01*
X68022095Y50617477D01*
X68164952Y50665096D01*
X68736380Y51236524D01*
X68736380Y50617477D01*
X67736380Y50284143D02*
X67736380Y49665096D01*
X68117333Y49998429D01*
X68117333Y49855572D01*
X68164952Y49760334D01*
X68212571Y49712715D01*
X68307809Y49665096D01*
X68545904Y49665096D01*
X68641142Y49712715D01*
X68688761Y49760334D01*
X68736380Y49855572D01*
X68736380Y50141286D01*
X68688761Y50236524D01*
X68641142Y50284143D01*
X75880142Y51569858D02*
X75927761Y51617477D01*
X75975380Y51760334D01*
X75975380Y51855572D01*
X75927761Y51998429D01*
X75832523Y52093667D01*
X75737285Y52141286D01*
X75546809Y52188905D01*
X75403952Y52188905D01*
X75213476Y52141286D01*
X75118238Y52093667D01*
X75023000Y51998429D01*
X74975380Y51855572D01*
X74975380Y51760334D01*
X75023000Y51617477D01*
X75070619Y51569858D01*
X75070619Y51188905D02*
X75023000Y51141286D01*
X74975380Y51046048D01*
X74975380Y50807953D01*
X75023000Y50712715D01*
X75070619Y50665096D01*
X75165857Y50617477D01*
X75261095Y50617477D01*
X75403952Y50665096D01*
X75975380Y51236524D01*
X75975380Y50617477D01*
X75070619Y50236524D02*
X75023000Y50188905D01*
X74975380Y50093667D01*
X74975380Y49855572D01*
X75023000Y49760334D01*
X75070619Y49712715D01*
X75165857Y49665096D01*
X75261095Y49665096D01*
X75403952Y49712715D01*
X75975380Y50284143D01*
X75975380Y49665096D01*
X20391357Y22882858D02*
X20438976Y22835239D01*
X20581833Y22787620D01*
X20677071Y22787620D01*
X20819928Y22835239D01*
X20915166Y22930477D01*
X20962785Y23025715D01*
X21010404Y23216191D01*
X21010404Y23359048D01*
X20962785Y23549524D01*
X20915166Y23644762D01*
X20819928Y23740000D01*
X20677071Y23787620D01*
X20581833Y23787620D01*
X20438976Y23740000D01*
X20391357Y23692381D01*
X19438976Y22787620D02*
X20010404Y22787620D01*
X19724690Y22787620D02*
X19724690Y23787620D01*
X19819928Y23644762D01*
X19915166Y23549524D01*
X20010404Y23501905D01*
X18581833Y23454286D02*
X18581833Y22787620D01*
X18819928Y23835239D02*
X19058023Y23120953D01*
X18438976Y23120953D01*
X66228142Y51093667D02*
X66275761Y51141286D01*
X66323380Y51284143D01*
X66323380Y51379381D01*
X66275761Y51522239D01*
X66180523Y51617477D01*
X66085285Y51665096D01*
X65894809Y51712715D01*
X65751952Y51712715D01*
X65561476Y51665096D01*
X65466238Y51617477D01*
X65371000Y51522239D01*
X65323380Y51379381D01*
X65323380Y51284143D01*
X65371000Y51141286D01*
X65418619Y51093667D01*
X66323380Y50617477D02*
X66323380Y50427000D01*
X66275761Y50331762D01*
X66228142Y50284143D01*
X66085285Y50188905D01*
X65894809Y50141286D01*
X65513857Y50141286D01*
X65418619Y50188905D01*
X65371000Y50236524D01*
X65323380Y50331762D01*
X65323380Y50522239D01*
X65371000Y50617477D01*
X65418619Y50665096D01*
X65513857Y50712715D01*
X65751952Y50712715D01*
X65847190Y50665096D01*
X65894809Y50617477D01*
X65942428Y50522239D01*
X65942428Y50331762D01*
X65894809Y50236524D01*
X65847190Y50188905D01*
X65751952Y50141286D01*
X12613642Y16422667D02*
X12661261Y16470286D01*
X12708880Y16613143D01*
X12708880Y16708381D01*
X12661261Y16851239D01*
X12566023Y16946477D01*
X12470785Y16994096D01*
X12280309Y17041715D01*
X12137452Y17041715D01*
X11946976Y16994096D01*
X11851738Y16946477D01*
X11756500Y16851239D01*
X11708880Y16708381D01*
X11708880Y16613143D01*
X11756500Y16470286D01*
X11804119Y16422667D01*
X11708880Y16089334D02*
X11708880Y15470286D01*
X12089833Y15803620D01*
X12089833Y15660762D01*
X12137452Y15565524D01*
X12185071Y15517905D01*
X12280309Y15470286D01*
X12518404Y15470286D01*
X12613642Y15517905D01*
X12661261Y15565524D01*
X12708880Y15660762D01*
X12708880Y15946477D01*
X12661261Y16041715D01*
X12613642Y16089334D01*
X61840380Y37218858D02*
X61364190Y37552191D01*
X61840380Y37790286D02*
X60840380Y37790286D01*
X60840380Y37409334D01*
X60888000Y37314096D01*
X60935619Y37266477D01*
X61030857Y37218858D01*
X61173714Y37218858D01*
X61268952Y37266477D01*
X61316571Y37314096D01*
X61364190Y37409334D01*
X61364190Y37790286D01*
X61840380Y36266477D02*
X61840380Y36837905D01*
X61840380Y36552191D02*
X60840380Y36552191D01*
X60983238Y36647429D01*
X61078476Y36742667D01*
X61126095Y36837905D01*
X61840380Y35790286D02*
X61840380Y35599810D01*
X61792761Y35504572D01*
X61745142Y35456953D01*
X61602285Y35361715D01*
X61411809Y35314096D01*
X61030857Y35314096D01*
X60935619Y35361715D01*
X60888000Y35409334D01*
X60840380Y35504572D01*
X60840380Y35695048D01*
X60888000Y35790286D01*
X60935619Y35837905D01*
X61030857Y35885524D01*
X61268952Y35885524D01*
X61364190Y35837905D01*
X61411809Y35790286D01*
X61459428Y35695048D01*
X61459428Y35504572D01*
X61411809Y35409334D01*
X61364190Y35361715D01*
X61268952Y35314096D01*
X14924380Y4770334D02*
X15638666Y4770334D01*
X15781523Y4817953D01*
X15876761Y4913191D01*
X15924380Y5056048D01*
X15924380Y5151286D01*
X15924380Y4294143D02*
X14924380Y4294143D01*
X14924380Y3913191D01*
X14972000Y3817953D01*
X15019619Y3770334D01*
X15114857Y3722715D01*
X15257714Y3722715D01*
X15352952Y3770334D01*
X15400571Y3817953D01*
X15448190Y3913191D01*
X15448190Y4294143D01*
X15019619Y3341762D02*
X14972000Y3294143D01*
X14924380Y3198905D01*
X14924380Y2960810D01*
X14972000Y2865572D01*
X15019619Y2817953D01*
X15114857Y2770334D01*
X15210095Y2770334D01*
X15352952Y2817953D01*
X15924380Y3389381D01*
X15924380Y2770334D01*
X33218333Y45610620D02*
X33218333Y44896334D01*
X33265952Y44753477D01*
X33361190Y44658239D01*
X33504047Y44610620D01*
X33599285Y44610620D01*
X32742142Y44610620D02*
X32742142Y45610620D01*
X32361190Y45610620D01*
X32265952Y45563000D01*
X32218333Y45515381D01*
X32170714Y45420143D01*
X32170714Y45277286D01*
X32218333Y45182048D01*
X32265952Y45134429D01*
X32361190Y45086810D01*
X32742142Y45086810D01*
X31218333Y44610620D02*
X31789761Y44610620D01*
X31504047Y44610620D02*
X31504047Y45610620D01*
X31599285Y45467762D01*
X31694523Y45372524D01*
X31789761Y45324905D01*
X32519857Y40061620D02*
X32853190Y40537810D01*
X33091285Y40061620D02*
X33091285Y41061620D01*
X32710333Y41061620D01*
X32615095Y41014000D01*
X32567476Y40966381D01*
X32519857Y40871143D01*
X32519857Y40728286D01*
X32567476Y40633048D01*
X32615095Y40585429D01*
X32710333Y40537810D01*
X33091285Y40537810D01*
X32186523Y41061620D02*
X31567476Y41061620D01*
X31900809Y40680667D01*
X31757952Y40680667D01*
X31662714Y40633048D01*
X31615095Y40585429D01*
X31567476Y40490191D01*
X31567476Y40252096D01*
X31615095Y40156858D01*
X31662714Y40109239D01*
X31757952Y40061620D01*
X32043666Y40061620D01*
X32138904Y40109239D01*
X32186523Y40156858D01*
X30615095Y40061620D02*
X31186523Y40061620D01*
X30900809Y40061620D02*
X30900809Y41061620D01*
X30996047Y40918762D01*
X31091285Y40823524D01*
X31186523Y40775905D01*
X19438857Y25581620D02*
X19772190Y26057810D01*
X20010285Y25581620D02*
X20010285Y26581620D01*
X19629333Y26581620D01*
X19534095Y26534000D01*
X19486476Y26486381D01*
X19438857Y26391143D01*
X19438857Y26248286D01*
X19486476Y26153048D01*
X19534095Y26105429D01*
X19629333Y26057810D01*
X20010285Y26057810D01*
X18486476Y25581620D02*
X19057904Y25581620D01*
X18772190Y25581620D02*
X18772190Y26581620D01*
X18867428Y26438762D01*
X18962666Y26343524D01*
X19057904Y26295905D01*
X17915047Y26153048D02*
X18010285Y26200667D01*
X18057904Y26248286D01*
X18105523Y26343524D01*
X18105523Y26391143D01*
X18057904Y26486381D01*
X18010285Y26534000D01*
X17915047Y26581620D01*
X17724571Y26581620D01*
X17629333Y26534000D01*
X17581714Y26486381D01*
X17534095Y26391143D01*
X17534095Y26343524D01*
X17581714Y26248286D01*
X17629333Y26200667D01*
X17724571Y26153048D01*
X17915047Y26153048D01*
X18010285Y26105429D01*
X18057904Y26057810D01*
X18105523Y25962572D01*
X18105523Y25772096D01*
X18057904Y25676858D01*
X18010285Y25629239D01*
X17915047Y25581620D01*
X17724571Y25581620D01*
X17629333Y25629239D01*
X17581714Y25676858D01*
X17534095Y25772096D01*
X17534095Y25962572D01*
X17581714Y26057810D01*
X17629333Y26105429D01*
X17724571Y26153048D01*
X19184857Y35741620D02*
X19518190Y36217810D01*
X19756285Y35741620D02*
X19756285Y36741620D01*
X19375333Y36741620D01*
X19280095Y36694000D01*
X19232476Y36646381D01*
X19184857Y36551143D01*
X19184857Y36408286D01*
X19232476Y36313048D01*
X19280095Y36265429D01*
X19375333Y36217810D01*
X19756285Y36217810D01*
X18232476Y35741620D02*
X18803904Y35741620D01*
X18518190Y35741620D02*
X18518190Y36741620D01*
X18613428Y36598762D01*
X18708666Y36503524D01*
X18803904Y36455905D01*
X17899142Y36741620D02*
X17232476Y36741620D01*
X17661047Y35741620D01*
X19187157Y33011120D02*
X19520490Y33487310D01*
X19758585Y33011120D02*
X19758585Y34011120D01*
X19377633Y34011120D01*
X19282395Y33963500D01*
X19234776Y33915881D01*
X19187157Y33820643D01*
X19187157Y33677786D01*
X19234776Y33582548D01*
X19282395Y33534929D01*
X19377633Y33487310D01*
X19758585Y33487310D01*
X18234776Y33011120D02*
X18806204Y33011120D01*
X18520490Y33011120D02*
X18520490Y34011120D01*
X18615728Y33868262D01*
X18710966Y33773024D01*
X18806204Y33725405D01*
X17377633Y34011120D02*
X17568109Y34011120D01*
X17663347Y33963500D01*
X17710966Y33915881D01*
X17806204Y33773024D01*
X17853823Y33582548D01*
X17853823Y33201596D01*
X17806204Y33106358D01*
X17758585Y33058739D01*
X17663347Y33011120D01*
X17472871Y33011120D01*
X17377633Y33058739D01*
X17330014Y33106358D01*
X17282395Y33201596D01*
X17282395Y33439691D01*
X17330014Y33534929D01*
X17377633Y33582548D01*
X17472871Y33630167D01*
X17663347Y33630167D01*
X17758585Y33582548D01*
X17806204Y33534929D01*
X17853823Y33439691D01*
X19184857Y30661620D02*
X19518190Y31137810D01*
X19756285Y30661620D02*
X19756285Y31661620D01*
X19375333Y31661620D01*
X19280095Y31614000D01*
X19232476Y31566381D01*
X19184857Y31471143D01*
X19184857Y31328286D01*
X19232476Y31233048D01*
X19280095Y31185429D01*
X19375333Y31137810D01*
X19756285Y31137810D01*
X18232476Y30661620D02*
X18803904Y30661620D01*
X18518190Y30661620D02*
X18518190Y31661620D01*
X18613428Y31518762D01*
X18708666Y31423524D01*
X18803904Y31375905D01*
X17327714Y31661620D02*
X17803904Y31661620D01*
X17851523Y31185429D01*
X17803904Y31233048D01*
X17708666Y31280667D01*
X17470571Y31280667D01*
X17375333Y31233048D01*
X17327714Y31185429D01*
X17280095Y31090191D01*
X17280095Y30852096D01*
X17327714Y30756858D01*
X17375333Y30709239D01*
X17470571Y30661620D01*
X17708666Y30661620D01*
X17803904Y30709239D01*
X17851523Y30756858D01*
X19184857Y28121620D02*
X19518190Y28597810D01*
X19756285Y28121620D02*
X19756285Y29121620D01*
X19375333Y29121620D01*
X19280095Y29074000D01*
X19232476Y29026381D01*
X19184857Y28931143D01*
X19184857Y28788286D01*
X19232476Y28693048D01*
X19280095Y28645429D01*
X19375333Y28597810D01*
X19756285Y28597810D01*
X18232476Y28121620D02*
X18803904Y28121620D01*
X18518190Y28121620D02*
X18518190Y29121620D01*
X18613428Y28978762D01*
X18708666Y28883524D01*
X18803904Y28835905D01*
X17375333Y28788286D02*
X17375333Y28121620D01*
X17613428Y29169239D02*
X17851523Y28454953D01*
X17232476Y28454953D01*
X29343880Y42743358D02*
X28867690Y43076691D01*
X29343880Y43314786D02*
X28343880Y43314786D01*
X28343880Y42933834D01*
X28391500Y42838596D01*
X28439119Y42790977D01*
X28534357Y42743358D01*
X28677214Y42743358D01*
X28772452Y42790977D01*
X28820071Y42838596D01*
X28867690Y42933834D01*
X28867690Y43314786D01*
X29343880Y41790977D02*
X29343880Y42362405D01*
X29343880Y42076691D02*
X28343880Y42076691D01*
X28486738Y42171929D01*
X28581976Y42267167D01*
X28629595Y42362405D01*
X28439119Y41410024D02*
X28391500Y41362405D01*
X28343880Y41267167D01*
X28343880Y41029072D01*
X28391500Y40933834D01*
X28439119Y40886215D01*
X28534357Y40838596D01*
X28629595Y40838596D01*
X28772452Y40886215D01*
X29343880Y41457643D01*
X29343880Y40838596D01*
X26296857Y10826220D02*
X26630190Y11302410D01*
X26868285Y10826220D02*
X26868285Y11826220D01*
X26487333Y11826220D01*
X26392095Y11778600D01*
X26344476Y11730981D01*
X26296857Y11635743D01*
X26296857Y11492886D01*
X26344476Y11397648D01*
X26392095Y11350029D01*
X26487333Y11302410D01*
X26868285Y11302410D01*
X25344476Y10826220D02*
X25915904Y10826220D01*
X25630190Y10826220D02*
X25630190Y11826220D01*
X25725428Y11683362D01*
X25820666Y11588124D01*
X25915904Y11540505D01*
X24392095Y10826220D02*
X24963523Y10826220D01*
X24677809Y10826220D02*
X24677809Y11826220D01*
X24773047Y11683362D01*
X24868285Y11588124D01*
X24963523Y11540505D01*
X13278380Y46489858D02*
X12802190Y46823191D01*
X13278380Y47061286D02*
X12278380Y47061286D01*
X12278380Y46680334D01*
X12326000Y46585096D01*
X12373619Y46537477D01*
X12468857Y46489858D01*
X12611714Y46489858D01*
X12706952Y46537477D01*
X12754571Y46585096D01*
X12802190Y46680334D01*
X12802190Y47061286D01*
X13278380Y45537477D02*
X13278380Y46108905D01*
X13278380Y45823191D02*
X12278380Y45823191D01*
X12421238Y45918429D01*
X12516476Y46013667D01*
X12564095Y46108905D01*
X12278380Y44918429D02*
X12278380Y44823191D01*
X12326000Y44727953D01*
X12373619Y44680334D01*
X12468857Y44632715D01*
X12659333Y44585096D01*
X12897428Y44585096D01*
X13087904Y44632715D01*
X13183142Y44680334D01*
X13230761Y44727953D01*
X13278380Y44823191D01*
X13278380Y44918429D01*
X13230761Y45013667D01*
X13183142Y45061286D01*
X13087904Y45108905D01*
X12897428Y45156524D01*
X12659333Y45156524D01*
X12468857Y45108905D01*
X12373619Y45061286D01*
X12326000Y45013667D01*
X12278380Y44918429D01*
X6135666Y44568120D02*
X6469000Y45044310D01*
X6707095Y44568120D02*
X6707095Y45568120D01*
X6326142Y45568120D01*
X6230904Y45520500D01*
X6183285Y45472881D01*
X6135666Y45377643D01*
X6135666Y45234786D01*
X6183285Y45139548D01*
X6230904Y45091929D01*
X6326142Y45044310D01*
X6707095Y45044310D01*
X5659476Y44568120D02*
X5469000Y44568120D01*
X5373761Y44615739D01*
X5326142Y44663358D01*
X5230904Y44806215D01*
X5183285Y44996691D01*
X5183285Y45377643D01*
X5230904Y45472881D01*
X5278523Y45520500D01*
X5373761Y45568120D01*
X5564238Y45568120D01*
X5659476Y45520500D01*
X5707095Y45472881D01*
X5754714Y45377643D01*
X5754714Y45139548D01*
X5707095Y45044310D01*
X5659476Y44996691D01*
X5564238Y44949072D01*
X5373761Y44949072D01*
X5278523Y44996691D01*
X5230904Y45044310D01*
X5183285Y45139548D01*
X11692880Y41949667D02*
X11216690Y42283000D01*
X11692880Y42521096D02*
X10692880Y42521096D01*
X10692880Y42140143D01*
X10740500Y42044905D01*
X10788119Y41997286D01*
X10883357Y41949667D01*
X11026214Y41949667D01*
X11121452Y41997286D01*
X11169071Y42044905D01*
X11216690Y42140143D01*
X11216690Y42521096D01*
X11121452Y41378239D02*
X11073833Y41473477D01*
X11026214Y41521096D01*
X10930976Y41568715D01*
X10883357Y41568715D01*
X10788119Y41521096D01*
X10740500Y41473477D01*
X10692880Y41378239D01*
X10692880Y41187762D01*
X10740500Y41092524D01*
X10788119Y41044905D01*
X10883357Y40997286D01*
X10930976Y40997286D01*
X11026214Y41044905D01*
X11073833Y41092524D01*
X11121452Y41187762D01*
X11121452Y41378239D01*
X11169071Y41473477D01*
X11216690Y41521096D01*
X11311928Y41568715D01*
X11502404Y41568715D01*
X11597642Y41521096D01*
X11645261Y41473477D01*
X11692880Y41378239D01*
X11692880Y41187762D01*
X11645261Y41092524D01*
X11597642Y41044905D01*
X11502404Y40997286D01*
X11311928Y40997286D01*
X11216690Y41044905D01*
X11169071Y41092524D01*
X11121452Y41187762D01*
X10867380Y38139667D02*
X10391190Y38473000D01*
X10867380Y38711096D02*
X9867380Y38711096D01*
X9867380Y38330143D01*
X9915000Y38234905D01*
X9962619Y38187286D01*
X10057857Y38139667D01*
X10200714Y38139667D01*
X10295952Y38187286D01*
X10343571Y38234905D01*
X10391190Y38330143D01*
X10391190Y38711096D01*
X9867380Y37806334D02*
X9867380Y37139667D01*
X10867380Y37568239D01*
X36418506Y47954696D02*
X36317491Y48527116D01*
X36822567Y48358757D02*
X36115461Y49065864D01*
X35846086Y48796490D01*
X35812415Y48695475D01*
X35812415Y48628131D01*
X35846086Y48527116D01*
X35947102Y48426101D01*
X36048117Y48392429D01*
X36115461Y48392429D01*
X36216476Y48426101D01*
X36485850Y48695475D01*
X35105308Y48055711D02*
X35239995Y48190398D01*
X35341010Y48224070D01*
X35408354Y48224070D01*
X35576712Y48190398D01*
X35745071Y48089383D01*
X36014445Y47820009D01*
X36048117Y47718994D01*
X36048117Y47651650D01*
X36014445Y47550635D01*
X35879758Y47415948D01*
X35778743Y47382276D01*
X35711399Y47382276D01*
X35610384Y47415948D01*
X35442025Y47584307D01*
X35408354Y47685322D01*
X35408354Y47752665D01*
X35442025Y47853681D01*
X35576712Y47988368D01*
X35677728Y48022039D01*
X35745071Y48022039D01*
X35846086Y47988368D01*
X28741666Y11357620D02*
X29075000Y11833810D01*
X29313095Y11357620D02*
X29313095Y12357620D01*
X28932142Y12357620D01*
X28836904Y12310000D01*
X28789285Y12262381D01*
X28741666Y12167143D01*
X28741666Y12024286D01*
X28789285Y11929048D01*
X28836904Y11881429D01*
X28932142Y11833810D01*
X29313095Y11833810D01*
X27884523Y12024286D02*
X27884523Y11357620D01*
X28122619Y12405239D02*
X28360714Y11690953D01*
X27741666Y11690953D01*
X28741666Y8817620D02*
X29075000Y9293810D01*
X29313095Y8817620D02*
X29313095Y9817620D01*
X28932142Y9817620D01*
X28836904Y9770000D01*
X28789285Y9722381D01*
X28741666Y9627143D01*
X28741666Y9484286D01*
X28789285Y9389048D01*
X28836904Y9341429D01*
X28932142Y9293810D01*
X29313095Y9293810D01*
X28360714Y9722381D02*
X28313095Y9770000D01*
X28217857Y9817620D01*
X27979761Y9817620D01*
X27884523Y9770000D01*
X27836904Y9722381D01*
X27789285Y9627143D01*
X27789285Y9531905D01*
X27836904Y9389048D01*
X28408333Y8817620D01*
X27789285Y8817620D01*
X6064238Y35115881D02*
X6159476Y35163500D01*
X6254714Y35258739D01*
X6397571Y35401596D01*
X6492809Y35449215D01*
X6588047Y35449215D01*
X6540428Y35211120D02*
X6635666Y35258739D01*
X6730904Y35353977D01*
X6778523Y35544453D01*
X6778523Y35877786D01*
X6730904Y36068262D01*
X6635666Y36163500D01*
X6540428Y36211120D01*
X6349952Y36211120D01*
X6254714Y36163500D01*
X6159476Y36068262D01*
X6111857Y35877786D01*
X6111857Y35544453D01*
X6159476Y35353977D01*
X6254714Y35258739D01*
X6349952Y35211120D01*
X6540428Y35211120D01*
X5254714Y35877786D02*
X5254714Y35211120D01*
X5492809Y36258739D02*
X5730904Y35544453D01*
X5111857Y35544453D01*
X7492619Y33750239D02*
X7445000Y33845477D01*
X7349761Y33940715D01*
X7206904Y34083572D01*
X7159285Y34178810D01*
X7159285Y34274048D01*
X7397380Y34226429D02*
X7349761Y34321667D01*
X7254523Y34416905D01*
X7064047Y34464524D01*
X6730714Y34464524D01*
X6540238Y34416905D01*
X6445000Y34321667D01*
X6397380Y34226429D01*
X6397380Y34035953D01*
X6445000Y33940715D01*
X6540238Y33845477D01*
X6730714Y33797858D01*
X7064047Y33797858D01*
X7254523Y33845477D01*
X7349761Y33940715D01*
X7397380Y34035953D01*
X7397380Y34226429D01*
X6397380Y33464524D02*
X6397380Y32845477D01*
X6778333Y33178810D01*
X6778333Y33035953D01*
X6825952Y32940715D01*
X6873571Y32893096D01*
X6968809Y32845477D01*
X7206904Y32845477D01*
X7302142Y32893096D01*
X7349761Y32940715D01*
X7397380Y33035953D01*
X7397380Y33321667D01*
X7349761Y33416905D01*
X7302142Y33464524D01*
X41481333Y44563429D02*
X41814666Y44563429D01*
X41814666Y44039620D02*
X41814666Y45039620D01*
X41338476Y45039620D01*
X40433714Y44039620D02*
X41005142Y44039620D01*
X40719428Y44039620D02*
X40719428Y45039620D01*
X40814666Y44896762D01*
X40909904Y44801524D01*
X41005142Y44753905D01*
X20097380Y17121096D02*
X19097380Y17121096D01*
X19097380Y16883000D01*
X19145000Y16740143D01*
X19240238Y16644905D01*
X19335476Y16597286D01*
X19525952Y16549667D01*
X19668809Y16549667D01*
X19859285Y16597286D01*
X19954523Y16644905D01*
X20049761Y16740143D01*
X20097380Y16883000D01*
X20097380Y17121096D01*
X19430714Y15692524D02*
X20097380Y15692524D01*
X19049761Y15930620D02*
X19764047Y16168715D01*
X19764047Y15549667D01*
X22836095Y44211620D02*
X22836095Y45211620D01*
X22598000Y45211620D01*
X22455142Y45164000D01*
X22359904Y45068762D01*
X22312285Y44973524D01*
X22264666Y44783048D01*
X22264666Y44640191D01*
X22312285Y44449715D01*
X22359904Y44354477D01*
X22455142Y44259239D01*
X22598000Y44211620D01*
X22836095Y44211620D01*
X21883714Y45116381D02*
X21836095Y45164000D01*
X21740857Y45211620D01*
X21502761Y45211620D01*
X21407523Y45164000D01*
X21359904Y45116381D01*
X21312285Y45021143D01*
X21312285Y44925905D01*
X21359904Y44783048D01*
X21931333Y44211620D01*
X21312285Y44211620D01*
X61020957Y15188658D02*
X61068576Y15141039D01*
X61211433Y15093420D01*
X61306671Y15093420D01*
X61449528Y15141039D01*
X61544766Y15236277D01*
X61592385Y15331515D01*
X61640004Y15521991D01*
X61640004Y15664848D01*
X61592385Y15855324D01*
X61544766Y15950562D01*
X61449528Y16045800D01*
X61306671Y16093420D01*
X61211433Y16093420D01*
X61068576Y16045800D01*
X61020957Y15998181D01*
X60640004Y15998181D02*
X60592385Y16045800D01*
X60497147Y16093420D01*
X60259052Y16093420D01*
X60163814Y16045800D01*
X60116195Y15998181D01*
X60068576Y15902943D01*
X60068576Y15807705D01*
X60116195Y15664848D01*
X60687623Y15093420D01*
X60068576Y15093420D01*
X59449528Y16093420D02*
X59354290Y16093420D01*
X59259052Y16045800D01*
X59211433Y15998181D01*
X59163814Y15902943D01*
X59116195Y15712467D01*
X59116195Y15474372D01*
X59163814Y15283896D01*
X59211433Y15188658D01*
X59259052Y15141039D01*
X59354290Y15093420D01*
X59449528Y15093420D01*
X59544766Y15141039D01*
X59592385Y15188658D01*
X59640004Y15283896D01*
X59687623Y15474372D01*
X59687623Y15712467D01*
X59640004Y15902943D01*
X59592385Y15998181D01*
X59544766Y16045800D01*
X59449528Y16093420D01*
X61020957Y20370258D02*
X61068576Y20322639D01*
X61211433Y20275020D01*
X61306671Y20275020D01*
X61449528Y20322639D01*
X61544766Y20417877D01*
X61592385Y20513115D01*
X61640004Y20703591D01*
X61640004Y20846448D01*
X61592385Y21036924D01*
X61544766Y21132162D01*
X61449528Y21227400D01*
X61306671Y21275020D01*
X61211433Y21275020D01*
X61068576Y21227400D01*
X61020957Y21179781D01*
X60068576Y20275020D02*
X60640004Y20275020D01*
X60354290Y20275020D02*
X60354290Y21275020D01*
X60449528Y21132162D01*
X60544766Y21036924D01*
X60640004Y20989305D01*
X59592385Y20275020D02*
X59401909Y20275020D01*
X59306671Y20322639D01*
X59259052Y20370258D01*
X59163814Y20513115D01*
X59116195Y20703591D01*
X59116195Y21084543D01*
X59163814Y21179781D01*
X59211433Y21227400D01*
X59306671Y21275020D01*
X59497147Y21275020D01*
X59592385Y21227400D01*
X59640004Y21179781D01*
X59687623Y21084543D01*
X59687623Y20846448D01*
X59640004Y20751210D01*
X59592385Y20703591D01*
X59497147Y20655972D01*
X59306671Y20655972D01*
X59211433Y20703591D01*
X59163814Y20751210D01*
X59116195Y20846448D01*
X61020957Y25958258D02*
X61068576Y25910639D01*
X61211433Y25863020D01*
X61306671Y25863020D01*
X61449528Y25910639D01*
X61544766Y26005877D01*
X61592385Y26101115D01*
X61640004Y26291591D01*
X61640004Y26434448D01*
X61592385Y26624924D01*
X61544766Y26720162D01*
X61449528Y26815400D01*
X61306671Y26863020D01*
X61211433Y26863020D01*
X61068576Y26815400D01*
X61020957Y26767781D01*
X60068576Y25863020D02*
X60640004Y25863020D01*
X60354290Y25863020D02*
X60354290Y26863020D01*
X60449528Y26720162D01*
X60544766Y26624924D01*
X60640004Y26577305D01*
X59497147Y26434448D02*
X59592385Y26482067D01*
X59640004Y26529686D01*
X59687623Y26624924D01*
X59687623Y26672543D01*
X59640004Y26767781D01*
X59592385Y26815400D01*
X59497147Y26863020D01*
X59306671Y26863020D01*
X59211433Y26815400D01*
X59163814Y26767781D01*
X59116195Y26672543D01*
X59116195Y26624924D01*
X59163814Y26529686D01*
X59211433Y26482067D01*
X59306671Y26434448D01*
X59497147Y26434448D01*
X59592385Y26386829D01*
X59640004Y26339210D01*
X59687623Y26243972D01*
X59687623Y26053496D01*
X59640004Y25958258D01*
X59592385Y25910639D01*
X59497147Y25863020D01*
X59306671Y25863020D01*
X59211433Y25910639D01*
X59163814Y25958258D01*
X59116195Y26053496D01*
X59116195Y26243972D01*
X59163814Y26339210D01*
X59211433Y26386829D01*
X59306671Y26434448D01*
X39642142Y21407358D02*
X39689761Y21454977D01*
X39737380Y21597834D01*
X39737380Y21693072D01*
X39689761Y21835929D01*
X39594523Y21931167D01*
X39499285Y21978786D01*
X39308809Y22026405D01*
X39165952Y22026405D01*
X38975476Y21978786D01*
X38880238Y21931167D01*
X38785000Y21835929D01*
X38737380Y21693072D01*
X38737380Y21597834D01*
X38785000Y21454977D01*
X38832619Y21407358D01*
X39737380Y20454977D02*
X39737380Y21026405D01*
X39737380Y20740691D02*
X38737380Y20740691D01*
X38880238Y20835929D01*
X38975476Y20931167D01*
X39023095Y21026405D01*
X38737380Y20121643D02*
X38737380Y19454977D01*
X39737380Y19883548D01*
X38361857Y24111858D02*
X38409476Y24064239D01*
X38552333Y24016620D01*
X38647571Y24016620D01*
X38790428Y24064239D01*
X38885666Y24159477D01*
X38933285Y24254715D01*
X38980904Y24445191D01*
X38980904Y24588048D01*
X38933285Y24778524D01*
X38885666Y24873762D01*
X38790428Y24969000D01*
X38647571Y25016620D01*
X38552333Y25016620D01*
X38409476Y24969000D01*
X38361857Y24921381D01*
X37409476Y24016620D02*
X37980904Y24016620D01*
X37695190Y24016620D02*
X37695190Y25016620D01*
X37790428Y24873762D01*
X37885666Y24778524D01*
X37980904Y24730905D01*
X36552333Y25016620D02*
X36742809Y25016620D01*
X36838047Y24969000D01*
X36885666Y24921381D01*
X36980904Y24778524D01*
X37028523Y24588048D01*
X37028523Y24207096D01*
X36980904Y24111858D01*
X36933285Y24064239D01*
X36838047Y24016620D01*
X36647571Y24016620D01*
X36552333Y24064239D01*
X36504714Y24111858D01*
X36457095Y24207096D01*
X36457095Y24445191D01*
X36504714Y24540429D01*
X36552333Y24588048D01*
X36647571Y24635667D01*
X36838047Y24635667D01*
X36933285Y24588048D01*
X36980904Y24540429D01*
X37028523Y24445191D01*
X39250857Y29001358D02*
X39298476Y28953739D01*
X39441333Y28906120D01*
X39536571Y28906120D01*
X39679428Y28953739D01*
X39774666Y29048977D01*
X39822285Y29144215D01*
X39869904Y29334691D01*
X39869904Y29477548D01*
X39822285Y29668024D01*
X39774666Y29763262D01*
X39679428Y29858500D01*
X39536571Y29906120D01*
X39441333Y29906120D01*
X39298476Y29858500D01*
X39250857Y29810881D01*
X38298476Y28906120D02*
X38869904Y28906120D01*
X38584190Y28906120D02*
X38584190Y29906120D01*
X38679428Y29763262D01*
X38774666Y29668024D01*
X38869904Y29620405D01*
X37393714Y29906120D02*
X37869904Y29906120D01*
X37917523Y29429929D01*
X37869904Y29477548D01*
X37774666Y29525167D01*
X37536571Y29525167D01*
X37441333Y29477548D01*
X37393714Y29429929D01*
X37346095Y29334691D01*
X37346095Y29096596D01*
X37393714Y29001358D01*
X37441333Y28953739D01*
X37536571Y28906120D01*
X37774666Y28906120D01*
X37869904Y28953739D01*
X37917523Y29001358D01*
X35027142Y20835858D02*
X35074761Y20883477D01*
X35122380Y21026334D01*
X35122380Y21121572D01*
X35074761Y21264429D01*
X34979523Y21359667D01*
X34884285Y21407286D01*
X34693809Y21454905D01*
X34550952Y21454905D01*
X34360476Y21407286D01*
X34265238Y21359667D01*
X34170000Y21264429D01*
X34122380Y21121572D01*
X34122380Y21026334D01*
X34170000Y20883477D01*
X34217619Y20835858D01*
X35122380Y19883477D02*
X35122380Y20454905D01*
X35122380Y20169191D02*
X34122380Y20169191D01*
X34265238Y20264429D01*
X34360476Y20359667D01*
X34408095Y20454905D01*
X34217619Y19502524D02*
X34170000Y19454905D01*
X34122380Y19359667D01*
X34122380Y19121572D01*
X34170000Y19026334D01*
X34217619Y18978715D01*
X34312857Y18931096D01*
X34408095Y18931096D01*
X34550952Y18978715D01*
X35122380Y19550143D01*
X35122380Y18931096D01*
X32614142Y20835858D02*
X32661761Y20883477D01*
X32709380Y21026334D01*
X32709380Y21121572D01*
X32661761Y21264429D01*
X32566523Y21359667D01*
X32471285Y21407286D01*
X32280809Y21454905D01*
X32137952Y21454905D01*
X31947476Y21407286D01*
X31852238Y21359667D01*
X31757000Y21264429D01*
X31709380Y21121572D01*
X31709380Y21026334D01*
X31757000Y20883477D01*
X31804619Y20835858D01*
X32709380Y19883477D02*
X32709380Y20454905D01*
X32709380Y20169191D02*
X31709380Y20169191D01*
X31852238Y20264429D01*
X31947476Y20359667D01*
X31995095Y20454905D01*
X31709380Y19264429D02*
X31709380Y19169191D01*
X31757000Y19073953D01*
X31804619Y19026334D01*
X31899857Y18978715D01*
X32090333Y18931096D01*
X32328428Y18931096D01*
X32518904Y18978715D01*
X32614142Y19026334D01*
X32661761Y19073953D01*
X32709380Y19169191D01*
X32709380Y19264429D01*
X32661761Y19359667D01*
X32614142Y19407286D01*
X32518904Y19454905D01*
X32328428Y19502524D01*
X32090333Y19502524D01*
X31899857Y19454905D01*
X31804619Y19407286D01*
X31757000Y19359667D01*
X31709380Y19264429D01*
X26582666Y21147858D02*
X26630285Y21100239D01*
X26773142Y21052620D01*
X26868380Y21052620D01*
X27011238Y21100239D01*
X27106476Y21195477D01*
X27154095Y21290715D01*
X27201714Y21481191D01*
X27201714Y21624048D01*
X27154095Y21814524D01*
X27106476Y21909762D01*
X27011238Y22005000D01*
X26868380Y22052620D01*
X26773142Y22052620D01*
X26630285Y22005000D01*
X26582666Y21957381D01*
X25677904Y22052620D02*
X26154095Y22052620D01*
X26201714Y21576429D01*
X26154095Y21624048D01*
X26058857Y21671667D01*
X25820761Y21671667D01*
X25725523Y21624048D01*
X25677904Y21576429D01*
X25630285Y21481191D01*
X25630285Y21243096D01*
X25677904Y21147858D01*
X25725523Y21100239D01*
X25820761Y21052620D01*
X26058857Y21052620D01*
X26154095Y21100239D01*
X26201714Y21147858D01*
M02*
