M48
; DRILL file {KiCad (5.1.2-1)-1} date 2019 August 21, Wednesday 19:10:56
; FORMAT={-:-/ absolute / inch / decimal}
; #@! TF.CreationDate,2019-08-21T19:10:56+02:00
; #@! TF.GenerationSoftware,Kicad,Pcbnew,(5.1.2-1)-1
FMAT,2
INCH
T1C0.0118
T2C0.0177
T3C0.0315
T4C0.0394
T5C0.0400
T6C0.0512
T7C0.0591
%
G90
G05
T1
X0.07Y0.565
X0.12Y1.92
X0.21Y1.7975
X0.2225Y1.4025
X0.2325Y1.89
X0.265Y1.371
X0.3075Y1.2425
X0.345Y1.17
X0.3575Y1.26
X0.43Y2.066
X0.455Y1.43
X0.48Y1.88
X0.51Y1.745
X0.525Y1.14
X0.55Y0.479
X0.5525Y0.835
X0.605Y1.195
X0.6425Y1.2525
X0.645Y1.36
X0.675Y0.47
X0.685Y0.815
X0.735Y0.47
X0.915Y0.555
X0.945Y1.34
X1.025Y0.44
X1.045Y1.495
X1.0725Y1.4375
X1.075Y0.24
X1.08Y1.2
X1.08Y1.175
X1.08Y1.125
X1.08Y1.1
X1.08Y0.58
X1.1025Y1.415
X1.105Y1.2
X1.105Y1.175
X1.105Y1.125
X1.105Y1.1
X1.155Y1.2
X1.155Y1.175
X1.155Y1.125
X1.155Y1.1
X1.16Y1.66
X1.1775Y1.4
X1.18Y1.2
X1.18Y1.175
X1.18Y1.125
X1.18Y1.1
X1.43Y1.645
X1.445Y1.4
X1.48Y1.625
X1.494Y0.605
X1.62Y0.68
X1.6425Y1.09
X1.66Y0.56
X1.68Y1.68
X1.68Y0.98
X1.6825Y0.385
X1.6975Y0.6075
X1.7Y1.225
X1.7Y0.825
X1.7Y0.3075
X1.71Y0.9225
X1.715Y1.33
X1.72Y1.68
X1.7225Y1.4
X1.7289Y1.505
X2.09Y1.35
X2.09Y1.275
X2.0925Y0.925
X2.0925Y0.85
X2.0925Y0.505
X2.0925Y0.43
X2.0975Y1.405
X2.0975Y1.215
X2.1Y0.985
X2.1Y0.795
X2.1Y0.565
X2.1Y0.375
X2.13Y1.375
X2.13Y1.25
X2.13Y0.95
X2.13Y0.825
X2.13Y0.53
X2.13Y0.405
X2.155Y1.41
X2.155Y1.21
X2.155Y0.99
X2.155Y0.79
X2.155Y0.57
X2.155Y0.37
X2.205Y1.41
X2.205Y1.21
X2.205Y0.99
X2.205Y0.79
X2.205Y0.57
X2.205Y0.37
X2.255Y1.41
X2.255Y1.21
X2.255Y0.99
X2.255Y0.79
X2.255Y0.57
X2.255Y0.37
X2.28Y1.375
X2.28Y1.25
X2.28Y0.95
X2.28Y0.825
X2.28Y0.53
X2.28Y0.405
X2.31Y1.405
X2.31Y1.215
X2.31Y0.985
X2.31Y0.795
X2.31Y0.565
X2.31Y0.375
X2.315Y1.35
X2.315Y1.275
X2.315Y0.925
X2.315Y0.85
X2.315Y0.505
X2.315Y0.43
X2.41Y1.45
X2.44Y1.245
X2.44Y1.22
X2.44Y1.195
X2.44Y0.825
X2.44Y0.8
X2.44Y0.775
X2.44Y0.405
X2.44Y0.38
X2.44Y0.355
X2.45Y1.5
X2.465Y1.245
X2.465Y1.22
X2.465Y1.22
X2.465Y1.22
X2.465Y1.195
X2.465Y0.825
X2.465Y0.8
X2.465Y0.775
X2.465Y0.405
X2.465Y0.38
X2.465Y0.355
X2.49Y1.245
X2.49Y1.22
X2.49Y1.22
X2.49Y1.22
X2.49Y1.195
X2.49Y0.825
X2.49Y0.8
X2.49Y0.775
X2.49Y0.405
X2.49Y0.38
X2.49Y0.355
X2.515Y1.245
X2.515Y1.245
X2.515Y1.245
X2.515Y1.22
X2.515Y1.195
X2.515Y0.825
X2.515Y0.8
X2.515Y0.775
X2.515Y0.405
X2.515Y0.38
X2.515Y0.355
X2.705Y1.4
X2.705Y1.35
X2.705Y1.3
X2.705Y1.25
X2.705Y0.975
X2.705Y0.925
X2.705Y0.875
X2.705Y0.825
X2.705Y0.55
X2.705Y0.5
X2.705Y0.45
X2.705Y0.4
X2.7125Y2.0601
X2.7125Y1.9499
X2.755Y1.375
X2.755Y1.325
X2.755Y1.275
X2.755Y1.225
X2.755Y0.95
X2.755Y0.9
X2.755Y0.85
X2.755Y0.8
X2.755Y0.525
X2.755Y0.475
X2.755Y0.425
X2.805Y1.4
X2.805Y1.35
X2.805Y1.3
X2.805Y1.25
X2.805Y0.975
X2.805Y0.925
X2.805Y0.875
X2.805Y0.825
X2.805Y0.55
X2.805Y0.5
X2.805Y0.45
X2.805Y0.4
X2.8075Y2.0601
X2.8075Y1.9499
X2.9Y1.395
X2.9Y1.345
X2.9Y1.275
X2.9Y1.225
X2.9Y0.975
X2.9Y0.925
X2.9Y0.855
X2.9Y0.805
X2.9Y0.555
X2.9Y0.505
X2.9Y0.425
X2.9Y0.375
X2.9025Y2.0601
X2.9025Y1.9499
X2.9975Y2.0601
X2.9975Y1.9499
T2
X1.055Y1.225
X1.055Y1.15
X1.055Y1.075
X1.13Y1.225
X1.13Y1.15
X1.13Y1.075
X1.205Y1.225
X1.205Y1.15
X1.205Y1.075
X1.15Y1.755
X1.15Y1.5581
X1.2287Y1.755
X1.2287Y1.5581
X1.3075Y1.755
X1.3075Y1.5581
T3
X1.5477Y1.8033
X1.5477Y1.5033
X1.6477Y1.8033
X1.6477Y1.5033
X0.6175Y1.8025
X0.6175Y1.5025
X0.7175Y1.8025
X0.7175Y1.5025
X0.8175Y1.8025
X0.8175Y1.5025
X0.9175Y1.8025
X0.9175Y1.5025
X0.58Y0.245
X0.68Y0.345
X0.78Y0.245
X0.075Y1.635
X0.075Y1.535
X0.075Y1.435
X0.375Y1.635
X0.375Y1.535
X0.375Y1.435
X0.96Y0.4
X0.96Y0.3
X1.26Y0.4
X1.26Y0.3
X0.105Y0.43
X0.105Y0.33
X0.105Y0.23
X0.105Y0.13
X0.405Y0.43
X0.405Y0.33
X0.405Y0.23
X0.405Y0.13
T4
X1.165Y0.63
X1.0Y0.63
X0.17Y1.14
X0.17Y1.04
X0.17Y0.94
X0.17Y0.84
X0.17Y0.74
X0.27Y1.14
X0.27Y1.04
X0.27Y0.94
X0.27Y0.84
X0.27Y0.74
X0.48Y0.9225
X0.48Y1.075
X0.835Y0.63
X1.8Y2.0
X1.9Y2.0
X2.0Y2.0
X2.1Y2.0
X2.2Y2.0
X2.3Y2.0
X2.4Y2.0
X2.5Y2.0
X1.33Y0.63
T5
X0.74Y2.0
X0.84Y2.0
X0.94Y2.0
X1.04Y2.0
X1.14Y2.0
X1.24Y2.0
X1.34Y2.0
X1.44Y2.0
X1.54Y2.0
X1.64Y2.0
X1.1Y0.1
X1.2Y0.1
X1.3Y0.1
X1.4Y0.1
X1.5Y0.1
X1.6Y0.1
X1.7Y0.1
X1.8Y0.1
X2.0Y0.1
X2.1Y0.1
X2.2Y0.1
X2.3Y0.1
X2.4Y0.1
X2.5Y0.1
T6
X3.09Y1.7725
X3.09Y1.5725
X3.1Y1.085
X3.1Y0.885
X3.1Y0.685
T7
X1.9002Y1.7
X2.79Y1.7
T0
M30
