%TF.GenerationSoftware,KiCad,Pcbnew,(5.1.2-1)-1*%
%TF.CreationDate,2019-08-21T19:10:38+02:00*%
%TF.ProjectId,Kiel_50,4b69656c-5f35-4302-9e6b-696361645f70,rev?*%
%TF.SameCoordinates,PX69db1f0PY7882d48*%
%TF.FileFunction,Legend,Top*%
%TF.FilePolarity,Positive*%
%FSLAX46Y46*%
G04 Gerber Fmt 4.6, Leading zero omitted, Abs format (unit mm)*
G04 Created by KiCad (PCBNEW (5.1.2-1)-1) date 2019-08-21 19:10:38*
%MOMM*%
%LPD*%
G04 APERTURE LIST*
%ADD10C,0.150000*%
%ADD11C,0.120000*%
G04 APERTURE END LIST*
D10*
X68580000Y5080000D02*
X78740000Y5080000D01*
X83820000Y9906000D02*
X78740000Y5080000D01*
X78994000Y53340000D02*
X78740000Y53340000D01*
X83820000Y48260000D02*
X78994000Y53340000D01*
X83820000Y9906000D02*
X83820000Y48260000D01*
X64516000Y53340000D02*
X78994000Y53340000D01*
X64516000Y53340000D02*
X0Y53340000D01*
X-46791620Y-51022285D02*
X-46791620Y-51593714D01*
X-46791620Y-51308000D02*
X-47791620Y-51308000D01*
X-47648762Y-51403238D01*
X-47553524Y-51498476D01*
X-47505905Y-51593714D01*
X66040000Y2540000D02*
X68580000Y5080000D01*
X66040000Y0D02*
X66040000Y2540000D01*
X0Y0D02*
X66040000Y0D01*
X0Y53340000D02*
X0Y0D01*
D11*
X29210000Y40577000D02*
X29210000Y43577000D01*
X33210000Y40577000D02*
X29210000Y40577000D01*
X33210000Y43577000D02*
X33210000Y40577000D01*
X29210000Y43577000D02*
X33210000Y43577000D01*
X26210000Y37577000D02*
X26210000Y46577000D01*
X36210000Y37577000D02*
X26210000Y37577000D01*
X36210000Y46577000D02*
X36210000Y37577000D01*
X26210000Y46577000D02*
X36210000Y46577000D01*
X12387000Y11093000D02*
X22157000Y11093000D01*
X12387000Y1323000D02*
X22157000Y1323000D01*
X22157000Y1323000D02*
X22157000Y11093000D01*
X12387000Y1323000D02*
X12387000Y11093000D01*
X41978078Y30237500D02*
X41460922Y30237500D01*
X41978078Y28817500D02*
X41460922Y28817500D01*
X74020000Y51529064D02*
X74020000Y50324936D01*
X75840000Y51529064D02*
X75840000Y50324936D01*
X76433000Y51529064D02*
X76433000Y50324936D01*
X78253000Y51529064D02*
X78253000Y50324936D01*
X71607000Y51529064D02*
X71607000Y50324936D01*
X73427000Y51529064D02*
X73427000Y50324936D01*
X66781000Y51529064D02*
X66781000Y50324936D01*
X68601000Y51529064D02*
X68601000Y50324936D01*
X69194000Y51529064D02*
X69194000Y50324936D01*
X71014000Y51529064D02*
X71014000Y50324936D01*
X8310000Y53268000D02*
X1850000Y53268000D01*
X8310000Y48738000D02*
X8310000Y51338000D01*
X8310000Y46808000D02*
X1850000Y46808000D01*
X1850000Y48738000D02*
X1850000Y51338000D01*
X8310000Y46838000D02*
X8310000Y46808000D01*
X8310000Y53268000D02*
X8310000Y53238000D01*
X1850000Y53268000D02*
X1850000Y53238000D01*
X1850000Y46808000D02*
X1850000Y46838000D01*
X39946999Y42670666D02*
X38676999Y42670666D01*
X38746999Y44023999D02*
X38746999Y42670666D01*
X38866999Y44023999D02*
X38866999Y42670666D01*
X38986999Y44023999D02*
X38986999Y42670666D01*
X39106999Y44023999D02*
X39106999Y42670666D01*
X39226999Y44023999D02*
X39226999Y42670666D01*
X39346999Y44023999D02*
X39346999Y42670666D01*
X39466999Y44023999D02*
X39466999Y42670666D01*
X39586999Y44023999D02*
X39586999Y42670666D01*
X39706999Y44023999D02*
X39706999Y42670666D01*
X39826999Y44023999D02*
X39826999Y42670666D01*
X39946999Y39963999D02*
X39946999Y44023999D01*
X38676999Y39963999D02*
X39946999Y39963999D01*
X38676999Y44023999D02*
X38676999Y39963999D01*
X39946999Y44023999D02*
X38676999Y44023999D01*
X42486999Y42670666D02*
X41216999Y42670666D01*
X41286999Y44023999D02*
X41286999Y42670666D01*
X41406999Y44023999D02*
X41406999Y42670666D01*
X41526999Y44023999D02*
X41526999Y42670666D01*
X41646999Y44023999D02*
X41646999Y42670666D01*
X41766999Y44023999D02*
X41766999Y42670666D01*
X41886999Y44023999D02*
X41886999Y42670666D01*
X42006999Y44023999D02*
X42006999Y42670666D01*
X42126999Y44023999D02*
X42126999Y42670666D01*
X42246999Y44023999D02*
X42246999Y42670666D01*
X42366999Y44023999D02*
X42366999Y42670666D01*
X42486999Y39963999D02*
X42486999Y44023999D01*
X41216999Y39963999D02*
X42486999Y39963999D01*
X41216999Y44023999D02*
X41216999Y39963999D01*
X42486999Y44023999D02*
X41216999Y44023999D01*
X44511999Y47183999D02*
X43128999Y47183999D01*
X44511999Y47183999D02*
X44511999Y45799999D01*
X44271999Y37043999D02*
X36891999Y37043999D01*
X44271999Y46943999D02*
X36891999Y46943999D01*
X36891999Y46943999D02*
X36891999Y37043999D01*
X44271999Y46943999D02*
X44271999Y37043999D01*
X28870667Y9525000D02*
X28870667Y10795000D01*
X30224000Y10725000D02*
X28870667Y10725000D01*
X30224000Y10605000D02*
X28870667Y10605000D01*
X30224000Y10485000D02*
X28870667Y10485000D01*
X30224000Y10365000D02*
X28870667Y10365000D01*
X30224000Y10245000D02*
X28870667Y10245000D01*
X30224000Y10125000D02*
X28870667Y10125000D01*
X30224000Y10005000D02*
X28870667Y10005000D01*
X30224000Y9885000D02*
X28870667Y9885000D01*
X30224000Y9765000D02*
X28870667Y9765000D01*
X30224000Y9645000D02*
X28870667Y9645000D01*
X26164000Y9525000D02*
X30224000Y9525000D01*
X26164000Y10795000D02*
X26164000Y9525000D01*
X30224000Y10795000D02*
X26164000Y10795000D01*
X30224000Y9525000D02*
X30224000Y10795000D01*
X28870667Y6985000D02*
X28870667Y8255000D01*
X30224000Y8185000D02*
X28870667Y8185000D01*
X30224000Y8065000D02*
X28870667Y8065000D01*
X30224000Y7945000D02*
X28870667Y7945000D01*
X30224000Y7825000D02*
X28870667Y7825000D01*
X30224000Y7705000D02*
X28870667Y7705000D01*
X30224000Y7585000D02*
X28870667Y7585000D01*
X30224000Y7465000D02*
X28870667Y7465000D01*
X30224000Y7345000D02*
X28870667Y7345000D01*
X30224000Y7225000D02*
X28870667Y7225000D01*
X30224000Y7105000D02*
X28870667Y7105000D01*
X26164000Y6985000D02*
X30224000Y6985000D01*
X26164000Y8255000D02*
X26164000Y6985000D01*
X30224000Y8255000D02*
X26164000Y8255000D01*
X30224000Y6985000D02*
X30224000Y8255000D01*
X33384000Y4960000D02*
X33384000Y6343000D01*
X33384000Y4960000D02*
X32000000Y4960000D01*
X23244000Y5200000D02*
X23244000Y12580000D01*
X33144000Y5200000D02*
X33144000Y12580000D01*
X33144000Y12580000D02*
X23244000Y12580000D01*
X33144000Y5200000D02*
X23244000Y5200000D01*
X64840000Y30095000D02*
X63740000Y30095000D01*
X64840000Y29825000D02*
X64840000Y30095000D01*
X66340000Y29825000D02*
X64840000Y29825000D01*
X64840000Y36455000D02*
X62010000Y36455000D01*
X64840000Y36725000D02*
X64840000Y36455000D01*
X66340000Y36725000D02*
X64840000Y36725000D01*
X35282000Y16002000D02*
G75*
G03X35282000Y16002000I-1500000J0D01*
G01*
X31091000Y16002000D02*
G75*
G03X31091000Y16002000I-1500000J0D01*
G01*
X26900000Y16002000D02*
G75*
G03X26900000Y16002000I-1500000J0D01*
G01*
X5038333Y37084000D02*
X5038333Y35814000D01*
X3685000Y35884000D02*
X5038333Y35884000D01*
X3685000Y36004000D02*
X5038333Y36004000D01*
X3685000Y36124000D02*
X5038333Y36124000D01*
X3685000Y36244000D02*
X5038333Y36244000D01*
X3685000Y36364000D02*
X5038333Y36364000D01*
X3685000Y36484000D02*
X5038333Y36484000D01*
X3685000Y36604000D02*
X5038333Y36604000D01*
X3685000Y36724000D02*
X5038333Y36724000D01*
X3685000Y36844000D02*
X5038333Y36844000D01*
X3685000Y36964000D02*
X5038333Y36964000D01*
X7745000Y37084000D02*
X3685000Y37084000D01*
X7745000Y35814000D02*
X7745000Y37084000D01*
X3685000Y35814000D02*
X7745000Y35814000D01*
X3685000Y37084000D02*
X3685000Y35814000D01*
X5038333Y39624000D02*
X5038333Y38354000D01*
X3685000Y38424000D02*
X5038333Y38424000D01*
X3685000Y38544000D02*
X5038333Y38544000D01*
X3685000Y38664000D02*
X5038333Y38664000D01*
X3685000Y38784000D02*
X5038333Y38784000D01*
X3685000Y38904000D02*
X5038333Y38904000D01*
X3685000Y39024000D02*
X5038333Y39024000D01*
X3685000Y39144000D02*
X5038333Y39144000D01*
X3685000Y39264000D02*
X5038333Y39264000D01*
X3685000Y39384000D02*
X5038333Y39384000D01*
X3685000Y39504000D02*
X5038333Y39504000D01*
X7745000Y39624000D02*
X3685000Y39624000D01*
X7745000Y38354000D02*
X7745000Y39624000D01*
X3685000Y38354000D02*
X7745000Y38354000D01*
X3685000Y39624000D02*
X3685000Y38354000D01*
X5038333Y42164000D02*
X5038333Y40894000D01*
X3685000Y40964000D02*
X5038333Y40964000D01*
X3685000Y41084000D02*
X5038333Y41084000D01*
X3685000Y41204000D02*
X5038333Y41204000D01*
X3685000Y41324000D02*
X5038333Y41324000D01*
X3685000Y41444000D02*
X5038333Y41444000D01*
X3685000Y41564000D02*
X5038333Y41564000D01*
X3685000Y41684000D02*
X5038333Y41684000D01*
X3685000Y41804000D02*
X5038333Y41804000D01*
X3685000Y41924000D02*
X5038333Y41924000D01*
X3685000Y42044000D02*
X5038333Y42044000D01*
X7745000Y42164000D02*
X3685000Y42164000D01*
X7745000Y40894000D02*
X7745000Y42164000D01*
X3685000Y40894000D02*
X7745000Y40894000D01*
X3685000Y42164000D02*
X3685000Y40894000D01*
X525000Y44189000D02*
X525000Y42806000D01*
X525000Y44189000D02*
X1909000Y44189000D01*
X10665000Y43949000D02*
X10665000Y34029000D01*
X765000Y43949000D02*
X765000Y34029000D01*
X765000Y34029000D02*
X10665000Y34029000D01*
X765000Y43949000D02*
X10665000Y43949000D01*
X74186000Y47861500D02*
X74186000Y45861500D01*
X76426000Y47861500D02*
X74186000Y47861500D01*
X77510000Y41121500D02*
X77417000Y41215500D01*
X79761000Y38871500D02*
X79702000Y38930500D01*
X77270000Y40951500D02*
X77212000Y41010500D01*
X79555000Y38666500D02*
X79462000Y38760500D01*
X82546000Y37341500D02*
X74426000Y37341500D01*
X82546000Y47621500D02*
X74426000Y47621500D01*
X74426000Y47621500D02*
X74426000Y37341500D01*
X82546000Y47621500D02*
X82546000Y37341500D01*
X80486000Y47621500D02*
X80486000Y37341500D01*
X76486000Y47621500D02*
X76486000Y37341500D01*
X80166000Y39941500D02*
G75*
G03X80166000Y39941500I-1680000J0D01*
G01*
X76805550Y44992117D02*
G75*
G02X77002000Y45810500I1680450J29383D01*
G01*
X77696912Y46505453D02*
G75*
G02X79275000Y46505500I789088J-1483953D01*
G01*
X79969953Y45810588D02*
G75*
G02X79970000Y44232500I-1483953J-789088D01*
G01*
X79275088Y43537547D02*
G75*
G02X77697000Y43537500I-789088J1483953D01*
G01*
X77002648Y44232788D02*
G75*
G02X76806000Y45021500I1483352J788712D01*
G01*
X64830000Y52130000D02*
X64830000Y50800000D01*
X63500000Y52130000D02*
X64830000Y52130000D01*
X62230000Y52130000D02*
X62230000Y49470000D01*
X62230000Y49470000D02*
X44390000Y49470000D01*
X62230000Y52130000D02*
X44390000Y52130000D01*
X44390000Y52130000D02*
X44390000Y49470000D01*
X13692000Y23431500D02*
G75*
G03X13692000Y23431500I-1500000J0D01*
G01*
X13692000Y27305000D02*
G75*
G03X13692000Y27305000I-1500000J0D01*
G01*
X22709000Y16002000D02*
G75*
G03X22709000Y16002000I-1500000J0D01*
G01*
X16319500Y42650167D02*
X15049500Y42650167D01*
X15119500Y44003500D02*
X15119500Y42650167D01*
X15239500Y44003500D02*
X15239500Y42650167D01*
X15359500Y44003500D02*
X15359500Y42650167D01*
X15479500Y44003500D02*
X15479500Y42650167D01*
X15599500Y44003500D02*
X15599500Y42650167D01*
X15719500Y44003500D02*
X15719500Y42650167D01*
X15839500Y44003500D02*
X15839500Y42650167D01*
X15959500Y44003500D02*
X15959500Y42650167D01*
X16079500Y44003500D02*
X16079500Y42650167D01*
X16199500Y44003500D02*
X16199500Y42650167D01*
X16319500Y39943500D02*
X16319500Y44003500D01*
X15049500Y39943500D02*
X16319500Y39943500D01*
X15049500Y44003500D02*
X15049500Y39943500D01*
X16319500Y44003500D02*
X15049500Y44003500D01*
X18859500Y42650167D02*
X17589500Y42650167D01*
X17659500Y44003500D02*
X17659500Y42650167D01*
X17779500Y44003500D02*
X17779500Y42650167D01*
X17899500Y44003500D02*
X17899500Y42650167D01*
X18019500Y44003500D02*
X18019500Y42650167D01*
X18139500Y44003500D02*
X18139500Y42650167D01*
X18259500Y44003500D02*
X18259500Y42650167D01*
X18379500Y44003500D02*
X18379500Y42650167D01*
X18499500Y44003500D02*
X18499500Y42650167D01*
X18619500Y44003500D02*
X18619500Y42650167D01*
X18739500Y44003500D02*
X18739500Y42650167D01*
X18859500Y39943500D02*
X18859500Y44003500D01*
X17589500Y39943500D02*
X18859500Y39943500D01*
X17589500Y44003500D02*
X17589500Y39943500D01*
X18859500Y44003500D02*
X17589500Y44003500D01*
X21399500Y42650167D02*
X20129500Y42650167D01*
X20199500Y44003500D02*
X20199500Y42650167D01*
X20319500Y44003500D02*
X20319500Y42650167D01*
X20439500Y44003500D02*
X20439500Y42650167D01*
X20559500Y44003500D02*
X20559500Y42650167D01*
X20679500Y44003500D02*
X20679500Y42650167D01*
X20799500Y44003500D02*
X20799500Y42650167D01*
X20919500Y44003500D02*
X20919500Y42650167D01*
X21039500Y44003500D02*
X21039500Y42650167D01*
X21159500Y44003500D02*
X21159500Y42650167D01*
X21279500Y44003500D02*
X21279500Y42650167D01*
X21399500Y39943500D02*
X21399500Y44003500D01*
X20129500Y39943500D02*
X21399500Y39943500D01*
X20129500Y44003500D02*
X20129500Y39943500D01*
X21399500Y44003500D02*
X20129500Y44003500D01*
X23939500Y42650167D02*
X22669500Y42650167D01*
X22739500Y44003500D02*
X22739500Y42650167D01*
X22859500Y44003500D02*
X22859500Y42650167D01*
X22979500Y44003500D02*
X22979500Y42650167D01*
X23099500Y44003500D02*
X23099500Y42650167D01*
X23219500Y44003500D02*
X23219500Y42650167D01*
X23339500Y44003500D02*
X23339500Y42650167D01*
X23459500Y44003500D02*
X23459500Y42650167D01*
X23579500Y44003500D02*
X23579500Y42650167D01*
X23699500Y44003500D02*
X23699500Y42650167D01*
X23819500Y44003500D02*
X23819500Y42650167D01*
X23939500Y39943500D02*
X23939500Y44003500D01*
X22669500Y39943500D02*
X23939500Y39943500D01*
X22669500Y44003500D02*
X22669500Y39943500D01*
X23939500Y44003500D02*
X22669500Y44003500D01*
X25964500Y47163500D02*
X24581500Y47163500D01*
X25964500Y47163500D02*
X25964500Y45779500D01*
X25724500Y37023500D02*
X13264500Y37023500D01*
X25724500Y46923500D02*
X13264500Y46923500D01*
X13264500Y46923500D02*
X13264500Y37023500D01*
X25724500Y46923500D02*
X25724500Y37023500D01*
X7153667Y10287000D02*
X7153667Y11557000D01*
X8507000Y11487000D02*
X7153667Y11487000D01*
X8507000Y11367000D02*
X7153667Y11367000D01*
X8507000Y11247000D02*
X7153667Y11247000D01*
X8507000Y11127000D02*
X7153667Y11127000D01*
X8507000Y11007000D02*
X7153667Y11007000D01*
X8507000Y10887000D02*
X7153667Y10887000D01*
X8507000Y10767000D02*
X7153667Y10767000D01*
X8507000Y10647000D02*
X7153667Y10647000D01*
X8507000Y10527000D02*
X7153667Y10527000D01*
X8507000Y10407000D02*
X7153667Y10407000D01*
X4447000Y10287000D02*
X8507000Y10287000D01*
X4447000Y11557000D02*
X4447000Y10287000D01*
X8507000Y11557000D02*
X4447000Y11557000D01*
X8507000Y10287000D02*
X8507000Y11557000D01*
X7153667Y7747000D02*
X7153667Y9017000D01*
X8507000Y8947000D02*
X7153667Y8947000D01*
X8507000Y8827000D02*
X7153667Y8827000D01*
X8507000Y8707000D02*
X7153667Y8707000D01*
X8507000Y8587000D02*
X7153667Y8587000D01*
X8507000Y8467000D02*
X7153667Y8467000D01*
X8507000Y8347000D02*
X7153667Y8347000D01*
X8507000Y8227000D02*
X7153667Y8227000D01*
X8507000Y8107000D02*
X7153667Y8107000D01*
X8507000Y7987000D02*
X7153667Y7987000D01*
X8507000Y7867000D02*
X7153667Y7867000D01*
X4447000Y7747000D02*
X8507000Y7747000D01*
X4447000Y9017000D02*
X4447000Y7747000D01*
X8507000Y9017000D02*
X4447000Y9017000D01*
X8507000Y7747000D02*
X8507000Y9017000D01*
X7153667Y5207000D02*
X7153667Y6477000D01*
X8507000Y6407000D02*
X7153667Y6407000D01*
X8507000Y6287000D02*
X7153667Y6287000D01*
X8507000Y6167000D02*
X7153667Y6167000D01*
X8507000Y6047000D02*
X7153667Y6047000D01*
X8507000Y5927000D02*
X7153667Y5927000D01*
X8507000Y5807000D02*
X7153667Y5807000D01*
X8507000Y5687000D02*
X7153667Y5687000D01*
X8507000Y5567000D02*
X7153667Y5567000D01*
X8507000Y5447000D02*
X7153667Y5447000D01*
X8507000Y5327000D02*
X7153667Y5327000D01*
X4447000Y5207000D02*
X8507000Y5207000D01*
X4447000Y6477000D02*
X4447000Y5207000D01*
X8507000Y6477000D02*
X4447000Y6477000D01*
X8507000Y5207000D02*
X8507000Y6477000D01*
X7153667Y2667000D02*
X7153667Y3937000D01*
X8507000Y3867000D02*
X7153667Y3867000D01*
X8507000Y3747000D02*
X7153667Y3747000D01*
X8507000Y3627000D02*
X7153667Y3627000D01*
X8507000Y3507000D02*
X7153667Y3507000D01*
X8507000Y3387000D02*
X7153667Y3387000D01*
X8507000Y3267000D02*
X7153667Y3267000D01*
X8507000Y3147000D02*
X7153667Y3147000D01*
X8507000Y3027000D02*
X7153667Y3027000D01*
X8507000Y2907000D02*
X7153667Y2907000D01*
X8507000Y2787000D02*
X7153667Y2787000D01*
X4447000Y2667000D02*
X8507000Y2667000D01*
X4447000Y3937000D02*
X4447000Y2667000D01*
X8507000Y3937000D02*
X4447000Y3937000D01*
X8507000Y2667000D02*
X8507000Y3937000D01*
X11667000Y642000D02*
X11667000Y2025000D01*
X11667000Y642000D02*
X10283000Y642000D01*
X1527000Y882000D02*
X1527000Y13342000D01*
X11427000Y882000D02*
X11427000Y13342000D01*
X11427000Y13342000D02*
X1527000Y13342000D01*
X11427000Y882000D02*
X1527000Y882000D01*
X41200000Y33786578D02*
X41200000Y33269422D01*
X42620000Y33786578D02*
X42620000Y33269422D01*
X45010000Y32135578D02*
X45010000Y31618422D01*
X46430000Y32135578D02*
X46430000Y31618422D01*
X45010000Y21531078D02*
X45010000Y21013922D01*
X46430000Y21531078D02*
X46430000Y21013922D01*
X41533578Y20141000D02*
X41016422Y20141000D01*
X41533578Y18721000D02*
X41016422Y18721000D01*
X39374578Y36016000D02*
X38857422Y36016000D01*
X39374578Y34596000D02*
X38857422Y34596000D01*
X45978578Y36270000D02*
X45461422Y36270000D01*
X45978578Y34850000D02*
X45461422Y34850000D01*
X44073578Y28015000D02*
X43556422Y28015000D01*
X44073578Y26595000D02*
X43556422Y26595000D01*
X45470578Y25602000D02*
X44953422Y25602000D01*
X45470578Y24182000D02*
X44953422Y24182000D01*
X43946578Y17728000D02*
X43429422Y17728000D01*
X43946578Y16308000D02*
X43429422Y16308000D01*
X45470578Y14934000D02*
X44953422Y14934000D01*
X45470578Y13514000D02*
X44953422Y13514000D01*
X45010000Y10926578D02*
X45010000Y10409422D01*
X46430000Y10926578D02*
X46430000Y10409422D01*
X12140000Y17076922D02*
X12140000Y17594078D01*
X10720000Y17076922D02*
X10720000Y17594078D01*
X8132578Y46430000D02*
X7615422Y46430000D01*
X8132578Y45010000D02*
X7615422Y45010000D01*
X15616422Y21896000D02*
X16133578Y21896000D01*
X15616422Y23316000D02*
X16133578Y23316000D01*
X51378000Y30094000D02*
X50278000Y30094000D01*
X51378000Y29824000D02*
X51378000Y30094000D01*
X52878000Y29824000D02*
X51378000Y29824000D01*
X51378000Y36454000D02*
X48548000Y36454000D01*
X51378000Y36724000D02*
X51378000Y36454000D01*
X52878000Y36724000D02*
X51378000Y36724000D01*
X64840000Y19426000D02*
X63740000Y19426000D01*
X64840000Y19156000D02*
X64840000Y19426000D01*
X66340000Y19156000D02*
X64840000Y19156000D01*
X64840000Y25786000D02*
X62010000Y25786000D01*
X64840000Y26056000D02*
X64840000Y25786000D01*
X66340000Y26056000D02*
X64840000Y26056000D01*
X51413000Y19425000D02*
X50313000Y19425000D01*
X51413000Y19155000D02*
X51413000Y19425000D01*
X52913000Y19155000D02*
X51413000Y19155000D01*
X51413000Y25785000D02*
X48583000Y25785000D01*
X51413000Y26055000D02*
X51413000Y25785000D01*
X52913000Y26055000D02*
X51413000Y26055000D01*
X64875000Y8690000D02*
X63775000Y8690000D01*
X64875000Y8420000D02*
X64875000Y8690000D01*
X66375000Y8420000D02*
X64875000Y8420000D01*
X64875000Y15050000D02*
X62045000Y15050000D01*
X64875000Y15320000D02*
X64875000Y15050000D01*
X66375000Y15320000D02*
X64875000Y15320000D01*
X51413000Y8758000D02*
X50313000Y8758000D01*
X51413000Y8488000D02*
X51413000Y8758000D01*
X52913000Y8488000D02*
X51413000Y8488000D01*
X51413000Y15118000D02*
X48583000Y15118000D01*
X51413000Y15388000D02*
X51413000Y15118000D01*
X52913000Y15388000D02*
X51413000Y15388000D01*
X15619000Y16454000D02*
X14159000Y16454000D01*
X15619000Y19614000D02*
X13459000Y19614000D01*
X15619000Y19614000D02*
X15619000Y18684000D01*
X15619000Y16454000D02*
X15619000Y17384000D01*
X83040000Y14559000D02*
X83040000Y16559000D01*
X80800000Y14559000D02*
X83040000Y14559000D01*
X79716000Y26379000D02*
X79809000Y26285000D01*
X77465000Y28629000D02*
X77524000Y28570000D01*
X79956000Y26549000D02*
X80014000Y26490000D01*
X77671000Y28834000D02*
X77764000Y28740000D01*
X79716000Y21299000D02*
X79809000Y21205000D01*
X77465000Y23549000D02*
X77524000Y23490000D01*
X79956000Y21469000D02*
X80014000Y21410000D01*
X77671000Y23754000D02*
X77764000Y23660000D01*
X74680000Y30159000D02*
X82800000Y30159000D01*
X74680000Y14799000D02*
X82800000Y14799000D01*
X82800000Y14799000D02*
X82800000Y30159000D01*
X74680000Y14799000D02*
X74680000Y30159000D01*
X76740000Y14799000D02*
X76740000Y30159000D01*
X80740000Y14799000D02*
X80740000Y30159000D01*
X80420000Y27559000D02*
G75*
G03X80420000Y27559000I-1680000J0D01*
G01*
X80420000Y22479000D02*
G75*
G03X80420000Y22479000I-1680000J0D01*
G01*
X80420450Y17428383D02*
G75*
G02X80224000Y16610000I-1680450J-29383D01*
G01*
X79529088Y15915047D02*
G75*
G02X77951000Y15915000I-789088J1483953D01*
G01*
X77256047Y16609912D02*
G75*
G02X77256000Y18188000I1483953J789088D01*
G01*
X77950912Y18882953D02*
G75*
G02X79529000Y18883000I789088J-1483953D01*
G01*
X80223352Y18187712D02*
G75*
G02X80420000Y17399000I-1483352J-788712D01*
G01*
X2988000Y30286000D02*
X4318000Y30286000D01*
X2988000Y28956000D02*
X2988000Y30286000D01*
X5588000Y30286000D02*
X8188000Y30286000D01*
X5588000Y27686000D02*
X5588000Y30286000D01*
X2988000Y27686000D02*
X5588000Y27686000D01*
X8188000Y30286000D02*
X8188000Y17466000D01*
X2988000Y27686000D02*
X2988000Y17466000D01*
X2988000Y17466000D02*
X8188000Y17466000D01*
X70866000Y47980000D02*
X70866000Y45180000D01*
X70866000Y47980000D02*
X48266000Y47980000D01*
X70866000Y38380000D02*
X48266000Y38380000D01*
X70866000Y41180000D02*
X70866000Y38380000D01*
X48266000Y41180000D02*
X48266000Y38380000D01*
X48266000Y47980000D02*
X48266000Y45180000D01*
X4733000Y46680000D02*
X2048000Y46680000D01*
X4733000Y44760000D02*
X4733000Y46680000D01*
X2048000Y44760000D02*
X4733000Y44760000D01*
X9962000Y51390500D02*
X9962000Y48705500D01*
X11882000Y51390500D02*
X9962000Y51390500D01*
X11882000Y48705500D02*
X11882000Y51390500D01*
X35627437Y13062000D02*
X34563000Y11997563D01*
X40318563Y13062000D02*
X41383000Y11997563D01*
X40318563Y13062000D02*
X39033000Y13062000D01*
X35627437Y13062000D02*
X36913000Y13062000D01*
X34563000Y11997563D02*
X34563000Y6242000D01*
X41383000Y11997563D02*
X41383000Y6242000D01*
X41383000Y6242000D02*
X39033000Y6242000D01*
X34563000Y6242000D02*
X36913000Y6242000D01*
X15092000Y27780064D02*
X15092000Y26575936D01*
X16912000Y27780064D02*
X16912000Y26575936D01*
X12267000Y31110422D02*
X12267000Y31627578D01*
X10847000Y31110422D02*
X10847000Y31627578D01*
D10*
X29210000Y1270000D02*
X46990000Y1270000D01*
X46990000Y1270000D02*
X46990000Y3810000D01*
X46990000Y3810000D02*
X29210000Y3810000D01*
X26390000Y990000D02*
X27940000Y990000D01*
X29210000Y1270000D02*
X29210000Y3810000D01*
X27940000Y4090000D02*
X26390000Y4090000D01*
X26390000Y4090000D02*
X26390000Y990000D01*
X52070000Y1270000D02*
X64770000Y1270000D01*
X64770000Y1270000D02*
X64770000Y3810000D01*
X64770000Y3810000D02*
X52070000Y3810000D01*
X49250000Y990000D02*
X50800000Y990000D01*
X52070000Y1270000D02*
X52070000Y3810000D01*
X50800000Y4090000D02*
X49250000Y4090000D01*
X49250000Y4090000D02*
X49250000Y990000D01*
X20066000Y49530000D02*
X42926000Y49530000D01*
X42926000Y49530000D02*
X42926000Y52070000D01*
X42926000Y52070000D02*
X20066000Y52070000D01*
X17246000Y49250000D02*
X18796000Y49250000D01*
X20066000Y49530000D02*
X20066000Y52070000D01*
X18796000Y52350000D02*
X17246000Y52350000D01*
X17246000Y52350000D02*
X17246000Y49250000D01*
X29876666Y35172239D02*
X30019523Y35124620D01*
X30257619Y35124620D01*
X30352857Y35172239D01*
X30400476Y35219858D01*
X30448095Y35315096D01*
X30448095Y35410334D01*
X30400476Y35505572D01*
X30352857Y35553191D01*
X30257619Y35600810D01*
X30067142Y35648429D01*
X29971904Y35696048D01*
X29924285Y35743667D01*
X29876666Y35838905D01*
X29876666Y35934143D01*
X29924285Y36029381D01*
X29971904Y36077000D01*
X30067142Y36124620D01*
X30305238Y36124620D01*
X30448095Y36077000D01*
X30781428Y36124620D02*
X31019523Y35124620D01*
X31210000Y35838905D01*
X31400476Y35124620D01*
X31638571Y36124620D01*
X32448095Y36124620D02*
X32257619Y36124620D01*
X32162380Y36077000D01*
X32114761Y36029381D01*
X32019523Y35886524D01*
X31971904Y35696048D01*
X31971904Y35315096D01*
X32019523Y35219858D01*
X32067142Y35172239D01*
X32162380Y35124620D01*
X32352857Y35124620D01*
X32448095Y35172239D01*
X32495714Y35219858D01*
X32543333Y35315096D01*
X32543333Y35553191D01*
X32495714Y35648429D01*
X32448095Y35696048D01*
X32352857Y35743667D01*
X32162380Y35743667D01*
X32067142Y35696048D01*
X32019523Y35648429D01*
X31971904Y35553191D01*
X11709380Y5612762D02*
X11233190Y5279429D01*
X11709380Y5041334D02*
X10709380Y5041334D01*
X10709380Y5422286D01*
X10757000Y5517524D01*
X10804619Y5565143D01*
X10899857Y5612762D01*
X11042714Y5612762D01*
X11137952Y5565143D01*
X11185571Y5517524D01*
X11233190Y5422286D01*
X11233190Y5041334D01*
X10709380Y5898477D02*
X11709380Y6231810D01*
X10709380Y6565143D01*
X11709380Y7422286D02*
X11709380Y6850858D01*
X11709380Y7136572D02*
X10709380Y7136572D01*
X10852238Y7041334D01*
X10947476Y6946096D01*
X10995095Y6850858D01*
X41076642Y27425120D02*
X40743309Y27901310D01*
X40505214Y27425120D02*
X40505214Y28425120D01*
X40886166Y28425120D01*
X40981404Y28377500D01*
X41029023Y28329881D01*
X41076642Y28234643D01*
X41076642Y28091786D01*
X41029023Y27996548D01*
X40981404Y27948929D01*
X40886166Y27901310D01*
X40505214Y27901310D01*
X41457595Y28329881D02*
X41505214Y28377500D01*
X41600452Y28425120D01*
X41838547Y28425120D01*
X41933785Y28377500D01*
X41981404Y28329881D01*
X42029023Y28234643D01*
X42029023Y28139405D01*
X41981404Y27996548D01*
X41409976Y27425120D01*
X42029023Y27425120D01*
X42600452Y27996548D02*
X42505214Y28044167D01*
X42457595Y28091786D01*
X42409976Y28187024D01*
X42409976Y28234643D01*
X42457595Y28329881D01*
X42505214Y28377500D01*
X42600452Y28425120D01*
X42790928Y28425120D01*
X42886166Y28377500D01*
X42933785Y28329881D01*
X42981404Y28234643D01*
X42981404Y28187024D01*
X42933785Y28091786D01*
X42886166Y28044167D01*
X42790928Y27996548D01*
X42600452Y27996548D01*
X42505214Y27948929D01*
X42457595Y27901310D01*
X42409976Y27806072D01*
X42409976Y27615596D01*
X42457595Y27520358D01*
X42505214Y27472739D01*
X42600452Y27425120D01*
X42790928Y27425120D01*
X42886166Y27472739D01*
X42933785Y27520358D01*
X42981404Y27615596D01*
X42981404Y27806072D01*
X42933785Y27901310D01*
X42886166Y27948929D01*
X42790928Y27996548D01*
X77107142Y50284143D02*
X77154761Y50236524D01*
X77202380Y50093667D01*
X77202380Y49998429D01*
X77154761Y49855572D01*
X77059523Y49760334D01*
X76964285Y49712715D01*
X76773809Y49665096D01*
X76630952Y49665096D01*
X76440476Y49712715D01*
X76345238Y49760334D01*
X76250000Y49855572D01*
X76202380Y49998429D01*
X76202380Y50093667D01*
X76250000Y50236524D01*
X76297619Y50284143D01*
X76297619Y50665096D02*
X76250000Y50712715D01*
X76202380Y50807953D01*
X76202380Y51046048D01*
X76250000Y51141286D01*
X76297619Y51188905D01*
X76392857Y51236524D01*
X76488095Y51236524D01*
X76630952Y51188905D01*
X77202380Y50617477D01*
X77202380Y51236524D01*
X77202380Y52188905D02*
X77202380Y51617477D01*
X77202380Y51903191D02*
X76202380Y51903191D01*
X76345238Y51807953D01*
X76440476Y51712715D01*
X76488095Y51617477D01*
X79520142Y50284143D02*
X79567761Y50236524D01*
X79615380Y50093667D01*
X79615380Y49998429D01*
X79567761Y49855572D01*
X79472523Y49760334D01*
X79377285Y49712715D01*
X79186809Y49665096D01*
X79043952Y49665096D01*
X78853476Y49712715D01*
X78758238Y49760334D01*
X78663000Y49855572D01*
X78615380Y49998429D01*
X78615380Y50093667D01*
X78663000Y50236524D01*
X78710619Y50284143D01*
X79615380Y51236524D02*
X79615380Y50665096D01*
X79615380Y50950810D02*
X78615380Y50950810D01*
X78758238Y50855572D01*
X78853476Y50760334D01*
X78901095Y50665096D01*
X78615380Y51569858D02*
X78615380Y52188905D01*
X78996333Y51855572D01*
X78996333Y51998429D01*
X79043952Y52093667D01*
X79091571Y52141286D01*
X79186809Y52188905D01*
X79424904Y52188905D01*
X79520142Y52141286D01*
X79567761Y52093667D01*
X79615380Y51998429D01*
X79615380Y51712715D01*
X79567761Y51617477D01*
X79520142Y51569858D01*
X74694142Y50284143D02*
X74741761Y50236524D01*
X74789380Y50093667D01*
X74789380Y49998429D01*
X74741761Y49855572D01*
X74646523Y49760334D01*
X74551285Y49712715D01*
X74360809Y49665096D01*
X74217952Y49665096D01*
X74027476Y49712715D01*
X73932238Y49760334D01*
X73837000Y49855572D01*
X73789380Y49998429D01*
X73789380Y50093667D01*
X73837000Y50236524D01*
X73884619Y50284143D01*
X74789380Y51236524D02*
X74789380Y50665096D01*
X74789380Y50950810D02*
X73789380Y50950810D01*
X73932238Y50855572D01*
X74027476Y50760334D01*
X74075095Y50665096D01*
X74789380Y52188905D02*
X74789380Y51617477D01*
X74789380Y51903191D02*
X73789380Y51903191D01*
X73932238Y51807953D01*
X74027476Y51712715D01*
X74075095Y51617477D01*
X69868142Y50760334D02*
X69915761Y50712715D01*
X69963380Y50569858D01*
X69963380Y50474620D01*
X69915761Y50331762D01*
X69820523Y50236524D01*
X69725285Y50188905D01*
X69534809Y50141286D01*
X69391952Y50141286D01*
X69201476Y50188905D01*
X69106238Y50236524D01*
X69011000Y50331762D01*
X68963380Y50474620D01*
X68963380Y50569858D01*
X69011000Y50712715D01*
X69058619Y50760334D01*
X69391952Y51331762D02*
X69344333Y51236524D01*
X69296714Y51188905D01*
X69201476Y51141286D01*
X69153857Y51141286D01*
X69058619Y51188905D01*
X69011000Y51236524D01*
X68963380Y51331762D01*
X68963380Y51522239D01*
X69011000Y51617477D01*
X69058619Y51665096D01*
X69153857Y51712715D01*
X69201476Y51712715D01*
X69296714Y51665096D01*
X69344333Y51617477D01*
X69391952Y51522239D01*
X69391952Y51331762D01*
X69439571Y51236524D01*
X69487190Y51188905D01*
X69582428Y51141286D01*
X69772904Y51141286D01*
X69868142Y51188905D01*
X69915761Y51236524D01*
X69963380Y51331762D01*
X69963380Y51522239D01*
X69915761Y51617477D01*
X69868142Y51665096D01*
X69772904Y51712715D01*
X69582428Y51712715D01*
X69487190Y51665096D01*
X69439571Y51617477D01*
X69391952Y51522239D01*
X72281142Y50760334D02*
X72328761Y50712715D01*
X72376380Y50569858D01*
X72376380Y50474620D01*
X72328761Y50331762D01*
X72233523Y50236524D01*
X72138285Y50188905D01*
X71947809Y50141286D01*
X71804952Y50141286D01*
X71614476Y50188905D01*
X71519238Y50236524D01*
X71424000Y50331762D01*
X71376380Y50474620D01*
X71376380Y50569858D01*
X71424000Y50712715D01*
X71471619Y50760334D01*
X71376380Y51093667D02*
X71376380Y51760334D01*
X72376380Y51331762D01*
X3746666Y45583239D02*
X3889523Y45535620D01*
X4127619Y45535620D01*
X4222857Y45583239D01*
X4270476Y45630858D01*
X4318095Y45726096D01*
X4318095Y45821334D01*
X4270476Y45916572D01*
X4222857Y45964191D01*
X4127619Y46011810D01*
X3937142Y46059429D01*
X3841904Y46107048D01*
X3794285Y46154667D01*
X3746666Y46249905D01*
X3746666Y46345143D01*
X3794285Y46440381D01*
X3841904Y46488000D01*
X3937142Y46535620D01*
X4175238Y46535620D01*
X4318095Y46488000D01*
X4651428Y46535620D02*
X4889523Y45535620D01*
X5080000Y46249905D01*
X5270476Y45535620D01*
X5508571Y46535620D01*
X5794285Y46535620D02*
X6460952Y46535620D01*
X6032380Y45535620D01*
X45676760Y40660666D02*
X45724379Y40803523D01*
X45724379Y41041619D01*
X45676760Y41136857D01*
X45629141Y41184476D01*
X45533903Y41232095D01*
X45438665Y41232095D01*
X45343427Y41184476D01*
X45295808Y41136857D01*
X45248189Y41041619D01*
X45200570Y40851142D01*
X45152951Y40755904D01*
X45105332Y40708285D01*
X45010094Y40660666D01*
X44914856Y40660666D01*
X44819618Y40708285D01*
X44771999Y40755904D01*
X44724379Y40851142D01*
X44724379Y41089238D01*
X44771999Y41232095D01*
X44724379Y41565428D02*
X45724379Y41803523D01*
X45010094Y41993999D01*
X45724379Y42184476D01*
X44724379Y42422571D01*
X45057713Y43232095D02*
X45724379Y43232095D01*
X44676760Y42993999D02*
X45391046Y42755904D01*
X45391046Y43374952D01*
X26860666Y3795239D02*
X27003523Y3747620D01*
X27241619Y3747620D01*
X27336857Y3795239D01*
X27384476Y3842858D01*
X27432095Y3938096D01*
X27432095Y4033334D01*
X27384476Y4128572D01*
X27336857Y4176191D01*
X27241619Y4223810D01*
X27051142Y4271429D01*
X26955904Y4319048D01*
X26908285Y4366667D01*
X26860666Y4461905D01*
X26860666Y4557143D01*
X26908285Y4652381D01*
X26955904Y4700000D01*
X27051142Y4747620D01*
X27289238Y4747620D01*
X27432095Y4700000D01*
X27765428Y4747620D02*
X28003523Y3747620D01*
X28194000Y4461905D01*
X28384476Y3747620D01*
X28622571Y4747620D01*
X29527333Y3747620D02*
X28955904Y3747620D01*
X29241619Y3747620D02*
X29241619Y4747620D01*
X29146380Y4604762D01*
X29051142Y4509524D01*
X28955904Y4461905D01*
X67214761Y37227381D02*
X67119523Y37275000D01*
X67024285Y37370239D01*
X66881428Y37513096D01*
X66786190Y37560715D01*
X66690952Y37560715D01*
X66738571Y37322620D02*
X66643333Y37370239D01*
X66548095Y37465477D01*
X66500476Y37655953D01*
X66500476Y37989286D01*
X66548095Y38179762D01*
X66643333Y38275000D01*
X66738571Y38322620D01*
X66929047Y38322620D01*
X67024285Y38275000D01*
X67119523Y38179762D01*
X67167142Y37989286D01*
X67167142Y37655953D01*
X67119523Y37465477D01*
X67024285Y37370239D01*
X66929047Y37322620D01*
X66738571Y37322620D01*
X67643333Y37322620D02*
X67833809Y37322620D01*
X67929047Y37370239D01*
X67976666Y37417858D01*
X68071904Y37560715D01*
X68119523Y37751191D01*
X68119523Y38132143D01*
X68071904Y38227381D01*
X68024285Y38275000D01*
X67929047Y38322620D01*
X67738571Y38322620D01*
X67643333Y38275000D01*
X67595714Y38227381D01*
X67548095Y38132143D01*
X67548095Y37894048D01*
X67595714Y37798810D01*
X67643333Y37751191D01*
X67738571Y37703572D01*
X67929047Y37703572D01*
X68024285Y37751191D01*
X68071904Y37798810D01*
X68119523Y37894048D01*
X33220095Y14049620D02*
X33791523Y14049620D01*
X33505809Y13049620D02*
X33505809Y14049620D01*
X34124857Y13049620D02*
X34124857Y14049620D01*
X34505809Y14049620D01*
X34601047Y14002000D01*
X34648666Y13954381D01*
X34696285Y13859143D01*
X34696285Y13716286D01*
X34648666Y13621048D01*
X34601047Y13573429D01*
X34505809Y13525810D01*
X34124857Y13525810D01*
X35553428Y13716286D02*
X35553428Y13049620D01*
X35315333Y14097239D02*
X35077238Y13382953D01*
X35696285Y13382953D01*
X29029095Y14049620D02*
X29600523Y14049620D01*
X29314809Y13049620D02*
X29314809Y14049620D01*
X29933857Y13049620D02*
X29933857Y14049620D01*
X30314809Y14049620D01*
X30410047Y14002000D01*
X30457666Y13954381D01*
X30505285Y13859143D01*
X30505285Y13716286D01*
X30457666Y13621048D01*
X30410047Y13573429D01*
X30314809Y13525810D01*
X29933857Y13525810D01*
X31410047Y14049620D02*
X30933857Y14049620D01*
X30886238Y13573429D01*
X30933857Y13621048D01*
X31029095Y13668667D01*
X31267190Y13668667D01*
X31362428Y13621048D01*
X31410047Y13573429D01*
X31457666Y13478191D01*
X31457666Y13240096D01*
X31410047Y13144858D01*
X31362428Y13097239D01*
X31267190Y13049620D01*
X31029095Y13049620D01*
X30933857Y13097239D01*
X30886238Y13144858D01*
X24838095Y14049620D02*
X25409523Y14049620D01*
X25123809Y13049620D02*
X25123809Y14049620D01*
X25742857Y13049620D02*
X25742857Y14049620D01*
X26123809Y14049620D01*
X26219047Y14002000D01*
X26266666Y13954381D01*
X26314285Y13859143D01*
X26314285Y13716286D01*
X26266666Y13621048D01*
X26219047Y13573429D01*
X26123809Y13525810D01*
X25742857Y13525810D01*
X27171428Y14049620D02*
X26980952Y14049620D01*
X26885714Y14002000D01*
X26838095Y13954381D01*
X26742857Y13811524D01*
X26695238Y13621048D01*
X26695238Y13240096D01*
X26742857Y13144858D01*
X26790476Y13097239D01*
X26885714Y13049620D01*
X27076190Y13049620D01*
X27171428Y13097239D01*
X27219047Y13144858D01*
X27266666Y13240096D01*
X27266666Y13478191D01*
X27219047Y13573429D01*
X27171428Y13621048D01*
X27076190Y13668667D01*
X26885714Y13668667D01*
X26790476Y13621048D01*
X26742857Y13573429D01*
X26695238Y13478191D01*
X4381666Y44544239D02*
X4524523Y44496620D01*
X4762619Y44496620D01*
X4857857Y44544239D01*
X4905476Y44591858D01*
X4953095Y44687096D01*
X4953095Y44782334D01*
X4905476Y44877572D01*
X4857857Y44925191D01*
X4762619Y44972810D01*
X4572142Y45020429D01*
X4476904Y45068048D01*
X4429285Y45115667D01*
X4381666Y45210905D01*
X4381666Y45306143D01*
X4429285Y45401381D01*
X4476904Y45449000D01*
X4572142Y45496620D01*
X4810238Y45496620D01*
X4953095Y45449000D01*
X5286428Y45496620D02*
X5524523Y44496620D01*
X5715000Y45210905D01*
X5905476Y44496620D01*
X6143571Y45496620D01*
X6429285Y45496620D02*
X7048333Y45496620D01*
X6715000Y45115667D01*
X6857857Y45115667D01*
X6953095Y45068048D01*
X7000714Y45020429D01*
X7048333Y44925191D01*
X7048333Y44687096D01*
X7000714Y44591858D01*
X6953095Y44544239D01*
X6857857Y44496620D01*
X6572142Y44496620D01*
X6476904Y44544239D01*
X6429285Y44591858D01*
X82998380Y42148167D02*
X83712666Y42148167D01*
X83855523Y42100548D01*
X83950761Y42005310D01*
X83998380Y41862453D01*
X83998380Y41767215D01*
X83093619Y42576739D02*
X83046000Y42624358D01*
X82998380Y42719596D01*
X82998380Y42957691D01*
X83046000Y43052929D01*
X83093619Y43100548D01*
X83188857Y43148167D01*
X83284095Y43148167D01*
X83426952Y43100548D01*
X83998380Y42529120D01*
X83998380Y43148167D01*
X66282380Y50061905D02*
X65282380Y50061905D01*
X65282380Y50442858D01*
X65330000Y50538096D01*
X65377619Y50585715D01*
X65472857Y50633334D01*
X65615714Y50633334D01*
X65710952Y50585715D01*
X65758571Y50538096D01*
X65806190Y50442858D01*
X65806190Y50061905D01*
X65615714Y51490477D02*
X66282380Y51490477D01*
X65234761Y51252381D02*
X65949047Y51014286D01*
X65949047Y51633334D01*
X11630095Y21479120D02*
X12201523Y21479120D01*
X11915809Y20479120D02*
X11915809Y21479120D01*
X12534857Y20479120D02*
X12534857Y21479120D01*
X12915809Y21479120D01*
X13011047Y21431500D01*
X13058666Y21383881D01*
X13106285Y21288643D01*
X13106285Y21145786D01*
X13058666Y21050548D01*
X13011047Y21002929D01*
X12915809Y20955310D01*
X12534857Y20955310D01*
X13439619Y21479120D02*
X14058666Y21479120D01*
X13725333Y21098167D01*
X13868190Y21098167D01*
X13963428Y21050548D01*
X14011047Y21002929D01*
X14058666Y20907691D01*
X14058666Y20669596D01*
X14011047Y20574358D01*
X13963428Y20526739D01*
X13868190Y20479120D01*
X13582476Y20479120D01*
X13487238Y20526739D01*
X13439619Y20574358D01*
X11630095Y25352620D02*
X12201523Y25352620D01*
X11915809Y24352620D02*
X11915809Y25352620D01*
X12534857Y24352620D02*
X12534857Y25352620D01*
X12915809Y25352620D01*
X13011047Y25305000D01*
X13058666Y25257381D01*
X13106285Y25162143D01*
X13106285Y25019286D01*
X13058666Y24924048D01*
X13011047Y24876429D01*
X12915809Y24828810D01*
X12534857Y24828810D01*
X13487238Y25257381D02*
X13534857Y25305000D01*
X13630095Y25352620D01*
X13868190Y25352620D01*
X13963428Y25305000D01*
X14011047Y25257381D01*
X14058666Y25162143D01*
X14058666Y25066905D01*
X14011047Y24924048D01*
X13439619Y24352620D01*
X14058666Y24352620D01*
X20647095Y14049620D02*
X21218523Y14049620D01*
X20932809Y13049620D02*
X20932809Y14049620D01*
X21551857Y13049620D02*
X21551857Y14049620D01*
X21932809Y14049620D01*
X22028047Y14002000D01*
X22075666Y13954381D01*
X22123285Y13859143D01*
X22123285Y13716286D01*
X22075666Y13621048D01*
X22028047Y13573429D01*
X21932809Y13525810D01*
X21551857Y13525810D01*
X23075666Y13049620D02*
X22504238Y13049620D01*
X22789952Y13049620D02*
X22789952Y14049620D01*
X22694714Y13906762D01*
X22599476Y13811524D01*
X22504238Y13763905D01*
X27129261Y40640167D02*
X27176880Y40783024D01*
X27176880Y41021120D01*
X27129261Y41116358D01*
X27081642Y41163977D01*
X26986404Y41211596D01*
X26891166Y41211596D01*
X26795928Y41163977D01*
X26748309Y41116358D01*
X26700690Y41021120D01*
X26653071Y40830643D01*
X26605452Y40735405D01*
X26557833Y40687786D01*
X26462595Y40640167D01*
X26367357Y40640167D01*
X26272119Y40687786D01*
X26224500Y40735405D01*
X26176880Y40830643D01*
X26176880Y41068739D01*
X26224500Y41211596D01*
X26176880Y41544929D02*
X27176880Y41783024D01*
X26462595Y41973500D01*
X27176880Y42163977D01*
X26176880Y42402072D01*
X26176880Y43259215D02*
X26176880Y42783024D01*
X26653071Y42735405D01*
X26605452Y42783024D01*
X26557833Y42878262D01*
X26557833Y43116358D01*
X26605452Y43211596D01*
X26653071Y43259215D01*
X26748309Y43306834D01*
X26986404Y43306834D01*
X27081642Y43259215D01*
X27129261Y43211596D01*
X27176880Y43116358D01*
X27176880Y42878262D01*
X27129261Y42783024D01*
X27081642Y42735405D01*
X5143666Y-522761D02*
X5286523Y-570380D01*
X5524619Y-570380D01*
X5619857Y-522761D01*
X5667476Y-475142D01*
X5715095Y-379904D01*
X5715095Y-284666D01*
X5667476Y-189428D01*
X5619857Y-141809D01*
X5524619Y-94190D01*
X5334142Y-46571D01*
X5238904Y1048D01*
X5191285Y48667D01*
X5143666Y143905D01*
X5143666Y239143D01*
X5191285Y334381D01*
X5238904Y382000D01*
X5334142Y429620D01*
X5572238Y429620D01*
X5715095Y382000D01*
X6048428Y429620D02*
X6286523Y-570380D01*
X6477000Y143905D01*
X6667476Y-570380D01*
X6905571Y429620D01*
X7238904Y334381D02*
X7286523Y382000D01*
X7381761Y429620D01*
X7619857Y429620D01*
X7715095Y382000D01*
X7762714Y334381D01*
X7810333Y239143D01*
X7810333Y143905D01*
X7762714Y1048D01*
X7191285Y-570380D01*
X7810333Y-570380D01*
X44012380Y32885143D02*
X43536190Y32551810D01*
X44012380Y32313715D02*
X43012380Y32313715D01*
X43012380Y32694667D01*
X43060000Y32789905D01*
X43107619Y32837524D01*
X43202857Y32885143D01*
X43345714Y32885143D01*
X43440952Y32837524D01*
X43488571Y32789905D01*
X43536190Y32694667D01*
X43536190Y32313715D01*
X43012380Y33218477D02*
X43012380Y33837524D01*
X43393333Y33504191D01*
X43393333Y33647048D01*
X43440952Y33742286D01*
X43488571Y33789905D01*
X43583809Y33837524D01*
X43821904Y33837524D01*
X43917142Y33789905D01*
X43964761Y33742286D01*
X44012380Y33647048D01*
X44012380Y33361334D01*
X43964761Y33266096D01*
X43917142Y33218477D01*
X43012380Y34456572D02*
X43012380Y34551810D01*
X43060000Y34647048D01*
X43107619Y34694667D01*
X43202857Y34742286D01*
X43393333Y34789905D01*
X43631428Y34789905D01*
X43821904Y34742286D01*
X43917142Y34694667D01*
X43964761Y34647048D01*
X44012380Y34551810D01*
X44012380Y34456572D01*
X43964761Y34361334D01*
X43917142Y34313715D01*
X43821904Y34266096D01*
X43631428Y34218477D01*
X43393333Y34218477D01*
X43202857Y34266096D01*
X43107619Y34313715D01*
X43060000Y34361334D01*
X43012380Y34456572D01*
X47822380Y31234143D02*
X47346190Y30900810D01*
X47822380Y30662715D02*
X46822380Y30662715D01*
X46822380Y31043667D01*
X46870000Y31138905D01*
X46917619Y31186524D01*
X47012857Y31234143D01*
X47155714Y31234143D01*
X47250952Y31186524D01*
X47298571Y31138905D01*
X47346190Y31043667D01*
X47346190Y30662715D01*
X46917619Y31615096D02*
X46870000Y31662715D01*
X46822380Y31757953D01*
X46822380Y31996048D01*
X46870000Y32091286D01*
X46917619Y32138905D01*
X47012857Y32186524D01*
X47108095Y32186524D01*
X47250952Y32138905D01*
X47822380Y31567477D01*
X47822380Y32186524D01*
X47822380Y32662715D02*
X47822380Y32853191D01*
X47774761Y32948429D01*
X47727142Y32996048D01*
X47584285Y33091286D01*
X47393809Y33138905D01*
X47012857Y33138905D01*
X46917619Y33091286D01*
X46870000Y33043667D01*
X46822380Y32948429D01*
X46822380Y32757953D01*
X46870000Y32662715D01*
X46917619Y32615096D01*
X47012857Y32567477D01*
X47250952Y32567477D01*
X47346190Y32615096D01*
X47393809Y32662715D01*
X47441428Y32757953D01*
X47441428Y32948429D01*
X47393809Y33043667D01*
X47346190Y33091286D01*
X47250952Y33138905D01*
X47822380Y20629643D02*
X47346190Y20296310D01*
X47822380Y20058215D02*
X46822380Y20058215D01*
X46822380Y20439167D01*
X46870000Y20534405D01*
X46917619Y20582024D01*
X47012857Y20629643D01*
X47155714Y20629643D01*
X47250952Y20582024D01*
X47298571Y20534405D01*
X47346190Y20439167D01*
X47346190Y20058215D01*
X46917619Y21010596D02*
X46870000Y21058215D01*
X46822380Y21153453D01*
X46822380Y21391548D01*
X46870000Y21486786D01*
X46917619Y21534405D01*
X47012857Y21582024D01*
X47108095Y21582024D01*
X47250952Y21534405D01*
X47822380Y20962977D01*
X47822380Y21582024D01*
X46822380Y21915358D02*
X46822380Y22582024D01*
X47822380Y22153453D01*
X40632142Y17328620D02*
X40298809Y17804810D01*
X40060714Y17328620D02*
X40060714Y18328620D01*
X40441666Y18328620D01*
X40536904Y18281000D01*
X40584523Y18233381D01*
X40632142Y18138143D01*
X40632142Y17995286D01*
X40584523Y17900048D01*
X40536904Y17852429D01*
X40441666Y17804810D01*
X40060714Y17804810D01*
X41013095Y18233381D02*
X41060714Y18281000D01*
X41155952Y18328620D01*
X41394047Y18328620D01*
X41489285Y18281000D01*
X41536904Y18233381D01*
X41584523Y18138143D01*
X41584523Y18042905D01*
X41536904Y17900048D01*
X40965476Y17328620D01*
X41584523Y17328620D01*
X42441666Y18328620D02*
X42251190Y18328620D01*
X42155952Y18281000D01*
X42108333Y18233381D01*
X42013095Y18090524D01*
X41965476Y17900048D01*
X41965476Y17519096D01*
X42013095Y17423858D01*
X42060714Y17376239D01*
X42155952Y17328620D01*
X42346428Y17328620D01*
X42441666Y17376239D01*
X42489285Y17423858D01*
X42536904Y17519096D01*
X42536904Y17757191D01*
X42489285Y17852429D01*
X42441666Y17900048D01*
X42346428Y17947667D01*
X42155952Y17947667D01*
X42060714Y17900048D01*
X42013095Y17852429D01*
X41965476Y17757191D01*
X38473142Y33203620D02*
X38139809Y33679810D01*
X37901714Y33203620D02*
X37901714Y34203620D01*
X38282666Y34203620D01*
X38377904Y34156000D01*
X38425523Y34108381D01*
X38473142Y34013143D01*
X38473142Y33870286D01*
X38425523Y33775048D01*
X38377904Y33727429D01*
X38282666Y33679810D01*
X37901714Y33679810D01*
X38854095Y34108381D02*
X38901714Y34156000D01*
X38996952Y34203620D01*
X39235047Y34203620D01*
X39330285Y34156000D01*
X39377904Y34108381D01*
X39425523Y34013143D01*
X39425523Y33917905D01*
X39377904Y33775048D01*
X38806476Y33203620D01*
X39425523Y33203620D01*
X40330285Y34203620D02*
X39854095Y34203620D01*
X39806476Y33727429D01*
X39854095Y33775048D01*
X39949333Y33822667D01*
X40187428Y33822667D01*
X40282666Y33775048D01*
X40330285Y33727429D01*
X40377904Y33632191D01*
X40377904Y33394096D01*
X40330285Y33298858D01*
X40282666Y33251239D01*
X40187428Y33203620D01*
X39949333Y33203620D01*
X39854095Y33251239D01*
X39806476Y33298858D01*
X45077142Y33457620D02*
X44743809Y33933810D01*
X44505714Y33457620D02*
X44505714Y34457620D01*
X44886666Y34457620D01*
X44981904Y34410000D01*
X45029523Y34362381D01*
X45077142Y34267143D01*
X45077142Y34124286D01*
X45029523Y34029048D01*
X44981904Y33981429D01*
X44886666Y33933810D01*
X44505714Y33933810D01*
X45458095Y34362381D02*
X45505714Y34410000D01*
X45600952Y34457620D01*
X45839047Y34457620D01*
X45934285Y34410000D01*
X45981904Y34362381D01*
X46029523Y34267143D01*
X46029523Y34171905D01*
X45981904Y34029048D01*
X45410476Y33457620D01*
X46029523Y33457620D01*
X46886666Y34124286D02*
X46886666Y33457620D01*
X46648571Y34505239D02*
X46410476Y33790953D01*
X47029523Y33790953D01*
X43172142Y25202620D02*
X42838809Y25678810D01*
X42600714Y25202620D02*
X42600714Y26202620D01*
X42981666Y26202620D01*
X43076904Y26155000D01*
X43124523Y26107381D01*
X43172142Y26012143D01*
X43172142Y25869286D01*
X43124523Y25774048D01*
X43076904Y25726429D01*
X42981666Y25678810D01*
X42600714Y25678810D01*
X43553095Y26107381D02*
X43600714Y26155000D01*
X43695952Y26202620D01*
X43934047Y26202620D01*
X44029285Y26155000D01*
X44076904Y26107381D01*
X44124523Y26012143D01*
X44124523Y25916905D01*
X44076904Y25774048D01*
X43505476Y25202620D01*
X44124523Y25202620D01*
X44457857Y26202620D02*
X45076904Y26202620D01*
X44743571Y25821667D01*
X44886428Y25821667D01*
X44981666Y25774048D01*
X45029285Y25726429D01*
X45076904Y25631191D01*
X45076904Y25393096D01*
X45029285Y25297858D01*
X44981666Y25250239D01*
X44886428Y25202620D01*
X44600714Y25202620D01*
X44505476Y25250239D01*
X44457857Y25297858D01*
X44569142Y22789620D02*
X44235809Y23265810D01*
X43997714Y22789620D02*
X43997714Y23789620D01*
X44378666Y23789620D01*
X44473904Y23742000D01*
X44521523Y23694381D01*
X44569142Y23599143D01*
X44569142Y23456286D01*
X44521523Y23361048D01*
X44473904Y23313429D01*
X44378666Y23265810D01*
X43997714Y23265810D01*
X44950095Y23694381D02*
X44997714Y23742000D01*
X45092952Y23789620D01*
X45331047Y23789620D01*
X45426285Y23742000D01*
X45473904Y23694381D01*
X45521523Y23599143D01*
X45521523Y23503905D01*
X45473904Y23361048D01*
X44902476Y22789620D01*
X45521523Y22789620D01*
X45902476Y23694381D02*
X45950095Y23742000D01*
X46045333Y23789620D01*
X46283428Y23789620D01*
X46378666Y23742000D01*
X46426285Y23694381D01*
X46473904Y23599143D01*
X46473904Y23503905D01*
X46426285Y23361048D01*
X45854857Y22789620D01*
X46473904Y22789620D01*
X43045142Y14915620D02*
X42711809Y15391810D01*
X42473714Y14915620D02*
X42473714Y15915620D01*
X42854666Y15915620D01*
X42949904Y15868000D01*
X42997523Y15820381D01*
X43045142Y15725143D01*
X43045142Y15582286D01*
X42997523Y15487048D01*
X42949904Y15439429D01*
X42854666Y15391810D01*
X42473714Y15391810D01*
X43426095Y15820381D02*
X43473714Y15868000D01*
X43568952Y15915620D01*
X43807047Y15915620D01*
X43902285Y15868000D01*
X43949904Y15820381D01*
X43997523Y15725143D01*
X43997523Y15629905D01*
X43949904Y15487048D01*
X43378476Y14915620D01*
X43997523Y14915620D01*
X44949904Y14915620D02*
X44378476Y14915620D01*
X44664190Y14915620D02*
X44664190Y15915620D01*
X44568952Y15772762D01*
X44473714Y15677524D01*
X44378476Y15629905D01*
X44569142Y12121620D02*
X44235809Y12597810D01*
X43997714Y12121620D02*
X43997714Y13121620D01*
X44378666Y13121620D01*
X44473904Y13074000D01*
X44521523Y13026381D01*
X44569142Y12931143D01*
X44569142Y12788286D01*
X44521523Y12693048D01*
X44473904Y12645429D01*
X44378666Y12597810D01*
X43997714Y12597810D01*
X44950095Y13026381D02*
X44997714Y13074000D01*
X45092952Y13121620D01*
X45331047Y13121620D01*
X45426285Y13074000D01*
X45473904Y13026381D01*
X45521523Y12931143D01*
X45521523Y12835905D01*
X45473904Y12693048D01*
X44902476Y12121620D01*
X45521523Y12121620D01*
X46140571Y13121620D02*
X46235809Y13121620D01*
X46331047Y13074000D01*
X46378666Y13026381D01*
X46426285Y12931143D01*
X46473904Y12740667D01*
X46473904Y12502572D01*
X46426285Y12312096D01*
X46378666Y12216858D01*
X46331047Y12169239D01*
X46235809Y12121620D01*
X46140571Y12121620D01*
X46045333Y12169239D01*
X45997714Y12216858D01*
X45950095Y12312096D01*
X45902476Y12502572D01*
X45902476Y12740667D01*
X45950095Y12931143D01*
X45997714Y13026381D01*
X46045333Y13074000D01*
X46140571Y13121620D01*
X47822380Y10025143D02*
X47346190Y9691810D01*
X47822380Y9453715D02*
X46822380Y9453715D01*
X46822380Y9834667D01*
X46870000Y9929905D01*
X46917619Y9977524D01*
X47012857Y10025143D01*
X47155714Y10025143D01*
X47250952Y9977524D01*
X47298571Y9929905D01*
X47346190Y9834667D01*
X47346190Y9453715D01*
X47822380Y10977524D02*
X47822380Y10406096D01*
X47822380Y10691810D02*
X46822380Y10691810D01*
X46965238Y10596572D01*
X47060476Y10501334D01*
X47108095Y10406096D01*
X46822380Y11310858D02*
X46822380Y11929905D01*
X47203333Y11596572D01*
X47203333Y11739429D01*
X47250952Y11834667D01*
X47298571Y11882286D01*
X47393809Y11929905D01*
X47631904Y11929905D01*
X47727142Y11882286D01*
X47774761Y11834667D01*
X47822380Y11739429D01*
X47822380Y11453715D01*
X47774761Y11358477D01*
X47727142Y11310858D01*
X10232380Y17168834D02*
X9756190Y16835500D01*
X10232380Y16597405D02*
X9232380Y16597405D01*
X9232380Y16978358D01*
X9280000Y17073596D01*
X9327619Y17121215D01*
X9422857Y17168834D01*
X9565714Y17168834D01*
X9660952Y17121215D01*
X9708571Y17073596D01*
X9756190Y16978358D01*
X9756190Y16597405D01*
X9232380Y18073596D02*
X9232380Y17597405D01*
X9708571Y17549786D01*
X9660952Y17597405D01*
X9613333Y17692643D01*
X9613333Y17930739D01*
X9660952Y18025977D01*
X9708571Y18073596D01*
X9803809Y18121215D01*
X10041904Y18121215D01*
X10137142Y18073596D01*
X10184761Y18025977D01*
X10232380Y17930739D01*
X10232380Y17692643D01*
X10184761Y17597405D01*
X10137142Y17549786D01*
X7707333Y43617620D02*
X7374000Y44093810D01*
X7135904Y43617620D02*
X7135904Y44617620D01*
X7516857Y44617620D01*
X7612095Y44570000D01*
X7659714Y44522381D01*
X7707333Y44427143D01*
X7707333Y44284286D01*
X7659714Y44189048D01*
X7612095Y44141429D01*
X7516857Y44093810D01*
X7135904Y44093810D01*
X8040666Y44617620D02*
X8659714Y44617620D01*
X8326380Y44236667D01*
X8469238Y44236667D01*
X8564476Y44189048D01*
X8612095Y44141429D01*
X8659714Y44046191D01*
X8659714Y43808096D01*
X8612095Y43712858D01*
X8564476Y43665239D01*
X8469238Y43617620D01*
X8183523Y43617620D01*
X8088285Y43665239D01*
X8040666Y43712858D01*
X15708333Y23803620D02*
X15375000Y24279810D01*
X15136904Y23803620D02*
X15136904Y24803620D01*
X15517857Y24803620D01*
X15613095Y24756000D01*
X15660714Y24708381D01*
X15708333Y24613143D01*
X15708333Y24470286D01*
X15660714Y24375048D01*
X15613095Y24327429D01*
X15517857Y24279810D01*
X15136904Y24279810D01*
X16660714Y23803620D02*
X16089285Y23803620D01*
X16375000Y23803620D02*
X16375000Y24803620D01*
X16279761Y24660762D01*
X16184523Y24565524D01*
X16089285Y24517905D01*
X53752761Y37226381D02*
X53657523Y37274000D01*
X53562285Y37369239D01*
X53419428Y37512096D01*
X53324190Y37559715D01*
X53228952Y37559715D01*
X53276571Y37321620D02*
X53181333Y37369239D01*
X53086095Y37464477D01*
X53038476Y37654953D01*
X53038476Y37988286D01*
X53086095Y38178762D01*
X53181333Y38274000D01*
X53276571Y38321620D01*
X53467047Y38321620D01*
X53562285Y38274000D01*
X53657523Y38178762D01*
X53705142Y37988286D01*
X53705142Y37654953D01*
X53657523Y37464477D01*
X53562285Y37369239D01*
X53467047Y37321620D01*
X53276571Y37321620D01*
X54276571Y37893048D02*
X54181333Y37940667D01*
X54133714Y37988286D01*
X54086095Y38083524D01*
X54086095Y38131143D01*
X54133714Y38226381D01*
X54181333Y38274000D01*
X54276571Y38321620D01*
X54467047Y38321620D01*
X54562285Y38274000D01*
X54609904Y38226381D01*
X54657523Y38131143D01*
X54657523Y38083524D01*
X54609904Y37988286D01*
X54562285Y37940667D01*
X54467047Y37893048D01*
X54276571Y37893048D01*
X54181333Y37845429D01*
X54133714Y37797810D01*
X54086095Y37702572D01*
X54086095Y37512096D01*
X54133714Y37416858D01*
X54181333Y37369239D01*
X54276571Y37321620D01*
X54467047Y37321620D01*
X54562285Y37369239D01*
X54609904Y37416858D01*
X54657523Y37512096D01*
X54657523Y37702572D01*
X54609904Y37797810D01*
X54562285Y37845429D01*
X54467047Y37893048D01*
X67214761Y26558381D02*
X67119523Y26606000D01*
X67024285Y26701239D01*
X66881428Y26844096D01*
X66786190Y26891715D01*
X66690952Y26891715D01*
X66738571Y26653620D02*
X66643333Y26701239D01*
X66548095Y26796477D01*
X66500476Y26986953D01*
X66500476Y27320286D01*
X66548095Y27510762D01*
X66643333Y27606000D01*
X66738571Y27653620D01*
X66929047Y27653620D01*
X67024285Y27606000D01*
X67119523Y27510762D01*
X67167142Y27320286D01*
X67167142Y26986953D01*
X67119523Y26796477D01*
X67024285Y26701239D01*
X66929047Y26653620D01*
X66738571Y26653620D01*
X67500476Y27653620D02*
X68167142Y27653620D01*
X67738571Y26653620D01*
X53787761Y26557381D02*
X53692523Y26605000D01*
X53597285Y26700239D01*
X53454428Y26843096D01*
X53359190Y26890715D01*
X53263952Y26890715D01*
X53311571Y26652620D02*
X53216333Y26700239D01*
X53121095Y26795477D01*
X53073476Y26985953D01*
X53073476Y27319286D01*
X53121095Y27509762D01*
X53216333Y27605000D01*
X53311571Y27652620D01*
X53502047Y27652620D01*
X53597285Y27605000D01*
X53692523Y27509762D01*
X53740142Y27319286D01*
X53740142Y26985953D01*
X53692523Y26795477D01*
X53597285Y26700239D01*
X53502047Y26652620D01*
X53311571Y26652620D01*
X54597285Y27652620D02*
X54406809Y27652620D01*
X54311571Y27605000D01*
X54263952Y27557381D01*
X54168714Y27414524D01*
X54121095Y27224048D01*
X54121095Y26843096D01*
X54168714Y26747858D01*
X54216333Y26700239D01*
X54311571Y26652620D01*
X54502047Y26652620D01*
X54597285Y26700239D01*
X54644904Y26747858D01*
X54692523Y26843096D01*
X54692523Y27081191D01*
X54644904Y27176429D01*
X54597285Y27224048D01*
X54502047Y27271667D01*
X54311571Y27271667D01*
X54216333Y27224048D01*
X54168714Y27176429D01*
X54121095Y27081191D01*
X67249761Y15822381D02*
X67154523Y15870000D01*
X67059285Y15965239D01*
X66916428Y16108096D01*
X66821190Y16155715D01*
X66725952Y16155715D01*
X66773571Y15917620D02*
X66678333Y15965239D01*
X66583095Y16060477D01*
X66535476Y16250953D01*
X66535476Y16584286D01*
X66583095Y16774762D01*
X66678333Y16870000D01*
X66773571Y16917620D01*
X66964047Y16917620D01*
X67059285Y16870000D01*
X67154523Y16774762D01*
X67202142Y16584286D01*
X67202142Y16250953D01*
X67154523Y16060477D01*
X67059285Y15965239D01*
X66964047Y15917620D01*
X66773571Y15917620D01*
X68106904Y16917620D02*
X67630714Y16917620D01*
X67583095Y16441429D01*
X67630714Y16489048D01*
X67725952Y16536667D01*
X67964047Y16536667D01*
X68059285Y16489048D01*
X68106904Y16441429D01*
X68154523Y16346191D01*
X68154523Y16108096D01*
X68106904Y16012858D01*
X68059285Y15965239D01*
X67964047Y15917620D01*
X67725952Y15917620D01*
X67630714Y15965239D01*
X67583095Y16012858D01*
X53787761Y15890381D02*
X53692523Y15938000D01*
X53597285Y16033239D01*
X53454428Y16176096D01*
X53359190Y16223715D01*
X53263952Y16223715D01*
X53311571Y15985620D02*
X53216333Y16033239D01*
X53121095Y16128477D01*
X53073476Y16318953D01*
X53073476Y16652286D01*
X53121095Y16842762D01*
X53216333Y16938000D01*
X53311571Y16985620D01*
X53502047Y16985620D01*
X53597285Y16938000D01*
X53692523Y16842762D01*
X53740142Y16652286D01*
X53740142Y16318953D01*
X53692523Y16128477D01*
X53597285Y16033239D01*
X53502047Y15985620D01*
X53311571Y15985620D01*
X54121095Y16890381D02*
X54168714Y16938000D01*
X54263952Y16985620D01*
X54502047Y16985620D01*
X54597285Y16938000D01*
X54644904Y16890381D01*
X54692523Y16795143D01*
X54692523Y16699905D01*
X54644904Y16557048D01*
X54073476Y15985620D01*
X54692523Y15985620D01*
X14763761Y19986381D02*
X14668523Y20034000D01*
X14573285Y20129239D01*
X14430428Y20272096D01*
X14335190Y20319715D01*
X14239952Y20319715D01*
X14287571Y20081620D02*
X14192333Y20129239D01*
X14097095Y20224477D01*
X14049476Y20414953D01*
X14049476Y20748286D01*
X14097095Y20938762D01*
X14192333Y21034000D01*
X14287571Y21081620D01*
X14478047Y21081620D01*
X14573285Y21034000D01*
X14668523Y20938762D01*
X14716142Y20748286D01*
X14716142Y20414953D01*
X14668523Y20224477D01*
X14573285Y20129239D01*
X14478047Y20081620D01*
X14287571Y20081620D01*
X15668523Y20081620D02*
X15097095Y20081620D01*
X15382809Y20081620D02*
X15382809Y21081620D01*
X15287571Y20938762D01*
X15192333Y20843524D01*
X15097095Y20795905D01*
X73132380Y22145667D02*
X73846666Y22145667D01*
X73989523Y22098048D01*
X74084761Y22002810D01*
X74132380Y21859953D01*
X74132380Y21764715D01*
X73132380Y22526620D02*
X73132380Y23145667D01*
X73513333Y22812334D01*
X73513333Y22955191D01*
X73560952Y23050429D01*
X73608571Y23098048D01*
X73703809Y23145667D01*
X73941904Y23145667D01*
X74037142Y23098048D01*
X74084761Y23050429D01*
X74132380Y22955191D01*
X74132380Y22669477D01*
X74084761Y22574239D01*
X74037142Y22526620D01*
X5254666Y31833620D02*
X5254666Y31119334D01*
X5207047Y30976477D01*
X5111809Y30881239D01*
X4968952Y30833620D01*
X4873714Y30833620D01*
X6254666Y30833620D02*
X5683238Y30833620D01*
X5968952Y30833620D02*
X5968952Y31833620D01*
X5873714Y31690762D01*
X5778476Y31595524D01*
X5683238Y31547905D01*
X59282666Y37251429D02*
X58949333Y37251429D01*
X58949333Y36727620D02*
X58949333Y37727620D01*
X59425523Y37727620D01*
X59758857Y37632381D02*
X59806476Y37680000D01*
X59901714Y37727620D01*
X60139809Y37727620D01*
X60235047Y37680000D01*
X60282666Y37632381D01*
X60330285Y37537143D01*
X60330285Y37441905D01*
X60282666Y37299048D01*
X59711238Y36727620D01*
X60330285Y36727620D01*
X2309904Y43617620D02*
X2309904Y44617620D01*
X2548000Y44617620D01*
X2690857Y44570000D01*
X2786095Y44474762D01*
X2833714Y44379524D01*
X2881333Y44189048D01*
X2881333Y44046191D01*
X2833714Y43855715D01*
X2786095Y43760477D01*
X2690857Y43665239D01*
X2548000Y43617620D01*
X2309904Y43617620D01*
X3214666Y44617620D02*
X3833714Y44617620D01*
X3500380Y44236667D01*
X3643238Y44236667D01*
X3738476Y44189048D01*
X3786095Y44141429D01*
X3833714Y44046191D01*
X3833714Y43808096D01*
X3786095Y43712858D01*
X3738476Y43665239D01*
X3643238Y43617620D01*
X3357523Y43617620D01*
X3262285Y43665239D01*
X3214666Y43712858D01*
X13024380Y48967405D02*
X12024380Y48967405D01*
X12024380Y49205500D01*
X12072000Y49348358D01*
X12167238Y49443596D01*
X12262476Y49491215D01*
X12452952Y49538834D01*
X12595809Y49538834D01*
X12786285Y49491215D01*
X12881523Y49443596D01*
X12976761Y49348358D01*
X13024380Y49205500D01*
X13024380Y48967405D01*
X13024380Y50491215D02*
X13024380Y49919786D01*
X13024380Y50205500D02*
X12024380Y50205500D01*
X12167238Y50110262D01*
X12262476Y50015024D01*
X12310095Y49919786D01*
X42680142Y9485334D02*
X42727761Y9437715D01*
X42775380Y9294858D01*
X42775380Y9199620D01*
X42727761Y9056762D01*
X42632523Y8961524D01*
X42537285Y8913905D01*
X42346809Y8866286D01*
X42203952Y8866286D01*
X42013476Y8913905D01*
X41918238Y8961524D01*
X41823000Y9056762D01*
X41775380Y9199620D01*
X41775380Y9294858D01*
X41823000Y9437715D01*
X41870619Y9485334D01*
X42108714Y10342477D02*
X42775380Y10342477D01*
X41727761Y10104381D02*
X42442047Y9866286D01*
X42442047Y10485334D01*
X18179142Y27011334D02*
X18226761Y26963715D01*
X18274380Y26820858D01*
X18274380Y26725620D01*
X18226761Y26582762D01*
X18131523Y26487524D01*
X18036285Y26439905D01*
X17845809Y26392286D01*
X17702952Y26392286D01*
X17512476Y26439905D01*
X17417238Y26487524D01*
X17322000Y26582762D01*
X17274380Y26725620D01*
X17274380Y26820858D01*
X17322000Y26963715D01*
X17369619Y27011334D01*
X17369619Y27392286D02*
X17322000Y27439905D01*
X17274380Y27535143D01*
X17274380Y27773239D01*
X17322000Y27868477D01*
X17369619Y27916096D01*
X17464857Y27963715D01*
X17560095Y27963715D01*
X17702952Y27916096D01*
X18274380Y27344667D01*
X18274380Y27963715D01*
X10264142Y31202334D02*
X10311761Y31154715D01*
X10359380Y31011858D01*
X10359380Y30916620D01*
X10311761Y30773762D01*
X10216523Y30678524D01*
X10121285Y30630905D01*
X9930809Y30583286D01*
X9787952Y30583286D01*
X9597476Y30630905D01*
X9502238Y30678524D01*
X9407000Y30773762D01*
X9359380Y30916620D01*
X9359380Y31011858D01*
X9407000Y31154715D01*
X9454619Y31202334D01*
X10359380Y32154715D02*
X10359380Y31583286D01*
X10359380Y31869000D02*
X9359380Y31869000D01*
X9502238Y31773762D01*
X9597476Y31678524D01*
X9645095Y31583286D01*
X36091904Y4627620D02*
X36091904Y5627620D01*
X36472857Y5627620D01*
X36568095Y5580000D01*
X36615714Y5532381D01*
X36663333Y5437143D01*
X36663333Y5294286D01*
X36615714Y5199048D01*
X36568095Y5151429D01*
X36472857Y5103810D01*
X36091904Y5103810D01*
X37615714Y4627620D02*
X37044285Y4627620D01*
X37330000Y4627620D02*
X37330000Y5627620D01*
X37234761Y5484762D01*
X37139523Y5389524D01*
X37044285Y5341905D01*
X56665904Y4627620D02*
X56665904Y5627620D01*
X57046857Y5627620D01*
X57142095Y5580000D01*
X57189714Y5532381D01*
X57237333Y5437143D01*
X57237333Y5294286D01*
X57189714Y5199048D01*
X57142095Y5151429D01*
X57046857Y5103810D01*
X56665904Y5103810D01*
X57618285Y5532381D02*
X57665904Y5580000D01*
X57761142Y5627620D01*
X57999238Y5627620D01*
X58094476Y5580000D01*
X58142095Y5532381D01*
X58189714Y5437143D01*
X58189714Y5341905D01*
X58142095Y5199048D01*
X57570666Y4627620D01*
X58189714Y4627620D01*
X29487904Y47553620D02*
X29487904Y48553620D01*
X29868857Y48553620D01*
X29964095Y48506000D01*
X30011714Y48458381D01*
X30059333Y48363143D01*
X30059333Y48220286D01*
X30011714Y48125048D01*
X29964095Y48077429D01*
X29868857Y48029810D01*
X29487904Y48029810D01*
X30392666Y48553620D02*
X31011714Y48553620D01*
X30678380Y48172667D01*
X30821238Y48172667D01*
X30916476Y48125048D01*
X30964095Y48077429D01*
X31011714Y47982191D01*
X31011714Y47744096D01*
X30964095Y47648858D01*
X30916476Y47601239D01*
X30821238Y47553620D01*
X30535523Y47553620D01*
X30440285Y47601239D01*
X30392666Y47648858D01*
M02*
