%TF.GenerationSoftware,KiCad,Pcbnew,(5.1.2-1)-1*%
%TF.CreationDate,2019-08-21T19:10:38+02:00*%
%TF.ProjectId,Kiel_50,4b69656c-5f35-4302-9e6b-696361645f70,rev?*%
%TF.SameCoordinates,PX69db1f0PY7882d48*%
%TF.FileFunction,Soldermask,Bot*%
%TF.FilePolarity,Negative*%
%FSLAX46Y46*%
G04 Gerber Fmt 4.6, Leading zero omitted, Abs format (unit mm)*
G04 Created by KiCad (PCBNEW (5.1.2-1)-1) date 2019-08-21 19:10:38*
%MOMM*%
%LPD*%
G04 APERTURE LIST*
%ADD10C,0.100000*%
%ADD11C,0.150000*%
G04 APERTURE END LIST*
D10*
G36*
X78232000Y41529000D02*
G01*
X77851000Y41402000D01*
X77470000Y41148000D01*
X77470000Y41275000D01*
X77724000Y41656000D01*
X78232000Y41656000D01*
X78232000Y41529000D01*
G37*
X78232000Y41529000D02*
X77851000Y41402000D01*
X77470000Y41148000D01*
X77470000Y41275000D01*
X77724000Y41656000D01*
X78232000Y41656000D01*
X78232000Y41529000D01*
G36*
X80264000Y40005000D02*
G01*
X80010000Y40259000D01*
X79883000Y40640000D01*
X79629000Y41021000D01*
X79248000Y41275000D01*
X78613000Y41529000D01*
X78613000Y41656000D01*
X80264000Y41656000D01*
X80264000Y40005000D01*
G37*
X80264000Y40005000D02*
X80010000Y40259000D01*
X79883000Y40640000D01*
X79629000Y41021000D01*
X79248000Y41275000D01*
X78613000Y41529000D01*
X78613000Y41656000D01*
X80264000Y41656000D01*
X80264000Y40005000D01*
G36*
X80137000Y38227000D02*
G01*
X78994000Y38227000D01*
X80137000Y39370000D01*
X80137000Y38227000D01*
G37*
X80137000Y38227000D02*
X78994000Y38227000D01*
X80137000Y39370000D01*
X80137000Y38227000D01*
G36*
X78105000Y38227000D02*
G01*
X76708000Y38227000D01*
X76708000Y39497000D01*
X78105000Y38227000D01*
G37*
X78105000Y38227000D02*
X76708000Y38227000D01*
X76708000Y39497000D01*
X78105000Y38227000D01*
G36*
X76708000Y40513000D02*
G01*
X76708000Y41656000D01*
X77851000Y41656000D01*
X76708000Y40513000D01*
G37*
X76708000Y40513000D02*
X76708000Y41656000D01*
X77851000Y41656000D01*
X76708000Y40513000D01*
D11*
X80200501Y40005000D02*
G75*
G03X80200501Y40005000I-1690818J0D01*
G01*
X80054334Y39922334D02*
G75*
G03X80054334Y39922334I-1568334J0D01*
G01*
D10*
G36*
X70866000Y45212000D02*
G01*
X70119875Y45085000D01*
X69532500Y44767500D01*
X69088000Y44259500D01*
X68834000Y43767375D01*
X68834000Y42545000D01*
X69088000Y42037000D01*
X69596000Y41529000D01*
X70231000Y41211500D01*
X70866000Y41148000D01*
X70866000Y40513000D01*
X61722000Y40513000D01*
X68580000Y45339000D01*
X70866000Y45339000D01*
X70866000Y45212000D01*
G37*
X70866000Y45212000D02*
X70119875Y45085000D01*
X69532500Y44767500D01*
X69088000Y44259500D01*
X68834000Y43767375D01*
X68834000Y42545000D01*
X69088000Y42037000D01*
X69596000Y41529000D01*
X70231000Y41211500D01*
X70866000Y41148000D01*
X70866000Y40513000D01*
X61722000Y40513000D01*
X68580000Y45339000D01*
X70866000Y45339000D01*
X70866000Y45212000D01*
G36*
X61976000Y34671000D02*
G01*
X61976000Y32639000D01*
X66040000Y32639000D01*
X66040000Y34671000D01*
X66294000Y34925000D01*
X67056000Y34925000D01*
X67310000Y34671000D01*
X67310000Y8763000D01*
X64770000Y8763000D01*
X65024000Y32131000D01*
X60960000Y32131000D01*
X60960000Y34671000D01*
X61214000Y34925000D01*
X61722000Y34925000D01*
X61976000Y34671000D01*
G37*
X61976000Y34671000D02*
X61976000Y32639000D01*
X66040000Y32639000D01*
X66040000Y34671000D01*
X66294000Y34925000D01*
X67056000Y34925000D01*
X67310000Y34671000D01*
X67310000Y8763000D01*
X64770000Y8763000D01*
X65024000Y32131000D01*
X60960000Y32131000D01*
X60960000Y34671000D01*
X61214000Y34925000D01*
X61722000Y34925000D01*
X61976000Y34671000D01*
G36*
X82962750Y35242500D02*
G01*
X82899250Y10350500D01*
X78359000Y6096000D01*
X68072000Y6096000D01*
X67246500Y5270500D01*
X52387500Y5270500D01*
X52197000Y5334000D01*
X51943000Y5524500D01*
X51752500Y5778500D01*
X51752500Y6350000D01*
X51879500Y36512500D01*
X52641500Y36512500D01*
X52641500Y9017000D01*
X60071000Y9017000D01*
X60071000Y7810500D01*
X78549500Y7810500D01*
X78613000Y7874000D01*
X81978500Y10985500D01*
X81978500Y35179000D01*
X78359000Y35179000D01*
X78295500Y35306000D01*
X76803250Y36576000D01*
X76787375Y38290500D01*
X80184625Y38290500D01*
X80137000Y38417500D01*
X80137000Y41592500D01*
X76771500Y41592500D01*
X76771500Y42291000D01*
X82931000Y42291000D01*
X82962750Y35242500D01*
G37*
X82962750Y35242500D02*
X82899250Y10350500D01*
X78359000Y6096000D01*
X68072000Y6096000D01*
X67246500Y5270500D01*
X52387500Y5270500D01*
X52197000Y5334000D01*
X51943000Y5524500D01*
X51752500Y5778500D01*
X51752500Y6350000D01*
X51879500Y36512500D01*
X52641500Y36512500D01*
X52641500Y9017000D01*
X60071000Y9017000D01*
X60071000Y7810500D01*
X78549500Y7810500D01*
X78613000Y7874000D01*
X81978500Y10985500D01*
X81978500Y35179000D01*
X78359000Y35179000D01*
X78295500Y35306000D01*
X76803250Y36576000D01*
X76787375Y38290500D01*
X80184625Y38290500D01*
X80137000Y38417500D01*
X80137000Y41592500D01*
X76771500Y41592500D01*
X76771500Y42291000D01*
X82931000Y42291000D01*
X82962750Y35242500D01*
G36*
X55562500Y15113000D02*
G01*
X51816000Y15113000D01*
X51816000Y19431000D01*
X55562500Y19431000D01*
X55562500Y15113000D01*
G37*
X55562500Y15113000D02*
X51816000Y15113000D01*
X51816000Y19431000D01*
X55562500Y19431000D01*
X55562500Y15113000D01*
G36*
X55562500Y25781000D02*
G01*
X51943000Y25781000D01*
X51943000Y30099000D01*
X55562500Y30099000D01*
X55562500Y25781000D01*
G37*
X55562500Y25781000D02*
X51943000Y25781000D01*
X51943000Y30099000D01*
X55562500Y30099000D01*
X55562500Y25781000D01*
G36*
X66421000Y47879000D02*
G01*
X76327000Y47879000D01*
X76327000Y43307000D01*
X76833632Y42799000D01*
X76836369Y36558658D01*
X74422000Y38608000D01*
X74295000Y38735000D01*
X74295000Y46609000D01*
X67437000Y46609000D01*
X59430437Y41178432D01*
X59436000Y36322000D01*
X51879500Y36322000D01*
X51879500Y43053000D01*
X60071000Y48133000D01*
X65913000Y48133000D01*
X66421000Y47879000D01*
G37*
X66421000Y47879000D02*
X76327000Y47879000D01*
X76327000Y43307000D01*
X76833632Y42799000D01*
X76836369Y36558658D01*
X74422000Y38608000D01*
X74295000Y38735000D01*
X74295000Y46609000D01*
X67437000Y46609000D01*
X59430437Y41178432D01*
X59436000Y36322000D01*
X51879500Y36322000D01*
X51879500Y43053000D01*
X60071000Y48133000D01*
X65913000Y48133000D01*
X66421000Y47879000D01*
D11*
X68580000Y5080000D02*
X78740000Y5080000D01*
X83820000Y9906000D02*
X78740000Y5080000D01*
X78994000Y53340000D02*
X78740000Y53340000D01*
X83820000Y48260000D02*
X78994000Y53340000D01*
X83820000Y9906000D02*
X83820000Y48260000D01*
X64516000Y53340000D02*
X78994000Y53340000D01*
X64516000Y53340000D02*
X0Y53340000D01*
X66040000Y2540000D02*
X68580000Y5080000D01*
X66040000Y0D02*
X66040000Y2540000D01*
X0Y0D02*
X66040000Y0D01*
X0Y53340000D02*
X0Y0D01*
D10*
G36*
X28109294Y3543504D02*
G01*
X28229726Y3506971D01*
X28272087Y3494121D01*
X28422107Y3413934D01*
X28422110Y3413932D01*
X28422111Y3413931D01*
X28553612Y3306012D01*
X28661531Y3174512D01*
X28661533Y3174508D01*
X28661534Y3174507D01*
X28741721Y3024487D01*
X28741722Y3024484D01*
X28791104Y2861695D01*
X28803600Y2734820D01*
X28803600Y2345181D01*
X28791104Y2218306D01*
X28754571Y2097872D01*
X28741721Y2055512D01*
X28661534Y1905493D01*
X28661531Y1905488D01*
X28553612Y1773988D01*
X28422112Y1666069D01*
X28422108Y1666067D01*
X28422107Y1666066D01*
X28272087Y1585879D01*
X28272084Y1585878D01*
X28109295Y1536496D01*
X27940000Y1519822D01*
X27770706Y1536496D01*
X27607917Y1585878D01*
X27607914Y1585879D01*
X27457894Y1666066D01*
X27457893Y1666067D01*
X27457889Y1666069D01*
X27326388Y1773988D01*
X27218469Y1905488D01*
X27138280Y2055512D01*
X27138279Y2055513D01*
X27138278Y2055516D01*
X27088896Y2218305D01*
X27076400Y2345180D01*
X27076400Y2734819D01*
X27088896Y2861694D01*
X27138278Y3024483D01*
X27138279Y3024487D01*
X27218466Y3174507D01*
X27218470Y3174512D01*
X27326388Y3306012D01*
X27457888Y3413931D01*
X27457892Y3413933D01*
X27457893Y3413934D01*
X27607913Y3494121D01*
X27607916Y3494122D01*
X27770705Y3543504D01*
X27940000Y3560178D01*
X28109294Y3543504D01*
X28109294Y3543504D01*
G37*
G36*
X30649294Y3543504D02*
G01*
X30769726Y3506971D01*
X30812087Y3494121D01*
X30962107Y3413934D01*
X30962110Y3413932D01*
X30962111Y3413931D01*
X31093612Y3306012D01*
X31201531Y3174512D01*
X31201533Y3174508D01*
X31201534Y3174507D01*
X31281721Y3024487D01*
X31281722Y3024484D01*
X31331104Y2861695D01*
X31343600Y2734820D01*
X31343600Y2345181D01*
X31331104Y2218306D01*
X31294571Y2097872D01*
X31281721Y2055512D01*
X31201534Y1905493D01*
X31201531Y1905488D01*
X31093612Y1773988D01*
X30962112Y1666069D01*
X30962108Y1666067D01*
X30962107Y1666066D01*
X30812087Y1585879D01*
X30812084Y1585878D01*
X30649295Y1536496D01*
X30480000Y1519822D01*
X30310706Y1536496D01*
X30147917Y1585878D01*
X30147914Y1585879D01*
X29997894Y1666066D01*
X29997893Y1666067D01*
X29997889Y1666069D01*
X29866388Y1773988D01*
X29758469Y1905488D01*
X29678280Y2055512D01*
X29678279Y2055513D01*
X29678278Y2055516D01*
X29628896Y2218305D01*
X29616400Y2345180D01*
X29616400Y2734819D01*
X29628896Y2861694D01*
X29678278Y3024483D01*
X29678279Y3024487D01*
X29758466Y3174507D01*
X29758470Y3174512D01*
X29866388Y3306012D01*
X29997888Y3413931D01*
X29997892Y3413933D01*
X29997893Y3413934D01*
X30147913Y3494121D01*
X30147916Y3494122D01*
X30310705Y3543504D01*
X30480000Y3560178D01*
X30649294Y3543504D01*
X30649294Y3543504D01*
G37*
G36*
X33189294Y3543504D02*
G01*
X33309726Y3506971D01*
X33352087Y3494121D01*
X33502107Y3413934D01*
X33502110Y3413932D01*
X33502111Y3413931D01*
X33633612Y3306012D01*
X33741531Y3174512D01*
X33741533Y3174508D01*
X33741534Y3174507D01*
X33821721Y3024487D01*
X33821722Y3024484D01*
X33871104Y2861695D01*
X33883600Y2734820D01*
X33883600Y2345181D01*
X33871104Y2218306D01*
X33834571Y2097872D01*
X33821721Y2055512D01*
X33741534Y1905493D01*
X33741531Y1905488D01*
X33633612Y1773988D01*
X33502112Y1666069D01*
X33502108Y1666067D01*
X33502107Y1666066D01*
X33352087Y1585879D01*
X33352084Y1585878D01*
X33189295Y1536496D01*
X33020000Y1519822D01*
X32850706Y1536496D01*
X32687917Y1585878D01*
X32687914Y1585879D01*
X32537894Y1666066D01*
X32537893Y1666067D01*
X32537889Y1666069D01*
X32406388Y1773988D01*
X32298469Y1905488D01*
X32218280Y2055512D01*
X32218279Y2055513D01*
X32218278Y2055516D01*
X32168896Y2218305D01*
X32156400Y2345180D01*
X32156400Y2734819D01*
X32168896Y2861694D01*
X32218278Y3024483D01*
X32218279Y3024487D01*
X32298466Y3174507D01*
X32298470Y3174512D01*
X32406388Y3306012D01*
X32537888Y3413931D01*
X32537892Y3413933D01*
X32537893Y3413934D01*
X32687913Y3494121D01*
X32687916Y3494122D01*
X32850705Y3543504D01*
X33020000Y3560178D01*
X33189294Y3543504D01*
X33189294Y3543504D01*
G37*
G36*
X35729294Y3543504D02*
G01*
X35849726Y3506971D01*
X35892087Y3494121D01*
X36042107Y3413934D01*
X36042110Y3413932D01*
X36042111Y3413931D01*
X36173612Y3306012D01*
X36281531Y3174512D01*
X36281533Y3174508D01*
X36281534Y3174507D01*
X36361721Y3024487D01*
X36361722Y3024484D01*
X36411104Y2861695D01*
X36423600Y2734820D01*
X36423600Y2345181D01*
X36411104Y2218306D01*
X36374571Y2097872D01*
X36361721Y2055512D01*
X36281534Y1905493D01*
X36281531Y1905488D01*
X36173612Y1773988D01*
X36042112Y1666069D01*
X36042108Y1666067D01*
X36042107Y1666066D01*
X35892087Y1585879D01*
X35892084Y1585878D01*
X35729295Y1536496D01*
X35560000Y1519822D01*
X35390706Y1536496D01*
X35227917Y1585878D01*
X35227914Y1585879D01*
X35077894Y1666066D01*
X35077893Y1666067D01*
X35077889Y1666069D01*
X34946388Y1773988D01*
X34838469Y1905488D01*
X34758280Y2055512D01*
X34758279Y2055513D01*
X34758278Y2055516D01*
X34708896Y2218305D01*
X34696400Y2345180D01*
X34696400Y2734819D01*
X34708896Y2861694D01*
X34758278Y3024483D01*
X34758279Y3024487D01*
X34838466Y3174507D01*
X34838470Y3174512D01*
X34946388Y3306012D01*
X35077888Y3413931D01*
X35077892Y3413933D01*
X35077893Y3413934D01*
X35227913Y3494121D01*
X35227916Y3494122D01*
X35390705Y3543504D01*
X35560000Y3560178D01*
X35729294Y3543504D01*
X35729294Y3543504D01*
G37*
G36*
X38269294Y3543504D02*
G01*
X38389726Y3506971D01*
X38432087Y3494121D01*
X38582107Y3413934D01*
X38582110Y3413932D01*
X38582111Y3413931D01*
X38713612Y3306012D01*
X38821531Y3174512D01*
X38821533Y3174508D01*
X38821534Y3174507D01*
X38901721Y3024487D01*
X38901722Y3024484D01*
X38951104Y2861695D01*
X38963600Y2734820D01*
X38963600Y2345181D01*
X38951104Y2218306D01*
X38914571Y2097872D01*
X38901721Y2055512D01*
X38821534Y1905493D01*
X38821531Y1905488D01*
X38713612Y1773988D01*
X38582112Y1666069D01*
X38582108Y1666067D01*
X38582107Y1666066D01*
X38432087Y1585879D01*
X38432084Y1585878D01*
X38269295Y1536496D01*
X38100000Y1519822D01*
X37930706Y1536496D01*
X37767917Y1585878D01*
X37767914Y1585879D01*
X37617894Y1666066D01*
X37617893Y1666067D01*
X37617889Y1666069D01*
X37486388Y1773988D01*
X37378469Y1905488D01*
X37298280Y2055512D01*
X37298279Y2055513D01*
X37298278Y2055516D01*
X37248896Y2218305D01*
X37236400Y2345180D01*
X37236400Y2734819D01*
X37248896Y2861694D01*
X37298278Y3024483D01*
X37298279Y3024487D01*
X37378466Y3174507D01*
X37378470Y3174512D01*
X37486388Y3306012D01*
X37617888Y3413931D01*
X37617892Y3413933D01*
X37617893Y3413934D01*
X37767913Y3494121D01*
X37767916Y3494122D01*
X37930705Y3543504D01*
X38100000Y3560178D01*
X38269294Y3543504D01*
X38269294Y3543504D01*
G37*
G36*
X40809294Y3543504D02*
G01*
X40929726Y3506971D01*
X40972087Y3494121D01*
X41122107Y3413934D01*
X41122110Y3413932D01*
X41122111Y3413931D01*
X41253612Y3306012D01*
X41361531Y3174512D01*
X41361533Y3174508D01*
X41361534Y3174507D01*
X41441721Y3024487D01*
X41441722Y3024484D01*
X41491104Y2861695D01*
X41503600Y2734820D01*
X41503600Y2345181D01*
X41491104Y2218306D01*
X41454571Y2097872D01*
X41441721Y2055512D01*
X41361534Y1905493D01*
X41361531Y1905488D01*
X41253612Y1773988D01*
X41122112Y1666069D01*
X41122108Y1666067D01*
X41122107Y1666066D01*
X40972087Y1585879D01*
X40972084Y1585878D01*
X40809295Y1536496D01*
X40640000Y1519822D01*
X40470706Y1536496D01*
X40307917Y1585878D01*
X40307914Y1585879D01*
X40157894Y1666066D01*
X40157893Y1666067D01*
X40157889Y1666069D01*
X40026388Y1773988D01*
X39918469Y1905488D01*
X39838280Y2055512D01*
X39838279Y2055513D01*
X39838278Y2055516D01*
X39788896Y2218305D01*
X39776400Y2345180D01*
X39776400Y2734819D01*
X39788896Y2861694D01*
X39838278Y3024483D01*
X39838279Y3024487D01*
X39918466Y3174507D01*
X39918470Y3174512D01*
X40026388Y3306012D01*
X40157888Y3413931D01*
X40157892Y3413933D01*
X40157893Y3413934D01*
X40307913Y3494121D01*
X40307916Y3494122D01*
X40470705Y3543504D01*
X40640000Y3560178D01*
X40809294Y3543504D01*
X40809294Y3543504D01*
G37*
G36*
X43349294Y3543504D02*
G01*
X43469726Y3506971D01*
X43512087Y3494121D01*
X43662107Y3413934D01*
X43662110Y3413932D01*
X43662111Y3413931D01*
X43793612Y3306012D01*
X43901531Y3174512D01*
X43901533Y3174508D01*
X43901534Y3174507D01*
X43981721Y3024487D01*
X43981722Y3024484D01*
X44031104Y2861695D01*
X44043600Y2734820D01*
X44043600Y2345181D01*
X44031104Y2218306D01*
X43994571Y2097872D01*
X43981721Y2055512D01*
X43901534Y1905493D01*
X43901531Y1905488D01*
X43793612Y1773988D01*
X43662112Y1666069D01*
X43662108Y1666067D01*
X43662107Y1666066D01*
X43512087Y1585879D01*
X43512084Y1585878D01*
X43349295Y1536496D01*
X43180000Y1519822D01*
X43010706Y1536496D01*
X42847917Y1585878D01*
X42847914Y1585879D01*
X42697894Y1666066D01*
X42697893Y1666067D01*
X42697889Y1666069D01*
X42566388Y1773988D01*
X42458469Y1905488D01*
X42378280Y2055512D01*
X42378279Y2055513D01*
X42378278Y2055516D01*
X42328896Y2218305D01*
X42316400Y2345180D01*
X42316400Y2734819D01*
X42328896Y2861694D01*
X42378278Y3024483D01*
X42378279Y3024487D01*
X42458466Y3174507D01*
X42458470Y3174512D01*
X42566388Y3306012D01*
X42697888Y3413931D01*
X42697892Y3413933D01*
X42697893Y3413934D01*
X42847913Y3494121D01*
X42847916Y3494122D01*
X43010705Y3543504D01*
X43180000Y3560178D01*
X43349294Y3543504D01*
X43349294Y3543504D01*
G37*
G36*
X45889294Y3543504D02*
G01*
X46009726Y3506971D01*
X46052087Y3494121D01*
X46202107Y3413934D01*
X46202110Y3413932D01*
X46202111Y3413931D01*
X46333612Y3306012D01*
X46441531Y3174512D01*
X46441533Y3174508D01*
X46441534Y3174507D01*
X46521721Y3024487D01*
X46521722Y3024484D01*
X46571104Y2861695D01*
X46583600Y2734820D01*
X46583600Y2345181D01*
X46571104Y2218306D01*
X46534571Y2097872D01*
X46521721Y2055512D01*
X46441534Y1905493D01*
X46441531Y1905488D01*
X46333612Y1773988D01*
X46202112Y1666069D01*
X46202108Y1666067D01*
X46202107Y1666066D01*
X46052087Y1585879D01*
X46052084Y1585878D01*
X45889295Y1536496D01*
X45720000Y1519822D01*
X45550706Y1536496D01*
X45387917Y1585878D01*
X45387914Y1585879D01*
X45237894Y1666066D01*
X45237893Y1666067D01*
X45237889Y1666069D01*
X45106388Y1773988D01*
X44998469Y1905488D01*
X44918280Y2055512D01*
X44918279Y2055513D01*
X44918278Y2055516D01*
X44868896Y2218305D01*
X44856400Y2345180D01*
X44856400Y2734819D01*
X44868896Y2861694D01*
X44918278Y3024483D01*
X44918279Y3024487D01*
X44998466Y3174507D01*
X44998470Y3174512D01*
X45106388Y3306012D01*
X45237888Y3413931D01*
X45237892Y3413933D01*
X45237893Y3413934D01*
X45387913Y3494121D01*
X45387916Y3494122D01*
X45550705Y3543504D01*
X45720000Y3560178D01*
X45889294Y3543504D01*
X45889294Y3543504D01*
G37*
G36*
X50969294Y3543504D02*
G01*
X51089726Y3506971D01*
X51132087Y3494121D01*
X51282107Y3413934D01*
X51282110Y3413932D01*
X51282111Y3413931D01*
X51413612Y3306012D01*
X51521531Y3174512D01*
X51521533Y3174508D01*
X51521534Y3174507D01*
X51601721Y3024487D01*
X51601722Y3024484D01*
X51651104Y2861695D01*
X51663600Y2734820D01*
X51663600Y2345181D01*
X51651104Y2218306D01*
X51614571Y2097872D01*
X51601721Y2055512D01*
X51521534Y1905493D01*
X51521531Y1905488D01*
X51413612Y1773988D01*
X51282112Y1666069D01*
X51282108Y1666067D01*
X51282107Y1666066D01*
X51132087Y1585879D01*
X51132084Y1585878D01*
X50969295Y1536496D01*
X50800000Y1519822D01*
X50630706Y1536496D01*
X50467917Y1585878D01*
X50467914Y1585879D01*
X50317894Y1666066D01*
X50317893Y1666067D01*
X50317889Y1666069D01*
X50186388Y1773988D01*
X50078469Y1905488D01*
X49998280Y2055512D01*
X49998279Y2055513D01*
X49998278Y2055516D01*
X49948896Y2218305D01*
X49936400Y2345180D01*
X49936400Y2734819D01*
X49948896Y2861694D01*
X49998278Y3024483D01*
X49998279Y3024487D01*
X50078466Y3174507D01*
X50078470Y3174512D01*
X50186388Y3306012D01*
X50317888Y3413931D01*
X50317892Y3413933D01*
X50317893Y3413934D01*
X50467913Y3494121D01*
X50467916Y3494122D01*
X50630705Y3543504D01*
X50800000Y3560178D01*
X50969294Y3543504D01*
X50969294Y3543504D01*
G37*
G36*
X53509294Y3543504D02*
G01*
X53629726Y3506971D01*
X53672087Y3494121D01*
X53822107Y3413934D01*
X53822110Y3413932D01*
X53822111Y3413931D01*
X53953612Y3306012D01*
X54061531Y3174512D01*
X54061533Y3174508D01*
X54061534Y3174507D01*
X54141721Y3024487D01*
X54141722Y3024484D01*
X54191104Y2861695D01*
X54203600Y2734820D01*
X54203600Y2345181D01*
X54191104Y2218306D01*
X54154571Y2097872D01*
X54141721Y2055512D01*
X54061534Y1905493D01*
X54061531Y1905488D01*
X53953612Y1773988D01*
X53822112Y1666069D01*
X53822108Y1666067D01*
X53822107Y1666066D01*
X53672087Y1585879D01*
X53672084Y1585878D01*
X53509295Y1536496D01*
X53340000Y1519822D01*
X53170706Y1536496D01*
X53007917Y1585878D01*
X53007914Y1585879D01*
X52857894Y1666066D01*
X52857893Y1666067D01*
X52857889Y1666069D01*
X52726388Y1773988D01*
X52618469Y1905488D01*
X52538280Y2055512D01*
X52538279Y2055513D01*
X52538278Y2055516D01*
X52488896Y2218305D01*
X52476400Y2345180D01*
X52476400Y2734819D01*
X52488896Y2861694D01*
X52538278Y3024483D01*
X52538279Y3024487D01*
X52618466Y3174507D01*
X52618470Y3174512D01*
X52726388Y3306012D01*
X52857888Y3413931D01*
X52857892Y3413933D01*
X52857893Y3413934D01*
X53007913Y3494121D01*
X53007916Y3494122D01*
X53170705Y3543504D01*
X53340000Y3560178D01*
X53509294Y3543504D01*
X53509294Y3543504D01*
G37*
G36*
X56049294Y3543504D02*
G01*
X56169726Y3506971D01*
X56212087Y3494121D01*
X56362107Y3413934D01*
X56362110Y3413932D01*
X56362111Y3413931D01*
X56493612Y3306012D01*
X56601531Y3174512D01*
X56601533Y3174508D01*
X56601534Y3174507D01*
X56681721Y3024487D01*
X56681722Y3024484D01*
X56731104Y2861695D01*
X56743600Y2734820D01*
X56743600Y2345181D01*
X56731104Y2218306D01*
X56694571Y2097872D01*
X56681721Y2055512D01*
X56601534Y1905493D01*
X56601531Y1905488D01*
X56493612Y1773988D01*
X56362112Y1666069D01*
X56362108Y1666067D01*
X56362107Y1666066D01*
X56212087Y1585879D01*
X56212084Y1585878D01*
X56049295Y1536496D01*
X55880000Y1519822D01*
X55710706Y1536496D01*
X55547917Y1585878D01*
X55547914Y1585879D01*
X55397894Y1666066D01*
X55397893Y1666067D01*
X55397889Y1666069D01*
X55266388Y1773988D01*
X55158469Y1905488D01*
X55078280Y2055512D01*
X55078279Y2055513D01*
X55078278Y2055516D01*
X55028896Y2218305D01*
X55016400Y2345180D01*
X55016400Y2734819D01*
X55028896Y2861694D01*
X55078278Y3024483D01*
X55078279Y3024487D01*
X55158466Y3174507D01*
X55158470Y3174512D01*
X55266388Y3306012D01*
X55397888Y3413931D01*
X55397892Y3413933D01*
X55397893Y3413934D01*
X55547913Y3494121D01*
X55547916Y3494122D01*
X55710705Y3543504D01*
X55880000Y3560178D01*
X56049294Y3543504D01*
X56049294Y3543504D01*
G37*
G36*
X58589294Y3543504D02*
G01*
X58709726Y3506971D01*
X58752087Y3494121D01*
X58902107Y3413934D01*
X58902110Y3413932D01*
X58902111Y3413931D01*
X59033612Y3306012D01*
X59141531Y3174512D01*
X59141533Y3174508D01*
X59141534Y3174507D01*
X59221721Y3024487D01*
X59221722Y3024484D01*
X59271104Y2861695D01*
X59283600Y2734820D01*
X59283600Y2345181D01*
X59271104Y2218306D01*
X59234571Y2097872D01*
X59221721Y2055512D01*
X59141534Y1905493D01*
X59141531Y1905488D01*
X59033612Y1773988D01*
X58902112Y1666069D01*
X58902108Y1666067D01*
X58902107Y1666066D01*
X58752087Y1585879D01*
X58752084Y1585878D01*
X58589295Y1536496D01*
X58420000Y1519822D01*
X58250706Y1536496D01*
X58087917Y1585878D01*
X58087914Y1585879D01*
X57937894Y1666066D01*
X57937893Y1666067D01*
X57937889Y1666069D01*
X57806388Y1773988D01*
X57698469Y1905488D01*
X57618280Y2055512D01*
X57618279Y2055513D01*
X57618278Y2055516D01*
X57568896Y2218305D01*
X57556400Y2345180D01*
X57556400Y2734819D01*
X57568896Y2861694D01*
X57618278Y3024483D01*
X57618279Y3024487D01*
X57698466Y3174507D01*
X57698470Y3174512D01*
X57806388Y3306012D01*
X57937888Y3413931D01*
X57937892Y3413933D01*
X57937893Y3413934D01*
X58087913Y3494121D01*
X58087916Y3494122D01*
X58250705Y3543504D01*
X58420000Y3560178D01*
X58589294Y3543504D01*
X58589294Y3543504D01*
G37*
G36*
X61129294Y3543504D02*
G01*
X61249726Y3506971D01*
X61292087Y3494121D01*
X61442107Y3413934D01*
X61442110Y3413932D01*
X61442111Y3413931D01*
X61573612Y3306012D01*
X61681531Y3174512D01*
X61681533Y3174508D01*
X61681534Y3174507D01*
X61761721Y3024487D01*
X61761722Y3024484D01*
X61811104Y2861695D01*
X61823600Y2734820D01*
X61823600Y2345181D01*
X61811104Y2218306D01*
X61774571Y2097872D01*
X61761721Y2055512D01*
X61681534Y1905493D01*
X61681531Y1905488D01*
X61573612Y1773988D01*
X61442112Y1666069D01*
X61442108Y1666067D01*
X61442107Y1666066D01*
X61292087Y1585879D01*
X61292084Y1585878D01*
X61129295Y1536496D01*
X60960000Y1519822D01*
X60790706Y1536496D01*
X60627917Y1585878D01*
X60627914Y1585879D01*
X60477894Y1666066D01*
X60477893Y1666067D01*
X60477889Y1666069D01*
X60346388Y1773988D01*
X60238469Y1905488D01*
X60158280Y2055512D01*
X60158279Y2055513D01*
X60158278Y2055516D01*
X60108896Y2218305D01*
X60096400Y2345180D01*
X60096400Y2734819D01*
X60108896Y2861694D01*
X60158278Y3024483D01*
X60158279Y3024487D01*
X60238466Y3174507D01*
X60238470Y3174512D01*
X60346388Y3306012D01*
X60477888Y3413931D01*
X60477892Y3413933D01*
X60477893Y3413934D01*
X60627913Y3494121D01*
X60627916Y3494122D01*
X60790705Y3543504D01*
X60960000Y3560178D01*
X61129294Y3543504D01*
X61129294Y3543504D01*
G37*
G36*
X63669294Y3543504D02*
G01*
X63789726Y3506971D01*
X63832087Y3494121D01*
X63982107Y3413934D01*
X63982110Y3413932D01*
X63982111Y3413931D01*
X64113612Y3306012D01*
X64221531Y3174512D01*
X64221533Y3174508D01*
X64221534Y3174507D01*
X64301721Y3024487D01*
X64301722Y3024484D01*
X64351104Y2861695D01*
X64363600Y2734820D01*
X64363600Y2345181D01*
X64351104Y2218306D01*
X64314571Y2097872D01*
X64301721Y2055512D01*
X64221534Y1905493D01*
X64221531Y1905488D01*
X64113612Y1773988D01*
X63982112Y1666069D01*
X63982108Y1666067D01*
X63982107Y1666066D01*
X63832087Y1585879D01*
X63832084Y1585878D01*
X63669295Y1536496D01*
X63500000Y1519822D01*
X63330706Y1536496D01*
X63167917Y1585878D01*
X63167914Y1585879D01*
X63017894Y1666066D01*
X63017893Y1666067D01*
X63017889Y1666069D01*
X62886388Y1773988D01*
X62778469Y1905488D01*
X62698280Y2055512D01*
X62698279Y2055513D01*
X62698278Y2055516D01*
X62648896Y2218305D01*
X62636400Y2345180D01*
X62636400Y2734819D01*
X62648896Y2861694D01*
X62698278Y3024483D01*
X62698279Y3024487D01*
X62778466Y3174507D01*
X62778470Y3174512D01*
X62886388Y3306012D01*
X63017888Y3413931D01*
X63017892Y3413933D01*
X63017893Y3413934D01*
X63167913Y3494121D01*
X63167916Y3494122D01*
X63330705Y3543504D01*
X63500000Y3560178D01*
X63669294Y3543504D01*
X63669294Y3543504D01*
G37*
G36*
X2745471Y4098141D02*
G01*
X2823827Y4090424D01*
X2974628Y4044679D01*
X2974630Y4044678D01*
X3113605Y3970394D01*
X3113607Y3970393D01*
X3113606Y3970393D01*
X3235422Y3870422D01*
X3335393Y3748606D01*
X3409679Y3609628D01*
X3455424Y3458827D01*
X3470870Y3302000D01*
X3455424Y3145173D01*
X3418814Y3024487D01*
X3409678Y2994370D01*
X3335394Y2855395D01*
X3235422Y2733578D01*
X3113605Y2633606D01*
X2974630Y2559322D01*
X2974628Y2559321D01*
X2823827Y2513576D01*
X2745471Y2505859D01*
X2706294Y2502000D01*
X2627706Y2502000D01*
X2588529Y2505859D01*
X2510173Y2513576D01*
X2359372Y2559321D01*
X2359370Y2559322D01*
X2220395Y2633606D01*
X2098578Y2733578D01*
X1998606Y2855395D01*
X1924322Y2994370D01*
X1915186Y3024487D01*
X1878576Y3145173D01*
X1863130Y3302000D01*
X1878576Y3458827D01*
X1924321Y3609628D01*
X1998607Y3748606D01*
X2098578Y3870422D01*
X2220394Y3970393D01*
X2220393Y3970393D01*
X2220395Y3970394D01*
X2359370Y4044678D01*
X2359372Y4044679D01*
X2510173Y4090424D01*
X2588529Y4098141D01*
X2627706Y4102000D01*
X2706294Y4102000D01*
X2745471Y4098141D01*
X2745471Y4098141D01*
G37*
G36*
X11087000Y2502000D02*
G01*
X9487000Y2502000D01*
X9487000Y4102000D01*
X11087000Y4102000D01*
X11087000Y2502000D01*
X11087000Y2502000D01*
G37*
G36*
X18021999Y3787001D02*
G01*
X18022001Y3786999D01*
X18022605Y3780863D01*
X18022605Y3293137D01*
X18020799Y3274797D01*
X18020197Y3262547D01*
X18020197Y3244128D01*
X18018988Y3231850D01*
X18002263Y3147768D01*
X17998677Y3135948D01*
X17965870Y3056744D01*
X17960055Y3045864D01*
X17912421Y2974574D01*
X17904593Y2965037D01*
X17843963Y2904407D01*
X17834426Y2896579D01*
X17763136Y2848945D01*
X17752256Y2843130D01*
X17673052Y2810323D01*
X17661232Y2806737D01*
X17577150Y2790012D01*
X17564872Y2788803D01*
X17546453Y2788803D01*
X17534203Y2788201D01*
X17515863Y2786395D01*
X17028137Y2786395D01*
X17009797Y2788201D01*
X16997547Y2788803D01*
X16979128Y2788803D01*
X16966850Y2790012D01*
X16882768Y2806737D01*
X16870948Y2810323D01*
X16791744Y2843130D01*
X16780864Y2848945D01*
X16709574Y2896579D01*
X16700037Y2904407D01*
X16639407Y2965037D01*
X16631579Y2974574D01*
X16583945Y3045864D01*
X16578130Y3056744D01*
X16545323Y3135948D01*
X16541737Y3147768D01*
X16525012Y3231850D01*
X16523803Y3244128D01*
X16523803Y3262547D01*
X16523201Y3274797D01*
X16521395Y3293137D01*
X16521395Y3780863D01*
X16521999Y3786999D01*
X16522001Y3787001D01*
X16528137Y3787605D01*
X18015863Y3787605D01*
X18021999Y3787001D01*
X18021999Y3787001D01*
G37*
G36*
X17534203Y5085799D02*
G01*
X17546453Y5085197D01*
X17564872Y5085197D01*
X17577150Y5083988D01*
X17661232Y5067263D01*
X17673052Y5063677D01*
X17752256Y5030870D01*
X17763136Y5025055D01*
X17834426Y4977421D01*
X17843963Y4969593D01*
X17904593Y4908963D01*
X17912421Y4899426D01*
X17960055Y4828136D01*
X17965870Y4817256D01*
X17998677Y4738052D01*
X18002263Y4726232D01*
X18018988Y4642150D01*
X18020197Y4629872D01*
X18020197Y4611453D01*
X18020799Y4599203D01*
X18022605Y4580863D01*
X18022605Y4093137D01*
X18022001Y4087001D01*
X18021999Y4086999D01*
X18015863Y4086395D01*
X16528137Y4086395D01*
X16522001Y4086999D01*
X16521999Y4087001D01*
X16521395Y4093137D01*
X16521395Y4580863D01*
X16523201Y4599203D01*
X16523803Y4611453D01*
X16523803Y4629872D01*
X16525012Y4642150D01*
X16541737Y4726232D01*
X16545323Y4738052D01*
X16578130Y4817256D01*
X16583945Y4828136D01*
X16631579Y4899426D01*
X16639407Y4908963D01*
X16700037Y4969593D01*
X16709574Y4977421D01*
X16780864Y5025055D01*
X16791744Y5030870D01*
X16870948Y5063677D01*
X16882768Y5067263D01*
X16966850Y5083988D01*
X16979128Y5085197D01*
X16997547Y5085197D01*
X17009797Y5085799D01*
X17028137Y5087605D01*
X17515863Y5087605D01*
X17534203Y5085799D01*
X17534203Y5085799D01*
G37*
G36*
X2745471Y6638141D02*
G01*
X2823827Y6630424D01*
X2974628Y6584679D01*
X2974630Y6584678D01*
X3113605Y6510394D01*
X3113607Y6510393D01*
X3113606Y6510393D01*
X3235422Y6410422D01*
X3335393Y6288606D01*
X3409679Y6149628D01*
X3455424Y5998827D01*
X3470870Y5842000D01*
X3455424Y5685173D01*
X3409679Y5534372D01*
X3409678Y5534370D01*
X3335394Y5395395D01*
X3235422Y5273578D01*
X3113605Y5173606D01*
X2974630Y5099322D01*
X2974628Y5099321D01*
X2823827Y5053576D01*
X2745471Y5045859D01*
X2706294Y5042000D01*
X2627706Y5042000D01*
X2588529Y5045859D01*
X2510173Y5053576D01*
X2359372Y5099321D01*
X2359370Y5099322D01*
X2220395Y5173606D01*
X2098578Y5273578D01*
X1998606Y5395395D01*
X1924322Y5534370D01*
X1924321Y5534372D01*
X1878576Y5685173D01*
X1863130Y5842000D01*
X1878576Y5998827D01*
X1924321Y6149628D01*
X1998607Y6288606D01*
X2098578Y6410422D01*
X2220394Y6510393D01*
X2220393Y6510393D01*
X2220395Y6510394D01*
X2359370Y6584678D01*
X2359372Y6584679D01*
X2510173Y6630424D01*
X2588529Y6638141D01*
X2627706Y6642000D01*
X2706294Y6642000D01*
X2745471Y6638141D01*
X2745471Y6638141D01*
G37*
G36*
X10365471Y6638141D02*
G01*
X10443827Y6630424D01*
X10594628Y6584679D01*
X10594630Y6584678D01*
X10733605Y6510394D01*
X10733607Y6510393D01*
X10733606Y6510393D01*
X10855422Y6410422D01*
X10955393Y6288606D01*
X11029679Y6149628D01*
X11075424Y5998827D01*
X11090870Y5842000D01*
X11075424Y5685173D01*
X11029679Y5534372D01*
X11029678Y5534370D01*
X10955394Y5395395D01*
X10855422Y5273578D01*
X10733605Y5173606D01*
X10594630Y5099322D01*
X10594628Y5099321D01*
X10443827Y5053576D01*
X10365471Y5045859D01*
X10326294Y5042000D01*
X10247706Y5042000D01*
X10208529Y5045859D01*
X10130173Y5053576D01*
X9979372Y5099321D01*
X9979370Y5099322D01*
X9840395Y5173606D01*
X9718578Y5273578D01*
X9618606Y5395395D01*
X9544322Y5534370D01*
X9544321Y5534372D01*
X9498576Y5685173D01*
X9483130Y5842000D01*
X9498576Y5998827D01*
X9544321Y6149628D01*
X9618607Y6288606D01*
X9718578Y6410422D01*
X9840394Y6510393D01*
X9840393Y6510393D01*
X9840395Y6510394D01*
X9979370Y6584678D01*
X9979372Y6584679D01*
X10130173Y6630424D01*
X10208529Y6638141D01*
X10247706Y6642000D01*
X10326294Y6642000D01*
X10365471Y6638141D01*
X10365471Y6638141D01*
G37*
G36*
X14942015Y6915332D02*
G01*
X15033781Y6877321D01*
X15073048Y6861056D01*
X15190973Y6782261D01*
X15291261Y6681973D01*
X15370057Y6564046D01*
X15424332Y6433015D01*
X15452000Y6293916D01*
X15452000Y6152084D01*
X15424332Y6012985D01*
X15370057Y5881954D01*
X15370056Y5881952D01*
X15291261Y5764027D01*
X15190973Y5663739D01*
X15073048Y5584944D01*
X15073047Y5584943D01*
X15073046Y5584943D01*
X14942015Y5530668D01*
X14802916Y5503000D01*
X14661084Y5503000D01*
X14521985Y5530668D01*
X14390954Y5584943D01*
X14390953Y5584943D01*
X14390952Y5584944D01*
X14273027Y5663739D01*
X14172739Y5764027D01*
X14093944Y5881952D01*
X14093943Y5881954D01*
X14039668Y6012985D01*
X14012000Y6152084D01*
X14012000Y6293916D01*
X14039668Y6433015D01*
X14093943Y6564046D01*
X14172739Y6681973D01*
X14273027Y6782261D01*
X14390952Y6861056D01*
X14430219Y6877321D01*
X14521985Y6915332D01*
X14661084Y6943000D01*
X14802916Y6943000D01*
X14942015Y6915332D01*
X14942015Y6915332D01*
G37*
G36*
X20022015Y6915332D02*
G01*
X20113781Y6877321D01*
X20153048Y6861056D01*
X20270973Y6782261D01*
X20371261Y6681973D01*
X20450057Y6564046D01*
X20504332Y6433015D01*
X20532000Y6293916D01*
X20532000Y6152084D01*
X20504332Y6012985D01*
X20450057Y5881954D01*
X20450056Y5881952D01*
X20371261Y5764027D01*
X20270973Y5663739D01*
X20153048Y5584944D01*
X20153047Y5584943D01*
X20153046Y5584943D01*
X20022015Y5530668D01*
X19882916Y5503000D01*
X19741084Y5503000D01*
X19601985Y5530668D01*
X19470954Y5584943D01*
X19470953Y5584943D01*
X19470952Y5584944D01*
X19353027Y5663739D01*
X19252739Y5764027D01*
X19173944Y5881952D01*
X19173943Y5881954D01*
X19119668Y6012985D01*
X19092000Y6152084D01*
X19092000Y6293916D01*
X19119668Y6433015D01*
X19173943Y6564046D01*
X19252739Y6681973D01*
X19353027Y6782261D01*
X19470952Y6861056D01*
X19510219Y6877321D01*
X19601985Y6915332D01*
X19741084Y6943000D01*
X19882916Y6943000D01*
X20022015Y6915332D01*
X20022015Y6915332D01*
G37*
G36*
X24462471Y8416141D02*
G01*
X24540827Y8408424D01*
X24691628Y8362679D01*
X24691630Y8362678D01*
X24830605Y8288394D01*
X24952422Y8188422D01*
X25052394Y8066605D01*
X25122528Y7935394D01*
X25126679Y7927628D01*
X25172424Y7776827D01*
X25187870Y7620000D01*
X25172424Y7463173D01*
X25126679Y7312372D01*
X25126678Y7312370D01*
X25052394Y7173395D01*
X24952422Y7051578D01*
X24830605Y6951606D01*
X24691630Y6877322D01*
X24691628Y6877321D01*
X24540827Y6831576D01*
X24462471Y6823859D01*
X24423294Y6820000D01*
X24344706Y6820000D01*
X24305529Y6823859D01*
X24227173Y6831576D01*
X24076372Y6877321D01*
X24076370Y6877322D01*
X23937395Y6951606D01*
X23815578Y7051578D01*
X23715606Y7173395D01*
X23641322Y7312370D01*
X23641321Y7312372D01*
X23595576Y7463173D01*
X23580130Y7620000D01*
X23595576Y7776827D01*
X23641321Y7927628D01*
X23645472Y7935394D01*
X23715606Y8066605D01*
X23815578Y8188422D01*
X23937395Y8288394D01*
X24076370Y8362678D01*
X24076372Y8362679D01*
X24227173Y8408424D01*
X24305529Y8416141D01*
X24344706Y8420000D01*
X24423294Y8420000D01*
X24462471Y8416141D01*
X24462471Y8416141D01*
G37*
G36*
X32804000Y6820000D02*
G01*
X31204000Y6820000D01*
X31204000Y8420000D01*
X32804000Y8420000D01*
X32804000Y6820000D01*
X32804000Y6820000D01*
G37*
G36*
X27978991Y8315925D02*
G01*
X28012879Y8305645D01*
X28044112Y8288950D01*
X28071486Y8266486D01*
X28093950Y8239112D01*
X28110645Y8207879D01*
X28120925Y8173991D01*
X28125000Y8132612D01*
X28125000Y7107388D01*
X28120925Y7066009D01*
X28110645Y7032121D01*
X28093950Y7000888D01*
X28071486Y6973514D01*
X28044112Y6951050D01*
X28012879Y6934355D01*
X27978991Y6924075D01*
X27937612Y6920000D01*
X27337388Y6920000D01*
X27296009Y6924075D01*
X27262121Y6934355D01*
X27230888Y6951050D01*
X27203514Y6973514D01*
X27181050Y7000888D01*
X27164355Y7032121D01*
X27154075Y7066009D01*
X27150000Y7107388D01*
X27150000Y8132612D01*
X27154075Y8173991D01*
X27164355Y8207879D01*
X27181050Y8239112D01*
X27203514Y8266486D01*
X27230888Y8288950D01*
X27262121Y8305645D01*
X27296009Y8315925D01*
X27337388Y8320000D01*
X27937612Y8320000D01*
X27978991Y8315925D01*
X27978991Y8315925D01*
G37*
G36*
X29853991Y8315925D02*
G01*
X29887879Y8305645D01*
X29919112Y8288950D01*
X29946486Y8266486D01*
X29968950Y8239112D01*
X29985645Y8207879D01*
X29995925Y8173991D01*
X30000000Y8132612D01*
X30000000Y7107388D01*
X29995925Y7066009D01*
X29985645Y7032121D01*
X29968950Y7000888D01*
X29946486Y6973514D01*
X29919112Y6951050D01*
X29887879Y6934355D01*
X29853991Y6924075D01*
X29812612Y6920000D01*
X29212388Y6920000D01*
X29171009Y6924075D01*
X29137121Y6934355D01*
X29105888Y6951050D01*
X29078514Y6973514D01*
X29056050Y7000888D01*
X29039355Y7032121D01*
X29029075Y7066009D01*
X29025000Y7107388D01*
X29025000Y8132612D01*
X29029075Y8173991D01*
X29039355Y8207879D01*
X29056050Y8239112D01*
X29078514Y8266486D01*
X29105888Y8288950D01*
X29137121Y8305645D01*
X29171009Y8315925D01*
X29212388Y8320000D01*
X29812612Y8320000D01*
X29853991Y8315925D01*
X29853991Y8315925D01*
G37*
G36*
X2745471Y9178141D02*
G01*
X2823827Y9170424D01*
X2974628Y9124679D01*
X2974630Y9124678D01*
X3113605Y9050394D01*
X3113607Y9050393D01*
X3113606Y9050393D01*
X3235422Y8950422D01*
X3335393Y8828606D01*
X3409679Y8689628D01*
X3455424Y8538827D01*
X3470870Y8382000D01*
X3455424Y8225173D01*
X3409679Y8074372D01*
X3409678Y8074370D01*
X3335394Y7935395D01*
X3235422Y7813578D01*
X3113605Y7713606D01*
X2974630Y7639322D01*
X2974628Y7639321D01*
X2823827Y7593576D01*
X2745471Y7585859D01*
X2706294Y7582000D01*
X2627706Y7582000D01*
X2588529Y7585859D01*
X2510173Y7593576D01*
X2359372Y7639321D01*
X2359370Y7639322D01*
X2220395Y7713606D01*
X2098578Y7813578D01*
X1998606Y7935395D01*
X1924322Y8074370D01*
X1924321Y8074372D01*
X1878576Y8225173D01*
X1863130Y8382000D01*
X1878576Y8538827D01*
X1924321Y8689628D01*
X1998607Y8828606D01*
X2098578Y8950422D01*
X2220394Y9050393D01*
X2220393Y9050393D01*
X2220395Y9050394D01*
X2359370Y9124678D01*
X2359372Y9124679D01*
X2510173Y9170424D01*
X2588529Y9178141D01*
X2627706Y9182000D01*
X2706294Y9182000D01*
X2745471Y9178141D01*
X2745471Y9178141D01*
G37*
G36*
X10365471Y9178141D02*
G01*
X10443827Y9170424D01*
X10594628Y9124679D01*
X10594630Y9124678D01*
X10733605Y9050394D01*
X10733607Y9050393D01*
X10733606Y9050393D01*
X10855422Y8950422D01*
X10955393Y8828606D01*
X11029679Y8689628D01*
X11075424Y8538827D01*
X11090870Y8382000D01*
X11075424Y8225173D01*
X11029679Y8074372D01*
X11029678Y8074370D01*
X10955394Y7935395D01*
X10855422Y7813578D01*
X10733605Y7713606D01*
X10594630Y7639322D01*
X10594628Y7639321D01*
X10443827Y7593576D01*
X10365471Y7585859D01*
X10326294Y7582000D01*
X10247706Y7582000D01*
X10208529Y7585859D01*
X10130173Y7593576D01*
X9979372Y7639321D01*
X9979370Y7639322D01*
X9840395Y7713606D01*
X9718578Y7813578D01*
X9618606Y7935395D01*
X9544322Y8074370D01*
X9544321Y8074372D01*
X9498576Y8225173D01*
X9483130Y8382000D01*
X9498576Y8538827D01*
X9544321Y8689628D01*
X9618607Y8828606D01*
X9718578Y8950422D01*
X9840394Y9050393D01*
X9840393Y9050393D01*
X9840395Y9050394D01*
X9979370Y9124678D01*
X9979372Y9124679D01*
X10130173Y9170424D01*
X10208529Y9178141D01*
X10247706Y9182000D01*
X10326294Y9182000D01*
X10365471Y9178141D01*
X10365471Y9178141D01*
G37*
G36*
X17482015Y9455332D02*
G01*
X17573781Y9417321D01*
X17613048Y9401056D01*
X17730973Y9322261D01*
X17831261Y9221973D01*
X17910057Y9104046D01*
X17964332Y8973015D01*
X17992000Y8833916D01*
X17992000Y8692084D01*
X17964332Y8552985D01*
X17910057Y8421954D01*
X17910056Y8421952D01*
X17831261Y8304027D01*
X17730973Y8203739D01*
X17613048Y8124944D01*
X17613047Y8124943D01*
X17613046Y8124943D01*
X17482015Y8070668D01*
X17342916Y8043000D01*
X17201084Y8043000D01*
X17061985Y8070668D01*
X16930954Y8124943D01*
X16930953Y8124943D01*
X16930952Y8124944D01*
X16813027Y8203739D01*
X16712739Y8304027D01*
X16633944Y8421952D01*
X16633943Y8421954D01*
X16579668Y8552985D01*
X16552000Y8692084D01*
X16552000Y8833916D01*
X16579668Y8973015D01*
X16633943Y9104046D01*
X16712739Y9221973D01*
X16813027Y9322261D01*
X16930952Y9401056D01*
X16970219Y9417321D01*
X17061985Y9455332D01*
X17201084Y9483000D01*
X17342916Y9483000D01*
X17482015Y9455332D01*
X17482015Y9455332D01*
G37*
G36*
X32082471Y10956141D02*
G01*
X32160827Y10948424D01*
X32311628Y10902679D01*
X32311630Y10902678D01*
X32450605Y10828394D01*
X32572422Y10728422D01*
X32672394Y10606605D01*
X32742528Y10475394D01*
X32746679Y10467628D01*
X32792424Y10316827D01*
X32807870Y10160000D01*
X32792424Y10003173D01*
X32746679Y9852372D01*
X32746678Y9852370D01*
X32672394Y9713395D01*
X32572422Y9591578D01*
X32450605Y9491606D01*
X32311630Y9417322D01*
X32311628Y9417321D01*
X32160827Y9371576D01*
X32082471Y9363859D01*
X32043294Y9360000D01*
X31964706Y9360000D01*
X31925529Y9363859D01*
X31847173Y9371576D01*
X31696372Y9417321D01*
X31696370Y9417322D01*
X31557395Y9491606D01*
X31435578Y9591578D01*
X31335606Y9713395D01*
X31261322Y9852370D01*
X31261321Y9852372D01*
X31215576Y10003173D01*
X31200130Y10160000D01*
X31215576Y10316827D01*
X31261321Y10467628D01*
X31265472Y10475394D01*
X31335606Y10606605D01*
X31435578Y10728422D01*
X31557395Y10828394D01*
X31696370Y10902678D01*
X31696372Y10902679D01*
X31847173Y10948424D01*
X31925529Y10956141D01*
X31964706Y10960000D01*
X32043294Y10960000D01*
X32082471Y10956141D01*
X32082471Y10956141D01*
G37*
G36*
X24462471Y10956141D02*
G01*
X24540827Y10948424D01*
X24691628Y10902679D01*
X24691630Y10902678D01*
X24830605Y10828394D01*
X24952422Y10728422D01*
X25052394Y10606605D01*
X25122528Y10475394D01*
X25126679Y10467628D01*
X25172424Y10316827D01*
X25187870Y10160000D01*
X25172424Y10003173D01*
X25126679Y9852372D01*
X25126678Y9852370D01*
X25052394Y9713395D01*
X24952422Y9591578D01*
X24830605Y9491606D01*
X24691630Y9417322D01*
X24691628Y9417321D01*
X24540827Y9371576D01*
X24462471Y9363859D01*
X24423294Y9360000D01*
X24344706Y9360000D01*
X24305529Y9363859D01*
X24227173Y9371576D01*
X24076372Y9417321D01*
X24076370Y9417322D01*
X23937395Y9491606D01*
X23815578Y9591578D01*
X23715606Y9713395D01*
X23641322Y9852370D01*
X23641321Y9852372D01*
X23595576Y10003173D01*
X23580130Y10160000D01*
X23595576Y10316827D01*
X23641321Y10467628D01*
X23645472Y10475394D01*
X23715606Y10606605D01*
X23815578Y10728422D01*
X23937395Y10828394D01*
X24076370Y10902678D01*
X24076372Y10902679D01*
X24227173Y10948424D01*
X24305529Y10956141D01*
X24344706Y10960000D01*
X24423294Y10960000D01*
X24462471Y10956141D01*
X24462471Y10956141D01*
G37*
G36*
X29853991Y10855925D02*
G01*
X29887879Y10845645D01*
X29919112Y10828950D01*
X29946486Y10806486D01*
X29968950Y10779112D01*
X29985645Y10747879D01*
X29995925Y10713991D01*
X30000000Y10672612D01*
X30000000Y9647388D01*
X29995925Y9606009D01*
X29985645Y9572121D01*
X29968950Y9540888D01*
X29946486Y9513514D01*
X29919112Y9491050D01*
X29887879Y9474355D01*
X29853991Y9464075D01*
X29812612Y9460000D01*
X29212388Y9460000D01*
X29171009Y9464075D01*
X29137121Y9474355D01*
X29105888Y9491050D01*
X29078514Y9513514D01*
X29056050Y9540888D01*
X29039355Y9572121D01*
X29029075Y9606009D01*
X29025000Y9647388D01*
X29025000Y10672612D01*
X29029075Y10713991D01*
X29039355Y10747879D01*
X29056050Y10779112D01*
X29078514Y10806486D01*
X29105888Y10828950D01*
X29137121Y10845645D01*
X29171009Y10855925D01*
X29212388Y10860000D01*
X29812612Y10860000D01*
X29853991Y10855925D01*
X29853991Y10855925D01*
G37*
G36*
X27978991Y10855925D02*
G01*
X28012879Y10845645D01*
X28044112Y10828950D01*
X28071486Y10806486D01*
X28093950Y10779112D01*
X28110645Y10747879D01*
X28120925Y10713991D01*
X28125000Y10672612D01*
X28125000Y9647388D01*
X28120925Y9606009D01*
X28110645Y9572121D01*
X28093950Y9540888D01*
X28071486Y9513514D01*
X28044112Y9491050D01*
X28012879Y9474355D01*
X27978991Y9464075D01*
X27937612Y9460000D01*
X27337388Y9460000D01*
X27296009Y9464075D01*
X27262121Y9474355D01*
X27230888Y9491050D01*
X27203514Y9513514D01*
X27181050Y9540888D01*
X27164355Y9572121D01*
X27154075Y9606009D01*
X27150000Y9647388D01*
X27150000Y10672612D01*
X27154075Y10713991D01*
X27164355Y10747879D01*
X27181050Y10779112D01*
X27203514Y10806486D01*
X27230888Y10828950D01*
X27262121Y10845645D01*
X27296009Y10855925D01*
X27337388Y10860000D01*
X27937612Y10860000D01*
X27978991Y10855925D01*
X27978991Y10855925D01*
G37*
G36*
X10365471Y11718141D02*
G01*
X10443827Y11710424D01*
X10594628Y11664679D01*
X10594630Y11664678D01*
X10733605Y11590394D01*
X10733607Y11590393D01*
X10733606Y11590393D01*
X10855422Y11490422D01*
X10955393Y11368606D01*
X11029679Y11229628D01*
X11075424Y11078827D01*
X11090870Y10922000D01*
X11075424Y10765173D01*
X11029679Y10614372D01*
X11029678Y10614370D01*
X10955394Y10475395D01*
X10855422Y10353578D01*
X10733605Y10253606D01*
X10594630Y10179322D01*
X10594628Y10179321D01*
X10443827Y10133576D01*
X10365471Y10125859D01*
X10326294Y10122000D01*
X10247706Y10122000D01*
X10208529Y10125859D01*
X10130173Y10133576D01*
X9979372Y10179321D01*
X9979370Y10179322D01*
X9840395Y10253606D01*
X9718578Y10353578D01*
X9618606Y10475395D01*
X9544322Y10614370D01*
X9544321Y10614372D01*
X9498576Y10765173D01*
X9483130Y10922000D01*
X9498576Y11078827D01*
X9544321Y11229628D01*
X9618607Y11368606D01*
X9718578Y11490422D01*
X9840394Y11590393D01*
X9840393Y11590393D01*
X9840395Y11590394D01*
X9979370Y11664678D01*
X9979372Y11664679D01*
X10130173Y11710424D01*
X10208529Y11718141D01*
X10247706Y11722000D01*
X10326294Y11722000D01*
X10365471Y11718141D01*
X10365471Y11718141D01*
G37*
G36*
X2745471Y11718141D02*
G01*
X2823827Y11710424D01*
X2974628Y11664679D01*
X2974630Y11664678D01*
X3113605Y11590394D01*
X3113607Y11590393D01*
X3113606Y11590393D01*
X3235422Y11490422D01*
X3335393Y11368606D01*
X3409679Y11229628D01*
X3455424Y11078827D01*
X3470870Y10922000D01*
X3455424Y10765173D01*
X3409679Y10614372D01*
X3409678Y10614370D01*
X3335394Y10475395D01*
X3235422Y10353578D01*
X3113605Y10253606D01*
X2974630Y10179322D01*
X2974628Y10179321D01*
X2823827Y10133576D01*
X2745471Y10125859D01*
X2706294Y10122000D01*
X2627706Y10122000D01*
X2588529Y10125859D01*
X2510173Y10133576D01*
X2359372Y10179321D01*
X2359370Y10179322D01*
X2220395Y10253606D01*
X2098578Y10353578D01*
X1998606Y10475395D01*
X1924322Y10614370D01*
X1924321Y10614372D01*
X1878576Y10765173D01*
X1863130Y10922000D01*
X1878576Y11078827D01*
X1924321Y11229628D01*
X1998607Y11368606D01*
X2098578Y11490422D01*
X2220394Y11590393D01*
X2220393Y11590393D01*
X2220395Y11590394D01*
X2359370Y11664678D01*
X2359372Y11664679D01*
X2510173Y11710424D01*
X2588529Y11718141D01*
X2627706Y11722000D01*
X2706294Y11722000D01*
X2745471Y11718141D01*
X2745471Y11718141D01*
G37*
G36*
X26932991Y13624525D02*
G01*
X26966879Y13614245D01*
X26998112Y13597550D01*
X27025486Y13575086D01*
X27047950Y13547712D01*
X27064645Y13516479D01*
X27074925Y13482591D01*
X27079000Y13441212D01*
X27079000Y12415988D01*
X27074925Y12374609D01*
X27064645Y12340721D01*
X27047950Y12309488D01*
X27025486Y12282114D01*
X26998112Y12259650D01*
X26966879Y12242955D01*
X26932991Y12232675D01*
X26891612Y12228600D01*
X26291388Y12228600D01*
X26250009Y12232675D01*
X26216121Y12242955D01*
X26184888Y12259650D01*
X26157514Y12282114D01*
X26135050Y12309488D01*
X26118355Y12340721D01*
X26108075Y12374609D01*
X26104000Y12415988D01*
X26104000Y13441212D01*
X26108075Y13482591D01*
X26118355Y13516479D01*
X26135050Y13547712D01*
X26157514Y13575086D01*
X26184888Y13597550D01*
X26216121Y13614245D01*
X26250009Y13624525D01*
X26291388Y13628600D01*
X26891612Y13628600D01*
X26932991Y13624525D01*
X26932991Y13624525D01*
G37*
G36*
X25057991Y13624525D02*
G01*
X25091879Y13614245D01*
X25123112Y13597550D01*
X25150486Y13575086D01*
X25172950Y13547712D01*
X25189645Y13516479D01*
X25199925Y13482591D01*
X25204000Y13441212D01*
X25204000Y12415988D01*
X25199925Y12374609D01*
X25189645Y12340721D01*
X25172950Y12309488D01*
X25150486Y12282114D01*
X25123112Y12259650D01*
X25091879Y12242955D01*
X25057991Y12232675D01*
X25016612Y12228600D01*
X24416388Y12228600D01*
X24375009Y12232675D01*
X24341121Y12242955D01*
X24309888Y12259650D01*
X24282514Y12282114D01*
X24260050Y12309488D01*
X24243355Y12340721D01*
X24233075Y12374609D01*
X24229000Y12415988D01*
X24229000Y13441212D01*
X24233075Y13482591D01*
X24243355Y13516479D01*
X24260050Y13547712D01*
X24282514Y13575086D01*
X24309888Y13597550D01*
X24341121Y13614245D01*
X24375009Y13624525D01*
X24416388Y13628600D01*
X25016612Y13628600D01*
X25057991Y13624525D01*
X25057991Y13624525D01*
G37*
G36*
X18045000Y13133000D02*
G01*
X16245000Y13133000D01*
X16245000Y15633000D01*
X18045000Y15633000D01*
X18045000Y13133000D01*
X18045000Y13133000D01*
G37*
G36*
X14460491Y15801925D02*
G01*
X14494379Y15791645D01*
X14525612Y15774950D01*
X14552986Y15752486D01*
X14575450Y15725112D01*
X14592145Y15693879D01*
X14602425Y15659991D01*
X14606500Y15618612D01*
X14606500Y15018388D01*
X14602425Y14977009D01*
X14592145Y14943121D01*
X14575450Y14911888D01*
X14552986Y14884514D01*
X14525612Y14862050D01*
X14494379Y14845355D01*
X14460491Y14835075D01*
X14419112Y14831000D01*
X13393888Y14831000D01*
X13352509Y14835075D01*
X13318621Y14845355D01*
X13287388Y14862050D01*
X13260014Y14884514D01*
X13237550Y14911888D01*
X13220855Y14943121D01*
X13210575Y14977009D01*
X13206500Y15018388D01*
X13206500Y15618612D01*
X13210575Y15659991D01*
X13220855Y15693879D01*
X13237550Y15725112D01*
X13260014Y15752486D01*
X13287388Y15774950D01*
X13318621Y15791645D01*
X13352509Y15801925D01*
X13393888Y15806000D01*
X14419112Y15806000D01*
X14460491Y15801925D01*
X14460491Y15801925D01*
G37*
G36*
X21436290Y16976381D02*
G01*
X21500689Y16963571D01*
X21682678Y16888189D01*
X21846463Y16778751D01*
X21985751Y16639463D01*
X22095189Y16475678D01*
X22170571Y16293689D01*
X22170571Y16293688D01*
X22209000Y16100493D01*
X22209000Y15903507D01*
X22188794Y15801925D01*
X22170571Y15710311D01*
X22095189Y15528322D01*
X21985751Y15364537D01*
X21846463Y15225249D01*
X21682678Y15115811D01*
X21500689Y15040429D01*
X21436290Y15027619D01*
X21307493Y15002000D01*
X21110507Y15002000D01*
X20981710Y15027619D01*
X20917311Y15040429D01*
X20735322Y15115811D01*
X20571537Y15225249D01*
X20432249Y15364537D01*
X20322811Y15528322D01*
X20247429Y15710311D01*
X20229206Y15801925D01*
X20209000Y15903507D01*
X20209000Y16100493D01*
X20247429Y16293688D01*
X20247429Y16293689D01*
X20322811Y16475678D01*
X20432249Y16639463D01*
X20571537Y16778751D01*
X20735322Y16888189D01*
X20917311Y16963571D01*
X20981710Y16976381D01*
X21110507Y17002000D01*
X21307493Y17002000D01*
X21436290Y16976381D01*
X21436290Y16976381D01*
G37*
G36*
X25627290Y16976381D02*
G01*
X25691689Y16963571D01*
X25873678Y16888189D01*
X26037463Y16778751D01*
X26176751Y16639463D01*
X26286189Y16475678D01*
X26361571Y16293689D01*
X26361571Y16293688D01*
X26400000Y16100493D01*
X26400000Y15903507D01*
X26379794Y15801925D01*
X26361571Y15710311D01*
X26286189Y15528322D01*
X26176751Y15364537D01*
X26037463Y15225249D01*
X25873678Y15115811D01*
X25691689Y15040429D01*
X25627290Y15027619D01*
X25498493Y15002000D01*
X25301507Y15002000D01*
X25172710Y15027619D01*
X25108311Y15040429D01*
X24926322Y15115811D01*
X24762537Y15225249D01*
X24623249Y15364537D01*
X24513811Y15528322D01*
X24438429Y15710311D01*
X24420206Y15801925D01*
X24400000Y15903507D01*
X24400000Y16100493D01*
X24438429Y16293688D01*
X24438429Y16293689D01*
X24513811Y16475678D01*
X24623249Y16639463D01*
X24762537Y16778751D01*
X24926322Y16888189D01*
X25108311Y16963571D01*
X25172710Y16976381D01*
X25301507Y17002000D01*
X25498493Y17002000D01*
X25627290Y16976381D01*
X25627290Y16976381D01*
G37*
G36*
X34009290Y16976381D02*
G01*
X34073689Y16963571D01*
X34255678Y16888189D01*
X34419463Y16778751D01*
X34558751Y16639463D01*
X34668189Y16475678D01*
X34743571Y16293689D01*
X34743571Y16293688D01*
X34782000Y16100493D01*
X34782000Y15903507D01*
X34761794Y15801925D01*
X34743571Y15710311D01*
X34668189Y15528322D01*
X34558751Y15364537D01*
X34419463Y15225249D01*
X34255678Y15115811D01*
X34073689Y15040429D01*
X34009290Y15027619D01*
X33880493Y15002000D01*
X33683507Y15002000D01*
X33554710Y15027619D01*
X33490311Y15040429D01*
X33308322Y15115811D01*
X33144537Y15225249D01*
X33005249Y15364537D01*
X32895811Y15528322D01*
X32820429Y15710311D01*
X32802206Y15801925D01*
X32782000Y15903507D01*
X32782000Y16100493D01*
X32820429Y16293688D01*
X32820429Y16293689D01*
X32895811Y16475678D01*
X33005249Y16639463D01*
X33144537Y16778751D01*
X33308322Y16888189D01*
X33490311Y16963571D01*
X33554710Y16976381D01*
X33683507Y17002000D01*
X33880493Y17002000D01*
X34009290Y16976381D01*
X34009290Y16976381D01*
G37*
G36*
X29818290Y16976381D02*
G01*
X29882689Y16963571D01*
X30064678Y16888189D01*
X30228463Y16778751D01*
X30367751Y16639463D01*
X30477189Y16475678D01*
X30552571Y16293689D01*
X30552571Y16293688D01*
X30591000Y16100493D01*
X30591000Y15903507D01*
X30570794Y15801925D01*
X30552571Y15710311D01*
X30477189Y15528322D01*
X30367751Y15364537D01*
X30228463Y15225249D01*
X30064678Y15115811D01*
X29882689Y15040429D01*
X29818290Y15027619D01*
X29689493Y15002000D01*
X29492507Y15002000D01*
X29363710Y15027619D01*
X29299311Y15040429D01*
X29117322Y15115811D01*
X28953537Y15225249D01*
X28814249Y15364537D01*
X28704811Y15528322D01*
X28629429Y15710311D01*
X28611206Y15801925D01*
X28591000Y15903507D01*
X28591000Y16100493D01*
X28629429Y16293688D01*
X28629429Y16293689D01*
X28704811Y16475678D01*
X28814249Y16639463D01*
X28953537Y16778751D01*
X29117322Y16888189D01*
X29299311Y16963571D01*
X29363710Y16976381D01*
X29492507Y17002000D01*
X29689493Y17002000D01*
X29818290Y16976381D01*
X29818290Y16976381D01*
G37*
G36*
X79990000Y16149000D02*
G01*
X77490000Y16149000D01*
X77490000Y18649000D01*
X79990000Y18649000D01*
X79990000Y16149000D01*
X79990000Y16149000D01*
G37*
G36*
X59782091Y17891725D02*
G01*
X59815979Y17881445D01*
X59847212Y17864750D01*
X59874586Y17842286D01*
X59897050Y17814912D01*
X59913745Y17783679D01*
X59924025Y17749791D01*
X59928100Y17708412D01*
X59928100Y16683188D01*
X59924025Y16641809D01*
X59913745Y16607921D01*
X59897050Y16576688D01*
X59874586Y16549314D01*
X59847212Y16526850D01*
X59815979Y16510155D01*
X59782091Y16499875D01*
X59740712Y16495800D01*
X59140488Y16495800D01*
X59099109Y16499875D01*
X59065221Y16510155D01*
X59033988Y16526850D01*
X59006614Y16549314D01*
X58984150Y16576688D01*
X58967455Y16607921D01*
X58957175Y16641809D01*
X58953100Y16683188D01*
X58953100Y17708412D01*
X58957175Y17749791D01*
X58967455Y17783679D01*
X58984150Y17814912D01*
X59006614Y17842286D01*
X59033988Y17864750D01*
X59065221Y17881445D01*
X59099109Y17891725D01*
X59140488Y17895800D01*
X59740712Y17895800D01*
X59782091Y17891725D01*
X59782091Y17891725D01*
G37*
G36*
X61657091Y17891725D02*
G01*
X61690979Y17881445D01*
X61722212Y17864750D01*
X61749586Y17842286D01*
X61772050Y17814912D01*
X61788745Y17783679D01*
X61799025Y17749791D01*
X61803100Y17708412D01*
X61803100Y16683188D01*
X61799025Y16641809D01*
X61788745Y16607921D01*
X61772050Y16576688D01*
X61749586Y16549314D01*
X61722212Y16526850D01*
X61690979Y16510155D01*
X61657091Y16499875D01*
X61615712Y16495800D01*
X61015488Y16495800D01*
X60974109Y16499875D01*
X60940221Y16510155D01*
X60908988Y16526850D01*
X60881614Y16549314D01*
X60859150Y16576688D01*
X60842455Y16607921D01*
X60832175Y16641809D01*
X60828100Y16683188D01*
X60828100Y17708412D01*
X60832175Y17749791D01*
X60842455Y17783679D01*
X60859150Y17814912D01*
X60881614Y17842286D01*
X60908988Y17864750D01*
X60940221Y17881445D01*
X60974109Y17891725D01*
X61015488Y17895800D01*
X61615712Y17895800D01*
X61657091Y17891725D01*
X61657091Y17891725D01*
G37*
G36*
X14460491Y17676925D02*
G01*
X14494379Y17666645D01*
X14525612Y17649950D01*
X14552986Y17627486D01*
X14575450Y17600112D01*
X14592145Y17568879D01*
X14602425Y17534991D01*
X14606500Y17493612D01*
X14606500Y16893388D01*
X14602425Y16852009D01*
X14592145Y16818121D01*
X14575450Y16786888D01*
X14552986Y16759514D01*
X14525612Y16737050D01*
X14494379Y16720355D01*
X14460491Y16710075D01*
X14419112Y16706000D01*
X13393888Y16706000D01*
X13352509Y16710075D01*
X13318621Y16720355D01*
X13287388Y16737050D01*
X13260014Y16759514D01*
X13237550Y16786888D01*
X13220855Y16818121D01*
X13210575Y16852009D01*
X13206500Y16893388D01*
X13206500Y17493612D01*
X13210575Y17534991D01*
X13220855Y17568879D01*
X13237550Y17600112D01*
X13260014Y17627486D01*
X13287388Y17649950D01*
X13318621Y17666645D01*
X13352509Y17676925D01*
X13393888Y17681000D01*
X14419112Y17681000D01*
X14460491Y17676925D01*
X14460491Y17676925D01*
G37*
G36*
X18045000Y17133000D02*
G01*
X16245000Y17133000D01*
X16245000Y19633000D01*
X18045000Y19633000D01*
X18045000Y17133000D01*
X18045000Y17133000D01*
G37*
G36*
X7024627Y19633701D02*
G01*
X7104742Y19609398D01*
X7184855Y19585097D01*
X7184857Y19585096D01*
X7332518Y19506169D01*
X7461949Y19399949D01*
X7568169Y19270518D01*
X7647096Y19122857D01*
X7695701Y18962627D01*
X7712112Y18796000D01*
X7695701Y18629373D01*
X7647096Y18469143D01*
X7568169Y18321482D01*
X7461949Y18192051D01*
X7332518Y18085831D01*
X7184857Y18006904D01*
X7184855Y18006903D01*
X7104742Y17982602D01*
X7024627Y17958299D01*
X6899752Y17946000D01*
X6816248Y17946000D01*
X6691373Y17958299D01*
X6611258Y17982602D01*
X6531145Y18006903D01*
X6531143Y18006904D01*
X6383482Y18085831D01*
X6254051Y18192051D01*
X6147831Y18321482D01*
X6068904Y18469143D01*
X6020299Y18629373D01*
X6003888Y18796000D01*
X6020299Y18962627D01*
X6068904Y19122857D01*
X6147831Y19270518D01*
X6254051Y19399949D01*
X6383482Y19506169D01*
X6531143Y19585096D01*
X6531145Y19585097D01*
X6611258Y19609398D01*
X6691373Y19633701D01*
X6816248Y19646000D01*
X6899752Y19646000D01*
X7024627Y19633701D01*
X7024627Y19633701D01*
G37*
G36*
X4484627Y19633701D02*
G01*
X4564742Y19609398D01*
X4644855Y19585097D01*
X4644857Y19585096D01*
X4792518Y19506169D01*
X4921949Y19399949D01*
X5028169Y19270518D01*
X5107096Y19122857D01*
X5155701Y18962627D01*
X5172112Y18796000D01*
X5155701Y18629373D01*
X5107096Y18469143D01*
X5028169Y18321482D01*
X4921949Y18192051D01*
X4792518Y18085831D01*
X4644857Y18006904D01*
X4644855Y18006903D01*
X4564742Y17982602D01*
X4484627Y17958299D01*
X4359752Y17946000D01*
X4276248Y17946000D01*
X4151373Y17958299D01*
X4071258Y17982602D01*
X3991145Y18006903D01*
X3991143Y18006904D01*
X3843482Y18085831D01*
X3714051Y18192051D01*
X3607831Y18321482D01*
X3528904Y18469143D01*
X3480299Y18629373D01*
X3463888Y18796000D01*
X3480299Y18962627D01*
X3528904Y19122857D01*
X3607831Y19270518D01*
X3714051Y19399949D01*
X3843482Y19506169D01*
X3991143Y19585096D01*
X3991145Y19585097D01*
X4071258Y19609398D01*
X4151373Y19633701D01*
X4276248Y19646000D01*
X4359752Y19646000D01*
X4484627Y19633701D01*
X4484627Y19633701D01*
G37*
G36*
X38199024Y19985545D02*
G01*
X38231738Y19975621D01*
X38261885Y19959507D01*
X38288315Y19937815D01*
X38310007Y19911385D01*
X38326121Y19881238D01*
X38336045Y19848524D01*
X38340000Y19808362D01*
X38340000Y18920638D01*
X38336045Y18880476D01*
X38326121Y18847762D01*
X38310007Y18817615D01*
X38288315Y18791185D01*
X38261885Y18769493D01*
X38231738Y18753379D01*
X38199024Y18743455D01*
X38158862Y18739500D01*
X36771138Y18739500D01*
X36730976Y18743455D01*
X36698262Y18753379D01*
X36668115Y18769493D01*
X36641685Y18791185D01*
X36619993Y18817615D01*
X36603879Y18847762D01*
X36593955Y18880476D01*
X36590000Y18920638D01*
X36590000Y19808362D01*
X36593955Y19848524D01*
X36603879Y19881238D01*
X36619993Y19911385D01*
X36641685Y19937815D01*
X36668115Y19959507D01*
X36698262Y19975621D01*
X36730976Y19985545D01*
X36771138Y19989500D01*
X38158862Y19989500D01*
X38199024Y19985545D01*
X38199024Y19985545D01*
G37*
G36*
X33573991Y19738925D02*
G01*
X33607879Y19728645D01*
X33639112Y19711950D01*
X33666486Y19689486D01*
X33688950Y19662112D01*
X33705645Y19630879D01*
X33715925Y19596991D01*
X33720000Y19555612D01*
X33720000Y18955388D01*
X33715925Y18914009D01*
X33705645Y18880121D01*
X33688950Y18848888D01*
X33666486Y18821514D01*
X33639112Y18799050D01*
X33607879Y18782355D01*
X33573991Y18772075D01*
X33532612Y18768000D01*
X32507388Y18768000D01*
X32466009Y18772075D01*
X32432121Y18782355D01*
X32400888Y18799050D01*
X32373514Y18821514D01*
X32351050Y18848888D01*
X32334355Y18880121D01*
X32324075Y18914009D01*
X32320000Y18955388D01*
X32320000Y19555612D01*
X32324075Y19596991D01*
X32334355Y19630879D01*
X32351050Y19662112D01*
X32373514Y19689486D01*
X32400888Y19711950D01*
X32432121Y19728645D01*
X32466009Y19738925D01*
X32507388Y19743000D01*
X33532612Y19743000D01*
X33573991Y19738925D01*
X33573991Y19738925D01*
G37*
G36*
X31160991Y19738925D02*
G01*
X31194879Y19728645D01*
X31226112Y19711950D01*
X31253486Y19689486D01*
X31275950Y19662112D01*
X31292645Y19630879D01*
X31302925Y19596991D01*
X31307000Y19555612D01*
X31307000Y18955388D01*
X31302925Y18914009D01*
X31292645Y18880121D01*
X31275950Y18848888D01*
X31253486Y18821514D01*
X31226112Y18799050D01*
X31194879Y18782355D01*
X31160991Y18772075D01*
X31119612Y18768000D01*
X30094388Y18768000D01*
X30053009Y18772075D01*
X30019121Y18782355D01*
X29987888Y18799050D01*
X29960514Y18821514D01*
X29938050Y18848888D01*
X29921355Y18880121D01*
X29911075Y18914009D01*
X29907000Y18955388D01*
X29907000Y19555612D01*
X29911075Y19596991D01*
X29921355Y19630879D01*
X29938050Y19662112D01*
X29960514Y19689486D01*
X29987888Y19711950D01*
X30019121Y19728645D01*
X30053009Y19738925D01*
X30094388Y19743000D01*
X31119612Y19743000D01*
X31160991Y19738925D01*
X31160991Y19738925D01*
G37*
G36*
X28300024Y20556045D02*
G01*
X28332738Y20546121D01*
X28362885Y20530007D01*
X28389315Y20508315D01*
X28411007Y20481885D01*
X28427121Y20451738D01*
X28437045Y20419024D01*
X28441000Y20378862D01*
X28441000Y18991138D01*
X28437045Y18950976D01*
X28427121Y18918262D01*
X28411007Y18888115D01*
X28389315Y18861685D01*
X28362885Y18839993D01*
X28332738Y18823879D01*
X28300024Y18813955D01*
X28259862Y18810000D01*
X27372138Y18810000D01*
X27331976Y18813955D01*
X27299262Y18823879D01*
X27269115Y18839993D01*
X27242685Y18861685D01*
X27220993Y18888115D01*
X27204879Y18918262D01*
X27194955Y18950976D01*
X27191000Y18991138D01*
X27191000Y20378862D01*
X27194955Y20419024D01*
X27204879Y20451738D01*
X27220993Y20481885D01*
X27242685Y20508315D01*
X27269115Y20530007D01*
X27299262Y20546121D01*
X27331976Y20556045D01*
X27372138Y20560000D01*
X28259862Y20560000D01*
X28300024Y20556045D01*
X28300024Y20556045D01*
G37*
G36*
X25500024Y20556045D02*
G01*
X25532738Y20546121D01*
X25562885Y20530007D01*
X25589315Y20508315D01*
X25611007Y20481885D01*
X25627121Y20451738D01*
X25637045Y20419024D01*
X25641000Y20378862D01*
X25641000Y18991138D01*
X25637045Y18950976D01*
X25627121Y18918262D01*
X25611007Y18888115D01*
X25589315Y18861685D01*
X25562885Y18839993D01*
X25532738Y18823879D01*
X25500024Y18813955D01*
X25459862Y18810000D01*
X24572138Y18810000D01*
X24531976Y18813955D01*
X24499262Y18823879D01*
X24469115Y18839993D01*
X24442685Y18861685D01*
X24420993Y18888115D01*
X24404879Y18918262D01*
X24394955Y18950976D01*
X24391000Y18991138D01*
X24391000Y20378862D01*
X24394955Y20419024D01*
X24404879Y20451738D01*
X24420993Y20481885D01*
X24442685Y20508315D01*
X24469115Y20530007D01*
X24499262Y20546121D01*
X24531976Y20556045D01*
X24572138Y20560000D01*
X25459862Y20560000D01*
X25500024Y20556045D01*
X25500024Y20556045D01*
G37*
G36*
X7024627Y22173701D02*
G01*
X7104742Y22149398D01*
X7184855Y22125097D01*
X7184857Y22125096D01*
X7332518Y22046169D01*
X7461949Y21939949D01*
X7568169Y21810518D01*
X7647096Y21662857D01*
X7647097Y21662855D01*
X7668837Y21591185D01*
X7695701Y21502627D01*
X7712112Y21336000D01*
X7695701Y21169373D01*
X7647096Y21009143D01*
X7568169Y20861482D01*
X7461949Y20732051D01*
X7332518Y20625831D01*
X7201958Y20556045D01*
X7184855Y20546903D01*
X7129155Y20530007D01*
X7024627Y20498299D01*
X6899752Y20486000D01*
X6816248Y20486000D01*
X6691373Y20498299D01*
X6586845Y20530007D01*
X6531145Y20546903D01*
X6514042Y20556045D01*
X6383482Y20625831D01*
X6254051Y20732051D01*
X6147831Y20861482D01*
X6068904Y21009143D01*
X6020299Y21169373D01*
X6003888Y21336000D01*
X6020299Y21502627D01*
X6047163Y21591185D01*
X6068903Y21662855D01*
X6068904Y21662857D01*
X6147831Y21810518D01*
X6254051Y21939949D01*
X6383482Y22046169D01*
X6531143Y22125096D01*
X6531145Y22125097D01*
X6611258Y22149398D01*
X6691373Y22173701D01*
X6816248Y22186000D01*
X6899752Y22186000D01*
X7024627Y22173701D01*
X7024627Y22173701D01*
G37*
G36*
X4484627Y22173701D02*
G01*
X4564742Y22149398D01*
X4644855Y22125097D01*
X4644857Y22125096D01*
X4792518Y22046169D01*
X4921949Y21939949D01*
X5028169Y21810518D01*
X5107096Y21662857D01*
X5107097Y21662855D01*
X5128837Y21591185D01*
X5155701Y21502627D01*
X5172112Y21336000D01*
X5155701Y21169373D01*
X5107096Y21009143D01*
X5028169Y20861482D01*
X4921949Y20732051D01*
X4792518Y20625831D01*
X4661958Y20556045D01*
X4644855Y20546903D01*
X4589155Y20530007D01*
X4484627Y20498299D01*
X4359752Y20486000D01*
X4276248Y20486000D01*
X4151373Y20498299D01*
X4046845Y20530007D01*
X3991145Y20546903D01*
X3974042Y20556045D01*
X3843482Y20625831D01*
X3714051Y20732051D01*
X3607831Y20861482D01*
X3528904Y21009143D01*
X3480299Y21169373D01*
X3463888Y21336000D01*
X3480299Y21502627D01*
X3507163Y21591185D01*
X3528903Y21662855D01*
X3528904Y21662857D01*
X3607831Y21810518D01*
X3714051Y21939949D01*
X3843482Y22046169D01*
X3991143Y22125096D01*
X3991145Y22125097D01*
X4071258Y22149398D01*
X4151373Y22173701D01*
X4276248Y22186000D01*
X4359752Y22186000D01*
X4484627Y22173701D01*
X4484627Y22173701D01*
G37*
G36*
X33573991Y21613925D02*
G01*
X33607879Y21603645D01*
X33639112Y21586950D01*
X33666486Y21564486D01*
X33688950Y21537112D01*
X33705645Y21505879D01*
X33715925Y21471991D01*
X33720000Y21430612D01*
X33720000Y20830388D01*
X33715925Y20789009D01*
X33705645Y20755121D01*
X33688950Y20723888D01*
X33666486Y20696514D01*
X33639112Y20674050D01*
X33607879Y20657355D01*
X33573991Y20647075D01*
X33532612Y20643000D01*
X32507388Y20643000D01*
X32466009Y20647075D01*
X32432121Y20657355D01*
X32400888Y20674050D01*
X32373514Y20696514D01*
X32351050Y20723888D01*
X32334355Y20755121D01*
X32324075Y20789009D01*
X32320000Y20830388D01*
X32320000Y21430612D01*
X32324075Y21471991D01*
X32334355Y21505879D01*
X32351050Y21537112D01*
X32373514Y21564486D01*
X32400888Y21586950D01*
X32432121Y21603645D01*
X32466009Y21613925D01*
X32507388Y21618000D01*
X33532612Y21618000D01*
X33573991Y21613925D01*
X33573991Y21613925D01*
G37*
G36*
X31160991Y21613925D02*
G01*
X31194879Y21603645D01*
X31226112Y21586950D01*
X31253486Y21564486D01*
X31275950Y21537112D01*
X31292645Y21505879D01*
X31302925Y21471991D01*
X31307000Y21430612D01*
X31307000Y20830388D01*
X31302925Y20789009D01*
X31292645Y20755121D01*
X31275950Y20723888D01*
X31253486Y20696514D01*
X31226112Y20674050D01*
X31194879Y20657355D01*
X31160991Y20647075D01*
X31119612Y20643000D01*
X30094388Y20643000D01*
X30053009Y20647075D01*
X30019121Y20657355D01*
X29987888Y20674050D01*
X29960514Y20696514D01*
X29938050Y20723888D01*
X29921355Y20755121D01*
X29911075Y20789009D01*
X29907000Y20830388D01*
X29907000Y21430612D01*
X29911075Y21471991D01*
X29921355Y21505879D01*
X29938050Y21537112D01*
X29960514Y21564486D01*
X29987888Y21586950D01*
X30019121Y21603645D01*
X30053009Y21613925D01*
X30094388Y21618000D01*
X31119612Y21618000D01*
X31160991Y21613925D01*
X31160991Y21613925D01*
G37*
G36*
X21027491Y22285925D02*
G01*
X21061379Y22275645D01*
X21092612Y22258950D01*
X21119986Y22236486D01*
X21142450Y22209112D01*
X21159145Y22177879D01*
X21169425Y22143991D01*
X21173500Y22102612D01*
X21173500Y21077388D01*
X21169425Y21036009D01*
X21159145Y21002121D01*
X21142450Y20970888D01*
X21119986Y20943514D01*
X21092612Y20921050D01*
X21061379Y20904355D01*
X21027491Y20894075D01*
X20986112Y20890000D01*
X20385888Y20890000D01*
X20344509Y20894075D01*
X20310621Y20904355D01*
X20279388Y20921050D01*
X20252014Y20943514D01*
X20229550Y20970888D01*
X20212855Y21002121D01*
X20202575Y21036009D01*
X20198500Y21077388D01*
X20198500Y22102612D01*
X20202575Y22143991D01*
X20212855Y22177879D01*
X20229550Y22209112D01*
X20252014Y22236486D01*
X20279388Y22258950D01*
X20310621Y22275645D01*
X20344509Y22285925D01*
X20385888Y22290000D01*
X20986112Y22290000D01*
X21027491Y22285925D01*
X21027491Y22285925D01*
G37*
G36*
X19152491Y22285925D02*
G01*
X19186379Y22275645D01*
X19217612Y22258950D01*
X19244986Y22236486D01*
X19267450Y22209112D01*
X19284145Y22177879D01*
X19294425Y22143991D01*
X19298500Y22102612D01*
X19298500Y21077388D01*
X19294425Y21036009D01*
X19284145Y21002121D01*
X19267450Y20970888D01*
X19244986Y20943514D01*
X19217612Y20921050D01*
X19186379Y20904355D01*
X19152491Y20894075D01*
X19111112Y20890000D01*
X18510888Y20890000D01*
X18469509Y20894075D01*
X18435621Y20904355D01*
X18404388Y20921050D01*
X18377014Y20943514D01*
X18354550Y20970888D01*
X18337855Y21002121D01*
X18327575Y21036009D01*
X18323500Y21077388D01*
X18323500Y22102612D01*
X18327575Y22143991D01*
X18337855Y22177879D01*
X18354550Y22209112D01*
X18377014Y22236486D01*
X18404388Y22258950D01*
X18435621Y22275645D01*
X18469509Y22285925D01*
X18510888Y22290000D01*
X19111112Y22290000D01*
X19152491Y22285925D01*
X19152491Y22285925D01*
G37*
G36*
X79104610Y23680964D02*
G01*
X79332095Y23586736D01*
X79332097Y23586735D01*
X79536828Y23449938D01*
X79710938Y23275828D01*
X79837174Y23086903D01*
X79847736Y23071095D01*
X79941964Y22843610D01*
X79990000Y22602116D01*
X79990000Y22355884D01*
X79941964Y22114390D01*
X79869707Y21939948D01*
X79847735Y21886903D01*
X79710938Y21682172D01*
X79536828Y21508062D01*
X79332097Y21371265D01*
X79332096Y21371264D01*
X79332095Y21371264D01*
X79104610Y21277036D01*
X78863116Y21229000D01*
X78616884Y21229000D01*
X78375390Y21277036D01*
X78147905Y21371264D01*
X78147904Y21371264D01*
X78147903Y21371265D01*
X77943172Y21508062D01*
X77769062Y21682172D01*
X77632265Y21886903D01*
X77610293Y21939948D01*
X77538036Y22114390D01*
X77490000Y22355884D01*
X77490000Y22602116D01*
X77538036Y22843610D01*
X77632264Y23071095D01*
X77642827Y23086903D01*
X77769062Y23275828D01*
X77943172Y23449938D01*
X78147903Y23586735D01*
X78147905Y23586736D01*
X78375390Y23680964D01*
X78616884Y23729000D01*
X78863116Y23729000D01*
X79104610Y23680964D01*
X79104610Y23680964D01*
G37*
G36*
X38199024Y22785545D02*
G01*
X38231738Y22775621D01*
X38261885Y22759507D01*
X38288315Y22737815D01*
X38310007Y22711385D01*
X38326121Y22681238D01*
X38336045Y22648524D01*
X38340000Y22608362D01*
X38340000Y21720638D01*
X38336045Y21680476D01*
X38326121Y21647762D01*
X38310007Y21617615D01*
X38288315Y21591185D01*
X38261885Y21569493D01*
X38231738Y21553379D01*
X38199024Y21543455D01*
X38158862Y21539500D01*
X36771138Y21539500D01*
X36730976Y21543455D01*
X36698262Y21553379D01*
X36668115Y21569493D01*
X36641685Y21591185D01*
X36619993Y21617615D01*
X36603879Y21647762D01*
X36593955Y21680476D01*
X36590000Y21720638D01*
X36590000Y22608362D01*
X36593955Y22648524D01*
X36603879Y22681238D01*
X36619993Y22711385D01*
X36641685Y22737815D01*
X36668115Y22759507D01*
X36698262Y22775621D01*
X36730976Y22785545D01*
X36771138Y22789500D01*
X38158862Y22789500D01*
X38199024Y22785545D01*
X38199024Y22785545D01*
G37*
G36*
X61657091Y23073325D02*
G01*
X61690979Y23063045D01*
X61722212Y23046350D01*
X61749586Y23023886D01*
X61772050Y22996512D01*
X61788745Y22965279D01*
X61799025Y22931391D01*
X61803100Y22890012D01*
X61803100Y21864788D01*
X61799025Y21823409D01*
X61788745Y21789521D01*
X61772050Y21758288D01*
X61749586Y21730914D01*
X61722212Y21708450D01*
X61690979Y21691755D01*
X61657091Y21681475D01*
X61615712Y21677400D01*
X61015488Y21677400D01*
X60974109Y21681475D01*
X60940221Y21691755D01*
X60908988Y21708450D01*
X60881614Y21730914D01*
X60859150Y21758288D01*
X60842455Y21789521D01*
X60832175Y21823409D01*
X60828100Y21864788D01*
X60828100Y22890012D01*
X60832175Y22931391D01*
X60842455Y22965279D01*
X60859150Y22996512D01*
X60881614Y23023886D01*
X60908988Y23046350D01*
X60940221Y23063045D01*
X60974109Y23073325D01*
X61015488Y23077400D01*
X61615712Y23077400D01*
X61657091Y23073325D01*
X61657091Y23073325D01*
G37*
G36*
X59782091Y23073325D02*
G01*
X59815979Y23063045D01*
X59847212Y23046350D01*
X59874586Y23023886D01*
X59897050Y22996512D01*
X59913745Y22965279D01*
X59924025Y22931391D01*
X59928100Y22890012D01*
X59928100Y21864788D01*
X59924025Y21823409D01*
X59913745Y21789521D01*
X59897050Y21758288D01*
X59874586Y21730914D01*
X59847212Y21708450D01*
X59815979Y21691755D01*
X59782091Y21681475D01*
X59740712Y21677400D01*
X59140488Y21677400D01*
X59099109Y21681475D01*
X59065221Y21691755D01*
X59033988Y21708450D01*
X59006614Y21730914D01*
X58984150Y21758288D01*
X58967455Y21789521D01*
X58957175Y21823409D01*
X58953100Y21864788D01*
X58953100Y22890012D01*
X58957175Y22931391D01*
X58967455Y22965279D01*
X58984150Y22996512D01*
X59006614Y23023886D01*
X59033988Y23046350D01*
X59065221Y23063045D01*
X59099109Y23073325D01*
X59140488Y23077400D01*
X59740712Y23077400D01*
X59782091Y23073325D01*
X59782091Y23073325D01*
G37*
G36*
X12398580Y24410000D02*
G01*
X12483689Y24393071D01*
X12665678Y24317689D01*
X12829463Y24208251D01*
X12968751Y24068963D01*
X13078189Y23905178D01*
X13153571Y23723189D01*
X13161366Y23684000D01*
X13188191Y23549143D01*
X13192000Y23529991D01*
X13192000Y23333009D01*
X13153571Y23139811D01*
X13078189Y22957822D01*
X12968751Y22794037D01*
X12829463Y22654749D01*
X12665678Y22545311D01*
X12483689Y22469929D01*
X12419290Y22457119D01*
X12290493Y22431500D01*
X12093507Y22431500D01*
X11964710Y22457119D01*
X11900311Y22469929D01*
X11718322Y22545311D01*
X11554537Y22654749D01*
X11415249Y22794037D01*
X11305811Y22957822D01*
X11230429Y23139811D01*
X11192000Y23333009D01*
X11192000Y23529991D01*
X11195810Y23549143D01*
X11222634Y23684000D01*
X11230429Y23723189D01*
X11305811Y23905178D01*
X11415249Y24068963D01*
X11554537Y24208251D01*
X11718322Y24317689D01*
X11900311Y24393071D01*
X11985420Y24410000D01*
X12093507Y24431500D01*
X12290493Y24431500D01*
X12398580Y24410000D01*
X12398580Y24410000D01*
G37*
G36*
X7024627Y24713701D02*
G01*
X7104742Y24689399D01*
X7184855Y24665097D01*
X7184857Y24665096D01*
X7332518Y24586169D01*
X7461949Y24479949D01*
X7568169Y24350518D01*
X7647096Y24202857D01*
X7695701Y24042627D01*
X7712112Y23876000D01*
X7695701Y23709373D01*
X7689425Y23688684D01*
X7658500Y23586735D01*
X7647096Y23549143D01*
X7568169Y23401482D01*
X7461949Y23272051D01*
X7332518Y23165831D01*
X7283840Y23139812D01*
X7184855Y23086903D01*
X7106204Y23063045D01*
X7024627Y23038299D01*
X6899752Y23026000D01*
X6816248Y23026000D01*
X6691373Y23038299D01*
X6609796Y23063045D01*
X6531145Y23086903D01*
X6432160Y23139812D01*
X6383482Y23165831D01*
X6254051Y23272051D01*
X6147831Y23401482D01*
X6068904Y23549143D01*
X6057501Y23586735D01*
X6026575Y23688684D01*
X6020299Y23709373D01*
X6003888Y23876000D01*
X6020299Y24042627D01*
X6068904Y24202857D01*
X6147831Y24350518D01*
X6254051Y24479949D01*
X6383482Y24586169D01*
X6531143Y24665096D01*
X6531145Y24665097D01*
X6611258Y24689399D01*
X6691373Y24713701D01*
X6816248Y24726000D01*
X6899752Y24726000D01*
X7024627Y24713701D01*
X7024627Y24713701D01*
G37*
G36*
X4484627Y24713701D02*
G01*
X4564742Y24689399D01*
X4644855Y24665097D01*
X4644857Y24665096D01*
X4792518Y24586169D01*
X4921949Y24479949D01*
X5028169Y24350518D01*
X5107096Y24202857D01*
X5155701Y24042627D01*
X5172112Y23876000D01*
X5155701Y23709373D01*
X5149425Y23688684D01*
X5118500Y23586735D01*
X5107096Y23549143D01*
X5028169Y23401482D01*
X4921949Y23272051D01*
X4792518Y23165831D01*
X4743840Y23139812D01*
X4644855Y23086903D01*
X4566204Y23063045D01*
X4484627Y23038299D01*
X4359752Y23026000D01*
X4276248Y23026000D01*
X4151373Y23038299D01*
X4069796Y23063045D01*
X3991145Y23086903D01*
X3892160Y23139812D01*
X3843482Y23165831D01*
X3714051Y23272051D01*
X3607831Y23401482D01*
X3528904Y23549143D01*
X3517501Y23586735D01*
X3486575Y23688684D01*
X3480299Y23709373D01*
X3463888Y23876000D01*
X3480299Y24042627D01*
X3528904Y24202857D01*
X3607831Y24350518D01*
X3714051Y24479949D01*
X3843482Y24586169D01*
X3991143Y24665096D01*
X3991145Y24665097D01*
X4071258Y24689399D01*
X4151373Y24713701D01*
X4276248Y24726000D01*
X4359752Y24726000D01*
X4484627Y24713701D01*
X4484627Y24713701D01*
G37*
G36*
X20074991Y25079925D02*
G01*
X20108879Y25069645D01*
X20140112Y25052950D01*
X20167486Y25030486D01*
X20189950Y25003112D01*
X20206645Y24971879D01*
X20216925Y24937991D01*
X20221000Y24896612D01*
X20221000Y23871388D01*
X20216925Y23830009D01*
X20206645Y23796121D01*
X20189950Y23764888D01*
X20167486Y23737514D01*
X20140112Y23715050D01*
X20108879Y23698355D01*
X20074991Y23688075D01*
X20033612Y23684000D01*
X19433388Y23684000D01*
X19392009Y23688075D01*
X19358121Y23698355D01*
X19326888Y23715050D01*
X19299514Y23737514D01*
X19277050Y23764888D01*
X19260355Y23796121D01*
X19250075Y23830009D01*
X19246000Y23871388D01*
X19246000Y24896612D01*
X19250075Y24937991D01*
X19260355Y24971879D01*
X19277050Y25003112D01*
X19299514Y25030486D01*
X19326888Y25052950D01*
X19358121Y25069645D01*
X19392009Y25079925D01*
X19433388Y25084000D01*
X20033612Y25084000D01*
X20074991Y25079925D01*
X20074991Y25079925D01*
G37*
G36*
X18199991Y25079925D02*
G01*
X18233879Y25069645D01*
X18265112Y25052950D01*
X18292486Y25030486D01*
X18314950Y25003112D01*
X18331645Y24971879D01*
X18341925Y24937991D01*
X18346000Y24896612D01*
X18346000Y23871388D01*
X18341925Y23830009D01*
X18331645Y23796121D01*
X18314950Y23764888D01*
X18292486Y23737514D01*
X18265112Y23715050D01*
X18233879Y23698355D01*
X18199991Y23688075D01*
X18158612Y23684000D01*
X17558388Y23684000D01*
X17517009Y23688075D01*
X17483121Y23698355D01*
X17451888Y23715050D01*
X17424514Y23737514D01*
X17402050Y23764888D01*
X17385355Y23796121D01*
X17375075Y23830009D01*
X17371000Y23871388D01*
X17371000Y24896612D01*
X17375075Y24937991D01*
X17385355Y24971879D01*
X17402050Y25003112D01*
X17424514Y25030486D01*
X17451888Y25052950D01*
X17483121Y25069645D01*
X17517009Y25079925D01*
X17558388Y25084000D01*
X18158612Y25084000D01*
X18199991Y25079925D01*
X18199991Y25079925D01*
G37*
G36*
X31701571Y25783206D02*
G01*
X31713192Y25779681D01*
X31723887Y25773964D01*
X31733267Y25766267D01*
X31740964Y25756887D01*
X31746681Y25746192D01*
X31750206Y25734571D01*
X31752000Y25716359D01*
X31752000Y24353641D01*
X31750206Y24335429D01*
X31746681Y24323808D01*
X31740964Y24313113D01*
X31733267Y24303733D01*
X31723887Y24296036D01*
X31713192Y24290319D01*
X31701571Y24286794D01*
X31683359Y24285000D01*
X31320641Y24285000D01*
X31302429Y24286794D01*
X31290808Y24290319D01*
X31280113Y24296036D01*
X31270733Y24303733D01*
X31263036Y24313113D01*
X31257319Y24323808D01*
X31253794Y24335429D01*
X31252000Y24353641D01*
X31252000Y25716359D01*
X31253794Y25734571D01*
X31257319Y25746192D01*
X31263036Y25756887D01*
X31270733Y25766267D01*
X31280113Y25773964D01*
X31290808Y25779681D01*
X31302429Y25783206D01*
X31320641Y25785000D01*
X31683359Y25785000D01*
X31701571Y25783206D01*
X31701571Y25783206D01*
G37*
G36*
X30101571Y25783206D02*
G01*
X30113192Y25779681D01*
X30123887Y25773964D01*
X30133267Y25766267D01*
X30140964Y25756887D01*
X30146681Y25746192D01*
X30150206Y25734571D01*
X30152000Y25716359D01*
X30152000Y24353641D01*
X30150206Y24335429D01*
X30146681Y24323808D01*
X30140964Y24313113D01*
X30133267Y24303733D01*
X30123887Y24296036D01*
X30113192Y24290319D01*
X30101571Y24286794D01*
X30083359Y24285000D01*
X29720641Y24285000D01*
X29702429Y24286794D01*
X29690808Y24290319D01*
X29680113Y24296036D01*
X29670733Y24303733D01*
X29663036Y24313113D01*
X29657319Y24323808D01*
X29653794Y24335429D01*
X29652000Y24353641D01*
X29652000Y25716359D01*
X29653794Y25734571D01*
X29657319Y25746192D01*
X29663036Y25756887D01*
X29670733Y25766267D01*
X29680113Y25773964D01*
X29690808Y25779681D01*
X29702429Y25783206D01*
X29720641Y25785000D01*
X30083359Y25785000D01*
X30101571Y25783206D01*
X30101571Y25783206D01*
G37*
G36*
X29301571Y25783206D02*
G01*
X29313192Y25779681D01*
X29323887Y25773964D01*
X29333267Y25766267D01*
X29340964Y25756887D01*
X29346681Y25746192D01*
X29350206Y25734571D01*
X29352000Y25716359D01*
X29352000Y24353641D01*
X29350206Y24335429D01*
X29346681Y24323808D01*
X29340964Y24313113D01*
X29333267Y24303733D01*
X29323887Y24296036D01*
X29313192Y24290319D01*
X29301571Y24286794D01*
X29283359Y24285000D01*
X28920641Y24285000D01*
X28902429Y24286794D01*
X28890808Y24290319D01*
X28880113Y24296036D01*
X28870733Y24303733D01*
X28863036Y24313113D01*
X28857319Y24323808D01*
X28853794Y24335429D01*
X28852000Y24353641D01*
X28852000Y25716359D01*
X28853794Y25734571D01*
X28857319Y25746192D01*
X28863036Y25756887D01*
X28870733Y25766267D01*
X28880113Y25773964D01*
X28890808Y25779681D01*
X28902429Y25783206D01*
X28920641Y25785000D01*
X29283359Y25785000D01*
X29301571Y25783206D01*
X29301571Y25783206D01*
G37*
G36*
X28501571Y25783206D02*
G01*
X28513192Y25779681D01*
X28523887Y25773964D01*
X28533267Y25766267D01*
X28540964Y25756887D01*
X28546681Y25746192D01*
X28550206Y25734571D01*
X28552000Y25716359D01*
X28552000Y24353641D01*
X28550206Y24335429D01*
X28546681Y24323808D01*
X28540964Y24313113D01*
X28533267Y24303733D01*
X28523887Y24296036D01*
X28513192Y24290319D01*
X28501571Y24286794D01*
X28483359Y24285000D01*
X28120641Y24285000D01*
X28102429Y24286794D01*
X28090808Y24290319D01*
X28080113Y24296036D01*
X28070733Y24303733D01*
X28063036Y24313113D01*
X28057319Y24323808D01*
X28053794Y24335429D01*
X28052000Y24353641D01*
X28052000Y25716359D01*
X28053794Y25734571D01*
X28057319Y25746192D01*
X28063036Y25756887D01*
X28070733Y25766267D01*
X28080113Y25773964D01*
X28090808Y25779681D01*
X28102429Y25783206D01*
X28120641Y25785000D01*
X28483359Y25785000D01*
X28501571Y25783206D01*
X28501571Y25783206D01*
G37*
G36*
X27701571Y25783206D02*
G01*
X27713192Y25779681D01*
X27723887Y25773964D01*
X27733267Y25766267D01*
X27740964Y25756887D01*
X27746681Y25746192D01*
X27750206Y25734571D01*
X27752000Y25716359D01*
X27752000Y24353641D01*
X27750206Y24335429D01*
X27746681Y24323808D01*
X27740964Y24313113D01*
X27733267Y24303733D01*
X27723887Y24296036D01*
X27713192Y24290319D01*
X27701571Y24286794D01*
X27683359Y24285000D01*
X27320641Y24285000D01*
X27302429Y24286794D01*
X27290808Y24290319D01*
X27280113Y24296036D01*
X27270733Y24303733D01*
X27263036Y24313113D01*
X27257319Y24323808D01*
X27253794Y24335429D01*
X27252000Y24353641D01*
X27252000Y25716359D01*
X27253794Y25734571D01*
X27257319Y25746192D01*
X27263036Y25756887D01*
X27270733Y25766267D01*
X27280113Y25773964D01*
X27290808Y25779681D01*
X27302429Y25783206D01*
X27320641Y25785000D01*
X27683359Y25785000D01*
X27701571Y25783206D01*
X27701571Y25783206D01*
G37*
G36*
X26901571Y25783206D02*
G01*
X26913192Y25779681D01*
X26923887Y25773964D01*
X26933267Y25766267D01*
X26940964Y25756887D01*
X26946681Y25746192D01*
X26950206Y25734571D01*
X26952000Y25716359D01*
X26952000Y24353641D01*
X26950206Y24335429D01*
X26946681Y24323808D01*
X26940964Y24313113D01*
X26933267Y24303733D01*
X26923887Y24296036D01*
X26913192Y24290319D01*
X26901571Y24286794D01*
X26883359Y24285000D01*
X26520641Y24285000D01*
X26502429Y24286794D01*
X26490808Y24290319D01*
X26480113Y24296036D01*
X26470733Y24303733D01*
X26463036Y24313113D01*
X26457319Y24323808D01*
X26453794Y24335429D01*
X26452000Y24353641D01*
X26452000Y25716359D01*
X26453794Y25734571D01*
X26457319Y25746192D01*
X26463036Y25756887D01*
X26470733Y25766267D01*
X26480113Y25773964D01*
X26490808Y25779681D01*
X26502429Y25783206D01*
X26520641Y25785000D01*
X26883359Y25785000D01*
X26901571Y25783206D01*
X26901571Y25783206D01*
G37*
G36*
X26101571Y25783206D02*
G01*
X26113192Y25779681D01*
X26123887Y25773964D01*
X26133267Y25766267D01*
X26140964Y25756887D01*
X26146681Y25746192D01*
X26150206Y25734571D01*
X26152000Y25716359D01*
X26152000Y24353641D01*
X26150206Y24335429D01*
X26146681Y24323808D01*
X26140964Y24313113D01*
X26133267Y24303733D01*
X26123887Y24296036D01*
X26113192Y24290319D01*
X26101571Y24286794D01*
X26083359Y24285000D01*
X25720641Y24285000D01*
X25702429Y24286794D01*
X25690808Y24290319D01*
X25680113Y24296036D01*
X25670733Y24303733D01*
X25663036Y24313113D01*
X25657319Y24323808D01*
X25653794Y24335429D01*
X25652000Y24353641D01*
X25652000Y25716359D01*
X25653794Y25734571D01*
X25657319Y25746192D01*
X25663036Y25756887D01*
X25670733Y25766267D01*
X25680113Y25773964D01*
X25690808Y25779681D01*
X25702429Y25783206D01*
X25720641Y25785000D01*
X26083359Y25785000D01*
X26101571Y25783206D01*
X26101571Y25783206D01*
G37*
G36*
X30901571Y25783206D02*
G01*
X30913192Y25779681D01*
X30923887Y25773964D01*
X30933267Y25766267D01*
X30940964Y25756887D01*
X30946681Y25746192D01*
X30950206Y25734571D01*
X30952000Y25716359D01*
X30952000Y24353641D01*
X30950206Y24335429D01*
X30946681Y24323808D01*
X30940964Y24313113D01*
X30933267Y24303733D01*
X30923887Y24296036D01*
X30913192Y24290319D01*
X30901571Y24286794D01*
X30883359Y24285000D01*
X30520641Y24285000D01*
X30502429Y24286794D01*
X30490808Y24290319D01*
X30480113Y24296036D01*
X30470733Y24303733D01*
X30463036Y24313113D01*
X30457319Y24323808D01*
X30453794Y24335429D01*
X30452000Y24353641D01*
X30452000Y25716359D01*
X30453794Y25734571D01*
X30457319Y25746192D01*
X30463036Y25756887D01*
X30470733Y25766267D01*
X30480113Y25773964D01*
X30490808Y25779681D01*
X30502429Y25783206D01*
X30520641Y25785000D01*
X30883359Y25785000D01*
X30901571Y25783206D01*
X30901571Y25783206D01*
G37*
G36*
X39603024Y27160045D02*
G01*
X39635738Y27150121D01*
X39665885Y27134007D01*
X39692315Y27112315D01*
X39714007Y27085885D01*
X39730121Y27055738D01*
X39740045Y27023024D01*
X39744000Y26982862D01*
X39744000Y25595138D01*
X39740045Y25554976D01*
X39730121Y25522262D01*
X39714007Y25492115D01*
X39692315Y25465685D01*
X39665885Y25443993D01*
X39635738Y25427879D01*
X39603024Y25417955D01*
X39562862Y25414000D01*
X38675138Y25414000D01*
X38634976Y25417955D01*
X38602262Y25427879D01*
X38572115Y25443993D01*
X38545685Y25465685D01*
X38523993Y25492115D01*
X38507879Y25522262D01*
X38497955Y25554976D01*
X38494000Y25595138D01*
X38494000Y26982862D01*
X38497955Y27023024D01*
X38507879Y27055738D01*
X38523993Y27085885D01*
X38545685Y27112315D01*
X38572115Y27134007D01*
X38602262Y27150121D01*
X38634976Y27160045D01*
X38675138Y27164000D01*
X39562862Y27164000D01*
X39603024Y27160045D01*
X39603024Y27160045D01*
G37*
G36*
X36803024Y27160045D02*
G01*
X36835738Y27150121D01*
X36865885Y27134007D01*
X36892315Y27112315D01*
X36914007Y27085885D01*
X36930121Y27055738D01*
X36940045Y27023024D01*
X36944000Y26982862D01*
X36944000Y25595138D01*
X36940045Y25554976D01*
X36930121Y25522262D01*
X36914007Y25492115D01*
X36892315Y25465685D01*
X36865885Y25443993D01*
X36835738Y25427879D01*
X36803024Y25417955D01*
X36762862Y25414000D01*
X35875138Y25414000D01*
X35834976Y25417955D01*
X35802262Y25427879D01*
X35772115Y25443993D01*
X35745685Y25465685D01*
X35723993Y25492115D01*
X35707879Y25522262D01*
X35697955Y25554976D01*
X35694000Y25595138D01*
X35694000Y26982862D01*
X35697955Y27023024D01*
X35707879Y27055738D01*
X35723993Y27085885D01*
X35745685Y27112315D01*
X35772115Y27134007D01*
X35802262Y27150121D01*
X35834976Y27160045D01*
X35875138Y27164000D01*
X36762862Y27164000D01*
X36803024Y27160045D01*
X36803024Y27160045D01*
G37*
G36*
X4484627Y27253701D02*
G01*
X4564742Y27229399D01*
X4644855Y27205097D01*
X4644857Y27205096D01*
X4792518Y27126169D01*
X4921949Y27019949D01*
X5028169Y26890518D01*
X5107096Y26742857D01*
X5155701Y26582627D01*
X5172112Y26416000D01*
X5155701Y26249373D01*
X5107096Y26089143D01*
X5028169Y25941482D01*
X4921949Y25812051D01*
X4792518Y25705831D01*
X4644857Y25626904D01*
X4644855Y25626903D01*
X4564742Y25602601D01*
X4484627Y25578299D01*
X4359752Y25566000D01*
X4276248Y25566000D01*
X4151373Y25578299D01*
X4071258Y25602601D01*
X3991145Y25626903D01*
X3991143Y25626904D01*
X3843482Y25705831D01*
X3714051Y25812051D01*
X3607831Y25941482D01*
X3528904Y26089143D01*
X3480299Y26249373D01*
X3463888Y26416000D01*
X3480299Y26582627D01*
X3528904Y26742857D01*
X3607831Y26890518D01*
X3714051Y27019949D01*
X3843482Y27126169D01*
X3991143Y27205096D01*
X3991145Y27205097D01*
X4071258Y27229399D01*
X4151373Y27253701D01*
X4276248Y27266000D01*
X4359752Y27266000D01*
X4484627Y27253701D01*
X4484627Y27253701D01*
G37*
G36*
X7024627Y27253701D02*
G01*
X7104742Y27229399D01*
X7184855Y27205097D01*
X7184857Y27205096D01*
X7332518Y27126169D01*
X7461949Y27019949D01*
X7568169Y26890518D01*
X7647096Y26742857D01*
X7695701Y26582627D01*
X7712112Y26416000D01*
X7695701Y26249373D01*
X7647096Y26089143D01*
X7568169Y25941482D01*
X7461949Y25812051D01*
X7332518Y25705831D01*
X7184857Y25626904D01*
X7184855Y25626903D01*
X7104742Y25602601D01*
X7024627Y25578299D01*
X6899752Y25566000D01*
X6816248Y25566000D01*
X6691373Y25578299D01*
X6611258Y25602601D01*
X6531145Y25626903D01*
X6531143Y25626904D01*
X6383482Y25705831D01*
X6254051Y25812051D01*
X6147831Y25941482D01*
X6068904Y26089143D01*
X6020299Y26249373D01*
X6003888Y26416000D01*
X6020299Y26582627D01*
X6068904Y26742857D01*
X6147831Y26890518D01*
X6254051Y27019949D01*
X6383482Y27126169D01*
X6531143Y27205096D01*
X6531145Y27205097D01*
X6611258Y27229399D01*
X6691373Y27253701D01*
X6816248Y27266000D01*
X6899752Y27266000D01*
X7024627Y27253701D01*
X7024627Y27253701D01*
G37*
G36*
X25226571Y26658206D02*
G01*
X25238192Y26654681D01*
X25248887Y26648964D01*
X25258267Y26641267D01*
X25265964Y26631887D01*
X25271681Y26621192D01*
X25275206Y26609571D01*
X25277000Y26591359D01*
X25277000Y26228641D01*
X25275206Y26210429D01*
X25271681Y26198808D01*
X25265964Y26188113D01*
X25258267Y26178733D01*
X25248887Y26171036D01*
X25238192Y26165319D01*
X25226571Y26161794D01*
X25208359Y26160000D01*
X23845641Y26160000D01*
X23827429Y26161794D01*
X23815808Y26165319D01*
X23805113Y26171036D01*
X23795733Y26178733D01*
X23788036Y26188113D01*
X23782319Y26198808D01*
X23778794Y26210429D01*
X23777000Y26228641D01*
X23777000Y26591359D01*
X23778794Y26609571D01*
X23782319Y26621192D01*
X23788036Y26631887D01*
X23795733Y26641267D01*
X23805113Y26648964D01*
X23815808Y26654681D01*
X23827429Y26658206D01*
X23845641Y26660000D01*
X25208359Y26660000D01*
X25226571Y26658206D01*
X25226571Y26658206D01*
G37*
G36*
X33576571Y26658206D02*
G01*
X33588192Y26654681D01*
X33598887Y26648964D01*
X33608267Y26641267D01*
X33615964Y26631887D01*
X33621681Y26621192D01*
X33625206Y26609571D01*
X33627000Y26591359D01*
X33627000Y26228641D01*
X33625206Y26210429D01*
X33621681Y26198808D01*
X33615964Y26188113D01*
X33608267Y26178733D01*
X33598887Y26171036D01*
X33588192Y26165319D01*
X33576571Y26161794D01*
X33558359Y26160000D01*
X32195641Y26160000D01*
X32177429Y26161794D01*
X32165808Y26165319D01*
X32155113Y26171036D01*
X32145733Y26178733D01*
X32138036Y26188113D01*
X32132319Y26198808D01*
X32128794Y26210429D01*
X32127000Y26228641D01*
X32127000Y26591359D01*
X32128794Y26609571D01*
X32132319Y26621192D01*
X32138036Y26631887D01*
X32145733Y26641267D01*
X32155113Y26648964D01*
X32165808Y26654681D01*
X32177429Y26658206D01*
X32195641Y26660000D01*
X33558359Y26660000D01*
X33576571Y26658206D01*
X33576571Y26658206D01*
G37*
G36*
X17945991Y27619925D02*
G01*
X17979879Y27609645D01*
X18011112Y27592950D01*
X18038486Y27570486D01*
X18060950Y27543112D01*
X18077645Y27511879D01*
X18087925Y27477991D01*
X18092000Y27436612D01*
X18092000Y26411388D01*
X18087925Y26370009D01*
X18077645Y26336121D01*
X18060950Y26304888D01*
X18038486Y26277514D01*
X18011112Y26255050D01*
X17979879Y26238355D01*
X17945991Y26228075D01*
X17904612Y26224000D01*
X17304388Y26224000D01*
X17263009Y26228075D01*
X17229121Y26238355D01*
X17197888Y26255050D01*
X17170514Y26277514D01*
X17148050Y26304888D01*
X17131355Y26336121D01*
X17121075Y26370009D01*
X17117000Y26411388D01*
X17117000Y27436612D01*
X17121075Y27477991D01*
X17131355Y27511879D01*
X17148050Y27543112D01*
X17170514Y27570486D01*
X17197888Y27592950D01*
X17229121Y27609645D01*
X17263009Y27619925D01*
X17304388Y27624000D01*
X17904612Y27624000D01*
X17945991Y27619925D01*
X17945991Y27619925D01*
G37*
G36*
X19820991Y27619925D02*
G01*
X19854879Y27609645D01*
X19886112Y27592950D01*
X19913486Y27570486D01*
X19935950Y27543112D01*
X19952645Y27511879D01*
X19962925Y27477991D01*
X19967000Y27436612D01*
X19967000Y26411388D01*
X19962925Y26370009D01*
X19952645Y26336121D01*
X19935950Y26304888D01*
X19913486Y26277514D01*
X19886112Y26255050D01*
X19854879Y26238355D01*
X19820991Y26228075D01*
X19779612Y26224000D01*
X19179388Y26224000D01*
X19138009Y26228075D01*
X19104121Y26238355D01*
X19072888Y26255050D01*
X19045514Y26277514D01*
X19023050Y26304888D01*
X19006355Y26336121D01*
X18996075Y26370009D01*
X18992000Y26411388D01*
X18992000Y27436612D01*
X18996075Y27477991D01*
X19006355Y27511879D01*
X19023050Y27543112D01*
X19045514Y27570486D01*
X19072888Y27592950D01*
X19104121Y27609645D01*
X19138009Y27619925D01*
X19179388Y27624000D01*
X19779612Y27624000D01*
X19820991Y27619925D01*
X19820991Y27619925D01*
G37*
G36*
X12419290Y28279381D02*
G01*
X12483689Y28266571D01*
X12665678Y28191189D01*
X12829463Y28081751D01*
X12968751Y27942463D01*
X13078189Y27778678D01*
X13153571Y27596689D01*
X13158783Y27570486D01*
X13192000Y27403493D01*
X13192000Y27206507D01*
X13175164Y27121867D01*
X13153571Y27013311D01*
X13078189Y26831322D01*
X12968751Y26667537D01*
X12829463Y26528249D01*
X12665678Y26418811D01*
X12483689Y26343429D01*
X12427890Y26332330D01*
X12290493Y26305000D01*
X12093507Y26305000D01*
X11956110Y26332330D01*
X11900311Y26343429D01*
X11718322Y26418811D01*
X11554537Y26528249D01*
X11415249Y26667537D01*
X11305811Y26831322D01*
X11230429Y27013311D01*
X11208836Y27121867D01*
X11192000Y27206507D01*
X11192000Y27403493D01*
X11225217Y27570486D01*
X11230429Y27596689D01*
X11305811Y27778678D01*
X11415249Y27942463D01*
X11554537Y28081751D01*
X11718322Y28191189D01*
X11900311Y28266571D01*
X11964710Y28279381D01*
X12093507Y28305000D01*
X12290493Y28305000D01*
X12419290Y28279381D01*
X12419290Y28279381D01*
G37*
G36*
X79104610Y28760964D02*
G01*
X79332095Y28666736D01*
X79332097Y28666735D01*
X79536828Y28529938D01*
X79710938Y28355828D01*
X79837174Y28166903D01*
X79847736Y28151095D01*
X79941964Y27923610D01*
X79990000Y27682116D01*
X79990000Y27435884D01*
X79941964Y27194390D01*
X79853602Y26981066D01*
X79847735Y26966903D01*
X79710938Y26762172D01*
X79536828Y26588062D01*
X79332097Y26451265D01*
X79332096Y26451264D01*
X79332095Y26451264D01*
X79104610Y26357036D01*
X78863116Y26309000D01*
X78616884Y26309000D01*
X78375390Y26357036D01*
X78147905Y26451264D01*
X78147904Y26451264D01*
X78147903Y26451265D01*
X77943172Y26588062D01*
X77769062Y26762172D01*
X77632265Y26966903D01*
X77626398Y26981066D01*
X77538036Y27194390D01*
X77490000Y27435884D01*
X77490000Y27682116D01*
X77538036Y27923610D01*
X77632264Y28151095D01*
X77642827Y28166903D01*
X77769062Y28355828D01*
X77943172Y28529938D01*
X78147903Y28666735D01*
X78147905Y28666736D01*
X78375390Y28760964D01*
X78616884Y28809000D01*
X78863116Y28809000D01*
X79104610Y28760964D01*
X79104610Y28760964D01*
G37*
G36*
X30566681Y31938276D02*
G01*
X30772877Y31875727D01*
X30962901Y31774157D01*
X31129463Y31637463D01*
X31266157Y31470901D01*
X31367727Y31280877D01*
X31430276Y31074681D01*
X31452000Y30854110D01*
X31452000Y27565890D01*
X31430276Y27345319D01*
X31367727Y27139123D01*
X31266157Y26949099D01*
X31129463Y26782537D01*
X30962901Y26645843D01*
X30772877Y26544273D01*
X30566681Y26481724D01*
X30346110Y26460000D01*
X27057890Y26460000D01*
X26837319Y26481724D01*
X26631123Y26544273D01*
X26441099Y26645843D01*
X26274537Y26782537D01*
X26137843Y26949099D01*
X26036273Y27139123D01*
X25973724Y27345319D01*
X25952000Y27565890D01*
X25952000Y30854110D01*
X25973724Y31074681D01*
X26036273Y31280877D01*
X26137843Y31470901D01*
X26274537Y31637463D01*
X26441099Y31774157D01*
X26631123Y31875727D01*
X26837319Y31938276D01*
X27057890Y31960000D01*
X30346110Y31960000D01*
X30566681Y31938276D01*
X30566681Y31938276D01*
G37*
G36*
X25226571Y27458206D02*
G01*
X25238192Y27454681D01*
X25248887Y27448964D01*
X25258267Y27441267D01*
X25265964Y27431887D01*
X25271681Y27421192D01*
X25275206Y27409571D01*
X25277000Y27391359D01*
X25277000Y27028641D01*
X25275206Y27010429D01*
X25271681Y26998808D01*
X25265964Y26988113D01*
X25258267Y26978733D01*
X25248887Y26971036D01*
X25238192Y26965319D01*
X25226571Y26961794D01*
X25208359Y26960000D01*
X23845641Y26960000D01*
X23827429Y26961794D01*
X23815808Y26965319D01*
X23805113Y26971036D01*
X23795733Y26978733D01*
X23788036Y26988113D01*
X23782319Y26998808D01*
X23778794Y27010429D01*
X23777000Y27028641D01*
X23777000Y27391359D01*
X23778794Y27409571D01*
X23782319Y27421192D01*
X23788036Y27431887D01*
X23795733Y27441267D01*
X23805113Y27448964D01*
X23815808Y27454681D01*
X23827429Y27458206D01*
X23845641Y27460000D01*
X25208359Y27460000D01*
X25226571Y27458206D01*
X25226571Y27458206D01*
G37*
G36*
X33576571Y27458206D02*
G01*
X33588192Y27454681D01*
X33598887Y27448964D01*
X33608267Y27441267D01*
X33615964Y27431887D01*
X33621681Y27421192D01*
X33625206Y27409571D01*
X33627000Y27391359D01*
X33627000Y27028641D01*
X33625206Y27010429D01*
X33621681Y26998808D01*
X33615964Y26988113D01*
X33608267Y26978733D01*
X33598887Y26971036D01*
X33588192Y26965319D01*
X33576571Y26961794D01*
X33558359Y26960000D01*
X32195641Y26960000D01*
X32177429Y26961794D01*
X32165808Y26965319D01*
X32155113Y26971036D01*
X32145733Y26978733D01*
X32138036Y26988113D01*
X32132319Y26998808D01*
X32128794Y27010429D01*
X32127000Y27028641D01*
X32127000Y27391359D01*
X32128794Y27409571D01*
X32132319Y27421192D01*
X32138036Y27431887D01*
X32145733Y27441267D01*
X32155113Y27448964D01*
X32165808Y27454681D01*
X32177429Y27458206D01*
X32195641Y27460000D01*
X33558359Y27460000D01*
X33576571Y27458206D01*
X33576571Y27458206D01*
G37*
G36*
X61657091Y28661325D02*
G01*
X61690979Y28651045D01*
X61722212Y28634350D01*
X61749586Y28611886D01*
X61772050Y28584512D01*
X61788745Y28553279D01*
X61799025Y28519391D01*
X61803100Y28478012D01*
X61803100Y27452788D01*
X61799025Y27411409D01*
X61788745Y27377521D01*
X61772050Y27346288D01*
X61749586Y27318914D01*
X61722212Y27296450D01*
X61690979Y27279755D01*
X61657091Y27269475D01*
X61615712Y27265400D01*
X61015488Y27265400D01*
X60974109Y27269475D01*
X60940221Y27279755D01*
X60908988Y27296450D01*
X60881614Y27318914D01*
X60859150Y27346288D01*
X60842455Y27377521D01*
X60832175Y27411409D01*
X60828100Y27452788D01*
X60828100Y28478012D01*
X60832175Y28519391D01*
X60842455Y28553279D01*
X60859150Y28584512D01*
X60881614Y28611886D01*
X60908988Y28634350D01*
X60940221Y28651045D01*
X60974109Y28661325D01*
X61015488Y28665400D01*
X61615712Y28665400D01*
X61657091Y28661325D01*
X61657091Y28661325D01*
G37*
G36*
X59782091Y28661325D02*
G01*
X59815979Y28651045D01*
X59847212Y28634350D01*
X59874586Y28611886D01*
X59897050Y28584512D01*
X59913745Y28553279D01*
X59924025Y28519391D01*
X59928100Y28478012D01*
X59928100Y27452788D01*
X59924025Y27411409D01*
X59913745Y27377521D01*
X59897050Y27346288D01*
X59874586Y27318914D01*
X59847212Y27296450D01*
X59815979Y27279755D01*
X59782091Y27269475D01*
X59740712Y27265400D01*
X59140488Y27265400D01*
X59099109Y27269475D01*
X59065221Y27279755D01*
X59033988Y27296450D01*
X59006614Y27318914D01*
X58984150Y27346288D01*
X58967455Y27377521D01*
X58957175Y27411409D01*
X58953100Y27452788D01*
X58953100Y28478012D01*
X58957175Y28519391D01*
X58967455Y28553279D01*
X58984150Y28584512D01*
X59006614Y28611886D01*
X59033988Y28634350D01*
X59065221Y28651045D01*
X59099109Y28661325D01*
X59140488Y28665400D01*
X59740712Y28665400D01*
X59782091Y28661325D01*
X59782091Y28661325D01*
G37*
G36*
X33576571Y28258206D02*
G01*
X33588192Y28254681D01*
X33598887Y28248964D01*
X33608267Y28241267D01*
X33615964Y28231887D01*
X33621681Y28221192D01*
X33625206Y28209571D01*
X33627000Y28191359D01*
X33627000Y27828641D01*
X33625206Y27810429D01*
X33621681Y27798808D01*
X33615964Y27788113D01*
X33608267Y27778733D01*
X33598887Y27771036D01*
X33588192Y27765319D01*
X33576571Y27761794D01*
X33558359Y27760000D01*
X32195641Y27760000D01*
X32177429Y27761794D01*
X32165808Y27765319D01*
X32155113Y27771036D01*
X32145733Y27778733D01*
X32138036Y27788113D01*
X32132319Y27798808D01*
X32128794Y27810429D01*
X32127000Y27828641D01*
X32127000Y28191359D01*
X32128794Y28209571D01*
X32132319Y28221192D01*
X32138036Y28231887D01*
X32145733Y28241267D01*
X32155113Y28248964D01*
X32165808Y28254681D01*
X32177429Y28258206D01*
X32195641Y28260000D01*
X33558359Y28260000D01*
X33576571Y28258206D01*
X33576571Y28258206D01*
G37*
G36*
X25226571Y28258206D02*
G01*
X25238192Y28254681D01*
X25248887Y28248964D01*
X25258267Y28241267D01*
X25265964Y28231887D01*
X25271681Y28221192D01*
X25275206Y28209571D01*
X25277000Y28191359D01*
X25277000Y27828641D01*
X25275206Y27810429D01*
X25271681Y27798808D01*
X25265964Y27788113D01*
X25258267Y27778733D01*
X25248887Y27771036D01*
X25238192Y27765319D01*
X25226571Y27761794D01*
X25208359Y27760000D01*
X23845641Y27760000D01*
X23827429Y27761794D01*
X23815808Y27765319D01*
X23805113Y27771036D01*
X23795733Y27778733D01*
X23788036Y27788113D01*
X23782319Y27798808D01*
X23778794Y27810429D01*
X23777000Y27828641D01*
X23777000Y28191359D01*
X23778794Y28209571D01*
X23782319Y28221192D01*
X23788036Y28231887D01*
X23795733Y28241267D01*
X23805113Y28248964D01*
X23815808Y28254681D01*
X23827429Y28258206D01*
X23845641Y28260000D01*
X25208359Y28260000D01*
X25226571Y28258206D01*
X25226571Y28258206D01*
G37*
G36*
X5168000Y28106000D02*
G01*
X3468000Y28106000D01*
X3468000Y29806000D01*
X5168000Y29806000D01*
X5168000Y28106000D01*
X5168000Y28106000D01*
G37*
G36*
X7024627Y29793701D02*
G01*
X7104742Y29769398D01*
X7184855Y29745097D01*
X7184857Y29745096D01*
X7332518Y29666169D01*
X7461949Y29559949D01*
X7568169Y29430518D01*
X7647096Y29282857D01*
X7695701Y29122627D01*
X7712112Y28956000D01*
X7695701Y28789373D01*
X7689425Y28768684D01*
X7649530Y28637165D01*
X7647096Y28629143D01*
X7568169Y28481482D01*
X7461949Y28352051D01*
X7332518Y28245831D01*
X7184857Y28166904D01*
X7184855Y28166903D01*
X7104742Y28142602D01*
X7024627Y28118299D01*
X6899752Y28106000D01*
X6816248Y28106000D01*
X6691373Y28118299D01*
X6611258Y28142602D01*
X6531145Y28166903D01*
X6531143Y28166904D01*
X6383482Y28245831D01*
X6254051Y28352051D01*
X6147831Y28481482D01*
X6068904Y28629143D01*
X6066471Y28637165D01*
X6026575Y28768684D01*
X6020299Y28789373D01*
X6003888Y28956000D01*
X6020299Y29122627D01*
X6068904Y29282857D01*
X6147831Y29430518D01*
X6254051Y29559949D01*
X6383482Y29666169D01*
X6531143Y29745096D01*
X6531145Y29745097D01*
X6611258Y29769398D01*
X6691373Y29793701D01*
X6816248Y29806000D01*
X6899752Y29806000D01*
X7024627Y29793701D01*
X7024627Y29793701D01*
G37*
G36*
X25226571Y29058206D02*
G01*
X25238192Y29054681D01*
X25248887Y29048964D01*
X25258267Y29041267D01*
X25265964Y29031887D01*
X25271681Y29021192D01*
X25275206Y29009571D01*
X25277000Y28991359D01*
X25277000Y28628641D01*
X25275206Y28610429D01*
X25271681Y28598808D01*
X25265964Y28588113D01*
X25258267Y28578733D01*
X25248887Y28571036D01*
X25238192Y28565319D01*
X25226571Y28561794D01*
X25208359Y28560000D01*
X23845641Y28560000D01*
X23827429Y28561794D01*
X23815808Y28565319D01*
X23805113Y28571036D01*
X23795733Y28578733D01*
X23788036Y28588113D01*
X23782319Y28598808D01*
X23778794Y28610429D01*
X23777000Y28628641D01*
X23777000Y28991359D01*
X23778794Y29009571D01*
X23782319Y29021192D01*
X23788036Y29031887D01*
X23795733Y29041267D01*
X23805113Y29048964D01*
X23815808Y29054681D01*
X23827429Y29058206D01*
X23845641Y29060000D01*
X25208359Y29060000D01*
X25226571Y29058206D01*
X25226571Y29058206D01*
G37*
G36*
X33576571Y29058206D02*
G01*
X33588192Y29054681D01*
X33598887Y29048964D01*
X33608267Y29041267D01*
X33615964Y29031887D01*
X33621681Y29021192D01*
X33625206Y29009571D01*
X33627000Y28991359D01*
X33627000Y28628641D01*
X33625206Y28610429D01*
X33621681Y28598808D01*
X33615964Y28588113D01*
X33608267Y28578733D01*
X33598887Y28571036D01*
X33588192Y28565319D01*
X33576571Y28561794D01*
X33558359Y28560000D01*
X32195641Y28560000D01*
X32177429Y28561794D01*
X32165808Y28565319D01*
X32155113Y28571036D01*
X32145733Y28578733D01*
X32138036Y28588113D01*
X32132319Y28598808D01*
X32128794Y28610429D01*
X32127000Y28628641D01*
X32127000Y28991359D01*
X32128794Y29009571D01*
X32132319Y29021192D01*
X32138036Y29031887D01*
X32145733Y29041267D01*
X32155113Y29048964D01*
X32165808Y29054681D01*
X32177429Y29058206D01*
X32195641Y29060000D01*
X33558359Y29060000D01*
X33576571Y29058206D01*
X33576571Y29058206D01*
G37*
G36*
X17945991Y30159925D02*
G01*
X17979879Y30149645D01*
X18011112Y30132950D01*
X18038486Y30110486D01*
X18060950Y30083112D01*
X18077645Y30051879D01*
X18087925Y30017991D01*
X18092000Y29976612D01*
X18092000Y28951388D01*
X18087925Y28910009D01*
X18077645Y28876121D01*
X18060950Y28844888D01*
X18038486Y28817514D01*
X18011112Y28795050D01*
X17979879Y28778355D01*
X17945991Y28768075D01*
X17904612Y28764000D01*
X17304388Y28764000D01*
X17263009Y28768075D01*
X17229121Y28778355D01*
X17197888Y28795050D01*
X17170514Y28817514D01*
X17148050Y28844888D01*
X17131355Y28876121D01*
X17121075Y28910009D01*
X17117000Y28951388D01*
X17117000Y29976612D01*
X17121075Y30017991D01*
X17131355Y30051879D01*
X17148050Y30083112D01*
X17170514Y30110486D01*
X17197888Y30132950D01*
X17229121Y30149645D01*
X17263009Y30159925D01*
X17304388Y30164000D01*
X17904612Y30164000D01*
X17945991Y30159925D01*
X17945991Y30159925D01*
G37*
G36*
X19820991Y30159925D02*
G01*
X19854879Y30149645D01*
X19886112Y30132950D01*
X19913486Y30110486D01*
X19935950Y30083112D01*
X19952645Y30051879D01*
X19962925Y30017991D01*
X19967000Y29976612D01*
X19967000Y28951388D01*
X19962925Y28910009D01*
X19952645Y28876121D01*
X19935950Y28844888D01*
X19913486Y28817514D01*
X19886112Y28795050D01*
X19854879Y28778355D01*
X19820991Y28768075D01*
X19779612Y28764000D01*
X19179388Y28764000D01*
X19138009Y28768075D01*
X19104121Y28778355D01*
X19072888Y28795050D01*
X19045514Y28817514D01*
X19023050Y28844888D01*
X19006355Y28876121D01*
X18996075Y28910009D01*
X18992000Y28951388D01*
X18992000Y29976612D01*
X18996075Y30017991D01*
X19006355Y30051879D01*
X19023050Y30083112D01*
X19045514Y30110486D01*
X19072888Y30132950D01*
X19104121Y30149645D01*
X19138009Y30159925D01*
X19179388Y30164000D01*
X19779612Y30164000D01*
X19820991Y30159925D01*
X19820991Y30159925D01*
G37*
G36*
X25226571Y29858206D02*
G01*
X25238192Y29854681D01*
X25248887Y29848964D01*
X25258267Y29841267D01*
X25265964Y29831887D01*
X25271681Y29821192D01*
X25275206Y29809571D01*
X25277000Y29791359D01*
X25277000Y29428641D01*
X25275206Y29410429D01*
X25271681Y29398808D01*
X25265964Y29388113D01*
X25258267Y29378733D01*
X25248887Y29371036D01*
X25238192Y29365319D01*
X25226571Y29361794D01*
X25208359Y29360000D01*
X23845641Y29360000D01*
X23827429Y29361794D01*
X23815808Y29365319D01*
X23805113Y29371036D01*
X23795733Y29378733D01*
X23788036Y29388113D01*
X23782319Y29398808D01*
X23778794Y29410429D01*
X23777000Y29428641D01*
X23777000Y29791359D01*
X23778794Y29809571D01*
X23782319Y29821192D01*
X23788036Y29831887D01*
X23795733Y29841267D01*
X23805113Y29848964D01*
X23815808Y29854681D01*
X23827429Y29858206D01*
X23845641Y29860000D01*
X25208359Y29860000D01*
X25226571Y29858206D01*
X25226571Y29858206D01*
G37*
G36*
X33576571Y29858206D02*
G01*
X33588192Y29854681D01*
X33598887Y29848964D01*
X33608267Y29841267D01*
X33615964Y29831887D01*
X33621681Y29821192D01*
X33625206Y29809571D01*
X33627000Y29791359D01*
X33627000Y29428641D01*
X33625206Y29410429D01*
X33621681Y29398808D01*
X33615964Y29388113D01*
X33608267Y29378733D01*
X33598887Y29371036D01*
X33588192Y29365319D01*
X33576571Y29361794D01*
X33558359Y29360000D01*
X32195641Y29360000D01*
X32177429Y29361794D01*
X32165808Y29365319D01*
X32155113Y29371036D01*
X32145733Y29378733D01*
X32138036Y29388113D01*
X32132319Y29398808D01*
X32128794Y29410429D01*
X32127000Y29428641D01*
X32127000Y29791359D01*
X32128794Y29809571D01*
X32132319Y29821192D01*
X32138036Y29831887D01*
X32145733Y29841267D01*
X32155113Y29848964D01*
X32165808Y29854681D01*
X32177429Y29858206D01*
X32195641Y29860000D01*
X33558359Y29860000D01*
X33576571Y29858206D01*
X33576571Y29858206D01*
G37*
G36*
X33576571Y30658206D02*
G01*
X33588192Y30654681D01*
X33598887Y30648964D01*
X33608267Y30641267D01*
X33615964Y30631887D01*
X33621681Y30621192D01*
X33625206Y30609571D01*
X33627000Y30591359D01*
X33627000Y30228641D01*
X33625206Y30210429D01*
X33621681Y30198808D01*
X33615964Y30188113D01*
X33608267Y30178733D01*
X33598887Y30171036D01*
X33588192Y30165319D01*
X33576571Y30161794D01*
X33558359Y30160000D01*
X32195641Y30160000D01*
X32177429Y30161794D01*
X32165808Y30165319D01*
X32155113Y30171036D01*
X32145733Y30178733D01*
X32138036Y30188113D01*
X32132319Y30198808D01*
X32128794Y30210429D01*
X32127000Y30228641D01*
X32127000Y30591359D01*
X32128794Y30609571D01*
X32132319Y30621192D01*
X32138036Y30631887D01*
X32145733Y30641267D01*
X32155113Y30648964D01*
X32165808Y30654681D01*
X32177429Y30658206D01*
X32195641Y30660000D01*
X33558359Y30660000D01*
X33576571Y30658206D01*
X33576571Y30658206D01*
G37*
G36*
X25226571Y30658206D02*
G01*
X25238192Y30654681D01*
X25248887Y30648964D01*
X25258267Y30641267D01*
X25265964Y30631887D01*
X25271681Y30621192D01*
X25275206Y30609571D01*
X25277000Y30591359D01*
X25277000Y30228641D01*
X25275206Y30210429D01*
X25271681Y30198808D01*
X25265964Y30188113D01*
X25258267Y30178733D01*
X25248887Y30171036D01*
X25238192Y30165319D01*
X25226571Y30161794D01*
X25208359Y30160000D01*
X23845641Y30160000D01*
X23827429Y30161794D01*
X23815808Y30165319D01*
X23805113Y30171036D01*
X23795733Y30178733D01*
X23788036Y30188113D01*
X23782319Y30198808D01*
X23778794Y30210429D01*
X23777000Y30228641D01*
X23777000Y30591359D01*
X23778794Y30609571D01*
X23782319Y30621192D01*
X23788036Y30631887D01*
X23795733Y30641267D01*
X23805113Y30648964D01*
X23815808Y30654681D01*
X23827429Y30658206D01*
X23845641Y30660000D01*
X25208359Y30660000D01*
X25226571Y30658206D01*
X25226571Y30658206D01*
G37*
G36*
X40492024Y32049545D02*
G01*
X40524738Y32039621D01*
X40554885Y32023507D01*
X40581315Y32001815D01*
X40603007Y31975385D01*
X40619121Y31945238D01*
X40629045Y31912524D01*
X40633000Y31872362D01*
X40633000Y30484638D01*
X40629045Y30444476D01*
X40619121Y30411762D01*
X40603007Y30381615D01*
X40581315Y30355185D01*
X40554885Y30333493D01*
X40524738Y30317379D01*
X40492024Y30307455D01*
X40451862Y30303500D01*
X39564138Y30303500D01*
X39523976Y30307455D01*
X39491262Y30317379D01*
X39461115Y30333493D01*
X39434685Y30355185D01*
X39412993Y30381615D01*
X39396879Y30411762D01*
X39386955Y30444476D01*
X39383000Y30484638D01*
X39383000Y31872362D01*
X39386955Y31912524D01*
X39396879Y31945238D01*
X39412993Y31975385D01*
X39434685Y32001815D01*
X39461115Y32023507D01*
X39491262Y32039621D01*
X39523976Y32049545D01*
X39564138Y32053500D01*
X40451862Y32053500D01*
X40492024Y32049545D01*
X40492024Y32049545D01*
G37*
G36*
X37692024Y32049545D02*
G01*
X37724738Y32039621D01*
X37754885Y32023507D01*
X37781315Y32001815D01*
X37803007Y31975385D01*
X37819121Y31945238D01*
X37829045Y31912524D01*
X37833000Y31872362D01*
X37833000Y30484638D01*
X37829045Y30444476D01*
X37819121Y30411762D01*
X37803007Y30381615D01*
X37781315Y30355185D01*
X37754885Y30333493D01*
X37724738Y30317379D01*
X37692024Y30307455D01*
X37651862Y30303500D01*
X36764138Y30303500D01*
X36723976Y30307455D01*
X36691262Y30317379D01*
X36661115Y30333493D01*
X36634685Y30355185D01*
X36612993Y30381615D01*
X36596879Y30411762D01*
X36586955Y30444476D01*
X36583000Y30484638D01*
X36583000Y31872362D01*
X36586955Y31912524D01*
X36596879Y31945238D01*
X36612993Y31975385D01*
X36634685Y32001815D01*
X36661115Y32023507D01*
X36691262Y32039621D01*
X36723976Y32049545D01*
X36764138Y32053500D01*
X37651862Y32053500D01*
X37692024Y32049545D01*
X37692024Y32049545D01*
G37*
G36*
X33576571Y31458206D02*
G01*
X33588192Y31454681D01*
X33598887Y31448964D01*
X33608267Y31441267D01*
X33615964Y31431887D01*
X33621681Y31421192D01*
X33625206Y31409571D01*
X33627000Y31391359D01*
X33627000Y31028641D01*
X33625206Y31010429D01*
X33621681Y30998808D01*
X33615964Y30988113D01*
X33608267Y30978733D01*
X33598887Y30971036D01*
X33588192Y30965319D01*
X33576571Y30961794D01*
X33558359Y30960000D01*
X32195641Y30960000D01*
X32177429Y30961794D01*
X32165808Y30965319D01*
X32155113Y30971036D01*
X32145733Y30978733D01*
X32138036Y30988113D01*
X32132319Y30998808D01*
X32128794Y31010429D01*
X32127000Y31028641D01*
X32127000Y31391359D01*
X32128794Y31409571D01*
X32132319Y31421192D01*
X32138036Y31431887D01*
X32145733Y31441267D01*
X32155113Y31448964D01*
X32165808Y31454681D01*
X32177429Y31458206D01*
X32195641Y31460000D01*
X33558359Y31460000D01*
X33576571Y31458206D01*
X33576571Y31458206D01*
G37*
G36*
X25226571Y31458206D02*
G01*
X25238192Y31454681D01*
X25248887Y31448964D01*
X25258267Y31441267D01*
X25265964Y31431887D01*
X25271681Y31421192D01*
X25275206Y31409571D01*
X25277000Y31391359D01*
X25277000Y31028641D01*
X25275206Y31010429D01*
X25271681Y30998808D01*
X25265964Y30988113D01*
X25258267Y30978733D01*
X25248887Y30971036D01*
X25238192Y30965319D01*
X25226571Y30961794D01*
X25208359Y30960000D01*
X23845641Y30960000D01*
X23827429Y30961794D01*
X23815808Y30965319D01*
X23805113Y30971036D01*
X23795733Y30978733D01*
X23788036Y30988113D01*
X23782319Y30998808D01*
X23778794Y31010429D01*
X23777000Y31028641D01*
X23777000Y31391359D01*
X23778794Y31409571D01*
X23782319Y31421192D01*
X23788036Y31431887D01*
X23795733Y31441267D01*
X23805113Y31448964D01*
X23815808Y31454681D01*
X23827429Y31458206D01*
X23845641Y31460000D01*
X25208359Y31460000D01*
X25226571Y31458206D01*
X25226571Y31458206D01*
G37*
G36*
X19823291Y32509425D02*
G01*
X19857179Y32499145D01*
X19888412Y32482450D01*
X19915786Y32459986D01*
X19938250Y32432612D01*
X19954945Y32401379D01*
X19965225Y32367491D01*
X19969300Y32326112D01*
X19969300Y31300888D01*
X19965225Y31259509D01*
X19954945Y31225621D01*
X19938250Y31194388D01*
X19915786Y31167014D01*
X19888412Y31144550D01*
X19857179Y31127855D01*
X19823291Y31117575D01*
X19781912Y31113500D01*
X19181688Y31113500D01*
X19140309Y31117575D01*
X19106421Y31127855D01*
X19075188Y31144550D01*
X19047814Y31167014D01*
X19025350Y31194388D01*
X19008655Y31225621D01*
X18998375Y31259509D01*
X18994300Y31300888D01*
X18994300Y32326112D01*
X18998375Y32367491D01*
X19008655Y32401379D01*
X19025350Y32432612D01*
X19047814Y32459986D01*
X19075188Y32482450D01*
X19106421Y32499145D01*
X19140309Y32509425D01*
X19181688Y32513500D01*
X19781912Y32513500D01*
X19823291Y32509425D01*
X19823291Y32509425D01*
G37*
G36*
X17948291Y32509425D02*
G01*
X17982179Y32499145D01*
X18013412Y32482450D01*
X18040786Y32459986D01*
X18063250Y32432612D01*
X18079945Y32401379D01*
X18090225Y32367491D01*
X18094300Y32326112D01*
X18094300Y31300888D01*
X18090225Y31259509D01*
X18079945Y31225621D01*
X18063250Y31194388D01*
X18040786Y31167014D01*
X18013412Y31144550D01*
X17982179Y31127855D01*
X17948291Y31117575D01*
X17906912Y31113500D01*
X17306688Y31113500D01*
X17265309Y31117575D01*
X17231421Y31127855D01*
X17200188Y31144550D01*
X17172814Y31167014D01*
X17150350Y31194388D01*
X17133655Y31225621D01*
X17123375Y31259509D01*
X17119300Y31300888D01*
X17119300Y32326112D01*
X17123375Y32367491D01*
X17133655Y32401379D01*
X17150350Y32432612D01*
X17172814Y32459986D01*
X17200188Y32482450D01*
X17231421Y32499145D01*
X17265309Y32509425D01*
X17306688Y32513500D01*
X17906912Y32513500D01*
X17948291Y32509425D01*
X17948291Y32509425D01*
G37*
G36*
X33576571Y32258206D02*
G01*
X33588192Y32254681D01*
X33598887Y32248964D01*
X33608267Y32241267D01*
X33615964Y32231887D01*
X33621681Y32221192D01*
X33625206Y32209571D01*
X33627000Y32191359D01*
X33627000Y31828641D01*
X33625206Y31810429D01*
X33621681Y31798808D01*
X33615964Y31788113D01*
X33608267Y31778733D01*
X33598887Y31771036D01*
X33588192Y31765319D01*
X33576571Y31761794D01*
X33558359Y31760000D01*
X32195641Y31760000D01*
X32177429Y31761794D01*
X32165808Y31765319D01*
X32155113Y31771036D01*
X32145733Y31778733D01*
X32138036Y31788113D01*
X32132319Y31798808D01*
X32128794Y31810429D01*
X32127000Y31828641D01*
X32127000Y32191359D01*
X32128794Y32209571D01*
X32132319Y32221192D01*
X32138036Y32231887D01*
X32145733Y32241267D01*
X32155113Y32248964D01*
X32165808Y32254681D01*
X32177429Y32258206D01*
X32195641Y32260000D01*
X33558359Y32260000D01*
X33576571Y32258206D01*
X33576571Y32258206D01*
G37*
G36*
X25226571Y32258206D02*
G01*
X25238192Y32254681D01*
X25248887Y32248964D01*
X25258267Y32241267D01*
X25265964Y32231887D01*
X25271681Y32221192D01*
X25275206Y32209571D01*
X25277000Y32191359D01*
X25277000Y31828641D01*
X25275206Y31810429D01*
X25271681Y31798808D01*
X25265964Y31788113D01*
X25258267Y31778733D01*
X25248887Y31771036D01*
X25238192Y31765319D01*
X25226571Y31761794D01*
X25208359Y31760000D01*
X23845641Y31760000D01*
X23827429Y31761794D01*
X23815808Y31765319D01*
X23805113Y31771036D01*
X23795733Y31778733D01*
X23788036Y31788113D01*
X23782319Y31798808D01*
X23778794Y31810429D01*
X23777000Y31828641D01*
X23777000Y32191359D01*
X23778794Y32209571D01*
X23782319Y32221192D01*
X23788036Y32231887D01*
X23795733Y32241267D01*
X23805113Y32248964D01*
X23815808Y32254681D01*
X23827429Y32258206D01*
X23845641Y32260000D01*
X25208359Y32260000D01*
X25226571Y32258206D01*
X25226571Y32258206D01*
G37*
G36*
X3895000Y32205000D02*
G01*
X3095000Y32205000D01*
X3095000Y33105000D01*
X3895000Y33105000D01*
X3895000Y32205000D01*
X3895000Y32205000D01*
G37*
G36*
X5795000Y32205000D02*
G01*
X4995000Y32205000D01*
X4995000Y33105000D01*
X5795000Y33105000D01*
X5795000Y32205000D01*
X5795000Y32205000D01*
G37*
G36*
X28501571Y34133206D02*
G01*
X28513192Y34129681D01*
X28523887Y34123964D01*
X28533267Y34116267D01*
X28540964Y34106887D01*
X28546681Y34096192D01*
X28550206Y34084571D01*
X28552000Y34066359D01*
X28552000Y32703641D01*
X28550206Y32685429D01*
X28546681Y32673808D01*
X28540964Y32663113D01*
X28533267Y32653733D01*
X28523887Y32646036D01*
X28513192Y32640319D01*
X28501571Y32636794D01*
X28483359Y32635000D01*
X28120641Y32635000D01*
X28102429Y32636794D01*
X28090808Y32640319D01*
X28080113Y32646036D01*
X28070733Y32653733D01*
X28063036Y32663113D01*
X28057319Y32673808D01*
X28053794Y32685429D01*
X28052000Y32703641D01*
X28052000Y34066359D01*
X28053794Y34084571D01*
X28057319Y34096192D01*
X28063036Y34106887D01*
X28070733Y34116267D01*
X28080113Y34123964D01*
X28090808Y34129681D01*
X28102429Y34133206D01*
X28120641Y34135000D01*
X28483359Y34135000D01*
X28501571Y34133206D01*
X28501571Y34133206D01*
G37*
G36*
X31701571Y34133206D02*
G01*
X31713192Y34129681D01*
X31723887Y34123964D01*
X31733267Y34116267D01*
X31740964Y34106887D01*
X31746681Y34096192D01*
X31750206Y34084571D01*
X31752000Y34066359D01*
X31752000Y32703641D01*
X31750206Y32685429D01*
X31746681Y32673808D01*
X31740964Y32663113D01*
X31733267Y32653733D01*
X31723887Y32646036D01*
X31713192Y32640319D01*
X31701571Y32636794D01*
X31683359Y32635000D01*
X31320641Y32635000D01*
X31302429Y32636794D01*
X31290808Y32640319D01*
X31280113Y32646036D01*
X31270733Y32653733D01*
X31263036Y32663113D01*
X31257319Y32673808D01*
X31253794Y32685429D01*
X31252000Y32703641D01*
X31252000Y34066359D01*
X31253794Y34084571D01*
X31257319Y34096192D01*
X31263036Y34106887D01*
X31270733Y34116267D01*
X31280113Y34123964D01*
X31290808Y34129681D01*
X31302429Y34133206D01*
X31320641Y34135000D01*
X31683359Y34135000D01*
X31701571Y34133206D01*
X31701571Y34133206D01*
G37*
G36*
X30901571Y34133206D02*
G01*
X30913192Y34129681D01*
X30923887Y34123964D01*
X30933267Y34116267D01*
X30940964Y34106887D01*
X30946681Y34096192D01*
X30950206Y34084571D01*
X30952000Y34066359D01*
X30952000Y32703641D01*
X30950206Y32685429D01*
X30946681Y32673808D01*
X30940964Y32663113D01*
X30933267Y32653733D01*
X30923887Y32646036D01*
X30913192Y32640319D01*
X30901571Y32636794D01*
X30883359Y32635000D01*
X30520641Y32635000D01*
X30502429Y32636794D01*
X30490808Y32640319D01*
X30480113Y32646036D01*
X30470733Y32653733D01*
X30463036Y32663113D01*
X30457319Y32673808D01*
X30453794Y32685429D01*
X30452000Y32703641D01*
X30452000Y34066359D01*
X30453794Y34084571D01*
X30457319Y34096192D01*
X30463036Y34106887D01*
X30470733Y34116267D01*
X30480113Y34123964D01*
X30490808Y34129681D01*
X30502429Y34133206D01*
X30520641Y34135000D01*
X30883359Y34135000D01*
X30901571Y34133206D01*
X30901571Y34133206D01*
G37*
G36*
X30101571Y34133206D02*
G01*
X30113192Y34129681D01*
X30123887Y34123964D01*
X30133267Y34116267D01*
X30140964Y34106887D01*
X30146681Y34096192D01*
X30150206Y34084571D01*
X30152000Y34066359D01*
X30152000Y32703641D01*
X30150206Y32685429D01*
X30146681Y32673808D01*
X30140964Y32663113D01*
X30133267Y32653733D01*
X30123887Y32646036D01*
X30113192Y32640319D01*
X30101571Y32636794D01*
X30083359Y32635000D01*
X29720641Y32635000D01*
X29702429Y32636794D01*
X29690808Y32640319D01*
X29680113Y32646036D01*
X29670733Y32653733D01*
X29663036Y32663113D01*
X29657319Y32673808D01*
X29653794Y32685429D01*
X29652000Y32703641D01*
X29652000Y34066359D01*
X29653794Y34084571D01*
X29657319Y34096192D01*
X29663036Y34106887D01*
X29670733Y34116267D01*
X29680113Y34123964D01*
X29690808Y34129681D01*
X29702429Y34133206D01*
X29720641Y34135000D01*
X30083359Y34135000D01*
X30101571Y34133206D01*
X30101571Y34133206D01*
G37*
G36*
X29301571Y34133206D02*
G01*
X29313192Y34129681D01*
X29323887Y34123964D01*
X29333267Y34116267D01*
X29340964Y34106887D01*
X29346681Y34096192D01*
X29350206Y34084571D01*
X29352000Y34066359D01*
X29352000Y32703641D01*
X29350206Y32685429D01*
X29346681Y32673808D01*
X29340964Y32663113D01*
X29333267Y32653733D01*
X29323887Y32646036D01*
X29313192Y32640319D01*
X29301571Y32636794D01*
X29283359Y32635000D01*
X28920641Y32635000D01*
X28902429Y32636794D01*
X28890808Y32640319D01*
X28880113Y32646036D01*
X28870733Y32653733D01*
X28863036Y32663113D01*
X28857319Y32673808D01*
X28853794Y32685429D01*
X28852000Y32703641D01*
X28852000Y34066359D01*
X28853794Y34084571D01*
X28857319Y34096192D01*
X28863036Y34106887D01*
X28870733Y34116267D01*
X28880113Y34123964D01*
X28890808Y34129681D01*
X28902429Y34133206D01*
X28920641Y34135000D01*
X29283359Y34135000D01*
X29301571Y34133206D01*
X29301571Y34133206D01*
G37*
G36*
X27701571Y34133206D02*
G01*
X27713192Y34129681D01*
X27723887Y34123964D01*
X27733267Y34116267D01*
X27740964Y34106887D01*
X27746681Y34096192D01*
X27750206Y34084571D01*
X27752000Y34066359D01*
X27752000Y32703641D01*
X27750206Y32685429D01*
X27746681Y32673808D01*
X27740964Y32663113D01*
X27733267Y32653733D01*
X27723887Y32646036D01*
X27713192Y32640319D01*
X27701571Y32636794D01*
X27683359Y32635000D01*
X27320641Y32635000D01*
X27302429Y32636794D01*
X27290808Y32640319D01*
X27280113Y32646036D01*
X27270733Y32653733D01*
X27263036Y32663113D01*
X27257319Y32673808D01*
X27253794Y32685429D01*
X27252000Y32703641D01*
X27252000Y34066359D01*
X27253794Y34084571D01*
X27257319Y34096192D01*
X27263036Y34106887D01*
X27270733Y34116267D01*
X27280113Y34123964D01*
X27290808Y34129681D01*
X27302429Y34133206D01*
X27320641Y34135000D01*
X27683359Y34135000D01*
X27701571Y34133206D01*
X27701571Y34133206D01*
G37*
G36*
X26901571Y34133206D02*
G01*
X26913192Y34129681D01*
X26923887Y34123964D01*
X26933267Y34116267D01*
X26940964Y34106887D01*
X26946681Y34096192D01*
X26950206Y34084571D01*
X26952000Y34066359D01*
X26952000Y32703641D01*
X26950206Y32685429D01*
X26946681Y32673808D01*
X26940964Y32663113D01*
X26933267Y32653733D01*
X26923887Y32646036D01*
X26913192Y32640319D01*
X26901571Y32636794D01*
X26883359Y32635000D01*
X26520641Y32635000D01*
X26502429Y32636794D01*
X26490808Y32640319D01*
X26480113Y32646036D01*
X26470733Y32653733D01*
X26463036Y32663113D01*
X26457319Y32673808D01*
X26453794Y32685429D01*
X26452000Y32703641D01*
X26452000Y34066359D01*
X26453794Y34084571D01*
X26457319Y34096192D01*
X26463036Y34106887D01*
X26470733Y34116267D01*
X26480113Y34123964D01*
X26490808Y34129681D01*
X26502429Y34133206D01*
X26520641Y34135000D01*
X26883359Y34135000D01*
X26901571Y34133206D01*
X26901571Y34133206D01*
G37*
G36*
X26101571Y34133206D02*
G01*
X26113192Y34129681D01*
X26123887Y34123964D01*
X26133267Y34116267D01*
X26140964Y34106887D01*
X26146681Y34096192D01*
X26150206Y34084571D01*
X26152000Y34066359D01*
X26152000Y32703641D01*
X26150206Y32685429D01*
X26146681Y32673808D01*
X26140964Y32663113D01*
X26133267Y32653733D01*
X26123887Y32646036D01*
X26113192Y32640319D01*
X26101571Y32636794D01*
X26083359Y32635000D01*
X25720641Y32635000D01*
X25702429Y32636794D01*
X25690808Y32640319D01*
X25680113Y32646036D01*
X25670733Y32653733D01*
X25663036Y32663113D01*
X25657319Y32673808D01*
X25653794Y32685429D01*
X25652000Y32703641D01*
X25652000Y34066359D01*
X25653794Y34084571D01*
X25657319Y34096192D01*
X25663036Y34106887D01*
X25670733Y34116267D01*
X25680113Y34123964D01*
X25690808Y34129681D01*
X25702429Y34133206D01*
X25720641Y34135000D01*
X26083359Y34135000D01*
X26101571Y34133206D01*
X26101571Y34133206D01*
G37*
G36*
X65545002Y34347116D02*
G01*
X65577027Y34337401D01*
X65606534Y34321629D01*
X65632401Y34300401D01*
X65653629Y34274534D01*
X65669401Y34245027D01*
X65679116Y34213002D01*
X65683000Y34173564D01*
X65683000Y33178436D01*
X65679116Y33138998D01*
X65669401Y33106973D01*
X65653629Y33077466D01*
X65632401Y33051599D01*
X65606534Y33030371D01*
X65577027Y33014599D01*
X65545002Y33004884D01*
X65505564Y33001000D01*
X62510436Y33001000D01*
X62470998Y33004884D01*
X62438973Y33014599D01*
X62409466Y33030371D01*
X62383599Y33051599D01*
X62362371Y33077466D01*
X62346599Y33106973D01*
X62336884Y33138998D01*
X62333000Y33178436D01*
X62333000Y34173564D01*
X62336884Y34213002D01*
X62346599Y34245027D01*
X62362371Y34274534D01*
X62383599Y34300401D01*
X62409466Y34321629D01*
X62438973Y34337401D01*
X62470998Y34347116D01*
X62510436Y34351000D01*
X65505564Y34351000D01*
X65545002Y34347116D01*
X65545002Y34347116D01*
G37*
G36*
X19820991Y35239925D02*
G01*
X19854879Y35229645D01*
X19886112Y35212950D01*
X19913486Y35190486D01*
X19935950Y35163112D01*
X19952645Y35131879D01*
X19962925Y35097991D01*
X19967000Y35056612D01*
X19967000Y34031388D01*
X19962925Y33990009D01*
X19952645Y33956121D01*
X19935950Y33924888D01*
X19913486Y33897514D01*
X19886112Y33875050D01*
X19854879Y33858355D01*
X19820991Y33848075D01*
X19779612Y33844000D01*
X19179388Y33844000D01*
X19138009Y33848075D01*
X19104121Y33858355D01*
X19072888Y33875050D01*
X19045514Y33897514D01*
X19023050Y33924888D01*
X19006355Y33956121D01*
X18996075Y33990009D01*
X18992000Y34031388D01*
X18992000Y35056612D01*
X18996075Y35097991D01*
X19006355Y35131879D01*
X19023050Y35163112D01*
X19045514Y35190486D01*
X19072888Y35212950D01*
X19104121Y35229645D01*
X19138009Y35239925D01*
X19179388Y35244000D01*
X19779612Y35244000D01*
X19820991Y35239925D01*
X19820991Y35239925D01*
G37*
G36*
X17945991Y35239925D02*
G01*
X17979879Y35229645D01*
X18011112Y35212950D01*
X18038486Y35190486D01*
X18060950Y35163112D01*
X18077645Y35131879D01*
X18087925Y35097991D01*
X18092000Y35056612D01*
X18092000Y34031388D01*
X18087925Y33990009D01*
X18077645Y33956121D01*
X18060950Y33924888D01*
X18038486Y33897514D01*
X18011112Y33875050D01*
X17979879Y33858355D01*
X17945991Y33848075D01*
X17904612Y33844000D01*
X17304388Y33844000D01*
X17263009Y33848075D01*
X17229121Y33858355D01*
X17197888Y33875050D01*
X17170514Y33897514D01*
X17148050Y33924888D01*
X17131355Y33956121D01*
X17121075Y33990009D01*
X17117000Y34031388D01*
X17117000Y35056612D01*
X17121075Y35097991D01*
X17131355Y35131879D01*
X17148050Y35163112D01*
X17170514Y35190486D01*
X17197888Y35212950D01*
X17229121Y35229645D01*
X17263009Y35239925D01*
X17304388Y35244000D01*
X17904612Y35244000D01*
X17945991Y35239925D01*
X17945991Y35239925D01*
G37*
G36*
X4845000Y34205000D02*
G01*
X4045000Y34205000D01*
X4045000Y35105000D01*
X4845000Y35105000D01*
X4845000Y34205000D01*
X4845000Y34205000D01*
G37*
G36*
X1983471Y37245141D02*
G01*
X2061827Y37237424D01*
X2212628Y37191679D01*
X2212630Y37191678D01*
X2351605Y37117394D01*
X2351607Y37117393D01*
X2351606Y37117393D01*
X2473422Y37017422D01*
X2573393Y36895606D01*
X2647679Y36756628D01*
X2693424Y36605827D01*
X2708870Y36449000D01*
X2693424Y36292173D01*
X2647679Y36141372D01*
X2647678Y36141370D01*
X2573394Y36002395D01*
X2473422Y35880578D01*
X2351605Y35780606D01*
X2212630Y35706322D01*
X2212628Y35706321D01*
X2061827Y35660576D01*
X1983471Y35652859D01*
X1944294Y35649000D01*
X1865706Y35649000D01*
X1826529Y35652859D01*
X1748173Y35660576D01*
X1597372Y35706321D01*
X1597370Y35706322D01*
X1458395Y35780606D01*
X1336578Y35880578D01*
X1236606Y36002395D01*
X1162322Y36141370D01*
X1162321Y36141372D01*
X1116576Y36292173D01*
X1101130Y36449000D01*
X1116576Y36605827D01*
X1162321Y36756628D01*
X1236607Y36895606D01*
X1336578Y37017422D01*
X1458394Y37117393D01*
X1458393Y37117393D01*
X1458395Y37117394D01*
X1597370Y37191678D01*
X1597372Y37191679D01*
X1748173Y37237424D01*
X1826529Y37245141D01*
X1865706Y37249000D01*
X1944294Y37249000D01*
X1983471Y37245141D01*
X1983471Y37245141D01*
G37*
G36*
X9603471Y37245141D02*
G01*
X9681827Y37237424D01*
X9832628Y37191679D01*
X9832630Y37191678D01*
X9971605Y37117394D01*
X9971607Y37117393D01*
X9971606Y37117393D01*
X10093422Y37017422D01*
X10193393Y36895606D01*
X10267679Y36756628D01*
X10313424Y36605827D01*
X10328870Y36449000D01*
X10313424Y36292173D01*
X10267679Y36141372D01*
X10267678Y36141370D01*
X10193394Y36002395D01*
X10093422Y35880578D01*
X9971605Y35780606D01*
X9832630Y35706322D01*
X9832628Y35706321D01*
X9681827Y35660576D01*
X9603471Y35652859D01*
X9564294Y35649000D01*
X9485706Y35649000D01*
X9446529Y35652859D01*
X9368173Y35660576D01*
X9217372Y35706321D01*
X9217370Y35706322D01*
X9078395Y35780606D01*
X8956578Y35880578D01*
X8856606Y36002395D01*
X8782322Y36141370D01*
X8782321Y36141372D01*
X8736576Y36292173D01*
X8721130Y36449000D01*
X8736576Y36605827D01*
X8782321Y36756628D01*
X8856607Y36895606D01*
X8956578Y37017422D01*
X9078394Y37117393D01*
X9078393Y37117393D01*
X9078395Y37117394D01*
X9217370Y37191678D01*
X9217372Y37191679D01*
X9368173Y37237424D01*
X9446529Y37245141D01*
X9485706Y37249000D01*
X9564294Y37249000D01*
X9603471Y37245141D01*
X9603471Y37245141D01*
G37*
G36*
X12618991Y37518925D02*
G01*
X12652879Y37508645D01*
X12684112Y37491950D01*
X12711486Y37469486D01*
X12733950Y37442112D01*
X12750645Y37410879D01*
X12760925Y37376991D01*
X12765000Y37335612D01*
X12765000Y36735388D01*
X12760925Y36694009D01*
X12750645Y36660121D01*
X12733950Y36628888D01*
X12711486Y36601514D01*
X12684112Y36579050D01*
X12652879Y36562355D01*
X12618991Y36552075D01*
X12577612Y36548000D01*
X11552388Y36548000D01*
X11511009Y36552075D01*
X11477121Y36562355D01*
X11445888Y36579050D01*
X11418514Y36601514D01*
X11396050Y36628888D01*
X11379355Y36660121D01*
X11369075Y36694009D01*
X11365000Y36735388D01*
X11365000Y37335612D01*
X11369075Y37376991D01*
X11379355Y37410879D01*
X11396050Y37442112D01*
X11418514Y37469486D01*
X11445888Y37491950D01*
X11477121Y37508645D01*
X11511009Y37518925D01*
X11552388Y37523000D01*
X12577612Y37523000D01*
X12618991Y37518925D01*
X12618991Y37518925D01*
G37*
G36*
X5419000Y36813500D02*
G01*
X4519000Y36813500D01*
X4519000Y37613500D01*
X5419000Y37613500D01*
X5419000Y36813500D01*
X5419000Y36813500D01*
G37*
G36*
X20842971Y38959641D02*
G01*
X20921327Y38951924D01*
X21072128Y38906179D01*
X21072130Y38906178D01*
X21211105Y38831894D01*
X21332922Y38731922D01*
X21432894Y38610105D01*
X21496221Y38491629D01*
X21507179Y38471128D01*
X21552924Y38320327D01*
X21568370Y38163500D01*
X21552924Y38006673D01*
X21507179Y37855872D01*
X21507178Y37855870D01*
X21432894Y37716895D01*
X21332922Y37595078D01*
X21211105Y37495106D01*
X21110479Y37441320D01*
X21072128Y37420821D01*
X20921327Y37375076D01*
X20842971Y37367359D01*
X20803794Y37363500D01*
X20725206Y37363500D01*
X20686029Y37367359D01*
X20607673Y37375076D01*
X20456872Y37420821D01*
X20418521Y37441320D01*
X20317895Y37495106D01*
X20196078Y37595078D01*
X20096106Y37716895D01*
X20021822Y37855870D01*
X20021821Y37855872D01*
X19976076Y38006673D01*
X19960630Y38163500D01*
X19976076Y38320327D01*
X20021821Y38471128D01*
X20032779Y38491629D01*
X20096106Y38610105D01*
X20196078Y38731922D01*
X20317895Y38831894D01*
X20456870Y38906178D01*
X20456872Y38906179D01*
X20607673Y38951924D01*
X20686029Y38959641D01*
X20725206Y38963500D01*
X20803794Y38963500D01*
X20842971Y38959641D01*
X20842971Y38959641D01*
G37*
G36*
X15762971Y38959641D02*
G01*
X15841327Y38951924D01*
X15992128Y38906179D01*
X15992130Y38906178D01*
X16131105Y38831894D01*
X16252922Y38731922D01*
X16352894Y38610105D01*
X16416221Y38491629D01*
X16427179Y38471128D01*
X16472924Y38320327D01*
X16488370Y38163500D01*
X16472924Y38006673D01*
X16427179Y37855872D01*
X16427178Y37855870D01*
X16352894Y37716895D01*
X16252922Y37595078D01*
X16131105Y37495106D01*
X16030479Y37441320D01*
X15992128Y37420821D01*
X15841327Y37375076D01*
X15762971Y37367359D01*
X15723794Y37363500D01*
X15645206Y37363500D01*
X15606029Y37367359D01*
X15527673Y37375076D01*
X15376872Y37420821D01*
X15338521Y37441320D01*
X15237895Y37495106D01*
X15116078Y37595078D01*
X15016106Y37716895D01*
X14941822Y37855870D01*
X14941821Y37855872D01*
X14896076Y38006673D01*
X14880630Y38163500D01*
X14896076Y38320327D01*
X14941821Y38471128D01*
X14952779Y38491629D01*
X15016106Y38610105D01*
X15116078Y38731922D01*
X15237895Y38831894D01*
X15376870Y38906178D01*
X15376872Y38906179D01*
X15527673Y38951924D01*
X15606029Y38959641D01*
X15645206Y38963500D01*
X15723794Y38963500D01*
X15762971Y38959641D01*
X15762971Y38959641D01*
G37*
G36*
X18302971Y38959641D02*
G01*
X18381327Y38951924D01*
X18532128Y38906179D01*
X18532130Y38906178D01*
X18671105Y38831894D01*
X18792922Y38731922D01*
X18892894Y38610105D01*
X18956221Y38491629D01*
X18967179Y38471128D01*
X19012924Y38320327D01*
X19028370Y38163500D01*
X19012924Y38006673D01*
X18967179Y37855872D01*
X18967178Y37855870D01*
X18892894Y37716895D01*
X18792922Y37595078D01*
X18671105Y37495106D01*
X18570479Y37441320D01*
X18532128Y37420821D01*
X18381327Y37375076D01*
X18302971Y37367359D01*
X18263794Y37363500D01*
X18185206Y37363500D01*
X18146029Y37367359D01*
X18067673Y37375076D01*
X17916872Y37420821D01*
X17878521Y37441320D01*
X17777895Y37495106D01*
X17656078Y37595078D01*
X17556106Y37716895D01*
X17481822Y37855870D01*
X17481821Y37855872D01*
X17436076Y38006673D01*
X17420630Y38163500D01*
X17436076Y38320327D01*
X17481821Y38471128D01*
X17492779Y38491629D01*
X17556106Y38610105D01*
X17656078Y38731922D01*
X17777895Y38831894D01*
X17916870Y38906178D01*
X17916872Y38906179D01*
X18067673Y38951924D01*
X18146029Y38959641D01*
X18185206Y38963500D01*
X18263794Y38963500D01*
X18302971Y38959641D01*
X18302971Y38959641D01*
G37*
G36*
X23382971Y38959641D02*
G01*
X23461327Y38951924D01*
X23612128Y38906179D01*
X23612130Y38906178D01*
X23751105Y38831894D01*
X23872922Y38731922D01*
X23972894Y38610105D01*
X24036221Y38491629D01*
X24047179Y38471128D01*
X24092924Y38320327D01*
X24108370Y38163500D01*
X24092924Y38006673D01*
X24047179Y37855872D01*
X24047178Y37855870D01*
X23972894Y37716895D01*
X23872922Y37595078D01*
X23751105Y37495106D01*
X23650479Y37441320D01*
X23612128Y37420821D01*
X23461327Y37375076D01*
X23382971Y37367359D01*
X23343794Y37363500D01*
X23265206Y37363500D01*
X23226029Y37367359D01*
X23147673Y37375076D01*
X22996872Y37420821D01*
X22958521Y37441320D01*
X22857895Y37495106D01*
X22736078Y37595078D01*
X22636106Y37716895D01*
X22561822Y37855870D01*
X22561821Y37855872D01*
X22516076Y38006673D01*
X22500630Y38163500D01*
X22516076Y38320327D01*
X22561821Y38471128D01*
X22572779Y38491629D01*
X22636106Y38610105D01*
X22736078Y38731922D01*
X22857895Y38831894D01*
X22996870Y38906178D01*
X22996872Y38906179D01*
X23147673Y38951924D01*
X23226029Y38959641D01*
X23265206Y38963500D01*
X23343794Y38963500D01*
X23382971Y38959641D01*
X23382971Y38959641D01*
G37*
G36*
X41930470Y38980140D02*
G01*
X42008826Y38972423D01*
X42159627Y38926678D01*
X42159629Y38926677D01*
X42298604Y38852393D01*
X42420421Y38752421D01*
X42520393Y38630604D01*
X42531349Y38610106D01*
X42594678Y38491627D01*
X42640423Y38340826D01*
X42655869Y38183999D01*
X42640423Y38027172D01*
X42594678Y37876371D01*
X42594677Y37876369D01*
X42520393Y37737394D01*
X42420421Y37615577D01*
X42298604Y37515605D01*
X42161109Y37442112D01*
X42159627Y37441320D01*
X42008826Y37395575D01*
X41930470Y37387858D01*
X41891293Y37383999D01*
X41812705Y37383999D01*
X41773528Y37387858D01*
X41695172Y37395575D01*
X41544371Y37441320D01*
X41542889Y37442112D01*
X41405394Y37515605D01*
X41283577Y37615577D01*
X41183605Y37737394D01*
X41109321Y37876369D01*
X41109320Y37876371D01*
X41063575Y38027172D01*
X41048129Y38183999D01*
X41063575Y38340826D01*
X41109320Y38491627D01*
X41172649Y38610106D01*
X41183605Y38630604D01*
X41283577Y38752421D01*
X41405394Y38852393D01*
X41544369Y38926677D01*
X41544371Y38926678D01*
X41695172Y38972423D01*
X41773528Y38980140D01*
X41812705Y38983999D01*
X41891293Y38983999D01*
X41930470Y38980140D01*
X41930470Y38980140D01*
G37*
G36*
X39390470Y38980140D02*
G01*
X39468826Y38972423D01*
X39619627Y38926678D01*
X39619629Y38926677D01*
X39758604Y38852393D01*
X39880421Y38752421D01*
X39980393Y38630604D01*
X39991349Y38610106D01*
X40054678Y38491627D01*
X40100423Y38340826D01*
X40115869Y38183999D01*
X40100423Y38027172D01*
X40054678Y37876371D01*
X40054677Y37876369D01*
X39980393Y37737394D01*
X39880421Y37615577D01*
X39758604Y37515605D01*
X39621109Y37442112D01*
X39619627Y37441320D01*
X39468826Y37395575D01*
X39390470Y37387858D01*
X39351293Y37383999D01*
X39272705Y37383999D01*
X39233528Y37387858D01*
X39155172Y37395575D01*
X39004371Y37441320D01*
X39002889Y37442112D01*
X38865394Y37515605D01*
X38743577Y37615577D01*
X38643605Y37737394D01*
X38569321Y37876369D01*
X38569320Y37876371D01*
X38523575Y38027172D01*
X38508129Y38183999D01*
X38523575Y38340826D01*
X38569320Y38491627D01*
X38632649Y38610106D01*
X38643605Y38630604D01*
X38743577Y38752421D01*
X38865394Y38852393D01*
X39004369Y38926677D01*
X39004371Y38926678D01*
X39155172Y38972423D01*
X39233528Y38980140D01*
X39272705Y38983999D01*
X39351293Y38983999D01*
X39390470Y38980140D01*
X39390470Y38980140D01*
G37*
G36*
X7419000Y37763500D02*
G01*
X6519000Y37763500D01*
X6519000Y38563500D01*
X7419000Y38563500D01*
X7419000Y37763500D01*
X7419000Y37763500D01*
G37*
G36*
X9603471Y39785141D02*
G01*
X9681827Y39777424D01*
X9832628Y39731679D01*
X9832630Y39731678D01*
X9971605Y39657394D01*
X10093422Y39557422D01*
X10193394Y39435605D01*
X10239469Y39349405D01*
X10267679Y39296628D01*
X10313424Y39145827D01*
X10328870Y38989000D01*
X10313424Y38832173D01*
X10270751Y38691500D01*
X10267678Y38681370D01*
X10193394Y38542395D01*
X10093422Y38420578D01*
X9971605Y38320606D01*
X9832630Y38246322D01*
X9832628Y38246321D01*
X9681827Y38200576D01*
X9603471Y38192859D01*
X9564294Y38189000D01*
X9485706Y38189000D01*
X9446529Y38192859D01*
X9368173Y38200576D01*
X9217372Y38246321D01*
X9217370Y38246322D01*
X9078395Y38320606D01*
X8956578Y38420578D01*
X8856606Y38542395D01*
X8782322Y38681370D01*
X8779249Y38691500D01*
X8736576Y38832173D01*
X8721130Y38989000D01*
X8736576Y39145827D01*
X8782321Y39296628D01*
X8810531Y39349405D01*
X8856606Y39435605D01*
X8956578Y39557422D01*
X9078395Y39657394D01*
X9217370Y39731678D01*
X9217372Y39731679D01*
X9368173Y39777424D01*
X9446529Y39785141D01*
X9485706Y39789000D01*
X9564294Y39789000D01*
X9603471Y39785141D01*
X9603471Y39785141D01*
G37*
G36*
X1983471Y39785141D02*
G01*
X2061827Y39777424D01*
X2212628Y39731679D01*
X2212630Y39731678D01*
X2351605Y39657394D01*
X2473422Y39557422D01*
X2573394Y39435605D01*
X2619469Y39349405D01*
X2647679Y39296628D01*
X2693424Y39145827D01*
X2708870Y38989000D01*
X2693424Y38832173D01*
X2650751Y38691500D01*
X2647678Y38681370D01*
X2573394Y38542395D01*
X2473422Y38420578D01*
X2351605Y38320606D01*
X2212630Y38246322D01*
X2212628Y38246321D01*
X2061827Y38200576D01*
X1983471Y38192859D01*
X1944294Y38189000D01*
X1865706Y38189000D01*
X1826529Y38192859D01*
X1748173Y38200576D01*
X1597372Y38246321D01*
X1597370Y38246322D01*
X1458395Y38320606D01*
X1336578Y38420578D01*
X1236606Y38542395D01*
X1162322Y38681370D01*
X1159249Y38691500D01*
X1116576Y38832173D01*
X1101130Y38989000D01*
X1116576Y39145827D01*
X1162321Y39296628D01*
X1190531Y39349405D01*
X1236606Y39435605D01*
X1336578Y39557422D01*
X1458395Y39657394D01*
X1597370Y39731678D01*
X1597372Y39731679D01*
X1748173Y39777424D01*
X1826529Y39785141D01*
X1865706Y39789000D01*
X1944294Y39789000D01*
X1983471Y39785141D01*
X1983471Y39785141D01*
G37*
G36*
X12618991Y39393925D02*
G01*
X12652879Y39383645D01*
X12684112Y39366950D01*
X12711486Y39344486D01*
X12733950Y39317112D01*
X12750645Y39285879D01*
X12760925Y39251991D01*
X12765000Y39210612D01*
X12765000Y38610388D01*
X12760925Y38569009D01*
X12750645Y38535121D01*
X12733950Y38503888D01*
X12711486Y38476514D01*
X12684112Y38454050D01*
X12652879Y38437355D01*
X12618991Y38427075D01*
X12577612Y38423000D01*
X11552388Y38423000D01*
X11511009Y38427075D01*
X11477121Y38437355D01*
X11445888Y38454050D01*
X11418514Y38476514D01*
X11396050Y38503888D01*
X11379355Y38535121D01*
X11369075Y38569009D01*
X11365000Y38610388D01*
X11365000Y39210612D01*
X11369075Y39251991D01*
X11379355Y39285879D01*
X11396050Y39317112D01*
X11418514Y39344486D01*
X11445888Y39366950D01*
X11477121Y39383645D01*
X11511009Y39393925D01*
X11552388Y39398000D01*
X12577612Y39398000D01*
X12618991Y39393925D01*
X12618991Y39393925D01*
G37*
G36*
X78850610Y41143464D02*
G01*
X79078095Y41049236D01*
X79078097Y41049235D01*
X79282828Y40912438D01*
X79456938Y40738328D01*
X79579971Y40554197D01*
X79593736Y40533595D01*
X79687964Y40306110D01*
X79736000Y40064616D01*
X79736000Y39818384D01*
X79687964Y39576890D01*
X79607919Y39383645D01*
X79593735Y39349403D01*
X79456938Y39144672D01*
X79282828Y38970562D01*
X79078097Y38833765D01*
X79078096Y38833764D01*
X79078095Y38833764D01*
X78850610Y38739536D01*
X78609116Y38691500D01*
X78362884Y38691500D01*
X78121390Y38739536D01*
X77893905Y38833764D01*
X77893904Y38833764D01*
X77893903Y38833765D01*
X77689172Y38970562D01*
X77515062Y39144672D01*
X77378265Y39349403D01*
X77364081Y39383645D01*
X77284036Y39576890D01*
X77236000Y39818384D01*
X77236000Y40064616D01*
X77284036Y40306110D01*
X77378264Y40533595D01*
X77392030Y40554197D01*
X77515062Y40738328D01*
X77689172Y40912438D01*
X77893903Y41049235D01*
X77893905Y41049236D01*
X78121390Y41143464D01*
X78362884Y41191500D01*
X78609116Y41191500D01*
X78850610Y41143464D01*
X78850610Y41143464D01*
G37*
G36*
X5419000Y38713500D02*
G01*
X4519000Y38713500D01*
X4519000Y39513500D01*
X5419000Y39513500D01*
X5419000Y38713500D01*
X5419000Y38713500D01*
G37*
G36*
X65545002Y40147116D02*
G01*
X65577027Y40137401D01*
X65606534Y40121629D01*
X65632401Y40100401D01*
X65653629Y40074534D01*
X65669401Y40045027D01*
X65679116Y40013002D01*
X65683000Y39973564D01*
X65683000Y38978436D01*
X65679116Y38938998D01*
X65669401Y38906973D01*
X65653629Y38877466D01*
X65632401Y38851599D01*
X65606534Y38830371D01*
X65577027Y38814599D01*
X65545002Y38804884D01*
X65505564Y38801000D01*
X62510436Y38801000D01*
X62470998Y38804884D01*
X62438973Y38814599D01*
X62409466Y38830371D01*
X62383599Y38851599D01*
X62362371Y38877466D01*
X62346599Y38906973D01*
X62336884Y38938998D01*
X62333000Y38978436D01*
X62333000Y39973564D01*
X62336884Y40013002D01*
X62346599Y40045027D01*
X62362371Y40074534D01*
X62383599Y40100401D01*
X62409466Y40121629D01*
X62438973Y40137401D01*
X62470998Y40147116D01*
X62510436Y40151000D01*
X65505564Y40151000D01*
X65545002Y40147116D01*
X65545002Y40147116D01*
G37*
G36*
X33326676Y39961628D02*
G01*
X33355296Y39949773D01*
X33399468Y39931477D01*
X33399471Y39931475D01*
X33464985Y39887700D01*
X33520700Y39831985D01*
X33529788Y39818384D01*
X33564477Y39766468D01*
X33578887Y39731678D01*
X33594628Y39693676D01*
X33610000Y39616397D01*
X33610000Y39537603D01*
X33594628Y39460324D01*
X33584389Y39435606D01*
X33564477Y39387532D01*
X33564475Y39387529D01*
X33520700Y39322015D01*
X33464985Y39266300D01*
X33443570Y39251991D01*
X33399468Y39222523D01*
X33370711Y39210612D01*
X33326676Y39192372D01*
X33249397Y39177000D01*
X33170603Y39177000D01*
X33093324Y39192372D01*
X33049289Y39210612D01*
X33020532Y39222523D01*
X32976430Y39251991D01*
X32955015Y39266300D01*
X32899300Y39322015D01*
X32855525Y39387529D01*
X32855523Y39387532D01*
X32835611Y39435606D01*
X32825372Y39460324D01*
X32810000Y39537603D01*
X32810000Y39616397D01*
X32825372Y39693676D01*
X32841113Y39731678D01*
X32855523Y39766468D01*
X32890212Y39818384D01*
X32899300Y39831985D01*
X32955015Y39887700D01*
X33020529Y39931475D01*
X33020532Y39931477D01*
X33064704Y39949773D01*
X33093324Y39961628D01*
X33170603Y39977000D01*
X33249397Y39977000D01*
X33326676Y39961628D01*
X33326676Y39961628D01*
G37*
G36*
X31326676Y39961628D02*
G01*
X31355296Y39949773D01*
X31399468Y39931477D01*
X31399471Y39931475D01*
X31464985Y39887700D01*
X31520700Y39831985D01*
X31529788Y39818384D01*
X31564477Y39766468D01*
X31578887Y39731678D01*
X31594628Y39693676D01*
X31610000Y39616397D01*
X31610000Y39537603D01*
X31594628Y39460324D01*
X31584389Y39435606D01*
X31564477Y39387532D01*
X31564475Y39387529D01*
X31520700Y39322015D01*
X31464985Y39266300D01*
X31443570Y39251991D01*
X31399468Y39222523D01*
X31370711Y39210612D01*
X31326676Y39192372D01*
X31249397Y39177000D01*
X31170603Y39177000D01*
X31093324Y39192372D01*
X31049289Y39210612D01*
X31020532Y39222523D01*
X30976430Y39251991D01*
X30955015Y39266300D01*
X30899300Y39322015D01*
X30855525Y39387529D01*
X30855523Y39387532D01*
X30835611Y39435606D01*
X30825372Y39460324D01*
X30810000Y39537603D01*
X30810000Y39616397D01*
X30825372Y39693676D01*
X30841113Y39731678D01*
X30855523Y39766468D01*
X30890212Y39818384D01*
X30899300Y39831985D01*
X30955015Y39887700D01*
X31020529Y39931475D01*
X31020532Y39931477D01*
X31064704Y39949773D01*
X31093324Y39961628D01*
X31170603Y39977000D01*
X31249397Y39977000D01*
X31326676Y39961628D01*
X31326676Y39961628D01*
G37*
G36*
X29326676Y39961628D02*
G01*
X29355296Y39949773D01*
X29399468Y39931477D01*
X29399471Y39931475D01*
X29464985Y39887700D01*
X29520700Y39831985D01*
X29529788Y39818384D01*
X29564477Y39766468D01*
X29578887Y39731678D01*
X29594628Y39693676D01*
X29610000Y39616397D01*
X29610000Y39537603D01*
X29594628Y39460324D01*
X29584389Y39435606D01*
X29564477Y39387532D01*
X29564475Y39387529D01*
X29520700Y39322015D01*
X29464985Y39266300D01*
X29443570Y39251991D01*
X29399468Y39222523D01*
X29370711Y39210612D01*
X29326676Y39192372D01*
X29249397Y39177000D01*
X29170603Y39177000D01*
X29093324Y39192372D01*
X29049289Y39210612D01*
X29020532Y39222523D01*
X28976430Y39251991D01*
X28955015Y39266300D01*
X28899300Y39322015D01*
X28855525Y39387529D01*
X28855523Y39387532D01*
X28835611Y39435606D01*
X28825372Y39460324D01*
X28810000Y39537603D01*
X28810000Y39616397D01*
X28825372Y39693676D01*
X28841113Y39731678D01*
X28855523Y39766468D01*
X28890212Y39818384D01*
X28899300Y39831985D01*
X28955015Y39887700D01*
X29020529Y39931475D01*
X29020532Y39931477D01*
X29064704Y39949773D01*
X29093324Y39961628D01*
X29170603Y39977000D01*
X29249397Y39977000D01*
X29326676Y39961628D01*
X29326676Y39961628D01*
G37*
G36*
X13444491Y41328925D02*
G01*
X13478379Y41318645D01*
X13509612Y41301950D01*
X13536986Y41279486D01*
X13559450Y41252112D01*
X13576145Y41220879D01*
X13586425Y41186991D01*
X13590500Y41145612D01*
X13590500Y40545388D01*
X13586425Y40504009D01*
X13576145Y40470121D01*
X13559450Y40438888D01*
X13536986Y40411514D01*
X13509612Y40389050D01*
X13478379Y40372355D01*
X13444491Y40362075D01*
X13403112Y40358000D01*
X12377888Y40358000D01*
X12336509Y40362075D01*
X12302621Y40372355D01*
X12271388Y40389050D01*
X12244014Y40411514D01*
X12221550Y40438888D01*
X12204855Y40470121D01*
X12194575Y40504009D01*
X12190500Y40545388D01*
X12190500Y41145612D01*
X12194575Y41186991D01*
X12204855Y41220879D01*
X12221550Y41252112D01*
X12244014Y41279486D01*
X12271388Y41301950D01*
X12302621Y41318645D01*
X12336509Y41328925D01*
X12377888Y41333000D01*
X13403112Y41333000D01*
X13444491Y41328925D01*
X13444491Y41328925D01*
G37*
G36*
X27795491Y41646425D02*
G01*
X27829379Y41636145D01*
X27860612Y41619450D01*
X27887986Y41596986D01*
X27910450Y41569612D01*
X27927145Y41538379D01*
X27937425Y41504491D01*
X27941500Y41463112D01*
X27941500Y40862888D01*
X27937425Y40821509D01*
X27927145Y40787621D01*
X27910450Y40756388D01*
X27887986Y40729014D01*
X27860612Y40706550D01*
X27829379Y40689855D01*
X27795491Y40679575D01*
X27754112Y40675500D01*
X26728888Y40675500D01*
X26687509Y40679575D01*
X26653621Y40689855D01*
X26622388Y40706550D01*
X26595014Y40729014D01*
X26572550Y40756388D01*
X26555855Y40787621D01*
X26545575Y40821509D01*
X26541500Y40862888D01*
X26541500Y41463112D01*
X26545575Y41504491D01*
X26555855Y41538379D01*
X26572550Y41569612D01*
X26595014Y41596986D01*
X26622388Y41619450D01*
X26653621Y41636145D01*
X26687509Y41646425D01*
X26728888Y41650500D01*
X27754112Y41650500D01*
X27795491Y41646425D01*
X27795491Y41646425D01*
G37*
G36*
X2705000Y40729000D02*
G01*
X1105000Y40729000D01*
X1105000Y42329000D01*
X2705000Y42329000D01*
X2705000Y40729000D01*
X2705000Y40729000D01*
G37*
G36*
X9603471Y42325141D02*
G01*
X9681827Y42317424D01*
X9832628Y42271679D01*
X9832630Y42271678D01*
X9971605Y42197394D01*
X10093422Y42097422D01*
X10193394Y41975605D01*
X10266340Y41839133D01*
X10267679Y41836628D01*
X10313424Y41685827D01*
X10328870Y41529000D01*
X10313424Y41372173D01*
X10268679Y41224670D01*
X10267678Y41221370D01*
X10193394Y41082395D01*
X10093422Y40960578D01*
X9971605Y40860606D01*
X9835060Y40787621D01*
X9832628Y40786321D01*
X9681827Y40740576D01*
X9603471Y40732859D01*
X9564294Y40729000D01*
X9485706Y40729000D01*
X9446529Y40732859D01*
X9368173Y40740576D01*
X9217372Y40786321D01*
X9214940Y40787621D01*
X9078395Y40860606D01*
X8956578Y40960578D01*
X8856606Y41082395D01*
X8782322Y41221370D01*
X8781321Y41224670D01*
X8736576Y41372173D01*
X8721130Y41529000D01*
X8736576Y41685827D01*
X8782321Y41836628D01*
X8783660Y41839133D01*
X8856606Y41975605D01*
X8956578Y42097422D01*
X9078395Y42197394D01*
X9217370Y42271678D01*
X9217372Y42271679D01*
X9368173Y42317424D01*
X9446529Y42325141D01*
X9485706Y42329000D01*
X9564294Y42329000D01*
X9603471Y42325141D01*
X9603471Y42325141D01*
G37*
G36*
X21348000Y41264000D02*
G01*
X18848000Y41264000D01*
X18848000Y43064000D01*
X21348000Y43064000D01*
X21348000Y41264000D01*
X21348000Y41264000D01*
G37*
G36*
X25348000Y41264000D02*
G01*
X22848000Y41264000D01*
X22848000Y43064000D01*
X25348000Y43064000D01*
X25348000Y41264000D01*
X25348000Y41264000D01*
G37*
G36*
X33155991Y42859925D02*
G01*
X33189879Y42849645D01*
X33221112Y42832950D01*
X33248486Y42810486D01*
X33270950Y42783112D01*
X33287645Y42751879D01*
X33297925Y42717991D01*
X33302000Y42676612D01*
X33302000Y41651388D01*
X33297925Y41610009D01*
X33287645Y41576121D01*
X33270950Y41544888D01*
X33248486Y41517514D01*
X33221112Y41495050D01*
X33189879Y41478355D01*
X33155991Y41468075D01*
X33114612Y41464000D01*
X32514388Y41464000D01*
X32473009Y41468075D01*
X32439121Y41478355D01*
X32407888Y41495050D01*
X32380514Y41517514D01*
X32358050Y41544888D01*
X32341355Y41576121D01*
X32331075Y41610009D01*
X32327000Y41651388D01*
X32327000Y42676612D01*
X32331075Y42717991D01*
X32341355Y42751879D01*
X32358050Y42783112D01*
X32380514Y42810486D01*
X32407888Y42832950D01*
X32439121Y42849645D01*
X32473009Y42859925D01*
X32514388Y42864000D01*
X33114612Y42864000D01*
X33155991Y42859925D01*
X33155991Y42859925D01*
G37*
G36*
X31280991Y42859925D02*
G01*
X31314879Y42849645D01*
X31346112Y42832950D01*
X31373486Y42810486D01*
X31395950Y42783112D01*
X31412645Y42751879D01*
X31422925Y42717991D01*
X31427000Y42676612D01*
X31427000Y41651388D01*
X31422925Y41610009D01*
X31412645Y41576121D01*
X31395950Y41544888D01*
X31373486Y41517514D01*
X31346112Y41495050D01*
X31314879Y41478355D01*
X31280991Y41468075D01*
X31239612Y41464000D01*
X30639388Y41464000D01*
X30598009Y41468075D01*
X30564121Y41478355D01*
X30532888Y41495050D01*
X30505514Y41517514D01*
X30483050Y41544888D01*
X30466355Y41576121D01*
X30456075Y41610009D01*
X30452000Y41651388D01*
X30452000Y42676612D01*
X30456075Y42717991D01*
X30466355Y42751879D01*
X30483050Y42783112D01*
X30505514Y42810486D01*
X30532888Y42832950D01*
X30564121Y42849645D01*
X30598009Y42859925D01*
X30639388Y42864000D01*
X31239612Y42864000D01*
X31280991Y42859925D01*
X31280991Y42859925D01*
G37*
G36*
X71303534Y44622357D02*
G01*
X71576515Y44509284D01*
X71576517Y44509283D01*
X71645666Y44463079D01*
X71822193Y44345127D01*
X72031127Y44136193D01*
X72078151Y44065816D01*
X72175564Y43920029D01*
X72195284Y43890515D01*
X72308357Y43617534D01*
X72366000Y43327738D01*
X72366000Y43032262D01*
X72308357Y42742466D01*
X72198293Y42476750D01*
X72195283Y42469483D01*
X72137811Y42383471D01*
X72031127Y42223807D01*
X71822193Y42014873D01*
X71763426Y41975606D01*
X71576517Y41850717D01*
X71576516Y41850716D01*
X71576515Y41850716D01*
X71303534Y41737643D01*
X71013738Y41680000D01*
X70718262Y41680000D01*
X70428466Y41737643D01*
X70155485Y41850716D01*
X70155484Y41850716D01*
X70155483Y41850717D01*
X69968574Y41975606D01*
X69909807Y42014873D01*
X69700873Y42223807D01*
X69594189Y42383471D01*
X69536717Y42469483D01*
X69533707Y42476750D01*
X69423643Y42742466D01*
X69366000Y43032262D01*
X69366000Y43327738D01*
X69423643Y43617534D01*
X69536716Y43890515D01*
X69556437Y43920029D01*
X69653849Y44065816D01*
X69700873Y44136193D01*
X69909807Y44345127D01*
X70086334Y44463079D01*
X70155483Y44509283D01*
X70155485Y44509284D01*
X70428466Y44622357D01*
X70718262Y44680000D01*
X71013738Y44680000D01*
X71303534Y44622357D01*
X71303534Y44622357D01*
G37*
G36*
X48703534Y44622357D02*
G01*
X48976515Y44509284D01*
X48976517Y44509283D01*
X49045666Y44463079D01*
X49222193Y44345127D01*
X49431127Y44136193D01*
X49478151Y44065816D01*
X49575564Y43920029D01*
X49595284Y43890515D01*
X49708357Y43617534D01*
X49766000Y43327738D01*
X49766000Y43032262D01*
X49708357Y42742466D01*
X49598293Y42476750D01*
X49595283Y42469483D01*
X49537811Y42383471D01*
X49431127Y42223807D01*
X49222193Y42014873D01*
X49163426Y41975606D01*
X48976517Y41850717D01*
X48976516Y41850716D01*
X48976515Y41850716D01*
X48703534Y41737643D01*
X48413738Y41680000D01*
X48118262Y41680000D01*
X47828466Y41737643D01*
X47555485Y41850716D01*
X47555484Y41850716D01*
X47555483Y41850717D01*
X47368574Y41975606D01*
X47309807Y42014873D01*
X47100873Y42223807D01*
X46994189Y42383471D01*
X46936717Y42469483D01*
X46933707Y42476750D01*
X46823643Y42742466D01*
X46766000Y43032262D01*
X46766000Y43327738D01*
X46823643Y43617534D01*
X46936716Y43890515D01*
X46956437Y43920029D01*
X47053849Y44065816D01*
X47100873Y44136193D01*
X47309807Y44345127D01*
X47486334Y44463079D01*
X47555483Y44509283D01*
X47555485Y44509284D01*
X47828466Y44622357D01*
X48118262Y44680000D01*
X48413738Y44680000D01*
X48703534Y44622357D01*
X48703534Y44622357D01*
G37*
G36*
X43211964Y43543163D02*
G01*
X43243525Y43533588D01*
X43272620Y43518037D01*
X43298115Y43497115D01*
X43319037Y43471620D01*
X43334588Y43442525D01*
X43344163Y43410964D01*
X43348000Y43372002D01*
X43348000Y41971998D01*
X43344163Y41933036D01*
X43334588Y41901475D01*
X43319037Y41872380D01*
X43298115Y41846885D01*
X43272620Y41825963D01*
X43243525Y41810412D01*
X43211964Y41800837D01*
X43173002Y41797000D01*
X42097998Y41797000D01*
X42059036Y41800837D01*
X42027475Y41810412D01*
X41998380Y41825963D01*
X41972885Y41846885D01*
X41951963Y41872380D01*
X41936412Y41901475D01*
X41926837Y41933036D01*
X41923000Y41971998D01*
X41923000Y43372002D01*
X41926837Y43410964D01*
X41936412Y43442525D01*
X41951963Y43471620D01*
X41972885Y43497115D01*
X41998380Y43518037D01*
X42027475Y43533588D01*
X42059036Y43543163D01*
X42097998Y43547000D01*
X43173002Y43547000D01*
X43211964Y43543163D01*
X43211964Y43543163D01*
G37*
G36*
X40236964Y43543163D02*
G01*
X40268525Y43533588D01*
X40297620Y43518037D01*
X40323115Y43497115D01*
X40344037Y43471620D01*
X40359588Y43442525D01*
X40369163Y43410964D01*
X40373000Y43372002D01*
X40373000Y41971998D01*
X40369163Y41933036D01*
X40359588Y41901475D01*
X40344037Y41872380D01*
X40323115Y41846885D01*
X40297620Y41825963D01*
X40268525Y41810412D01*
X40236964Y41800837D01*
X40198002Y41797000D01*
X39122998Y41797000D01*
X39084036Y41800837D01*
X39052475Y41810412D01*
X39023380Y41825963D01*
X38997885Y41846885D01*
X38976963Y41872380D01*
X38961412Y41901475D01*
X38951837Y41933036D01*
X38948000Y41971998D01*
X38948000Y43372002D01*
X38951837Y43410964D01*
X38961412Y43442525D01*
X38976963Y43471620D01*
X38997885Y43497115D01*
X39023380Y43518037D01*
X39052475Y43533588D01*
X39084036Y43543163D01*
X39122998Y43547000D01*
X40198002Y43547000D01*
X40236964Y43543163D01*
X40236964Y43543163D01*
G37*
G36*
X13444491Y43203925D02*
G01*
X13478379Y43193645D01*
X13509612Y43176950D01*
X13536986Y43154486D01*
X13559450Y43127112D01*
X13576145Y43095879D01*
X13586425Y43061991D01*
X13590500Y43020612D01*
X13590500Y42420388D01*
X13586425Y42379009D01*
X13576145Y42345121D01*
X13559450Y42313888D01*
X13536986Y42286514D01*
X13509612Y42264050D01*
X13478379Y42247355D01*
X13444491Y42237075D01*
X13403112Y42233000D01*
X12377888Y42233000D01*
X12336509Y42237075D01*
X12302621Y42247355D01*
X12271388Y42264050D01*
X12244014Y42286514D01*
X12221550Y42313888D01*
X12204855Y42345121D01*
X12194575Y42379009D01*
X12190500Y42420388D01*
X12190500Y43020612D01*
X12194575Y43061991D01*
X12204855Y43095879D01*
X12221550Y43127112D01*
X12244014Y43154486D01*
X12271388Y43176950D01*
X12302621Y43193645D01*
X12336509Y43203925D01*
X12377888Y43208000D01*
X13403112Y43208000D01*
X13444491Y43203925D01*
X13444491Y43203925D01*
G37*
G36*
X27795491Y43521425D02*
G01*
X27829379Y43511145D01*
X27860612Y43494450D01*
X27887986Y43471986D01*
X27910450Y43444612D01*
X27927145Y43413379D01*
X27937425Y43379491D01*
X27941500Y43338112D01*
X27941500Y42737888D01*
X27937425Y42696509D01*
X27927145Y42662621D01*
X27910450Y42631388D01*
X27887986Y42604014D01*
X27860612Y42581550D01*
X27829379Y42564855D01*
X27795491Y42554575D01*
X27754112Y42550500D01*
X26728888Y42550500D01*
X26687509Y42554575D01*
X26653621Y42564855D01*
X26622388Y42581550D01*
X26595014Y42604014D01*
X26572550Y42631388D01*
X26555855Y42662621D01*
X26545575Y42696509D01*
X26541500Y42737888D01*
X26541500Y43338112D01*
X26545575Y43379491D01*
X26555855Y43413379D01*
X26572550Y43444612D01*
X26595014Y43471986D01*
X26622388Y43494450D01*
X26653621Y43511145D01*
X26687509Y43521425D01*
X26728888Y43525500D01*
X27754112Y43525500D01*
X27795491Y43521425D01*
X27795491Y43521425D01*
G37*
G36*
X7247991Y44066425D02*
G01*
X7281879Y44056145D01*
X7313112Y44039450D01*
X7340486Y44016986D01*
X7362950Y43989612D01*
X7379645Y43958379D01*
X7389925Y43924491D01*
X7394000Y43883112D01*
X7394000Y42857888D01*
X7389925Y42816509D01*
X7379645Y42782621D01*
X7362950Y42751388D01*
X7340486Y42724014D01*
X7313112Y42701550D01*
X7281879Y42684855D01*
X7247991Y42674575D01*
X7206612Y42670500D01*
X6606388Y42670500D01*
X6565009Y42674575D01*
X6531121Y42684855D01*
X6499888Y42701550D01*
X6472514Y42724014D01*
X6450050Y42751388D01*
X6433355Y42782621D01*
X6423075Y42816509D01*
X6419000Y42857888D01*
X6419000Y43883112D01*
X6423075Y43924491D01*
X6433355Y43958379D01*
X6450050Y43989612D01*
X6472514Y44016986D01*
X6499888Y44039450D01*
X6531121Y44056145D01*
X6565009Y44066425D01*
X6606388Y44070500D01*
X7206612Y44070500D01*
X7247991Y44066425D01*
X7247991Y44066425D01*
G37*
G36*
X5372991Y44066425D02*
G01*
X5406879Y44056145D01*
X5438112Y44039450D01*
X5465486Y44016986D01*
X5487950Y43989612D01*
X5504645Y43958379D01*
X5514925Y43924491D01*
X5519000Y43883112D01*
X5519000Y42857888D01*
X5514925Y42816509D01*
X5504645Y42782621D01*
X5487950Y42751388D01*
X5465486Y42724014D01*
X5438112Y42701550D01*
X5406879Y42684855D01*
X5372991Y42674575D01*
X5331612Y42670500D01*
X4731388Y42670500D01*
X4690009Y42674575D01*
X4656121Y42684855D01*
X4624888Y42701550D01*
X4597514Y42724014D01*
X4575050Y42751388D01*
X4558355Y42782621D01*
X4548075Y42816509D01*
X4544000Y42857888D01*
X4544000Y43883112D01*
X4548075Y43924491D01*
X4558355Y43958379D01*
X4575050Y43989612D01*
X4597514Y44016986D01*
X4624888Y44039450D01*
X4656121Y44056145D01*
X4690009Y44066425D01*
X4731388Y44070500D01*
X5331612Y44070500D01*
X5372991Y44066425D01*
X5372991Y44066425D01*
G37*
G36*
X79736000Y43771500D02*
G01*
X77236000Y43771500D01*
X77236000Y46271500D01*
X79736000Y46271500D01*
X79736000Y43771500D01*
X79736000Y43771500D01*
G37*
G36*
X29326676Y44961628D02*
G01*
X29358424Y44948478D01*
X29399468Y44931477D01*
X29399471Y44931475D01*
X29464985Y44887700D01*
X29520700Y44831985D01*
X29520701Y44831983D01*
X29564477Y44766468D01*
X29581478Y44725424D01*
X29594628Y44693676D01*
X29610000Y44616397D01*
X29610000Y44537603D01*
X29594628Y44460324D01*
X29581478Y44428576D01*
X29564477Y44387532D01*
X29564475Y44387529D01*
X29520700Y44322015D01*
X29464985Y44266300D01*
X29399471Y44222525D01*
X29399468Y44222523D01*
X29358424Y44205522D01*
X29326676Y44192372D01*
X29249397Y44177000D01*
X29170603Y44177000D01*
X29093324Y44192372D01*
X29061576Y44205522D01*
X29020532Y44222523D01*
X29020529Y44222525D01*
X28955015Y44266300D01*
X28899300Y44322015D01*
X28855525Y44387529D01*
X28855523Y44387532D01*
X28838522Y44428576D01*
X28825372Y44460324D01*
X28810000Y44537603D01*
X28810000Y44616397D01*
X28825372Y44693676D01*
X28838522Y44725424D01*
X28855523Y44766468D01*
X28899299Y44831983D01*
X28899300Y44831985D01*
X28955015Y44887700D01*
X29020529Y44931475D01*
X29020532Y44931477D01*
X29061576Y44948478D01*
X29093324Y44961628D01*
X29170603Y44977000D01*
X29249397Y44977000D01*
X29326676Y44961628D01*
X29326676Y44961628D01*
G37*
G36*
X31326676Y44961628D02*
G01*
X31358424Y44948478D01*
X31399468Y44931477D01*
X31399471Y44931475D01*
X31464985Y44887700D01*
X31520700Y44831985D01*
X31520701Y44831983D01*
X31564477Y44766468D01*
X31581478Y44725424D01*
X31594628Y44693676D01*
X31610000Y44616397D01*
X31610000Y44537603D01*
X31594628Y44460324D01*
X31581478Y44428576D01*
X31564477Y44387532D01*
X31564475Y44387529D01*
X31520700Y44322015D01*
X31464985Y44266300D01*
X31399471Y44222525D01*
X31399468Y44222523D01*
X31358424Y44205522D01*
X31326676Y44192372D01*
X31249397Y44177000D01*
X31170603Y44177000D01*
X31093324Y44192372D01*
X31061576Y44205522D01*
X31020532Y44222523D01*
X31020529Y44222525D01*
X30955015Y44266300D01*
X30899300Y44322015D01*
X30855525Y44387529D01*
X30855523Y44387532D01*
X30838522Y44428576D01*
X30825372Y44460324D01*
X30810000Y44537603D01*
X30810000Y44616397D01*
X30825372Y44693676D01*
X30838522Y44725424D01*
X30855523Y44766468D01*
X30899299Y44831983D01*
X30899300Y44831985D01*
X30955015Y44887700D01*
X31020529Y44931475D01*
X31020532Y44931477D01*
X31061576Y44948478D01*
X31093324Y44961628D01*
X31170603Y44977000D01*
X31249397Y44977000D01*
X31326676Y44961628D01*
X31326676Y44961628D01*
G37*
G36*
X33326676Y44961628D02*
G01*
X33358424Y44948478D01*
X33399468Y44931477D01*
X33399471Y44931475D01*
X33464985Y44887700D01*
X33520700Y44831985D01*
X33520701Y44831983D01*
X33564477Y44766468D01*
X33581478Y44725424D01*
X33594628Y44693676D01*
X33610000Y44616397D01*
X33610000Y44537603D01*
X33594628Y44460324D01*
X33581478Y44428576D01*
X33564477Y44387532D01*
X33564475Y44387529D01*
X33520700Y44322015D01*
X33464985Y44266300D01*
X33399471Y44222525D01*
X33399468Y44222523D01*
X33358424Y44205522D01*
X33326676Y44192372D01*
X33249397Y44177000D01*
X33170603Y44177000D01*
X33093324Y44192372D01*
X33061576Y44205522D01*
X33020532Y44222523D01*
X33020529Y44222525D01*
X32955015Y44266300D01*
X32899300Y44322015D01*
X32855525Y44387529D01*
X32855523Y44387532D01*
X32838522Y44428576D01*
X32825372Y44460324D01*
X32810000Y44537603D01*
X32810000Y44616397D01*
X32825372Y44693676D01*
X32838522Y44725424D01*
X32855523Y44766468D01*
X32899299Y44831983D01*
X32899300Y44831985D01*
X32955015Y44887700D01*
X33020529Y44931475D01*
X33020532Y44931477D01*
X33061576Y44948478D01*
X33093324Y44961628D01*
X33170603Y44977000D01*
X33249397Y44977000D01*
X33326676Y44961628D01*
X33326676Y44961628D01*
G37*
G36*
X11729991Y45392925D02*
G01*
X11763879Y45382645D01*
X11795112Y45365950D01*
X11822486Y45343486D01*
X11844950Y45316112D01*
X11861645Y45284879D01*
X11871925Y45250991D01*
X11876000Y45209612D01*
X11876000Y44609388D01*
X11871925Y44568009D01*
X11861645Y44534121D01*
X11844950Y44502888D01*
X11822486Y44475514D01*
X11795112Y44453050D01*
X11763879Y44436355D01*
X11729991Y44426075D01*
X11688612Y44422000D01*
X10663388Y44422000D01*
X10622009Y44426075D01*
X10588121Y44436355D01*
X10556888Y44453050D01*
X10529514Y44475514D01*
X10507050Y44502888D01*
X10490355Y44534121D01*
X10480075Y44568009D01*
X10476000Y44609388D01*
X10476000Y45209612D01*
X10480075Y45250991D01*
X10490355Y45284879D01*
X10507050Y45316112D01*
X10529514Y45343486D01*
X10556888Y45365950D01*
X10588121Y45382645D01*
X10622009Y45392925D01*
X10663388Y45397000D01*
X11688612Y45397000D01*
X11729991Y45392925D01*
X11729991Y45392925D01*
G37*
G36*
X15762971Y46579641D02*
G01*
X15841327Y46571924D01*
X15992128Y46526179D01*
X15992130Y46526178D01*
X16131105Y46451894D01*
X16252922Y46351922D01*
X16352894Y46230105D01*
X16416221Y46111629D01*
X16427179Y46091128D01*
X16472924Y45940327D01*
X16488370Y45783500D01*
X16472924Y45626673D01*
X16427179Y45475872D01*
X16427178Y45475870D01*
X16352894Y45336895D01*
X16252922Y45215078D01*
X16131105Y45115106D01*
X16030479Y45061320D01*
X15992128Y45040821D01*
X15841327Y44995076D01*
X15762971Y44987359D01*
X15723794Y44983500D01*
X15645206Y44983500D01*
X15606029Y44987359D01*
X15527673Y44995076D01*
X15376872Y45040821D01*
X15338521Y45061320D01*
X15237895Y45115106D01*
X15116078Y45215078D01*
X15016106Y45336895D01*
X14941822Y45475870D01*
X14941821Y45475872D01*
X14896076Y45626673D01*
X14880630Y45783500D01*
X14896076Y45940327D01*
X14941821Y46091128D01*
X14952779Y46111629D01*
X15016106Y46230105D01*
X15116078Y46351922D01*
X15237895Y46451894D01*
X15376870Y46526178D01*
X15376872Y46526179D01*
X15527673Y46571924D01*
X15606029Y46579641D01*
X15645206Y46583500D01*
X15723794Y46583500D01*
X15762971Y46579641D01*
X15762971Y46579641D01*
G37*
G36*
X18302971Y46579641D02*
G01*
X18381327Y46571924D01*
X18532128Y46526179D01*
X18532130Y46526178D01*
X18671105Y46451894D01*
X18792922Y46351922D01*
X18892894Y46230105D01*
X18956221Y46111629D01*
X18967179Y46091128D01*
X19012924Y45940327D01*
X19028370Y45783500D01*
X19012924Y45626673D01*
X18967179Y45475872D01*
X18967178Y45475870D01*
X18892894Y45336895D01*
X18792922Y45215078D01*
X18671105Y45115106D01*
X18570479Y45061320D01*
X18532128Y45040821D01*
X18381327Y44995076D01*
X18302971Y44987359D01*
X18263794Y44983500D01*
X18185206Y44983500D01*
X18146029Y44987359D01*
X18067673Y44995076D01*
X17916872Y45040821D01*
X17878521Y45061320D01*
X17777895Y45115106D01*
X17656078Y45215078D01*
X17556106Y45336895D01*
X17481822Y45475870D01*
X17481821Y45475872D01*
X17436076Y45626673D01*
X17420630Y45783500D01*
X17436076Y45940327D01*
X17481821Y46091128D01*
X17492779Y46111629D01*
X17556106Y46230105D01*
X17656078Y46351922D01*
X17777895Y46451894D01*
X17916870Y46526178D01*
X17916872Y46526179D01*
X18067673Y46571924D01*
X18146029Y46579641D01*
X18185206Y46583500D01*
X18263794Y46583500D01*
X18302971Y46579641D01*
X18302971Y46579641D01*
G37*
G36*
X20842971Y46579641D02*
G01*
X20921327Y46571924D01*
X21072128Y46526179D01*
X21072130Y46526178D01*
X21211105Y46451894D01*
X21332922Y46351922D01*
X21432894Y46230105D01*
X21496221Y46111629D01*
X21507179Y46091128D01*
X21552924Y45940327D01*
X21568370Y45783500D01*
X21552924Y45626673D01*
X21507179Y45475872D01*
X21507178Y45475870D01*
X21432894Y45336895D01*
X21332922Y45215078D01*
X21211105Y45115106D01*
X21110479Y45061320D01*
X21072128Y45040821D01*
X20921327Y44995076D01*
X20842971Y44987359D01*
X20803794Y44983500D01*
X20725206Y44983500D01*
X20686029Y44987359D01*
X20607673Y44995076D01*
X20456872Y45040821D01*
X20418521Y45061320D01*
X20317895Y45115106D01*
X20196078Y45215078D01*
X20096106Y45336895D01*
X20021822Y45475870D01*
X20021821Y45475872D01*
X19976076Y45626673D01*
X19960630Y45783500D01*
X19976076Y45940327D01*
X20021821Y46091128D01*
X20032779Y46111629D01*
X20096106Y46230105D01*
X20196078Y46351922D01*
X20317895Y46451894D01*
X20456870Y46526178D01*
X20456872Y46526179D01*
X20607673Y46571924D01*
X20686029Y46579641D01*
X20725206Y46583500D01*
X20803794Y46583500D01*
X20842971Y46579641D01*
X20842971Y46579641D01*
G37*
G36*
X24104500Y44983500D02*
G01*
X22504500Y44983500D01*
X22504500Y46583500D01*
X24104500Y46583500D01*
X24104500Y44983500D01*
X24104500Y44983500D01*
G37*
G36*
X39383803Y46600797D02*
G01*
X39468826Y46592423D01*
X39619627Y46546678D01*
X39619629Y46546677D01*
X39758604Y46472393D01*
X39880421Y46372421D01*
X39980393Y46250604D01*
X40054677Y46111629D01*
X40054678Y46111627D01*
X40100423Y45960826D01*
X40115869Y45803999D01*
X40100423Y45647172D01*
X40054678Y45496371D01*
X40054677Y45496369D01*
X39980393Y45357394D01*
X39880421Y45235577D01*
X39758604Y45135605D01*
X39720253Y45115106D01*
X39619627Y45061320D01*
X39468826Y45015575D01*
X39390470Y45007858D01*
X39351293Y45003999D01*
X39272705Y45003999D01*
X39233528Y45007858D01*
X39155172Y45015575D01*
X39004371Y45061320D01*
X38903745Y45115106D01*
X38865394Y45135605D01*
X38743577Y45235577D01*
X38643605Y45357394D01*
X38569321Y45496369D01*
X38569320Y45496371D01*
X38523575Y45647172D01*
X38508129Y45803999D01*
X38523575Y45960826D01*
X38569320Y46111627D01*
X38569321Y46111629D01*
X38643605Y46250604D01*
X38743577Y46372421D01*
X38865394Y46472393D01*
X39004369Y46546677D01*
X39004371Y46546678D01*
X39155172Y46592423D01*
X39240195Y46600797D01*
X39272705Y46603999D01*
X39351293Y46603999D01*
X39383803Y46600797D01*
X39383803Y46600797D01*
G37*
G36*
X42651999Y45003999D02*
G01*
X41051999Y45003999D01*
X41051999Y46603999D01*
X42651999Y46603999D01*
X42651999Y45003999D01*
X42651999Y45003999D01*
G37*
G36*
X36369568Y47087625D02*
G01*
X36403456Y47077345D01*
X36434689Y47060650D01*
X36466829Y47034274D01*
X37191774Y46309329D01*
X37218150Y46277189D01*
X37234845Y46245956D01*
X37245125Y46212068D01*
X37248595Y46176827D01*
X37245125Y46141586D01*
X37234845Y46107698D01*
X37218150Y46076465D01*
X37191774Y46044325D01*
X36767349Y45619900D01*
X36735209Y45593524D01*
X36703976Y45576829D01*
X36670088Y45566549D01*
X36634847Y45563079D01*
X36599606Y45566549D01*
X36565718Y45576829D01*
X36534485Y45593524D01*
X36502345Y45619900D01*
X35777400Y46344845D01*
X35751024Y46376985D01*
X35734329Y46408218D01*
X35724049Y46442106D01*
X35720579Y46477347D01*
X35724049Y46512588D01*
X35734329Y46546476D01*
X35751024Y46577709D01*
X35777400Y46609849D01*
X36201825Y47034274D01*
X36233965Y47060650D01*
X36265198Y47077345D01*
X36299086Y47087625D01*
X36334327Y47091095D01*
X36369568Y47087625D01*
X36369568Y47087625D01*
G37*
G36*
X32235000Y47613001D02*
G01*
X32235002Y47612999D01*
X32235606Y47606863D01*
X32235606Y46119137D01*
X32235002Y46113001D01*
X32235000Y46112999D01*
X32228864Y46112395D01*
X31741138Y46112395D01*
X31722798Y46114201D01*
X31710548Y46114803D01*
X31692129Y46114803D01*
X31679851Y46116012D01*
X31595769Y46132737D01*
X31583949Y46136323D01*
X31504745Y46169130D01*
X31493865Y46174945D01*
X31422575Y46222579D01*
X31413038Y46230407D01*
X31352408Y46291037D01*
X31344580Y46300574D01*
X31296946Y46371864D01*
X31291131Y46382744D01*
X31258324Y46461948D01*
X31254738Y46473768D01*
X31238013Y46557850D01*
X31236804Y46570128D01*
X31236804Y46588547D01*
X31236202Y46600797D01*
X31234396Y46619137D01*
X31234396Y47106863D01*
X31236202Y47125203D01*
X31236804Y47137453D01*
X31236804Y47155872D01*
X31238013Y47168150D01*
X31254738Y47252232D01*
X31258324Y47264052D01*
X31291131Y47343256D01*
X31296946Y47354136D01*
X31344580Y47425426D01*
X31352408Y47434963D01*
X31413038Y47495593D01*
X31422575Y47503421D01*
X31493865Y47551055D01*
X31504745Y47556870D01*
X31583949Y47589677D01*
X31595769Y47593263D01*
X31679851Y47609988D01*
X31692129Y47611197D01*
X31710548Y47611197D01*
X31722798Y47611799D01*
X31741138Y47613605D01*
X32228864Y47613605D01*
X32235000Y47613001D01*
X32235000Y47613001D01*
G37*
G36*
X33047202Y47611799D02*
G01*
X33059452Y47611197D01*
X33077871Y47611197D01*
X33090149Y47609988D01*
X33174231Y47593263D01*
X33186051Y47589677D01*
X33265255Y47556870D01*
X33276135Y47551055D01*
X33347425Y47503421D01*
X33356962Y47495593D01*
X33417592Y47434963D01*
X33425420Y47425426D01*
X33473054Y47354136D01*
X33478869Y47343256D01*
X33511676Y47264052D01*
X33515262Y47252232D01*
X33531987Y47168150D01*
X33533196Y47155872D01*
X33533196Y47137453D01*
X33533798Y47125203D01*
X33535604Y47106863D01*
X33535604Y46619137D01*
X33533798Y46600797D01*
X33533196Y46588547D01*
X33533196Y46570128D01*
X33531987Y46557850D01*
X33515262Y46473768D01*
X33511676Y46461948D01*
X33478869Y46382744D01*
X33473054Y46371864D01*
X33425420Y46300574D01*
X33417592Y46291037D01*
X33356962Y46230407D01*
X33347425Y46222579D01*
X33276135Y46174945D01*
X33265255Y46169130D01*
X33186051Y46136323D01*
X33174231Y46132737D01*
X33090149Y46116012D01*
X33077871Y46114803D01*
X33059452Y46114803D01*
X33047202Y46114201D01*
X33028862Y46112395D01*
X32541136Y46112395D01*
X32535000Y46112999D01*
X32534998Y46113001D01*
X32534394Y46119137D01*
X32534394Y47606863D01*
X32534998Y47612999D01*
X32535000Y47613001D01*
X32541136Y47613605D01*
X33028862Y47613605D01*
X33047202Y47611799D01*
X33047202Y47611799D01*
G37*
G36*
X11729991Y47267925D02*
G01*
X11763879Y47257645D01*
X11795112Y47240950D01*
X11822486Y47218486D01*
X11844950Y47191112D01*
X11861645Y47159879D01*
X11871925Y47125991D01*
X11876000Y47084612D01*
X11876000Y46484388D01*
X11871925Y46443009D01*
X11861645Y46409121D01*
X11844950Y46377888D01*
X11822486Y46350514D01*
X11795112Y46328050D01*
X11763879Y46311355D01*
X11729991Y46301075D01*
X11688612Y46297000D01*
X10663388Y46297000D01*
X10622009Y46301075D01*
X10588121Y46311355D01*
X10556888Y46328050D01*
X10529514Y46350514D01*
X10507050Y46377888D01*
X10490355Y46409121D01*
X10480075Y46443009D01*
X10476000Y46484388D01*
X10476000Y47084612D01*
X10480075Y47125991D01*
X10490355Y47159879D01*
X10507050Y47191112D01*
X10529514Y47218486D01*
X10556888Y47240950D01*
X10588121Y47257645D01*
X10622009Y47267925D01*
X10663388Y47272000D01*
X11688612Y47272000D01*
X11729991Y47267925D01*
X11729991Y47267925D01*
G37*
G36*
X37695394Y48413451D02*
G01*
X37729282Y48403171D01*
X37760515Y48386476D01*
X37792655Y48360100D01*
X38517600Y47635155D01*
X38543976Y47603015D01*
X38560671Y47571782D01*
X38570951Y47537894D01*
X38574421Y47502653D01*
X38570951Y47467412D01*
X38560671Y47433524D01*
X38543976Y47402291D01*
X38517600Y47370151D01*
X38093175Y46945726D01*
X38061035Y46919350D01*
X38029802Y46902655D01*
X37995914Y46892375D01*
X37960673Y46888905D01*
X37925432Y46892375D01*
X37891544Y46902655D01*
X37860311Y46919350D01*
X37828171Y46945726D01*
X37103226Y47670671D01*
X37076850Y47702811D01*
X37060155Y47734044D01*
X37049875Y47767932D01*
X37046405Y47803173D01*
X37049875Y47838414D01*
X37060155Y47872302D01*
X37076850Y47903535D01*
X37103226Y47935675D01*
X37527651Y48360100D01*
X37559791Y48386476D01*
X37591024Y48403171D01*
X37624912Y48413451D01*
X37660153Y48416921D01*
X37695394Y48413451D01*
X37695394Y48413451D01*
G37*
G36*
X68425024Y50148045D02*
G01*
X68457738Y50138121D01*
X68487885Y50122007D01*
X68514315Y50100315D01*
X68536007Y50073885D01*
X68552121Y50043738D01*
X68562045Y50011024D01*
X68566000Y49970862D01*
X68566000Y49083138D01*
X68562045Y49042976D01*
X68552121Y49010262D01*
X68536007Y48980115D01*
X68514315Y48953685D01*
X68487885Y48931993D01*
X68457738Y48915879D01*
X68425024Y48905955D01*
X68384862Y48902000D01*
X66997138Y48902000D01*
X66956976Y48905955D01*
X66924262Y48915879D01*
X66894115Y48931993D01*
X66867685Y48953685D01*
X66845993Y48980115D01*
X66829879Y49010262D01*
X66819955Y49042976D01*
X66816000Y49083138D01*
X66816000Y49970862D01*
X66819955Y50011024D01*
X66829879Y50043738D01*
X66845993Y50073885D01*
X66867685Y50100315D01*
X66894115Y50122007D01*
X66924262Y50138121D01*
X66956976Y50148045D01*
X66997138Y50152000D01*
X68384862Y50152000D01*
X68425024Y50148045D01*
X68425024Y50148045D01*
G37*
G36*
X78077024Y50148045D02*
G01*
X78109738Y50138121D01*
X78139885Y50122007D01*
X78166315Y50100315D01*
X78188007Y50073885D01*
X78204121Y50043738D01*
X78214045Y50011024D01*
X78218000Y49970862D01*
X78218000Y49083138D01*
X78214045Y49042976D01*
X78204121Y49010262D01*
X78188007Y48980115D01*
X78166315Y48953685D01*
X78139885Y48931993D01*
X78109738Y48915879D01*
X78077024Y48905955D01*
X78036862Y48902000D01*
X76649138Y48902000D01*
X76608976Y48905955D01*
X76576262Y48915879D01*
X76546115Y48931993D01*
X76519685Y48953685D01*
X76497993Y48980115D01*
X76481879Y49010262D01*
X76471955Y49042976D01*
X76468000Y49083138D01*
X76468000Y49970862D01*
X76471955Y50011024D01*
X76481879Y50043738D01*
X76497993Y50073885D01*
X76519685Y50100315D01*
X76546115Y50122007D01*
X76576262Y50138121D01*
X76608976Y50148045D01*
X76649138Y50152000D01*
X78036862Y50152000D01*
X78077024Y50148045D01*
X78077024Y50148045D01*
G37*
G36*
X70838024Y50148045D02*
G01*
X70870738Y50138121D01*
X70900885Y50122007D01*
X70927315Y50100315D01*
X70949007Y50073885D01*
X70965121Y50043738D01*
X70975045Y50011024D01*
X70979000Y49970862D01*
X70979000Y49083138D01*
X70975045Y49042976D01*
X70965121Y49010262D01*
X70949007Y48980115D01*
X70927315Y48953685D01*
X70900885Y48931993D01*
X70870738Y48915879D01*
X70838024Y48905955D01*
X70797862Y48902000D01*
X69410138Y48902000D01*
X69369976Y48905955D01*
X69337262Y48915879D01*
X69307115Y48931993D01*
X69280685Y48953685D01*
X69258993Y48980115D01*
X69242879Y49010262D01*
X69232955Y49042976D01*
X69229000Y49083138D01*
X69229000Y49970862D01*
X69232955Y50011024D01*
X69242879Y50043738D01*
X69258993Y50073885D01*
X69280685Y50100315D01*
X69307115Y50122007D01*
X69337262Y50138121D01*
X69369976Y50148045D01*
X69410138Y50152000D01*
X70797862Y50152000D01*
X70838024Y50148045D01*
X70838024Y50148045D01*
G37*
G36*
X73251024Y50148045D02*
G01*
X73283738Y50138121D01*
X73313885Y50122007D01*
X73340315Y50100315D01*
X73362007Y50073885D01*
X73378121Y50043738D01*
X73388045Y50011024D01*
X73392000Y49970862D01*
X73392000Y49083138D01*
X73388045Y49042976D01*
X73378121Y49010262D01*
X73362007Y48980115D01*
X73340315Y48953685D01*
X73313885Y48931993D01*
X73283738Y48915879D01*
X73251024Y48905955D01*
X73210862Y48902000D01*
X71823138Y48902000D01*
X71782976Y48905955D01*
X71750262Y48915879D01*
X71720115Y48931993D01*
X71693685Y48953685D01*
X71671993Y48980115D01*
X71655879Y49010262D01*
X71645955Y49042976D01*
X71642000Y49083138D01*
X71642000Y49970862D01*
X71645955Y50011024D01*
X71655879Y50043738D01*
X71671993Y50073885D01*
X71693685Y50100315D01*
X71720115Y50122007D01*
X71750262Y50138121D01*
X71782976Y50148045D01*
X71823138Y50152000D01*
X73210862Y50152000D01*
X73251024Y50148045D01*
X73251024Y50148045D01*
G37*
G36*
X75664024Y50148045D02*
G01*
X75696738Y50138121D01*
X75726885Y50122007D01*
X75753315Y50100315D01*
X75775007Y50073885D01*
X75791121Y50043738D01*
X75801045Y50011024D01*
X75805000Y49970862D01*
X75805000Y49083138D01*
X75801045Y49042976D01*
X75791121Y49010262D01*
X75775007Y48980115D01*
X75753315Y48953685D01*
X75726885Y48931993D01*
X75696738Y48915879D01*
X75664024Y48905955D01*
X75623862Y48902000D01*
X74236138Y48902000D01*
X74195976Y48905955D01*
X74163262Y48915879D01*
X74133115Y48931993D01*
X74106685Y48953685D01*
X74084993Y48980115D01*
X74068879Y49010262D01*
X74058955Y49042976D01*
X74055000Y49083138D01*
X74055000Y49970862D01*
X74058955Y50011024D01*
X74068879Y50043738D01*
X74084993Y50073885D01*
X74106685Y50100315D01*
X74133115Y50122007D01*
X74163262Y50138121D01*
X74195976Y50148045D01*
X74236138Y50152000D01*
X75623862Y50152000D01*
X75664024Y50148045D01*
X75664024Y50148045D01*
G37*
G36*
X18965294Y51803504D02*
G01*
X19042396Y51780115D01*
X19128087Y51754121D01*
X19278107Y51673934D01*
X19278110Y51673932D01*
X19278111Y51673931D01*
X19409612Y51566012D01*
X19517531Y51434512D01*
X19517533Y51434508D01*
X19517534Y51434507D01*
X19597721Y51284487D01*
X19597722Y51284484D01*
X19647104Y51121695D01*
X19659600Y50994820D01*
X19659600Y50605181D01*
X19647104Y50478306D01*
X19610571Y50357872D01*
X19597721Y50315512D01*
X19517534Y50165493D01*
X19517531Y50165488D01*
X19409612Y50033988D01*
X19278112Y49926069D01*
X19278108Y49926067D01*
X19278107Y49926066D01*
X19128087Y49845879D01*
X19128084Y49845878D01*
X18965295Y49796496D01*
X18796000Y49779822D01*
X18626706Y49796496D01*
X18463917Y49845878D01*
X18463914Y49845879D01*
X18313894Y49926066D01*
X18313893Y49926067D01*
X18313889Y49926069D01*
X18182388Y50033988D01*
X18074469Y50165488D01*
X17994280Y50315512D01*
X17994279Y50315513D01*
X17946462Y50473143D01*
X17944896Y50478305D01*
X17932400Y50605180D01*
X17932400Y50994819D01*
X17944896Y51121694D01*
X17994278Y51284483D01*
X17994279Y51284487D01*
X18074466Y51434507D01*
X18074470Y51434512D01*
X18182388Y51566012D01*
X18313888Y51673931D01*
X18313892Y51673933D01*
X18313893Y51673934D01*
X18463913Y51754121D01*
X18463916Y51754122D01*
X18626705Y51803504D01*
X18796000Y51820178D01*
X18965294Y51803504D01*
X18965294Y51803504D01*
G37*
G36*
X21505294Y51803504D02*
G01*
X21582396Y51780115D01*
X21668087Y51754121D01*
X21818107Y51673934D01*
X21818110Y51673932D01*
X21818111Y51673931D01*
X21949612Y51566012D01*
X22057531Y51434512D01*
X22057533Y51434508D01*
X22057534Y51434507D01*
X22137721Y51284487D01*
X22137722Y51284484D01*
X22187104Y51121695D01*
X22199600Y50994820D01*
X22199600Y50605181D01*
X22187104Y50478306D01*
X22150571Y50357872D01*
X22137721Y50315512D01*
X22057534Y50165493D01*
X22057531Y50165488D01*
X21949612Y50033988D01*
X21818112Y49926069D01*
X21818108Y49926067D01*
X21818107Y49926066D01*
X21668087Y49845879D01*
X21668084Y49845878D01*
X21505295Y49796496D01*
X21336000Y49779822D01*
X21166706Y49796496D01*
X21003917Y49845878D01*
X21003914Y49845879D01*
X20853894Y49926066D01*
X20853893Y49926067D01*
X20853889Y49926069D01*
X20722388Y50033988D01*
X20614469Y50165488D01*
X20534280Y50315512D01*
X20534279Y50315513D01*
X20486462Y50473143D01*
X20484896Y50478305D01*
X20472400Y50605180D01*
X20472400Y50994819D01*
X20484896Y51121694D01*
X20534278Y51284483D01*
X20534279Y51284487D01*
X20614466Y51434507D01*
X20614470Y51434512D01*
X20722388Y51566012D01*
X20853888Y51673931D01*
X20853892Y51673933D01*
X20853893Y51673934D01*
X21003913Y51754121D01*
X21003916Y51754122D01*
X21166705Y51803504D01*
X21336000Y51820178D01*
X21505294Y51803504D01*
X21505294Y51803504D01*
G37*
G36*
X24045294Y51803504D02*
G01*
X24122396Y51780115D01*
X24208087Y51754121D01*
X24358107Y51673934D01*
X24358110Y51673932D01*
X24358111Y51673931D01*
X24489612Y51566012D01*
X24597531Y51434512D01*
X24597533Y51434508D01*
X24597534Y51434507D01*
X24677721Y51284487D01*
X24677722Y51284484D01*
X24727104Y51121695D01*
X24739600Y50994820D01*
X24739600Y50605181D01*
X24727104Y50478306D01*
X24690571Y50357872D01*
X24677721Y50315512D01*
X24597534Y50165493D01*
X24597531Y50165488D01*
X24489612Y50033988D01*
X24358112Y49926069D01*
X24358108Y49926067D01*
X24358107Y49926066D01*
X24208087Y49845879D01*
X24208084Y49845878D01*
X24045295Y49796496D01*
X23876000Y49779822D01*
X23706706Y49796496D01*
X23543917Y49845878D01*
X23543914Y49845879D01*
X23393894Y49926066D01*
X23393893Y49926067D01*
X23393889Y49926069D01*
X23262388Y50033988D01*
X23154469Y50165488D01*
X23074280Y50315512D01*
X23074279Y50315513D01*
X23026462Y50473143D01*
X23024896Y50478305D01*
X23012400Y50605180D01*
X23012400Y50994819D01*
X23024896Y51121694D01*
X23074278Y51284483D01*
X23074279Y51284487D01*
X23154466Y51434507D01*
X23154470Y51434512D01*
X23262388Y51566012D01*
X23393888Y51673931D01*
X23393892Y51673933D01*
X23393893Y51673934D01*
X23543913Y51754121D01*
X23543916Y51754122D01*
X23706705Y51803504D01*
X23876000Y51820178D01*
X24045294Y51803504D01*
X24045294Y51803504D01*
G37*
G36*
X26585294Y51803504D02*
G01*
X26662396Y51780115D01*
X26748087Y51754121D01*
X26898107Y51673934D01*
X26898110Y51673932D01*
X26898111Y51673931D01*
X27029612Y51566012D01*
X27137531Y51434512D01*
X27137533Y51434508D01*
X27137534Y51434507D01*
X27217721Y51284487D01*
X27217722Y51284484D01*
X27267104Y51121695D01*
X27279600Y50994820D01*
X27279600Y50605181D01*
X27267104Y50478306D01*
X27230571Y50357872D01*
X27217721Y50315512D01*
X27137534Y50165493D01*
X27137531Y50165488D01*
X27029612Y50033988D01*
X26898112Y49926069D01*
X26898108Y49926067D01*
X26898107Y49926066D01*
X26748087Y49845879D01*
X26748084Y49845878D01*
X26585295Y49796496D01*
X26416000Y49779822D01*
X26246706Y49796496D01*
X26083917Y49845878D01*
X26083914Y49845879D01*
X25933894Y49926066D01*
X25933893Y49926067D01*
X25933889Y49926069D01*
X25802388Y50033988D01*
X25694469Y50165488D01*
X25614280Y50315512D01*
X25614279Y50315513D01*
X25566462Y50473143D01*
X25564896Y50478305D01*
X25552400Y50605180D01*
X25552400Y50994819D01*
X25564896Y51121694D01*
X25614278Y51284483D01*
X25614279Y51284487D01*
X25694466Y51434507D01*
X25694470Y51434512D01*
X25802388Y51566012D01*
X25933888Y51673931D01*
X25933892Y51673933D01*
X25933893Y51673934D01*
X26083913Y51754121D01*
X26083916Y51754122D01*
X26246705Y51803504D01*
X26416000Y51820178D01*
X26585294Y51803504D01*
X26585294Y51803504D01*
G37*
G36*
X29125294Y51803504D02*
G01*
X29202396Y51780115D01*
X29288087Y51754121D01*
X29438107Y51673934D01*
X29438110Y51673932D01*
X29438111Y51673931D01*
X29569612Y51566012D01*
X29677531Y51434512D01*
X29677533Y51434508D01*
X29677534Y51434507D01*
X29757721Y51284487D01*
X29757722Y51284484D01*
X29807104Y51121695D01*
X29819600Y50994820D01*
X29819600Y50605181D01*
X29807104Y50478306D01*
X29770571Y50357872D01*
X29757721Y50315512D01*
X29677534Y50165493D01*
X29677531Y50165488D01*
X29569612Y50033988D01*
X29438112Y49926069D01*
X29438108Y49926067D01*
X29438107Y49926066D01*
X29288087Y49845879D01*
X29288084Y49845878D01*
X29125295Y49796496D01*
X28956000Y49779822D01*
X28786706Y49796496D01*
X28623917Y49845878D01*
X28623914Y49845879D01*
X28473894Y49926066D01*
X28473893Y49926067D01*
X28473889Y49926069D01*
X28342388Y50033988D01*
X28234469Y50165488D01*
X28154280Y50315512D01*
X28154279Y50315513D01*
X28106462Y50473143D01*
X28104896Y50478305D01*
X28092400Y50605180D01*
X28092400Y50994819D01*
X28104896Y51121694D01*
X28154278Y51284483D01*
X28154279Y51284487D01*
X28234466Y51434507D01*
X28234470Y51434512D01*
X28342388Y51566012D01*
X28473888Y51673931D01*
X28473892Y51673933D01*
X28473893Y51673934D01*
X28623913Y51754121D01*
X28623916Y51754122D01*
X28786705Y51803504D01*
X28956000Y51820178D01*
X29125294Y51803504D01*
X29125294Y51803504D01*
G37*
G36*
X31665294Y51803504D02*
G01*
X31742396Y51780115D01*
X31828087Y51754121D01*
X31978107Y51673934D01*
X31978110Y51673932D01*
X31978111Y51673931D01*
X32109612Y51566012D01*
X32217531Y51434512D01*
X32217533Y51434508D01*
X32217534Y51434507D01*
X32297721Y51284487D01*
X32297722Y51284484D01*
X32347104Y51121695D01*
X32359600Y50994820D01*
X32359600Y50605181D01*
X32347104Y50478306D01*
X32310571Y50357872D01*
X32297721Y50315512D01*
X32217534Y50165493D01*
X32217531Y50165488D01*
X32109612Y50033988D01*
X31978112Y49926069D01*
X31978108Y49926067D01*
X31978107Y49926066D01*
X31828087Y49845879D01*
X31828084Y49845878D01*
X31665295Y49796496D01*
X31496000Y49779822D01*
X31326706Y49796496D01*
X31163917Y49845878D01*
X31163914Y49845879D01*
X31013894Y49926066D01*
X31013893Y49926067D01*
X31013889Y49926069D01*
X30882388Y50033988D01*
X30774469Y50165488D01*
X30694280Y50315512D01*
X30694279Y50315513D01*
X30646462Y50473143D01*
X30644896Y50478305D01*
X30632400Y50605180D01*
X30632400Y50994819D01*
X30644896Y51121694D01*
X30694278Y51284483D01*
X30694279Y51284487D01*
X30774466Y51434507D01*
X30774470Y51434512D01*
X30882388Y51566012D01*
X31013888Y51673931D01*
X31013892Y51673933D01*
X31013893Y51673934D01*
X31163913Y51754121D01*
X31163916Y51754122D01*
X31326705Y51803504D01*
X31496000Y51820178D01*
X31665294Y51803504D01*
X31665294Y51803504D01*
G37*
G36*
X41825294Y51803504D02*
G01*
X41902396Y51780115D01*
X41988087Y51754121D01*
X42138107Y51673934D01*
X42138110Y51673932D01*
X42138111Y51673931D01*
X42269612Y51566012D01*
X42377531Y51434512D01*
X42377533Y51434508D01*
X42377534Y51434507D01*
X42457721Y51284487D01*
X42457722Y51284484D01*
X42507104Y51121695D01*
X42519600Y50994820D01*
X42519600Y50605181D01*
X42507104Y50478306D01*
X42470571Y50357872D01*
X42457721Y50315512D01*
X42377534Y50165493D01*
X42377531Y50165488D01*
X42269612Y50033988D01*
X42138112Y49926069D01*
X42138108Y49926067D01*
X42138107Y49926066D01*
X41988087Y49845879D01*
X41988084Y49845878D01*
X41825295Y49796496D01*
X41656000Y49779822D01*
X41486706Y49796496D01*
X41323917Y49845878D01*
X41323914Y49845879D01*
X41173894Y49926066D01*
X41173893Y49926067D01*
X41173889Y49926069D01*
X41042388Y50033988D01*
X40934469Y50165488D01*
X40854280Y50315512D01*
X40854279Y50315513D01*
X40806462Y50473143D01*
X40804896Y50478305D01*
X40792400Y50605180D01*
X40792400Y50994819D01*
X40804896Y51121694D01*
X40854278Y51284483D01*
X40854279Y51284487D01*
X40934466Y51434507D01*
X40934470Y51434512D01*
X41042388Y51566012D01*
X41173888Y51673931D01*
X41173892Y51673933D01*
X41173893Y51673934D01*
X41323913Y51754121D01*
X41323916Y51754122D01*
X41486705Y51803504D01*
X41656000Y51820178D01*
X41825294Y51803504D01*
X41825294Y51803504D01*
G37*
G36*
X36745294Y51803504D02*
G01*
X36822396Y51780115D01*
X36908087Y51754121D01*
X37058107Y51673934D01*
X37058110Y51673932D01*
X37058111Y51673931D01*
X37189612Y51566012D01*
X37297531Y51434512D01*
X37297533Y51434508D01*
X37297534Y51434507D01*
X37377721Y51284487D01*
X37377722Y51284484D01*
X37427104Y51121695D01*
X37439600Y50994820D01*
X37439600Y50605181D01*
X37427104Y50478306D01*
X37390571Y50357872D01*
X37377721Y50315512D01*
X37297534Y50165493D01*
X37297531Y50165488D01*
X37189612Y50033988D01*
X37058112Y49926069D01*
X37058108Y49926067D01*
X37058107Y49926066D01*
X36908087Y49845879D01*
X36908084Y49845878D01*
X36745295Y49796496D01*
X36576000Y49779822D01*
X36406706Y49796496D01*
X36243917Y49845878D01*
X36243914Y49845879D01*
X36093894Y49926066D01*
X36093893Y49926067D01*
X36093889Y49926069D01*
X35962388Y50033988D01*
X35854469Y50165488D01*
X35774280Y50315512D01*
X35774279Y50315513D01*
X35726462Y50473143D01*
X35724896Y50478305D01*
X35712400Y50605180D01*
X35712400Y50994819D01*
X35724896Y51121694D01*
X35774278Y51284483D01*
X35774279Y51284487D01*
X35854466Y51434507D01*
X35854470Y51434512D01*
X35962388Y51566012D01*
X36093888Y51673931D01*
X36093892Y51673933D01*
X36093893Y51673934D01*
X36243913Y51754121D01*
X36243916Y51754122D01*
X36406705Y51803504D01*
X36576000Y51820178D01*
X36745294Y51803504D01*
X36745294Y51803504D01*
G37*
G36*
X39285294Y51803504D02*
G01*
X39362396Y51780115D01*
X39448087Y51754121D01*
X39598107Y51673934D01*
X39598110Y51673932D01*
X39598111Y51673931D01*
X39729612Y51566012D01*
X39837531Y51434512D01*
X39837533Y51434508D01*
X39837534Y51434507D01*
X39917721Y51284487D01*
X39917722Y51284484D01*
X39967104Y51121695D01*
X39979600Y50994820D01*
X39979600Y50605181D01*
X39967104Y50478306D01*
X39930571Y50357872D01*
X39917721Y50315512D01*
X39837534Y50165493D01*
X39837531Y50165488D01*
X39729612Y50033988D01*
X39598112Y49926069D01*
X39598108Y49926067D01*
X39598107Y49926066D01*
X39448087Y49845879D01*
X39448084Y49845878D01*
X39285295Y49796496D01*
X39116000Y49779822D01*
X38946706Y49796496D01*
X38783917Y49845878D01*
X38783914Y49845879D01*
X38633894Y49926066D01*
X38633893Y49926067D01*
X38633889Y49926069D01*
X38502388Y50033988D01*
X38394469Y50165488D01*
X38314280Y50315512D01*
X38314279Y50315513D01*
X38266462Y50473143D01*
X38264896Y50478305D01*
X38252400Y50605180D01*
X38252400Y50994819D01*
X38264896Y51121694D01*
X38314278Y51284483D01*
X38314279Y51284487D01*
X38394466Y51434507D01*
X38394470Y51434512D01*
X38502388Y51566012D01*
X38633888Y51673931D01*
X38633892Y51673933D01*
X38633893Y51673934D01*
X38783913Y51754121D01*
X38783916Y51754122D01*
X38946705Y51803504D01*
X39116000Y51820178D01*
X39285294Y51803504D01*
X39285294Y51803504D01*
G37*
G36*
X34205294Y51803504D02*
G01*
X34282396Y51780115D01*
X34368087Y51754121D01*
X34518107Y51673934D01*
X34518110Y51673932D01*
X34518111Y51673931D01*
X34649612Y51566012D01*
X34757531Y51434512D01*
X34757533Y51434508D01*
X34757534Y51434507D01*
X34837721Y51284487D01*
X34837722Y51284484D01*
X34887104Y51121695D01*
X34899600Y50994820D01*
X34899600Y50605181D01*
X34887104Y50478306D01*
X34850571Y50357872D01*
X34837721Y50315512D01*
X34757534Y50165493D01*
X34757531Y50165488D01*
X34649612Y50033988D01*
X34518112Y49926069D01*
X34518108Y49926067D01*
X34518107Y49926066D01*
X34368087Y49845879D01*
X34368084Y49845878D01*
X34205295Y49796496D01*
X34036000Y49779822D01*
X33866706Y49796496D01*
X33703917Y49845878D01*
X33703914Y49845879D01*
X33553894Y49926066D01*
X33553893Y49926067D01*
X33553889Y49926069D01*
X33422388Y50033988D01*
X33314469Y50165488D01*
X33234280Y50315512D01*
X33234279Y50315513D01*
X33186462Y50473143D01*
X33184896Y50478305D01*
X33172400Y50605180D01*
X33172400Y50994819D01*
X33184896Y51121694D01*
X33234278Y51284483D01*
X33234279Y51284487D01*
X33314466Y51434507D01*
X33314470Y51434512D01*
X33422388Y51566012D01*
X33553888Y51673931D01*
X33553892Y51673933D01*
X33553893Y51673934D01*
X33703913Y51754121D01*
X33703916Y51754122D01*
X33866705Y51803504D01*
X34036000Y51820178D01*
X34205294Y51803504D01*
X34205294Y51803504D01*
G37*
G36*
X45886627Y51637701D02*
G01*
X45966742Y51613398D01*
X46046855Y51589097D01*
X46046857Y51589096D01*
X46194518Y51510169D01*
X46323949Y51403949D01*
X46421990Y51284484D01*
X46430168Y51274519D01*
X46509097Y51126855D01*
X46510663Y51121692D01*
X46557701Y50966627D01*
X46574112Y50800000D01*
X46557701Y50633373D01*
X46557700Y50633371D01*
X46510663Y50478306D01*
X46509096Y50473143D01*
X46430169Y50325482D01*
X46323949Y50196051D01*
X46194518Y50089831D01*
X46046857Y50010904D01*
X46046855Y50010903D01*
X45966742Y49986602D01*
X45886627Y49962299D01*
X45761752Y49950000D01*
X45678248Y49950000D01*
X45553373Y49962299D01*
X45473258Y49986602D01*
X45393145Y50010903D01*
X45393143Y50010904D01*
X45245482Y50089831D01*
X45116051Y50196051D01*
X45009831Y50325482D01*
X44930904Y50473143D01*
X44929338Y50478306D01*
X44882300Y50633371D01*
X44882299Y50633373D01*
X44865888Y50800000D01*
X44882299Y50966627D01*
X44929337Y51121692D01*
X44930903Y51126855D01*
X45009832Y51274519D01*
X45018010Y51284484D01*
X45116051Y51403949D01*
X45245482Y51510169D01*
X45393143Y51589096D01*
X45393145Y51589097D01*
X45473258Y51613398D01*
X45553373Y51637701D01*
X45678248Y51650000D01*
X45761752Y51650000D01*
X45886627Y51637701D01*
X45886627Y51637701D01*
G37*
G36*
X64350000Y49950000D02*
G01*
X62650000Y49950000D01*
X62650000Y51650000D01*
X64350000Y51650000D01*
X64350000Y49950000D01*
X64350000Y49950000D01*
G37*
G36*
X61126627Y51637701D02*
G01*
X61206742Y51613398D01*
X61286855Y51589097D01*
X61286857Y51589096D01*
X61434518Y51510169D01*
X61563949Y51403949D01*
X61661990Y51284484D01*
X61670168Y51274519D01*
X61749097Y51126855D01*
X61750663Y51121692D01*
X61797701Y50966627D01*
X61814112Y50800000D01*
X61797701Y50633373D01*
X61797700Y50633371D01*
X61750663Y50478306D01*
X61749096Y50473143D01*
X61670169Y50325482D01*
X61563949Y50196051D01*
X61434518Y50089831D01*
X61286857Y50010904D01*
X61286855Y50010903D01*
X61206742Y49986602D01*
X61126627Y49962299D01*
X61001752Y49950000D01*
X60918248Y49950000D01*
X60793373Y49962299D01*
X60713258Y49986602D01*
X60633145Y50010903D01*
X60633143Y50010904D01*
X60485482Y50089831D01*
X60356051Y50196051D01*
X60249831Y50325482D01*
X60170904Y50473143D01*
X60169338Y50478306D01*
X60122300Y50633371D01*
X60122299Y50633373D01*
X60105888Y50800000D01*
X60122299Y50966627D01*
X60169337Y51121692D01*
X60170903Y51126855D01*
X60249832Y51274519D01*
X60258010Y51284484D01*
X60356051Y51403949D01*
X60485482Y51510169D01*
X60633143Y51589096D01*
X60633145Y51589097D01*
X60713258Y51613398D01*
X60793373Y51637701D01*
X60918248Y51650000D01*
X61001752Y51650000D01*
X61126627Y51637701D01*
X61126627Y51637701D01*
G37*
G36*
X58586627Y51637701D02*
G01*
X58666742Y51613398D01*
X58746855Y51589097D01*
X58746857Y51589096D01*
X58894518Y51510169D01*
X59023949Y51403949D01*
X59121990Y51284484D01*
X59130168Y51274519D01*
X59209097Y51126855D01*
X59210663Y51121692D01*
X59257701Y50966627D01*
X59274112Y50800000D01*
X59257701Y50633373D01*
X59257700Y50633371D01*
X59210663Y50478306D01*
X59209096Y50473143D01*
X59130169Y50325482D01*
X59023949Y50196051D01*
X58894518Y50089831D01*
X58746857Y50010904D01*
X58746855Y50010903D01*
X58666742Y49986602D01*
X58586627Y49962299D01*
X58461752Y49950000D01*
X58378248Y49950000D01*
X58253373Y49962299D01*
X58173258Y49986602D01*
X58093145Y50010903D01*
X58093143Y50010904D01*
X57945482Y50089831D01*
X57816051Y50196051D01*
X57709831Y50325482D01*
X57630904Y50473143D01*
X57629338Y50478306D01*
X57582300Y50633371D01*
X57582299Y50633373D01*
X57565888Y50800000D01*
X57582299Y50966627D01*
X57629337Y51121692D01*
X57630903Y51126855D01*
X57709832Y51274519D01*
X57718010Y51284484D01*
X57816051Y51403949D01*
X57945482Y51510169D01*
X58093143Y51589096D01*
X58093145Y51589097D01*
X58173258Y51613398D01*
X58253373Y51637701D01*
X58378248Y51650000D01*
X58461752Y51650000D01*
X58586627Y51637701D01*
X58586627Y51637701D01*
G37*
G36*
X56046627Y51637701D02*
G01*
X56126742Y51613398D01*
X56206855Y51589097D01*
X56206857Y51589096D01*
X56354518Y51510169D01*
X56483949Y51403949D01*
X56581990Y51284484D01*
X56590168Y51274519D01*
X56669097Y51126855D01*
X56670663Y51121692D01*
X56717701Y50966627D01*
X56734112Y50800000D01*
X56717701Y50633373D01*
X56717700Y50633371D01*
X56670663Y50478306D01*
X56669096Y50473143D01*
X56590169Y50325482D01*
X56483949Y50196051D01*
X56354518Y50089831D01*
X56206857Y50010904D01*
X56206855Y50010903D01*
X56126742Y49986602D01*
X56046627Y49962299D01*
X55921752Y49950000D01*
X55838248Y49950000D01*
X55713373Y49962299D01*
X55633258Y49986602D01*
X55553145Y50010903D01*
X55553143Y50010904D01*
X55405482Y50089831D01*
X55276051Y50196051D01*
X55169831Y50325482D01*
X55090904Y50473143D01*
X55089338Y50478306D01*
X55042300Y50633371D01*
X55042299Y50633373D01*
X55025888Y50800000D01*
X55042299Y50966627D01*
X55089337Y51121692D01*
X55090903Y51126855D01*
X55169832Y51274519D01*
X55178010Y51284484D01*
X55276051Y51403949D01*
X55405482Y51510169D01*
X55553143Y51589096D01*
X55553145Y51589097D01*
X55633258Y51613398D01*
X55713373Y51637701D01*
X55838248Y51650000D01*
X55921752Y51650000D01*
X56046627Y51637701D01*
X56046627Y51637701D01*
G37*
G36*
X53506627Y51637701D02*
G01*
X53586742Y51613398D01*
X53666855Y51589097D01*
X53666857Y51589096D01*
X53814518Y51510169D01*
X53943949Y51403949D01*
X54041990Y51284484D01*
X54050168Y51274519D01*
X54129097Y51126855D01*
X54130663Y51121692D01*
X54177701Y50966627D01*
X54194112Y50800000D01*
X54177701Y50633373D01*
X54177700Y50633371D01*
X54130663Y50478306D01*
X54129096Y50473143D01*
X54050169Y50325482D01*
X53943949Y50196051D01*
X53814518Y50089831D01*
X53666857Y50010904D01*
X53666855Y50010903D01*
X53586742Y49986602D01*
X53506627Y49962299D01*
X53381752Y49950000D01*
X53298248Y49950000D01*
X53173373Y49962299D01*
X53093258Y49986602D01*
X53013145Y50010903D01*
X53013143Y50010904D01*
X52865482Y50089831D01*
X52736051Y50196051D01*
X52629831Y50325482D01*
X52550904Y50473143D01*
X52549338Y50478306D01*
X52502300Y50633371D01*
X52502299Y50633373D01*
X52485888Y50800000D01*
X52502299Y50966627D01*
X52549337Y51121692D01*
X52550903Y51126855D01*
X52629832Y51274519D01*
X52638010Y51284484D01*
X52736051Y51403949D01*
X52865482Y51510169D01*
X53013143Y51589096D01*
X53013145Y51589097D01*
X53093258Y51613398D01*
X53173373Y51637701D01*
X53298248Y51650000D01*
X53381752Y51650000D01*
X53506627Y51637701D01*
X53506627Y51637701D01*
G37*
G36*
X50966627Y51637701D02*
G01*
X51046742Y51613398D01*
X51126855Y51589097D01*
X51126857Y51589096D01*
X51274518Y51510169D01*
X51403949Y51403949D01*
X51501990Y51284484D01*
X51510168Y51274519D01*
X51589097Y51126855D01*
X51590663Y51121692D01*
X51637701Y50966627D01*
X51654112Y50800000D01*
X51637701Y50633373D01*
X51637700Y50633371D01*
X51590663Y50478306D01*
X51589096Y50473143D01*
X51510169Y50325482D01*
X51403949Y50196051D01*
X51274518Y50089831D01*
X51126857Y50010904D01*
X51126855Y50010903D01*
X51046742Y49986602D01*
X50966627Y49962299D01*
X50841752Y49950000D01*
X50758248Y49950000D01*
X50633373Y49962299D01*
X50553258Y49986602D01*
X50473145Y50010903D01*
X50473143Y50010904D01*
X50325482Y50089831D01*
X50196051Y50196051D01*
X50089831Y50325482D01*
X50010904Y50473143D01*
X50009338Y50478306D01*
X49962300Y50633371D01*
X49962299Y50633373D01*
X49945888Y50800000D01*
X49962299Y50966627D01*
X50009337Y51121692D01*
X50010903Y51126855D01*
X50089832Y51274519D01*
X50098010Y51284484D01*
X50196051Y51403949D01*
X50325482Y51510169D01*
X50473143Y51589096D01*
X50473145Y51589097D01*
X50553258Y51613398D01*
X50633373Y51637701D01*
X50758248Y51650000D01*
X50841752Y51650000D01*
X50966627Y51637701D01*
X50966627Y51637701D01*
G37*
G36*
X48426627Y51637701D02*
G01*
X48506742Y51613398D01*
X48586855Y51589097D01*
X48586857Y51589096D01*
X48734518Y51510169D01*
X48863949Y51403949D01*
X48961990Y51284484D01*
X48970168Y51274519D01*
X49049097Y51126855D01*
X49050663Y51121692D01*
X49097701Y50966627D01*
X49114112Y50800000D01*
X49097701Y50633373D01*
X49097700Y50633371D01*
X49050663Y50478306D01*
X49049096Y50473143D01*
X48970169Y50325482D01*
X48863949Y50196051D01*
X48734518Y50089831D01*
X48586857Y50010904D01*
X48586855Y50010903D01*
X48506742Y49986602D01*
X48426627Y49962299D01*
X48301752Y49950000D01*
X48218248Y49950000D01*
X48093373Y49962299D01*
X48013258Y49986602D01*
X47933145Y50010903D01*
X47933143Y50010904D01*
X47785482Y50089831D01*
X47656051Y50196051D01*
X47549831Y50325482D01*
X47470904Y50473143D01*
X47469338Y50478306D01*
X47422300Y50633371D01*
X47422299Y50633373D01*
X47405888Y50800000D01*
X47422299Y50966627D01*
X47469337Y51121692D01*
X47470903Y51126855D01*
X47549832Y51274519D01*
X47558010Y51284484D01*
X47656051Y51403949D01*
X47785482Y51510169D01*
X47933143Y51589096D01*
X47933145Y51589097D01*
X48013258Y51613398D01*
X48093373Y51637701D01*
X48218248Y51650000D01*
X48301752Y51650000D01*
X48426627Y51637701D01*
X48426627Y51637701D01*
G37*
G36*
X70838024Y52948045D02*
G01*
X70870738Y52938121D01*
X70900885Y52922007D01*
X70927315Y52900315D01*
X70949007Y52873885D01*
X70965121Y52843738D01*
X70975045Y52811024D01*
X70979000Y52770862D01*
X70979000Y51883138D01*
X70975045Y51842976D01*
X70965121Y51810262D01*
X70949007Y51780115D01*
X70927315Y51753685D01*
X70900885Y51731993D01*
X70870738Y51715879D01*
X70838024Y51705955D01*
X70797862Y51702000D01*
X69410138Y51702000D01*
X69369976Y51705955D01*
X69337262Y51715879D01*
X69307115Y51731993D01*
X69280685Y51753685D01*
X69258993Y51780115D01*
X69242879Y51810262D01*
X69232955Y51842976D01*
X69229000Y51883138D01*
X69229000Y52770862D01*
X69232955Y52811024D01*
X69242879Y52843738D01*
X69258993Y52873885D01*
X69280685Y52900315D01*
X69307115Y52922007D01*
X69337262Y52938121D01*
X69369976Y52948045D01*
X69410138Y52952000D01*
X70797862Y52952000D01*
X70838024Y52948045D01*
X70838024Y52948045D01*
G37*
G36*
X68425024Y52948045D02*
G01*
X68457738Y52938121D01*
X68487885Y52922007D01*
X68514315Y52900315D01*
X68536007Y52873885D01*
X68552121Y52843738D01*
X68562045Y52811024D01*
X68566000Y52770862D01*
X68566000Y51883138D01*
X68562045Y51842976D01*
X68552121Y51810262D01*
X68536007Y51780115D01*
X68514315Y51753685D01*
X68487885Y51731993D01*
X68457738Y51715879D01*
X68425024Y51705955D01*
X68384862Y51702000D01*
X66997138Y51702000D01*
X66956976Y51705955D01*
X66924262Y51715879D01*
X66894115Y51731993D01*
X66867685Y51753685D01*
X66845993Y51780115D01*
X66829879Y51810262D01*
X66819955Y51842976D01*
X66816000Y51883138D01*
X66816000Y52770862D01*
X66819955Y52811024D01*
X66829879Y52843738D01*
X66845993Y52873885D01*
X66867685Y52900315D01*
X66894115Y52922007D01*
X66924262Y52938121D01*
X66956976Y52948045D01*
X66997138Y52952000D01*
X68384862Y52952000D01*
X68425024Y52948045D01*
X68425024Y52948045D01*
G37*
G36*
X73251024Y52948045D02*
G01*
X73283738Y52938121D01*
X73313885Y52922007D01*
X73340315Y52900315D01*
X73362007Y52873885D01*
X73378121Y52843738D01*
X73388045Y52811024D01*
X73392000Y52770862D01*
X73392000Y51883138D01*
X73388045Y51842976D01*
X73378121Y51810262D01*
X73362007Y51780115D01*
X73340315Y51753685D01*
X73313885Y51731993D01*
X73283738Y51715879D01*
X73251024Y51705955D01*
X73210862Y51702000D01*
X71823138Y51702000D01*
X71782976Y51705955D01*
X71750262Y51715879D01*
X71720115Y51731993D01*
X71693685Y51753685D01*
X71671993Y51780115D01*
X71655879Y51810262D01*
X71645955Y51842976D01*
X71642000Y51883138D01*
X71642000Y52770862D01*
X71645955Y52811024D01*
X71655879Y52843738D01*
X71671993Y52873885D01*
X71693685Y52900315D01*
X71720115Y52922007D01*
X71750262Y52938121D01*
X71782976Y52948045D01*
X71823138Y52952000D01*
X73210862Y52952000D01*
X73251024Y52948045D01*
X73251024Y52948045D01*
G37*
G36*
X75664024Y52948045D02*
G01*
X75696738Y52938121D01*
X75726885Y52922007D01*
X75753315Y52900315D01*
X75775007Y52873885D01*
X75791121Y52843738D01*
X75801045Y52811024D01*
X75805000Y52770862D01*
X75805000Y51883138D01*
X75801045Y51842976D01*
X75791121Y51810262D01*
X75775007Y51780115D01*
X75753315Y51753685D01*
X75726885Y51731993D01*
X75696738Y51715879D01*
X75664024Y51705955D01*
X75623862Y51702000D01*
X74236138Y51702000D01*
X74195976Y51705955D01*
X74163262Y51715879D01*
X74133115Y51731993D01*
X74106685Y51753685D01*
X74084993Y51780115D01*
X74068879Y51810262D01*
X74058955Y51842976D01*
X74055000Y51883138D01*
X74055000Y52770862D01*
X74058955Y52811024D01*
X74068879Y52843738D01*
X74084993Y52873885D01*
X74106685Y52900315D01*
X74133115Y52922007D01*
X74163262Y52938121D01*
X74195976Y52948045D01*
X74236138Y52952000D01*
X75623862Y52952000D01*
X75664024Y52948045D01*
X75664024Y52948045D01*
G37*
G36*
X78077024Y52948045D02*
G01*
X78109738Y52938121D01*
X78139885Y52922007D01*
X78166315Y52900315D01*
X78188007Y52873885D01*
X78204121Y52843738D01*
X78214045Y52811024D01*
X78218000Y52770862D01*
X78218000Y51883138D01*
X78214045Y51842976D01*
X78204121Y51810262D01*
X78188007Y51780115D01*
X78166315Y51753685D01*
X78139885Y51731993D01*
X78109738Y51715879D01*
X78077024Y51705955D01*
X78036862Y51702000D01*
X76649138Y51702000D01*
X76608976Y51705955D01*
X76576262Y51715879D01*
X76546115Y51731993D01*
X76519685Y51753685D01*
X76497993Y51780115D01*
X76481879Y51810262D01*
X76471955Y51842976D01*
X76468000Y51883138D01*
X76468000Y52770862D01*
X76471955Y52811024D01*
X76481879Y52843738D01*
X76497993Y52873885D01*
X76519685Y52900315D01*
X76546115Y52922007D01*
X76576262Y52938121D01*
X76608976Y52948045D01*
X76649138Y52952000D01*
X78036862Y52952000D01*
X78077024Y52948045D01*
X78077024Y52948045D01*
G37*
M02*
