%TF.GenerationSoftware,KiCad,Pcbnew,(5.1.2-1)-1*%
%TF.CreationDate,2019-08-21T19:10:38+02:00*%
%TF.ProjectId,Kiel_50,4b69656c-5f35-4302-9e6b-696361645f70,rev?*%
%TF.SameCoordinates,PX69db1f0PY7882d48*%
%TF.FileFunction,Soldermask,Top*%
%TF.FilePolarity,Negative*%
%FSLAX46Y46*%
G04 Gerber Fmt 4.6, Leading zero omitted, Abs format (unit mm)*
G04 Created by KiCad (PCBNEW (5.1.2-1)-1) date 2019-08-21 19:10:38*
%MOMM*%
%LPD*%
G04 APERTURE LIST*
%ADD10C,0.100000*%
%ADD11C,0.150000*%
G04 APERTURE END LIST*
D10*
G36*
X60452000Y7493000D02*
G01*
X65532000Y7493000D01*
X65532000Y8255000D01*
X73660000Y8255000D01*
X73660000Y6223000D01*
X46990000Y6223000D01*
X46990000Y8255000D01*
X60452000Y8255000D01*
X60452000Y7493000D01*
G37*
X60452000Y7493000D02*
X65532000Y7493000D01*
X65532000Y8255000D01*
X73660000Y8255000D01*
X73660000Y6223000D01*
X46990000Y6223000D01*
X46990000Y8255000D01*
X60452000Y8255000D01*
X60452000Y7493000D01*
G36*
X60452000Y18161000D02*
G01*
X65532000Y18161000D01*
X65532000Y18923000D01*
X73660000Y18923000D01*
X73660000Y16891000D01*
X46990000Y16891000D01*
X46990000Y18923000D01*
X60452000Y18923000D01*
X60452000Y18161000D01*
G37*
X60452000Y18161000D02*
X65532000Y18161000D01*
X65532000Y18923000D01*
X73660000Y18923000D01*
X73660000Y16891000D01*
X46990000Y16891000D01*
X46990000Y18923000D01*
X60452000Y18923000D01*
X60452000Y18161000D01*
G36*
X60452000Y28829000D02*
G01*
X65532000Y28829000D01*
X65532000Y29591000D01*
X73660000Y29591000D01*
X73660000Y27559000D01*
X46990000Y27559000D01*
X46990000Y29591000D01*
X60452000Y29591000D01*
X60452000Y28829000D01*
G37*
X60452000Y28829000D02*
X65532000Y28829000D01*
X65532000Y29591000D01*
X73660000Y29591000D01*
X73660000Y27559000D01*
X46990000Y27559000D01*
X46990000Y29591000D01*
X60452000Y29591000D01*
X60452000Y28829000D01*
G36*
X35052000Y31623000D02*
G01*
X35179000Y31496000D01*
X35179000Y18288000D01*
X19558000Y18288000D01*
X19558000Y32766000D01*
X33782000Y32766000D01*
X35052000Y31623000D01*
G37*
X35052000Y31623000D02*
X35179000Y31496000D01*
X35179000Y18288000D01*
X19558000Y18288000D01*
X19558000Y32766000D01*
X33782000Y32766000D01*
X35052000Y31623000D01*
D11*
X68580000Y5080000D02*
X78740000Y5080000D01*
X83820000Y9906000D02*
X78740000Y5080000D01*
X78994000Y53340000D02*
X78740000Y53340000D01*
X83820000Y48260000D02*
X78994000Y53340000D01*
X83820000Y9906000D02*
X83820000Y48260000D01*
X64516000Y53340000D02*
X78994000Y53340000D01*
X64516000Y53340000D02*
X0Y53340000D01*
X66040000Y2540000D02*
X68580000Y5080000D01*
X66040000Y0D02*
X66040000Y2540000D01*
X0Y0D02*
X66040000Y0D01*
X0Y53340000D02*
X0Y0D01*
D10*
G36*
X28109294Y3543504D02*
G01*
X28229726Y3506971D01*
X28272087Y3494121D01*
X28422107Y3413934D01*
X28422110Y3413932D01*
X28422111Y3413931D01*
X28553612Y3306012D01*
X28661531Y3174512D01*
X28661533Y3174508D01*
X28661534Y3174507D01*
X28741721Y3024487D01*
X28741722Y3024484D01*
X28791104Y2861695D01*
X28803600Y2734820D01*
X28803600Y2345181D01*
X28791104Y2218306D01*
X28754571Y2097872D01*
X28741721Y2055512D01*
X28661534Y1905493D01*
X28661531Y1905488D01*
X28553612Y1773988D01*
X28422112Y1666069D01*
X28422108Y1666067D01*
X28422107Y1666066D01*
X28272087Y1585879D01*
X28272084Y1585878D01*
X28109295Y1536496D01*
X27940000Y1519822D01*
X27770706Y1536496D01*
X27607917Y1585878D01*
X27607914Y1585879D01*
X27457894Y1666066D01*
X27457893Y1666067D01*
X27457889Y1666069D01*
X27326388Y1773988D01*
X27218469Y1905488D01*
X27138280Y2055512D01*
X27138279Y2055513D01*
X27138278Y2055516D01*
X27088896Y2218305D01*
X27076400Y2345180D01*
X27076400Y2734819D01*
X27088896Y2861694D01*
X27138278Y3024483D01*
X27138279Y3024487D01*
X27218466Y3174507D01*
X27218470Y3174512D01*
X27326388Y3306012D01*
X27457888Y3413931D01*
X27457892Y3413933D01*
X27457893Y3413934D01*
X27607913Y3494121D01*
X27607916Y3494122D01*
X27770705Y3543504D01*
X27940000Y3560178D01*
X28109294Y3543504D01*
X28109294Y3543504D01*
G37*
G36*
X30649294Y3543504D02*
G01*
X30769726Y3506971D01*
X30812087Y3494121D01*
X30962107Y3413934D01*
X30962110Y3413932D01*
X30962111Y3413931D01*
X31093612Y3306012D01*
X31201531Y3174512D01*
X31201533Y3174508D01*
X31201534Y3174507D01*
X31281721Y3024487D01*
X31281722Y3024484D01*
X31331104Y2861695D01*
X31343600Y2734820D01*
X31343600Y2345181D01*
X31331104Y2218306D01*
X31294571Y2097872D01*
X31281721Y2055512D01*
X31201534Y1905493D01*
X31201531Y1905488D01*
X31093612Y1773988D01*
X30962112Y1666069D01*
X30962108Y1666067D01*
X30962107Y1666066D01*
X30812087Y1585879D01*
X30812084Y1585878D01*
X30649295Y1536496D01*
X30480000Y1519822D01*
X30310706Y1536496D01*
X30147917Y1585878D01*
X30147914Y1585879D01*
X29997894Y1666066D01*
X29997893Y1666067D01*
X29997889Y1666069D01*
X29866388Y1773988D01*
X29758469Y1905488D01*
X29678280Y2055512D01*
X29678279Y2055513D01*
X29678278Y2055516D01*
X29628896Y2218305D01*
X29616400Y2345180D01*
X29616400Y2734819D01*
X29628896Y2861694D01*
X29678278Y3024483D01*
X29678279Y3024487D01*
X29758466Y3174507D01*
X29758470Y3174512D01*
X29866388Y3306012D01*
X29997888Y3413931D01*
X29997892Y3413933D01*
X29997893Y3413934D01*
X30147913Y3494121D01*
X30147916Y3494122D01*
X30310705Y3543504D01*
X30480000Y3560178D01*
X30649294Y3543504D01*
X30649294Y3543504D01*
G37*
G36*
X33189294Y3543504D02*
G01*
X33309726Y3506971D01*
X33352087Y3494121D01*
X33502107Y3413934D01*
X33502110Y3413932D01*
X33502111Y3413931D01*
X33633612Y3306012D01*
X33741531Y3174512D01*
X33741533Y3174508D01*
X33741534Y3174507D01*
X33821721Y3024487D01*
X33821722Y3024484D01*
X33871104Y2861695D01*
X33883600Y2734820D01*
X33883600Y2345181D01*
X33871104Y2218306D01*
X33834571Y2097872D01*
X33821721Y2055512D01*
X33741534Y1905493D01*
X33741531Y1905488D01*
X33633612Y1773988D01*
X33502112Y1666069D01*
X33502108Y1666067D01*
X33502107Y1666066D01*
X33352087Y1585879D01*
X33352084Y1585878D01*
X33189295Y1536496D01*
X33020000Y1519822D01*
X32850706Y1536496D01*
X32687917Y1585878D01*
X32687914Y1585879D01*
X32537894Y1666066D01*
X32537893Y1666067D01*
X32537889Y1666069D01*
X32406388Y1773988D01*
X32298469Y1905488D01*
X32218280Y2055512D01*
X32218279Y2055513D01*
X32218278Y2055516D01*
X32168896Y2218305D01*
X32156400Y2345180D01*
X32156400Y2734819D01*
X32168896Y2861694D01*
X32218278Y3024483D01*
X32218279Y3024487D01*
X32298466Y3174507D01*
X32298470Y3174512D01*
X32406388Y3306012D01*
X32537888Y3413931D01*
X32537892Y3413933D01*
X32537893Y3413934D01*
X32687913Y3494121D01*
X32687916Y3494122D01*
X32850705Y3543504D01*
X33020000Y3560178D01*
X33189294Y3543504D01*
X33189294Y3543504D01*
G37*
G36*
X35729294Y3543504D02*
G01*
X35849726Y3506971D01*
X35892087Y3494121D01*
X36042107Y3413934D01*
X36042110Y3413932D01*
X36042111Y3413931D01*
X36173612Y3306012D01*
X36281531Y3174512D01*
X36281533Y3174508D01*
X36281534Y3174507D01*
X36361721Y3024487D01*
X36361722Y3024484D01*
X36411104Y2861695D01*
X36423600Y2734820D01*
X36423600Y2345181D01*
X36411104Y2218306D01*
X36374571Y2097872D01*
X36361721Y2055512D01*
X36281534Y1905493D01*
X36281531Y1905488D01*
X36173612Y1773988D01*
X36042112Y1666069D01*
X36042108Y1666067D01*
X36042107Y1666066D01*
X35892087Y1585879D01*
X35892084Y1585878D01*
X35729295Y1536496D01*
X35560000Y1519822D01*
X35390706Y1536496D01*
X35227917Y1585878D01*
X35227914Y1585879D01*
X35077894Y1666066D01*
X35077893Y1666067D01*
X35077889Y1666069D01*
X34946388Y1773988D01*
X34838469Y1905488D01*
X34758280Y2055512D01*
X34758279Y2055513D01*
X34758278Y2055516D01*
X34708896Y2218305D01*
X34696400Y2345180D01*
X34696400Y2734819D01*
X34708896Y2861694D01*
X34758278Y3024483D01*
X34758279Y3024487D01*
X34838466Y3174507D01*
X34838470Y3174512D01*
X34946388Y3306012D01*
X35077888Y3413931D01*
X35077892Y3413933D01*
X35077893Y3413934D01*
X35227913Y3494121D01*
X35227916Y3494122D01*
X35390705Y3543504D01*
X35560000Y3560178D01*
X35729294Y3543504D01*
X35729294Y3543504D01*
G37*
G36*
X38269294Y3543504D02*
G01*
X38389726Y3506971D01*
X38432087Y3494121D01*
X38582107Y3413934D01*
X38582110Y3413932D01*
X38582111Y3413931D01*
X38713612Y3306012D01*
X38821531Y3174512D01*
X38821533Y3174508D01*
X38821534Y3174507D01*
X38901721Y3024487D01*
X38901722Y3024484D01*
X38951104Y2861695D01*
X38963600Y2734820D01*
X38963600Y2345181D01*
X38951104Y2218306D01*
X38914571Y2097872D01*
X38901721Y2055512D01*
X38821534Y1905493D01*
X38821531Y1905488D01*
X38713612Y1773988D01*
X38582112Y1666069D01*
X38582108Y1666067D01*
X38582107Y1666066D01*
X38432087Y1585879D01*
X38432084Y1585878D01*
X38269295Y1536496D01*
X38100000Y1519822D01*
X37930706Y1536496D01*
X37767917Y1585878D01*
X37767914Y1585879D01*
X37617894Y1666066D01*
X37617893Y1666067D01*
X37617889Y1666069D01*
X37486388Y1773988D01*
X37378469Y1905488D01*
X37298280Y2055512D01*
X37298279Y2055513D01*
X37298278Y2055516D01*
X37248896Y2218305D01*
X37236400Y2345180D01*
X37236400Y2734819D01*
X37248896Y2861694D01*
X37298278Y3024483D01*
X37298279Y3024487D01*
X37378466Y3174507D01*
X37378470Y3174512D01*
X37486388Y3306012D01*
X37617888Y3413931D01*
X37617892Y3413933D01*
X37617893Y3413934D01*
X37767913Y3494121D01*
X37767916Y3494122D01*
X37930705Y3543504D01*
X38100000Y3560178D01*
X38269294Y3543504D01*
X38269294Y3543504D01*
G37*
G36*
X40809294Y3543504D02*
G01*
X40929726Y3506971D01*
X40972087Y3494121D01*
X41122107Y3413934D01*
X41122110Y3413932D01*
X41122111Y3413931D01*
X41253612Y3306012D01*
X41361531Y3174512D01*
X41361533Y3174508D01*
X41361534Y3174507D01*
X41441721Y3024487D01*
X41441722Y3024484D01*
X41491104Y2861695D01*
X41503600Y2734820D01*
X41503600Y2345181D01*
X41491104Y2218306D01*
X41454571Y2097872D01*
X41441721Y2055512D01*
X41361534Y1905493D01*
X41361531Y1905488D01*
X41253612Y1773988D01*
X41122112Y1666069D01*
X41122108Y1666067D01*
X41122107Y1666066D01*
X40972087Y1585879D01*
X40972084Y1585878D01*
X40809295Y1536496D01*
X40640000Y1519822D01*
X40470706Y1536496D01*
X40307917Y1585878D01*
X40307914Y1585879D01*
X40157894Y1666066D01*
X40157893Y1666067D01*
X40157889Y1666069D01*
X40026388Y1773988D01*
X39918469Y1905488D01*
X39838280Y2055512D01*
X39838279Y2055513D01*
X39838278Y2055516D01*
X39788896Y2218305D01*
X39776400Y2345180D01*
X39776400Y2734819D01*
X39788896Y2861694D01*
X39838278Y3024483D01*
X39838279Y3024487D01*
X39918466Y3174507D01*
X39918470Y3174512D01*
X40026388Y3306012D01*
X40157888Y3413931D01*
X40157892Y3413933D01*
X40157893Y3413934D01*
X40307913Y3494121D01*
X40307916Y3494122D01*
X40470705Y3543504D01*
X40640000Y3560178D01*
X40809294Y3543504D01*
X40809294Y3543504D01*
G37*
G36*
X43349294Y3543504D02*
G01*
X43469726Y3506971D01*
X43512087Y3494121D01*
X43662107Y3413934D01*
X43662110Y3413932D01*
X43662111Y3413931D01*
X43793612Y3306012D01*
X43901531Y3174512D01*
X43901533Y3174508D01*
X43901534Y3174507D01*
X43981721Y3024487D01*
X43981722Y3024484D01*
X44031104Y2861695D01*
X44043600Y2734820D01*
X44043600Y2345181D01*
X44031104Y2218306D01*
X43994571Y2097872D01*
X43981721Y2055512D01*
X43901534Y1905493D01*
X43901531Y1905488D01*
X43793612Y1773988D01*
X43662112Y1666069D01*
X43662108Y1666067D01*
X43662107Y1666066D01*
X43512087Y1585879D01*
X43512084Y1585878D01*
X43349295Y1536496D01*
X43180000Y1519822D01*
X43010706Y1536496D01*
X42847917Y1585878D01*
X42847914Y1585879D01*
X42697894Y1666066D01*
X42697893Y1666067D01*
X42697889Y1666069D01*
X42566388Y1773988D01*
X42458469Y1905488D01*
X42378280Y2055512D01*
X42378279Y2055513D01*
X42378278Y2055516D01*
X42328896Y2218305D01*
X42316400Y2345180D01*
X42316400Y2734819D01*
X42328896Y2861694D01*
X42378278Y3024483D01*
X42378279Y3024487D01*
X42458466Y3174507D01*
X42458470Y3174512D01*
X42566388Y3306012D01*
X42697888Y3413931D01*
X42697892Y3413933D01*
X42697893Y3413934D01*
X42847913Y3494121D01*
X42847916Y3494122D01*
X43010705Y3543504D01*
X43180000Y3560178D01*
X43349294Y3543504D01*
X43349294Y3543504D01*
G37*
G36*
X45889294Y3543504D02*
G01*
X46009726Y3506971D01*
X46052087Y3494121D01*
X46202107Y3413934D01*
X46202110Y3413932D01*
X46202111Y3413931D01*
X46333612Y3306012D01*
X46441531Y3174512D01*
X46441533Y3174508D01*
X46441534Y3174507D01*
X46521721Y3024487D01*
X46521722Y3024484D01*
X46571104Y2861695D01*
X46583600Y2734820D01*
X46583600Y2345181D01*
X46571104Y2218306D01*
X46534571Y2097872D01*
X46521721Y2055512D01*
X46441534Y1905493D01*
X46441531Y1905488D01*
X46333612Y1773988D01*
X46202112Y1666069D01*
X46202108Y1666067D01*
X46202107Y1666066D01*
X46052087Y1585879D01*
X46052084Y1585878D01*
X45889295Y1536496D01*
X45720000Y1519822D01*
X45550706Y1536496D01*
X45387917Y1585878D01*
X45387914Y1585879D01*
X45237894Y1666066D01*
X45237893Y1666067D01*
X45237889Y1666069D01*
X45106388Y1773988D01*
X44998469Y1905488D01*
X44918280Y2055512D01*
X44918279Y2055513D01*
X44918278Y2055516D01*
X44868896Y2218305D01*
X44856400Y2345180D01*
X44856400Y2734819D01*
X44868896Y2861694D01*
X44918278Y3024483D01*
X44918279Y3024487D01*
X44998466Y3174507D01*
X44998470Y3174512D01*
X45106388Y3306012D01*
X45237888Y3413931D01*
X45237892Y3413933D01*
X45237893Y3413934D01*
X45387913Y3494121D01*
X45387916Y3494122D01*
X45550705Y3543504D01*
X45720000Y3560178D01*
X45889294Y3543504D01*
X45889294Y3543504D01*
G37*
G36*
X50969294Y3543504D02*
G01*
X51089726Y3506971D01*
X51132087Y3494121D01*
X51282107Y3413934D01*
X51282110Y3413932D01*
X51282111Y3413931D01*
X51413612Y3306012D01*
X51521531Y3174512D01*
X51521533Y3174508D01*
X51521534Y3174507D01*
X51601721Y3024487D01*
X51601722Y3024484D01*
X51651104Y2861695D01*
X51663600Y2734820D01*
X51663600Y2345181D01*
X51651104Y2218306D01*
X51614571Y2097872D01*
X51601721Y2055512D01*
X51521534Y1905493D01*
X51521531Y1905488D01*
X51413612Y1773988D01*
X51282112Y1666069D01*
X51282108Y1666067D01*
X51282107Y1666066D01*
X51132087Y1585879D01*
X51132084Y1585878D01*
X50969295Y1536496D01*
X50800000Y1519822D01*
X50630706Y1536496D01*
X50467917Y1585878D01*
X50467914Y1585879D01*
X50317894Y1666066D01*
X50317893Y1666067D01*
X50317889Y1666069D01*
X50186388Y1773988D01*
X50078469Y1905488D01*
X49998280Y2055512D01*
X49998279Y2055513D01*
X49998278Y2055516D01*
X49948896Y2218305D01*
X49936400Y2345180D01*
X49936400Y2734819D01*
X49948896Y2861694D01*
X49998278Y3024483D01*
X49998279Y3024487D01*
X50078466Y3174507D01*
X50078470Y3174512D01*
X50186388Y3306012D01*
X50317888Y3413931D01*
X50317892Y3413933D01*
X50317893Y3413934D01*
X50467913Y3494121D01*
X50467916Y3494122D01*
X50630705Y3543504D01*
X50800000Y3560178D01*
X50969294Y3543504D01*
X50969294Y3543504D01*
G37*
G36*
X53509294Y3543504D02*
G01*
X53629726Y3506971D01*
X53672087Y3494121D01*
X53822107Y3413934D01*
X53822110Y3413932D01*
X53822111Y3413931D01*
X53953612Y3306012D01*
X54061531Y3174512D01*
X54061533Y3174508D01*
X54061534Y3174507D01*
X54141721Y3024487D01*
X54141722Y3024484D01*
X54191104Y2861695D01*
X54203600Y2734820D01*
X54203600Y2345181D01*
X54191104Y2218306D01*
X54154571Y2097872D01*
X54141721Y2055512D01*
X54061534Y1905493D01*
X54061531Y1905488D01*
X53953612Y1773988D01*
X53822112Y1666069D01*
X53822108Y1666067D01*
X53822107Y1666066D01*
X53672087Y1585879D01*
X53672084Y1585878D01*
X53509295Y1536496D01*
X53340000Y1519822D01*
X53170706Y1536496D01*
X53007917Y1585878D01*
X53007914Y1585879D01*
X52857894Y1666066D01*
X52857893Y1666067D01*
X52857889Y1666069D01*
X52726388Y1773988D01*
X52618469Y1905488D01*
X52538280Y2055512D01*
X52538279Y2055513D01*
X52538278Y2055516D01*
X52488896Y2218305D01*
X52476400Y2345180D01*
X52476400Y2734819D01*
X52488896Y2861694D01*
X52538278Y3024483D01*
X52538279Y3024487D01*
X52618466Y3174507D01*
X52618470Y3174512D01*
X52726388Y3306012D01*
X52857888Y3413931D01*
X52857892Y3413933D01*
X52857893Y3413934D01*
X53007913Y3494121D01*
X53007916Y3494122D01*
X53170705Y3543504D01*
X53340000Y3560178D01*
X53509294Y3543504D01*
X53509294Y3543504D01*
G37*
G36*
X56049294Y3543504D02*
G01*
X56169726Y3506971D01*
X56212087Y3494121D01*
X56362107Y3413934D01*
X56362110Y3413932D01*
X56362111Y3413931D01*
X56493612Y3306012D01*
X56601531Y3174512D01*
X56601533Y3174508D01*
X56601534Y3174507D01*
X56681721Y3024487D01*
X56681722Y3024484D01*
X56731104Y2861695D01*
X56743600Y2734820D01*
X56743600Y2345181D01*
X56731104Y2218306D01*
X56694571Y2097872D01*
X56681721Y2055512D01*
X56601534Y1905493D01*
X56601531Y1905488D01*
X56493612Y1773988D01*
X56362112Y1666069D01*
X56362108Y1666067D01*
X56362107Y1666066D01*
X56212087Y1585879D01*
X56212084Y1585878D01*
X56049295Y1536496D01*
X55880000Y1519822D01*
X55710706Y1536496D01*
X55547917Y1585878D01*
X55547914Y1585879D01*
X55397894Y1666066D01*
X55397893Y1666067D01*
X55397889Y1666069D01*
X55266388Y1773988D01*
X55158469Y1905488D01*
X55078280Y2055512D01*
X55078279Y2055513D01*
X55078278Y2055516D01*
X55028896Y2218305D01*
X55016400Y2345180D01*
X55016400Y2734819D01*
X55028896Y2861694D01*
X55078278Y3024483D01*
X55078279Y3024487D01*
X55158466Y3174507D01*
X55158470Y3174512D01*
X55266388Y3306012D01*
X55397888Y3413931D01*
X55397892Y3413933D01*
X55397893Y3413934D01*
X55547913Y3494121D01*
X55547916Y3494122D01*
X55710705Y3543504D01*
X55880000Y3560178D01*
X56049294Y3543504D01*
X56049294Y3543504D01*
G37*
G36*
X58589294Y3543504D02*
G01*
X58709726Y3506971D01*
X58752087Y3494121D01*
X58902107Y3413934D01*
X58902110Y3413932D01*
X58902111Y3413931D01*
X59033612Y3306012D01*
X59141531Y3174512D01*
X59141533Y3174508D01*
X59141534Y3174507D01*
X59221721Y3024487D01*
X59221722Y3024484D01*
X59271104Y2861695D01*
X59283600Y2734820D01*
X59283600Y2345181D01*
X59271104Y2218306D01*
X59234571Y2097872D01*
X59221721Y2055512D01*
X59141534Y1905493D01*
X59141531Y1905488D01*
X59033612Y1773988D01*
X58902112Y1666069D01*
X58902108Y1666067D01*
X58902107Y1666066D01*
X58752087Y1585879D01*
X58752084Y1585878D01*
X58589295Y1536496D01*
X58420000Y1519822D01*
X58250706Y1536496D01*
X58087917Y1585878D01*
X58087914Y1585879D01*
X57937894Y1666066D01*
X57937893Y1666067D01*
X57937889Y1666069D01*
X57806388Y1773988D01*
X57698469Y1905488D01*
X57618280Y2055512D01*
X57618279Y2055513D01*
X57618278Y2055516D01*
X57568896Y2218305D01*
X57556400Y2345180D01*
X57556400Y2734819D01*
X57568896Y2861694D01*
X57618278Y3024483D01*
X57618279Y3024487D01*
X57698466Y3174507D01*
X57698470Y3174512D01*
X57806388Y3306012D01*
X57937888Y3413931D01*
X57937892Y3413933D01*
X57937893Y3413934D01*
X58087913Y3494121D01*
X58087916Y3494122D01*
X58250705Y3543504D01*
X58420000Y3560178D01*
X58589294Y3543504D01*
X58589294Y3543504D01*
G37*
G36*
X61129294Y3543504D02*
G01*
X61249726Y3506971D01*
X61292087Y3494121D01*
X61442107Y3413934D01*
X61442110Y3413932D01*
X61442111Y3413931D01*
X61573612Y3306012D01*
X61681531Y3174512D01*
X61681533Y3174508D01*
X61681534Y3174507D01*
X61761721Y3024487D01*
X61761722Y3024484D01*
X61811104Y2861695D01*
X61823600Y2734820D01*
X61823600Y2345181D01*
X61811104Y2218306D01*
X61774571Y2097872D01*
X61761721Y2055512D01*
X61681534Y1905493D01*
X61681531Y1905488D01*
X61573612Y1773988D01*
X61442112Y1666069D01*
X61442108Y1666067D01*
X61442107Y1666066D01*
X61292087Y1585879D01*
X61292084Y1585878D01*
X61129295Y1536496D01*
X60960000Y1519822D01*
X60790706Y1536496D01*
X60627917Y1585878D01*
X60627914Y1585879D01*
X60477894Y1666066D01*
X60477893Y1666067D01*
X60477889Y1666069D01*
X60346388Y1773988D01*
X60238469Y1905488D01*
X60158280Y2055512D01*
X60158279Y2055513D01*
X60158278Y2055516D01*
X60108896Y2218305D01*
X60096400Y2345180D01*
X60096400Y2734819D01*
X60108896Y2861694D01*
X60158278Y3024483D01*
X60158279Y3024487D01*
X60238466Y3174507D01*
X60238470Y3174512D01*
X60346388Y3306012D01*
X60477888Y3413931D01*
X60477892Y3413933D01*
X60477893Y3413934D01*
X60627913Y3494121D01*
X60627916Y3494122D01*
X60790705Y3543504D01*
X60960000Y3560178D01*
X61129294Y3543504D01*
X61129294Y3543504D01*
G37*
G36*
X63669294Y3543504D02*
G01*
X63789726Y3506971D01*
X63832087Y3494121D01*
X63982107Y3413934D01*
X63982110Y3413932D01*
X63982111Y3413931D01*
X64113612Y3306012D01*
X64221531Y3174512D01*
X64221533Y3174508D01*
X64221534Y3174507D01*
X64301721Y3024487D01*
X64301722Y3024484D01*
X64351104Y2861695D01*
X64363600Y2734820D01*
X64363600Y2345181D01*
X64351104Y2218306D01*
X64314571Y2097872D01*
X64301721Y2055512D01*
X64221534Y1905493D01*
X64221531Y1905488D01*
X64113612Y1773988D01*
X63982112Y1666069D01*
X63982108Y1666067D01*
X63982107Y1666066D01*
X63832087Y1585879D01*
X63832084Y1585878D01*
X63669295Y1536496D01*
X63500000Y1519822D01*
X63330706Y1536496D01*
X63167917Y1585878D01*
X63167914Y1585879D01*
X63017894Y1666066D01*
X63017893Y1666067D01*
X63017889Y1666069D01*
X62886388Y1773988D01*
X62778469Y1905488D01*
X62698280Y2055512D01*
X62698279Y2055513D01*
X62698278Y2055516D01*
X62648896Y2218305D01*
X62636400Y2345180D01*
X62636400Y2734819D01*
X62648896Y2861694D01*
X62698278Y3024483D01*
X62698279Y3024487D01*
X62778466Y3174507D01*
X62778470Y3174512D01*
X62886388Y3306012D01*
X63017888Y3413931D01*
X63017892Y3413933D01*
X63017893Y3413934D01*
X63167913Y3494121D01*
X63167916Y3494122D01*
X63330705Y3543504D01*
X63500000Y3560178D01*
X63669294Y3543504D01*
X63669294Y3543504D01*
G37*
G36*
X11087000Y2502000D02*
G01*
X9487000Y2502000D01*
X9487000Y4102000D01*
X11087000Y4102000D01*
X11087000Y2502000D01*
X11087000Y2502000D01*
G37*
G36*
X2745471Y4098141D02*
G01*
X2823827Y4090424D01*
X2974628Y4044679D01*
X2974630Y4044678D01*
X3113605Y3970394D01*
X3113607Y3970393D01*
X3113606Y3970393D01*
X3235422Y3870422D01*
X3335393Y3748606D01*
X3409679Y3609628D01*
X3455424Y3458827D01*
X3470870Y3302000D01*
X3455424Y3145173D01*
X3418814Y3024487D01*
X3409678Y2994370D01*
X3335394Y2855395D01*
X3235422Y2733578D01*
X3113605Y2633606D01*
X2974630Y2559322D01*
X2974628Y2559321D01*
X2823827Y2513576D01*
X2745471Y2505859D01*
X2706294Y2502000D01*
X2627706Y2502000D01*
X2588529Y2505859D01*
X2510173Y2513576D01*
X2359372Y2559321D01*
X2359370Y2559322D01*
X2220395Y2633606D01*
X2098578Y2733578D01*
X1998606Y2855395D01*
X1924322Y2994370D01*
X1915186Y3024487D01*
X1878576Y3145173D01*
X1863130Y3302000D01*
X1878576Y3458827D01*
X1924321Y3609628D01*
X1998607Y3748606D01*
X2098578Y3870422D01*
X2220394Y3970393D01*
X2220393Y3970393D01*
X2220395Y3970394D01*
X2359370Y4044678D01*
X2359372Y4044679D01*
X2510173Y4090424D01*
X2588529Y4098141D01*
X2627706Y4102000D01*
X2706294Y4102000D01*
X2745471Y4098141D01*
X2745471Y4098141D01*
G37*
G36*
X10365471Y6638141D02*
G01*
X10443827Y6630424D01*
X10594628Y6584679D01*
X10594630Y6584678D01*
X10733605Y6510394D01*
X10733607Y6510393D01*
X10733606Y6510393D01*
X10855422Y6410422D01*
X10955393Y6288606D01*
X11029679Y6149628D01*
X11075424Y5998827D01*
X11090870Y5842000D01*
X11075424Y5685173D01*
X11035484Y5553510D01*
X11029678Y5534370D01*
X10955394Y5395395D01*
X10855422Y5273578D01*
X10733605Y5173606D01*
X10594630Y5099322D01*
X10594628Y5099321D01*
X10443827Y5053576D01*
X10365471Y5045859D01*
X10326294Y5042000D01*
X10247706Y5042000D01*
X10208529Y5045859D01*
X10130173Y5053576D01*
X9979372Y5099321D01*
X9979370Y5099322D01*
X9840395Y5173606D01*
X9718578Y5273578D01*
X9618606Y5395395D01*
X9544322Y5534370D01*
X9538516Y5553510D01*
X9498576Y5685173D01*
X9483130Y5842000D01*
X9498576Y5998827D01*
X9544321Y6149628D01*
X9618607Y6288606D01*
X9718578Y6410422D01*
X9840394Y6510393D01*
X9840393Y6510393D01*
X9840395Y6510394D01*
X9979370Y6584678D01*
X9979372Y6584679D01*
X10130173Y6630424D01*
X10208529Y6638141D01*
X10247706Y6642000D01*
X10326294Y6642000D01*
X10365471Y6638141D01*
X10365471Y6638141D01*
G37*
G36*
X2745471Y6638141D02*
G01*
X2823827Y6630424D01*
X2974628Y6584679D01*
X2974630Y6584678D01*
X3113605Y6510394D01*
X3113607Y6510393D01*
X3113606Y6510393D01*
X3235422Y6410422D01*
X3335393Y6288606D01*
X3409679Y6149628D01*
X3455424Y5998827D01*
X3470870Y5842000D01*
X3455424Y5685173D01*
X3415484Y5553510D01*
X3409678Y5534370D01*
X3335394Y5395395D01*
X3235422Y5273578D01*
X3113605Y5173606D01*
X2974630Y5099322D01*
X2974628Y5099321D01*
X2823827Y5053576D01*
X2745471Y5045859D01*
X2706294Y5042000D01*
X2627706Y5042000D01*
X2588529Y5045859D01*
X2510173Y5053576D01*
X2359372Y5099321D01*
X2359370Y5099322D01*
X2220395Y5173606D01*
X2098578Y5273578D01*
X1998606Y5395395D01*
X1924322Y5534370D01*
X1918516Y5553510D01*
X1878576Y5685173D01*
X1863130Y5842000D01*
X1878576Y5998827D01*
X1924321Y6149628D01*
X1998607Y6288606D01*
X2098578Y6410422D01*
X2220394Y6510393D01*
X2220393Y6510393D01*
X2220395Y6510394D01*
X2359370Y6584678D01*
X2359372Y6584679D01*
X2510173Y6630424D01*
X2588529Y6638141D01*
X2627706Y6642000D01*
X2706294Y6642000D01*
X2745471Y6638141D01*
X2745471Y6638141D01*
G37*
G36*
X38640825Y8773255D02*
G01*
X38671490Y8763952D01*
X38699748Y8748848D01*
X38724519Y8728519D01*
X38744848Y8703748D01*
X38759952Y8675490D01*
X38769255Y8644825D01*
X38773000Y8606797D01*
X38773000Y5622203D01*
X38769255Y5584175D01*
X38759952Y5553510D01*
X38744848Y5525252D01*
X38724519Y5500481D01*
X38699748Y5480152D01*
X38671490Y5465048D01*
X38640825Y5455745D01*
X38602797Y5452000D01*
X37343203Y5452000D01*
X37305175Y5455745D01*
X37274510Y5465048D01*
X37246252Y5480152D01*
X37221481Y5500481D01*
X37201152Y5525252D01*
X37186048Y5553510D01*
X37176745Y5584175D01*
X37173000Y5622203D01*
X37173000Y8606797D01*
X37176745Y8644825D01*
X37186048Y8675490D01*
X37201152Y8703748D01*
X37221481Y8728519D01*
X37246252Y8748848D01*
X37274510Y8763952D01*
X37305175Y8773255D01*
X37343203Y8777000D01*
X38602797Y8777000D01*
X38640825Y8773255D01*
X38640825Y8773255D01*
G37*
G36*
X20022015Y6915332D02*
G01*
X20113781Y6877321D01*
X20153048Y6861056D01*
X20270973Y6782261D01*
X20371261Y6681973D01*
X20450057Y6564046D01*
X20504332Y6433015D01*
X20532000Y6293916D01*
X20532000Y6152084D01*
X20504332Y6012985D01*
X20450057Y5881954D01*
X20450056Y5881952D01*
X20371261Y5764027D01*
X20270973Y5663739D01*
X20153048Y5584944D01*
X20153047Y5584943D01*
X20153046Y5584943D01*
X20022015Y5530668D01*
X19882916Y5503000D01*
X19741084Y5503000D01*
X19601985Y5530668D01*
X19470954Y5584943D01*
X19470953Y5584943D01*
X19470952Y5584944D01*
X19353027Y5663739D01*
X19252739Y5764027D01*
X19173944Y5881952D01*
X19173943Y5881954D01*
X19119668Y6012985D01*
X19092000Y6152084D01*
X19092000Y6293916D01*
X19119668Y6433015D01*
X19173943Y6564046D01*
X19252739Y6681973D01*
X19353027Y6782261D01*
X19470952Y6861056D01*
X19510219Y6877321D01*
X19601985Y6915332D01*
X19741084Y6943000D01*
X19882916Y6943000D01*
X20022015Y6915332D01*
X20022015Y6915332D01*
G37*
G36*
X14942015Y6915332D02*
G01*
X15033781Y6877321D01*
X15073048Y6861056D01*
X15190973Y6782261D01*
X15291261Y6681973D01*
X15370057Y6564046D01*
X15424332Y6433015D01*
X15452000Y6293916D01*
X15452000Y6152084D01*
X15424332Y6012985D01*
X15370057Y5881954D01*
X15370056Y5881952D01*
X15291261Y5764027D01*
X15190973Y5663739D01*
X15073048Y5584944D01*
X15073047Y5584943D01*
X15073046Y5584943D01*
X14942015Y5530668D01*
X14802916Y5503000D01*
X14661084Y5503000D01*
X14521985Y5530668D01*
X14390954Y5584943D01*
X14390953Y5584943D01*
X14390952Y5584944D01*
X14273027Y5663739D01*
X14172739Y5764027D01*
X14093944Y5881952D01*
X14093943Y5881954D01*
X14039668Y6012985D01*
X14012000Y6152084D01*
X14012000Y6293916D01*
X14039668Y6433015D01*
X14093943Y6564046D01*
X14172739Y6681973D01*
X14273027Y6782261D01*
X14390952Y6861056D01*
X14430219Y6877321D01*
X14521985Y6915332D01*
X14661084Y6943000D01*
X14802916Y6943000D01*
X14942015Y6915332D01*
X14942015Y6915332D01*
G37*
G36*
X32804000Y6820000D02*
G01*
X31204000Y6820000D01*
X31204000Y8420000D01*
X32804000Y8420000D01*
X32804000Y6820000D01*
X32804000Y6820000D01*
G37*
G36*
X24462471Y8416141D02*
G01*
X24540827Y8408424D01*
X24691628Y8362679D01*
X24691630Y8362678D01*
X24830605Y8288394D01*
X24952422Y8188422D01*
X25052394Y8066605D01*
X25122528Y7935394D01*
X25126679Y7927628D01*
X25172424Y7776827D01*
X25187870Y7620000D01*
X25172424Y7463173D01*
X25126679Y7312372D01*
X25126678Y7312370D01*
X25052394Y7173395D01*
X24952422Y7051578D01*
X24830605Y6951606D01*
X24691630Y6877322D01*
X24691628Y6877321D01*
X24540827Y6831576D01*
X24462471Y6823859D01*
X24423294Y6820000D01*
X24344706Y6820000D01*
X24305529Y6823859D01*
X24227173Y6831576D01*
X24076372Y6877321D01*
X24076370Y6877322D01*
X23937395Y6951606D01*
X23815578Y7051578D01*
X23715606Y7173395D01*
X23641322Y7312370D01*
X23641321Y7312372D01*
X23595576Y7463173D01*
X23580130Y7620000D01*
X23595576Y7776827D01*
X23641321Y7927628D01*
X23645472Y7935394D01*
X23715606Y8066605D01*
X23815578Y8188422D01*
X23937395Y8288394D01*
X24076370Y8362678D01*
X24076372Y8362679D01*
X24227173Y8408424D01*
X24305529Y8416141D01*
X24344706Y8420000D01*
X24423294Y8420000D01*
X24462471Y8416141D01*
X24462471Y8416141D01*
G37*
G36*
X10365471Y9178141D02*
G01*
X10443827Y9170424D01*
X10594628Y9124679D01*
X10594630Y9124678D01*
X10733605Y9050394D01*
X10855422Y8950422D01*
X10955394Y8828605D01*
X10984979Y8773255D01*
X11029679Y8689628D01*
X11075424Y8538827D01*
X11090870Y8382000D01*
X11075424Y8225173D01*
X11029679Y8074372D01*
X11029678Y8074370D01*
X10955394Y7935395D01*
X10855422Y7813578D01*
X10733605Y7713606D01*
X10594630Y7639322D01*
X10594628Y7639321D01*
X10443827Y7593576D01*
X10365471Y7585859D01*
X10326294Y7582000D01*
X10247706Y7582000D01*
X10208529Y7585859D01*
X10130173Y7593576D01*
X9979372Y7639321D01*
X9979370Y7639322D01*
X9840395Y7713606D01*
X9718578Y7813578D01*
X9618606Y7935395D01*
X9544322Y8074370D01*
X9544321Y8074372D01*
X9498576Y8225173D01*
X9483130Y8382000D01*
X9498576Y8538827D01*
X9544321Y8689628D01*
X9589021Y8773255D01*
X9618606Y8828605D01*
X9718578Y8950422D01*
X9840395Y9050394D01*
X9979370Y9124678D01*
X9979372Y9124679D01*
X10130173Y9170424D01*
X10208529Y9178141D01*
X10247706Y9182000D01*
X10326294Y9182000D01*
X10365471Y9178141D01*
X10365471Y9178141D01*
G37*
G36*
X2745471Y9178141D02*
G01*
X2823827Y9170424D01*
X2974628Y9124679D01*
X2974630Y9124678D01*
X3113605Y9050394D01*
X3235422Y8950422D01*
X3335394Y8828605D01*
X3364979Y8773255D01*
X3409679Y8689628D01*
X3455424Y8538827D01*
X3470870Y8382000D01*
X3455424Y8225173D01*
X3409679Y8074372D01*
X3409678Y8074370D01*
X3335394Y7935395D01*
X3235422Y7813578D01*
X3113605Y7713606D01*
X2974630Y7639322D01*
X2974628Y7639321D01*
X2823827Y7593576D01*
X2745471Y7585859D01*
X2706294Y7582000D01*
X2627706Y7582000D01*
X2588529Y7585859D01*
X2510173Y7593576D01*
X2359372Y7639321D01*
X2359370Y7639322D01*
X2220395Y7713606D01*
X2098578Y7813578D01*
X1998606Y7935395D01*
X1924322Y8074370D01*
X1924321Y8074372D01*
X1878576Y8225173D01*
X1863130Y8382000D01*
X1878576Y8538827D01*
X1924321Y8689628D01*
X1969021Y8773255D01*
X1998606Y8828605D01*
X2098578Y8950422D01*
X2220395Y9050394D01*
X2359370Y9124678D01*
X2359372Y9124679D01*
X2510173Y9170424D01*
X2588529Y9178141D01*
X2627706Y9182000D01*
X2706294Y9182000D01*
X2745471Y9178141D01*
X2745471Y9178141D01*
G37*
G36*
X17482015Y9455332D02*
G01*
X17573781Y9417321D01*
X17613048Y9401056D01*
X17687468Y9351330D01*
X17730973Y9322261D01*
X17831261Y9221973D01*
X17910057Y9104046D01*
X17964332Y8973015D01*
X17992000Y8833916D01*
X17992000Y8692084D01*
X17964332Y8552985D01*
X17910057Y8421954D01*
X17910056Y8421952D01*
X17831261Y8304027D01*
X17730973Y8203739D01*
X17613048Y8124944D01*
X17613047Y8124943D01*
X17613046Y8124943D01*
X17482015Y8070668D01*
X17342916Y8043000D01*
X17201084Y8043000D01*
X17061985Y8070668D01*
X16930954Y8124943D01*
X16930953Y8124943D01*
X16930952Y8124944D01*
X16813027Y8203739D01*
X16712739Y8304027D01*
X16633944Y8421952D01*
X16633943Y8421954D01*
X16579668Y8552985D01*
X16552000Y8692084D01*
X16552000Y8833916D01*
X16579668Y8973015D01*
X16633943Y9104046D01*
X16712739Y9221973D01*
X16813027Y9322261D01*
X16856532Y9351330D01*
X16930952Y9401056D01*
X16970219Y9417321D01*
X17061985Y9455332D01*
X17201084Y9483000D01*
X17342916Y9483000D01*
X17482015Y9455332D01*
X17482015Y9455332D01*
G37*
G36*
X72645000Y8970000D02*
G01*
X66245000Y8970000D01*
X66245000Y14770000D01*
X72645000Y14770000D01*
X72645000Y8970000D01*
X72645000Y8970000D01*
G37*
G36*
X64245000Y8990000D02*
G01*
X62045000Y8990000D01*
X62045000Y10190000D01*
X64245000Y10190000D01*
X64245000Y8990000D01*
X64245000Y8990000D01*
G37*
G36*
X59183000Y9038000D02*
G01*
X52783000Y9038000D01*
X52783000Y14838000D01*
X59183000Y14838000D01*
X59183000Y9038000D01*
X59183000Y9038000D01*
G37*
G36*
X50783000Y9058000D02*
G01*
X48583000Y9058000D01*
X48583000Y10258000D01*
X50783000Y10258000D01*
X50783000Y9058000D01*
X50783000Y9058000D01*
G37*
G36*
X46273991Y10213925D02*
G01*
X46307879Y10203645D01*
X46339112Y10186950D01*
X46366486Y10164486D01*
X46388950Y10137112D01*
X46405645Y10105879D01*
X46415925Y10071991D01*
X46420000Y10030612D01*
X46420000Y9430388D01*
X46415925Y9389009D01*
X46405645Y9355121D01*
X46388950Y9323888D01*
X46366486Y9296514D01*
X46339112Y9274050D01*
X46307879Y9257355D01*
X46273991Y9247075D01*
X46232612Y9243000D01*
X45207388Y9243000D01*
X45166009Y9247075D01*
X45132121Y9257355D01*
X45100888Y9274050D01*
X45073514Y9296514D01*
X45051050Y9323888D01*
X45034355Y9355121D01*
X45024075Y9389009D01*
X45020000Y9430388D01*
X45020000Y10030612D01*
X45024075Y10071991D01*
X45034355Y10105879D01*
X45051050Y10137112D01*
X45073514Y10164486D01*
X45100888Y10186950D01*
X45132121Y10203645D01*
X45166009Y10213925D01*
X45207388Y10218000D01*
X46232612Y10218000D01*
X46273991Y10213925D01*
X46273991Y10213925D01*
G37*
G36*
X24462471Y10956141D02*
G01*
X24540827Y10948424D01*
X24691628Y10902679D01*
X24691630Y10902678D01*
X24830605Y10828394D01*
X24952422Y10728422D01*
X25052394Y10606605D01*
X25122528Y10475394D01*
X25126679Y10467628D01*
X25172424Y10316827D01*
X25187870Y10160000D01*
X25172424Y10003173D01*
X25163650Y9974250D01*
X25126678Y9852370D01*
X25052394Y9713395D01*
X24952422Y9591578D01*
X24830605Y9491606D01*
X24691630Y9417322D01*
X24691628Y9417321D01*
X24540827Y9371576D01*
X24462471Y9363859D01*
X24423294Y9360000D01*
X24344706Y9360000D01*
X24305529Y9363859D01*
X24227173Y9371576D01*
X24076372Y9417321D01*
X24076370Y9417322D01*
X23937395Y9491606D01*
X23815578Y9591578D01*
X23715606Y9713395D01*
X23641322Y9852370D01*
X23604350Y9974250D01*
X23595576Y10003173D01*
X23580130Y10160000D01*
X23595576Y10316827D01*
X23641321Y10467628D01*
X23645472Y10475394D01*
X23715606Y10606605D01*
X23815578Y10728422D01*
X23937395Y10828394D01*
X24076370Y10902678D01*
X24076372Y10902679D01*
X24227173Y10948424D01*
X24305529Y10956141D01*
X24344706Y10960000D01*
X24423294Y10960000D01*
X24462471Y10956141D01*
X24462471Y10956141D01*
G37*
G36*
X32082471Y10956141D02*
G01*
X32160827Y10948424D01*
X32311628Y10902679D01*
X32311630Y10902678D01*
X32450605Y10828394D01*
X32572422Y10728422D01*
X32672394Y10606605D01*
X32742528Y10475394D01*
X32746679Y10467628D01*
X32792424Y10316827D01*
X32807870Y10160000D01*
X32792424Y10003173D01*
X32783650Y9974250D01*
X32746678Y9852370D01*
X32672394Y9713395D01*
X32572422Y9591578D01*
X32450605Y9491606D01*
X32311630Y9417322D01*
X32311628Y9417321D01*
X32160827Y9371576D01*
X32082471Y9363859D01*
X32043294Y9360000D01*
X31964706Y9360000D01*
X31925529Y9363859D01*
X31847173Y9371576D01*
X31696372Y9417321D01*
X31696370Y9417322D01*
X31557395Y9491606D01*
X31435578Y9591578D01*
X31335606Y9713395D01*
X31261322Y9852370D01*
X31224350Y9974250D01*
X31215576Y10003173D01*
X31200130Y10160000D01*
X31215576Y10316827D01*
X31261321Y10467628D01*
X31265472Y10475394D01*
X31335606Y10606605D01*
X31435578Y10728422D01*
X31557395Y10828394D01*
X31696370Y10902678D01*
X31696372Y10902679D01*
X31847173Y10948424D01*
X31925529Y10956141D01*
X31964706Y10960000D01*
X32043294Y10960000D01*
X32082471Y10956141D01*
X32082471Y10956141D01*
G37*
G36*
X2745471Y11718141D02*
G01*
X2823827Y11710424D01*
X2974628Y11664679D01*
X2974630Y11664678D01*
X3113605Y11590394D01*
X3235422Y11490422D01*
X3335394Y11368605D01*
X3409678Y11229630D01*
X3409679Y11229628D01*
X3455424Y11078827D01*
X3470870Y10922000D01*
X3455424Y10765173D01*
X3409679Y10614372D01*
X3409678Y10614370D01*
X3335394Y10475395D01*
X3235422Y10353578D01*
X3113605Y10253606D01*
X3046991Y10218000D01*
X2974628Y10179321D01*
X2823827Y10133576D01*
X2745471Y10125859D01*
X2706294Y10122000D01*
X2627706Y10122000D01*
X2588529Y10125859D01*
X2510173Y10133576D01*
X2359372Y10179321D01*
X2287009Y10218000D01*
X2220395Y10253606D01*
X2098578Y10353578D01*
X1998606Y10475395D01*
X1924322Y10614370D01*
X1924321Y10614372D01*
X1878576Y10765173D01*
X1863130Y10922000D01*
X1878576Y11078827D01*
X1924321Y11229628D01*
X1924322Y11229630D01*
X1998606Y11368605D01*
X2098578Y11490422D01*
X2220395Y11590394D01*
X2359370Y11664678D01*
X2359372Y11664679D01*
X2510173Y11710424D01*
X2588529Y11718141D01*
X2627706Y11722000D01*
X2706294Y11722000D01*
X2745471Y11718141D01*
X2745471Y11718141D01*
G37*
G36*
X10365471Y11718141D02*
G01*
X10443827Y11710424D01*
X10594628Y11664679D01*
X10594630Y11664678D01*
X10733605Y11590394D01*
X10855422Y11490422D01*
X10955394Y11368605D01*
X11029678Y11229630D01*
X11029679Y11229628D01*
X11075424Y11078827D01*
X11090870Y10922000D01*
X11075424Y10765173D01*
X11029679Y10614372D01*
X11029678Y10614370D01*
X10955394Y10475395D01*
X10855422Y10353578D01*
X10733605Y10253606D01*
X10666991Y10218000D01*
X10594628Y10179321D01*
X10443827Y10133576D01*
X10365471Y10125859D01*
X10326294Y10122000D01*
X10247706Y10122000D01*
X10208529Y10125859D01*
X10130173Y10133576D01*
X9979372Y10179321D01*
X9907009Y10218000D01*
X9840395Y10253606D01*
X9718578Y10353578D01*
X9618606Y10475395D01*
X9544322Y10614370D01*
X9544321Y10614372D01*
X9498576Y10765173D01*
X9483130Y10922000D01*
X9498576Y11078827D01*
X9544321Y11229628D01*
X9544322Y11229630D01*
X9618606Y11368605D01*
X9718578Y11490422D01*
X9840395Y11590394D01*
X9979370Y11664678D01*
X9979372Y11664679D01*
X10130173Y11710424D01*
X10208529Y11718141D01*
X10247706Y11722000D01*
X10326294Y11722000D01*
X10365471Y11718141D01*
X10365471Y11718141D01*
G37*
G36*
X38640825Y13848255D02*
G01*
X38671490Y13838952D01*
X38699748Y13823848D01*
X38724519Y13803519D01*
X38744848Y13778748D01*
X38759952Y13750490D01*
X38769255Y13719825D01*
X38773000Y13681797D01*
X38773000Y10697203D01*
X38769255Y10659175D01*
X38759952Y10628510D01*
X38744848Y10600252D01*
X38724519Y10575481D01*
X38699748Y10555152D01*
X38671490Y10540048D01*
X38640825Y10530745D01*
X38602797Y10527000D01*
X37343203Y10527000D01*
X37305175Y10530745D01*
X37274510Y10540048D01*
X37246252Y10555152D01*
X37221481Y10575481D01*
X37201152Y10600252D01*
X37186048Y10628510D01*
X37176745Y10659175D01*
X37173000Y10697203D01*
X37173000Y13681797D01*
X37176745Y13719825D01*
X37186048Y13750490D01*
X37201152Y13778748D01*
X37221481Y13803519D01*
X37246252Y13823848D01*
X37274510Y13838952D01*
X37305175Y13848255D01*
X37343203Y13852000D01*
X38602797Y13852000D01*
X38640825Y13848255D01*
X38640825Y13848255D01*
G37*
G36*
X46273991Y12088925D02*
G01*
X46307879Y12078645D01*
X46339112Y12061950D01*
X46366486Y12039486D01*
X46388950Y12012112D01*
X46405645Y11980879D01*
X46415925Y11946991D01*
X46420000Y11905612D01*
X46420000Y11305388D01*
X46415925Y11264009D01*
X46405645Y11230121D01*
X46388950Y11198888D01*
X46366486Y11171514D01*
X46339112Y11149050D01*
X46307879Y11132355D01*
X46273991Y11122075D01*
X46232612Y11118000D01*
X45207388Y11118000D01*
X45166009Y11122075D01*
X45132121Y11132355D01*
X45100888Y11149050D01*
X45073514Y11171514D01*
X45051050Y11198888D01*
X45034355Y11230121D01*
X45024075Y11264009D01*
X45020000Y11305388D01*
X45020000Y11905612D01*
X45024075Y11946991D01*
X45034355Y11980879D01*
X45051050Y12012112D01*
X45073514Y12039486D01*
X45100888Y12061950D01*
X45132121Y12078645D01*
X45166009Y12088925D01*
X45207388Y12093000D01*
X46232612Y12093000D01*
X46273991Y12088925D01*
X46273991Y12088925D01*
G37*
G36*
X46490991Y14919925D02*
G01*
X46524879Y14909645D01*
X46556112Y14892950D01*
X46583486Y14870486D01*
X46605950Y14843112D01*
X46622645Y14811879D01*
X46632925Y14777991D01*
X46637000Y14736612D01*
X46637000Y13711388D01*
X46632925Y13670009D01*
X46622645Y13636121D01*
X46605950Y13604888D01*
X46583486Y13577514D01*
X46556112Y13555050D01*
X46524879Y13538355D01*
X46490991Y13528075D01*
X46449612Y13524000D01*
X45849388Y13524000D01*
X45808009Y13528075D01*
X45774121Y13538355D01*
X45742888Y13555050D01*
X45715514Y13577514D01*
X45693050Y13604888D01*
X45676355Y13636121D01*
X45666075Y13670009D01*
X45662000Y13711388D01*
X45662000Y14736612D01*
X45666075Y14777991D01*
X45676355Y14811879D01*
X45693050Y14843112D01*
X45715514Y14870486D01*
X45742888Y14892950D01*
X45774121Y14909645D01*
X45808009Y14919925D01*
X45849388Y14924000D01*
X46449612Y14924000D01*
X46490991Y14919925D01*
X46490991Y14919925D01*
G37*
G36*
X44615991Y14919925D02*
G01*
X44649879Y14909645D01*
X44681112Y14892950D01*
X44708486Y14870486D01*
X44730950Y14843112D01*
X44747645Y14811879D01*
X44757925Y14777991D01*
X44762000Y14736612D01*
X44762000Y13711388D01*
X44757925Y13670009D01*
X44747645Y13636121D01*
X44730950Y13604888D01*
X44708486Y13577514D01*
X44681112Y13555050D01*
X44649879Y13538355D01*
X44615991Y13528075D01*
X44574612Y13524000D01*
X43974388Y13524000D01*
X43933009Y13528075D01*
X43899121Y13538355D01*
X43867888Y13555050D01*
X43840514Y13577514D01*
X43818050Y13604888D01*
X43801355Y13636121D01*
X43791075Y13670009D01*
X43787000Y13711388D01*
X43787000Y14736612D01*
X43791075Y14777991D01*
X43801355Y14811879D01*
X43818050Y14843112D01*
X43840514Y14870486D01*
X43867888Y14892950D01*
X43899121Y14909645D01*
X43933009Y14919925D01*
X43974388Y14924000D01*
X44574612Y14924000D01*
X44615991Y14919925D01*
X44615991Y14919925D01*
G37*
G36*
X64245000Y13550000D02*
G01*
X62045000Y13550000D01*
X62045000Y14750000D01*
X64245000Y14750000D01*
X64245000Y13550000D01*
X64245000Y13550000D01*
G37*
G36*
X50783000Y13618000D02*
G01*
X48583000Y13618000D01*
X48583000Y14818000D01*
X50783000Y14818000D01*
X50783000Y13618000D01*
X50783000Y13618000D01*
G37*
G36*
X34009290Y16976381D02*
G01*
X34073689Y16963571D01*
X34255678Y16888189D01*
X34419463Y16778751D01*
X34558751Y16639463D01*
X34668189Y16475678D01*
X34743571Y16293689D01*
X34782000Y16100491D01*
X34782000Y15903509D01*
X34743571Y15710311D01*
X34668189Y15528322D01*
X34558751Y15364537D01*
X34419463Y15225249D01*
X34255678Y15115811D01*
X34073689Y15040429D01*
X34009290Y15027619D01*
X33880493Y15002000D01*
X33683507Y15002000D01*
X33554710Y15027619D01*
X33490311Y15040429D01*
X33308322Y15115811D01*
X33144537Y15225249D01*
X33005249Y15364537D01*
X32895811Y15528322D01*
X32820429Y15710311D01*
X32782000Y15903509D01*
X32782000Y16100491D01*
X32820429Y16293689D01*
X32895811Y16475678D01*
X33005249Y16639463D01*
X33144537Y16778751D01*
X33308322Y16888189D01*
X33490311Y16963571D01*
X33554710Y16976381D01*
X33683507Y17002000D01*
X33880493Y17002000D01*
X34009290Y16976381D01*
X34009290Y16976381D01*
G37*
G36*
X29818290Y16976381D02*
G01*
X29882689Y16963571D01*
X30064678Y16888189D01*
X30228463Y16778751D01*
X30367751Y16639463D01*
X30477189Y16475678D01*
X30552571Y16293689D01*
X30591000Y16100491D01*
X30591000Y15903509D01*
X30552571Y15710311D01*
X30477189Y15528322D01*
X30367751Y15364537D01*
X30228463Y15225249D01*
X30064678Y15115811D01*
X29882689Y15040429D01*
X29818290Y15027619D01*
X29689493Y15002000D01*
X29492507Y15002000D01*
X29363710Y15027619D01*
X29299311Y15040429D01*
X29117322Y15115811D01*
X28953537Y15225249D01*
X28814249Y15364537D01*
X28704811Y15528322D01*
X28629429Y15710311D01*
X28591000Y15903509D01*
X28591000Y16100491D01*
X28629429Y16293689D01*
X28704811Y16475678D01*
X28814249Y16639463D01*
X28953537Y16778751D01*
X29117322Y16888189D01*
X29299311Y16963571D01*
X29363710Y16976381D01*
X29492507Y17002000D01*
X29689493Y17002000D01*
X29818290Y16976381D01*
X29818290Y16976381D01*
G37*
G36*
X25627290Y16976381D02*
G01*
X25691689Y16963571D01*
X25873678Y16888189D01*
X26037463Y16778751D01*
X26176751Y16639463D01*
X26286189Y16475678D01*
X26361571Y16293689D01*
X26400000Y16100491D01*
X26400000Y15903509D01*
X26361571Y15710311D01*
X26286189Y15528322D01*
X26176751Y15364537D01*
X26037463Y15225249D01*
X25873678Y15115811D01*
X25691689Y15040429D01*
X25627290Y15027619D01*
X25498493Y15002000D01*
X25301507Y15002000D01*
X25172710Y15027619D01*
X25108311Y15040429D01*
X24926322Y15115811D01*
X24762537Y15225249D01*
X24623249Y15364537D01*
X24513811Y15528322D01*
X24438429Y15710311D01*
X24400000Y15903509D01*
X24400000Y16100491D01*
X24438429Y16293689D01*
X24513811Y16475678D01*
X24623249Y16639463D01*
X24762537Y16778751D01*
X24926322Y16888189D01*
X25108311Y16963571D01*
X25172710Y16976381D01*
X25301507Y17002000D01*
X25498493Y17002000D01*
X25627290Y16976381D01*
X25627290Y16976381D01*
G37*
G36*
X21436290Y16976381D02*
G01*
X21500689Y16963571D01*
X21682678Y16888189D01*
X21846463Y16778751D01*
X21985751Y16639463D01*
X22095189Y16475678D01*
X22170571Y16293689D01*
X22209000Y16100491D01*
X22209000Y15903509D01*
X22170571Y15710311D01*
X22095189Y15528322D01*
X21985751Y15364537D01*
X21846463Y15225249D01*
X21682678Y15115811D01*
X21500689Y15040429D01*
X21436290Y15027619D01*
X21307493Y15002000D01*
X21110507Y15002000D01*
X20981710Y15027619D01*
X20917311Y15040429D01*
X20735322Y15115811D01*
X20571537Y15225249D01*
X20432249Y15364537D01*
X20322811Y15528322D01*
X20247429Y15710311D01*
X20209000Y15903509D01*
X20209000Y16100491D01*
X20247429Y16293689D01*
X20322811Y16475678D01*
X20432249Y16639463D01*
X20571537Y16778751D01*
X20735322Y16888189D01*
X20917311Y16963571D01*
X20981710Y16976381D01*
X21110507Y17002000D01*
X21307493Y17002000D01*
X21436290Y16976381D01*
X21436290Y16976381D01*
G37*
G36*
X11983991Y16881425D02*
G01*
X12017879Y16871145D01*
X12049112Y16854450D01*
X12076486Y16831986D01*
X12098950Y16804612D01*
X12115645Y16773379D01*
X12125925Y16739491D01*
X12130000Y16698112D01*
X12130000Y16097888D01*
X12125925Y16056509D01*
X12115645Y16022621D01*
X12098950Y15991388D01*
X12076486Y15964014D01*
X12049112Y15941550D01*
X12017879Y15924855D01*
X11983991Y15914575D01*
X11942612Y15910500D01*
X10917388Y15910500D01*
X10876009Y15914575D01*
X10842121Y15924855D01*
X10810888Y15941550D01*
X10783514Y15964014D01*
X10761050Y15991388D01*
X10744355Y16022621D01*
X10734075Y16056509D01*
X10730000Y16097888D01*
X10730000Y16698112D01*
X10734075Y16739491D01*
X10744355Y16773379D01*
X10761050Y16804612D01*
X10783514Y16831986D01*
X10810888Y16854450D01*
X10842121Y16871145D01*
X10876009Y16881425D01*
X10917388Y16885500D01*
X11942612Y16885500D01*
X11983991Y16881425D01*
X11983991Y16881425D01*
G37*
G36*
X79990000Y16149000D02*
G01*
X77490000Y16149000D01*
X77490000Y18649000D01*
X79990000Y18649000D01*
X79990000Y16149000D01*
X79990000Y16149000D01*
G37*
G36*
X44966991Y17713925D02*
G01*
X45000879Y17703645D01*
X45032112Y17686950D01*
X45059486Y17664486D01*
X45081950Y17637112D01*
X45098645Y17605879D01*
X45108925Y17571991D01*
X45113000Y17530612D01*
X45113000Y16505388D01*
X45108925Y16464009D01*
X45098645Y16430121D01*
X45081950Y16398888D01*
X45059486Y16371514D01*
X45032112Y16349050D01*
X45000879Y16332355D01*
X44966991Y16322075D01*
X44925612Y16318000D01*
X44325388Y16318000D01*
X44284009Y16322075D01*
X44250121Y16332355D01*
X44218888Y16349050D01*
X44191514Y16371514D01*
X44169050Y16398888D01*
X44152355Y16430121D01*
X44142075Y16464009D01*
X44138000Y16505388D01*
X44138000Y17530612D01*
X44142075Y17571991D01*
X44152355Y17605879D01*
X44169050Y17637112D01*
X44191514Y17664486D01*
X44218888Y17686950D01*
X44250121Y17703645D01*
X44284009Y17713925D01*
X44325388Y17718000D01*
X44925612Y17718000D01*
X44966991Y17713925D01*
X44966991Y17713925D01*
G37*
G36*
X43091991Y17713925D02*
G01*
X43125879Y17703645D01*
X43157112Y17686950D01*
X43184486Y17664486D01*
X43206950Y17637112D01*
X43223645Y17605879D01*
X43233925Y17571991D01*
X43238000Y17530612D01*
X43238000Y16505388D01*
X43233925Y16464009D01*
X43223645Y16430121D01*
X43206950Y16398888D01*
X43184486Y16371514D01*
X43157112Y16349050D01*
X43125879Y16332355D01*
X43091991Y16322075D01*
X43050612Y16318000D01*
X42450388Y16318000D01*
X42409009Y16322075D01*
X42375121Y16332355D01*
X42343888Y16349050D01*
X42316514Y16371514D01*
X42294050Y16398888D01*
X42277355Y16430121D01*
X42267075Y16464009D01*
X42263000Y16505388D01*
X42263000Y17530612D01*
X42267075Y17571991D01*
X42277355Y17605879D01*
X42294050Y17637112D01*
X42316514Y17664486D01*
X42343888Y17686950D01*
X42375121Y17703645D01*
X42409009Y17713925D01*
X42450388Y17718000D01*
X43050612Y17718000D01*
X43091991Y17713925D01*
X43091991Y17713925D01*
G37*
G36*
X14309000Y16684000D02*
G01*
X13409000Y16684000D01*
X13409000Y17484000D01*
X14309000Y17484000D01*
X14309000Y16684000D01*
X14309000Y16684000D01*
G37*
G36*
X16309000Y17634000D02*
G01*
X15409000Y17634000D01*
X15409000Y18434000D01*
X16309000Y18434000D01*
X16309000Y17634000D01*
X16309000Y17634000D01*
G37*
G36*
X11983991Y18756425D02*
G01*
X12017879Y18746145D01*
X12049112Y18729450D01*
X12076486Y18706986D01*
X12098950Y18679612D01*
X12115645Y18648379D01*
X12125925Y18614491D01*
X12130000Y18573112D01*
X12130000Y17972888D01*
X12125925Y17931509D01*
X12115645Y17897621D01*
X12098950Y17866388D01*
X12076486Y17839014D01*
X12049112Y17816550D01*
X12017879Y17799855D01*
X11983991Y17789575D01*
X11942612Y17785500D01*
X10917388Y17785500D01*
X10876009Y17789575D01*
X10842121Y17799855D01*
X10810888Y17816550D01*
X10783514Y17839014D01*
X10761050Y17866388D01*
X10744355Y17897621D01*
X10734075Y17931509D01*
X10730000Y17972888D01*
X10730000Y18573112D01*
X10734075Y18614491D01*
X10744355Y18648379D01*
X10761050Y18679612D01*
X10783514Y18706986D01*
X10810888Y18729450D01*
X10842121Y18746145D01*
X10876009Y18756425D01*
X10917388Y18760500D01*
X11942612Y18760500D01*
X11983991Y18756425D01*
X11983991Y18756425D01*
G37*
G36*
X4484627Y19633701D02*
G01*
X4564742Y19609398D01*
X4644855Y19585097D01*
X4644857Y19585096D01*
X4792518Y19506169D01*
X4921949Y19399949D01*
X5028169Y19270518D01*
X5107096Y19122857D01*
X5155701Y18962627D01*
X5172112Y18796000D01*
X5155701Y18629373D01*
X5149833Y18610029D01*
X5121538Y18516750D01*
X5107096Y18469143D01*
X5028169Y18321482D01*
X4921949Y18192051D01*
X4792518Y18085831D01*
X4686663Y18029250D01*
X4644855Y18006903D01*
X4564742Y17982602D01*
X4484627Y17958299D01*
X4359752Y17946000D01*
X4276248Y17946000D01*
X4151373Y17958299D01*
X4071258Y17982602D01*
X3991145Y18006903D01*
X3949337Y18029250D01*
X3843482Y18085831D01*
X3714051Y18192051D01*
X3607831Y18321482D01*
X3528904Y18469143D01*
X3514463Y18516750D01*
X3486167Y18610029D01*
X3480299Y18629373D01*
X3463888Y18796000D01*
X3480299Y18962627D01*
X3528904Y19122857D01*
X3607831Y19270518D01*
X3714051Y19399949D01*
X3843482Y19506169D01*
X3991143Y19585096D01*
X3991145Y19585097D01*
X4071258Y19609398D01*
X4151373Y19633701D01*
X4276248Y19646000D01*
X4359752Y19646000D01*
X4484627Y19633701D01*
X4484627Y19633701D01*
G37*
G36*
X7024627Y19633701D02*
G01*
X7104742Y19609398D01*
X7184855Y19585097D01*
X7184857Y19585096D01*
X7332518Y19506169D01*
X7461949Y19399949D01*
X7568169Y19270518D01*
X7647096Y19122857D01*
X7695701Y18962627D01*
X7712112Y18796000D01*
X7695701Y18629373D01*
X7689833Y18610029D01*
X7661538Y18516750D01*
X7647096Y18469143D01*
X7568169Y18321482D01*
X7461949Y18192051D01*
X7332518Y18085831D01*
X7226663Y18029250D01*
X7184855Y18006903D01*
X7104742Y17982602D01*
X7024627Y17958299D01*
X6899752Y17946000D01*
X6816248Y17946000D01*
X6691373Y17958299D01*
X6611258Y17982602D01*
X6531145Y18006903D01*
X6489337Y18029250D01*
X6383482Y18085831D01*
X6254051Y18192051D01*
X6147831Y18321482D01*
X6068904Y18469143D01*
X6054463Y18516750D01*
X6026167Y18610029D01*
X6020299Y18629373D01*
X6003888Y18796000D01*
X6020299Y18962627D01*
X6068904Y19122857D01*
X6147831Y19270518D01*
X6254051Y19399949D01*
X6383482Y19506169D01*
X6531143Y19585096D01*
X6531145Y19585097D01*
X6611258Y19609398D01*
X6691373Y19633701D01*
X6816248Y19646000D01*
X6899752Y19646000D01*
X7024627Y19633701D01*
X7024627Y19633701D01*
G37*
G36*
X14309000Y18584000D02*
G01*
X13409000Y18584000D01*
X13409000Y19384000D01*
X14309000Y19384000D01*
X14309000Y18584000D01*
X14309000Y18584000D01*
G37*
G36*
X42553991Y20126925D02*
G01*
X42587879Y20116645D01*
X42619112Y20099950D01*
X42646486Y20077486D01*
X42668950Y20050112D01*
X42685645Y20018879D01*
X42695925Y19984991D01*
X42700000Y19943612D01*
X42700000Y18918388D01*
X42695925Y18877009D01*
X42685645Y18843121D01*
X42668950Y18811888D01*
X42646486Y18784514D01*
X42619112Y18762050D01*
X42587879Y18745355D01*
X42553991Y18735075D01*
X42512612Y18731000D01*
X41912388Y18731000D01*
X41871009Y18735075D01*
X41837121Y18745355D01*
X41805888Y18762050D01*
X41778514Y18784514D01*
X41756050Y18811888D01*
X41739355Y18843121D01*
X41729075Y18877009D01*
X41725000Y18918388D01*
X41725000Y19943612D01*
X41729075Y19984991D01*
X41739355Y20018879D01*
X41756050Y20050112D01*
X41778514Y20077486D01*
X41805888Y20099950D01*
X41837121Y20116645D01*
X41871009Y20126925D01*
X41912388Y20131000D01*
X42512612Y20131000D01*
X42553991Y20126925D01*
X42553991Y20126925D01*
G37*
G36*
X40678991Y20126925D02*
G01*
X40712879Y20116645D01*
X40744112Y20099950D01*
X40771486Y20077486D01*
X40793950Y20050112D01*
X40810645Y20018879D01*
X40820925Y19984991D01*
X40825000Y19943612D01*
X40825000Y18918388D01*
X40820925Y18877009D01*
X40810645Y18843121D01*
X40793950Y18811888D01*
X40771486Y18784514D01*
X40744112Y18762050D01*
X40712879Y18745355D01*
X40678991Y18735075D01*
X40637612Y18731000D01*
X40037388Y18731000D01*
X39996009Y18735075D01*
X39962121Y18745355D01*
X39930888Y18762050D01*
X39903514Y18784514D01*
X39881050Y18811888D01*
X39864355Y18843121D01*
X39854075Y18877009D01*
X39850000Y18918388D01*
X39850000Y19943612D01*
X39854075Y19984991D01*
X39864355Y20018879D01*
X39881050Y20050112D01*
X39903514Y20077486D01*
X39930888Y20099950D01*
X39962121Y20116645D01*
X39996009Y20126925D01*
X40037388Y20131000D01*
X40637612Y20131000D01*
X40678991Y20126925D01*
X40678991Y20126925D01*
G37*
G36*
X59183000Y19705000D02*
G01*
X52783000Y19705000D01*
X52783000Y25505000D01*
X59183000Y25505000D01*
X59183000Y19705000D01*
X59183000Y19705000D01*
G37*
G36*
X72610000Y19706000D02*
G01*
X66210000Y19706000D01*
X66210000Y25506000D01*
X72610000Y25506000D01*
X72610000Y19706000D01*
X72610000Y19706000D01*
G37*
G36*
X50783000Y19725000D02*
G01*
X48583000Y19725000D01*
X48583000Y20925000D01*
X50783000Y20925000D01*
X50783000Y19725000D01*
X50783000Y19725000D01*
G37*
G36*
X64210000Y19726000D02*
G01*
X62010000Y19726000D01*
X62010000Y20926000D01*
X64210000Y20926000D01*
X64210000Y19726000D01*
X64210000Y19726000D01*
G37*
G36*
X46273991Y20818425D02*
G01*
X46307879Y20808145D01*
X46339112Y20791450D01*
X46366486Y20768986D01*
X46388950Y20741612D01*
X46405645Y20710379D01*
X46415925Y20676491D01*
X46420000Y20635112D01*
X46420000Y20034888D01*
X46415925Y19993509D01*
X46405645Y19959621D01*
X46388950Y19928388D01*
X46366486Y19901014D01*
X46339112Y19878550D01*
X46307879Y19861855D01*
X46273991Y19851575D01*
X46232612Y19847500D01*
X45207388Y19847500D01*
X45166009Y19851575D01*
X45132121Y19861855D01*
X45100888Y19878550D01*
X45073514Y19901014D01*
X45051050Y19928388D01*
X45034355Y19959621D01*
X45024075Y19993509D01*
X45020000Y20034888D01*
X45020000Y20635112D01*
X45024075Y20676491D01*
X45034355Y20710379D01*
X45051050Y20741612D01*
X45073514Y20768986D01*
X45100888Y20791450D01*
X45132121Y20808145D01*
X45166009Y20818425D01*
X45207388Y20822500D01*
X46232612Y20822500D01*
X46273991Y20818425D01*
X46273991Y20818425D01*
G37*
G36*
X7024627Y22173701D02*
G01*
X7103583Y22149750D01*
X7184855Y22125097D01*
X7184857Y22125096D01*
X7332518Y22046169D01*
X7461949Y21939949D01*
X7568169Y21810518D01*
X7647096Y21662857D01*
X7695701Y21502627D01*
X7712112Y21336000D01*
X7695701Y21169373D01*
X7647096Y21009143D01*
X7568169Y20861482D01*
X7461949Y20732051D01*
X7332518Y20625831D01*
X7244436Y20578750D01*
X7184855Y20546903D01*
X7104742Y20522602D01*
X7024627Y20498299D01*
X6899752Y20486000D01*
X6816248Y20486000D01*
X6691373Y20498299D01*
X6611258Y20522602D01*
X6531145Y20546903D01*
X6471564Y20578750D01*
X6383482Y20625831D01*
X6254051Y20732051D01*
X6147831Y20861482D01*
X6068904Y21009143D01*
X6020299Y21169373D01*
X6003888Y21336000D01*
X6020299Y21502627D01*
X6068904Y21662857D01*
X6147831Y21810518D01*
X6254051Y21939949D01*
X6383482Y22046169D01*
X6531143Y22125096D01*
X6531145Y22125097D01*
X6612417Y22149750D01*
X6691373Y22173701D01*
X6816248Y22186000D01*
X6899752Y22186000D01*
X7024627Y22173701D01*
X7024627Y22173701D01*
G37*
G36*
X4484627Y22173701D02*
G01*
X4563583Y22149750D01*
X4644855Y22125097D01*
X4644857Y22125096D01*
X4792518Y22046169D01*
X4921949Y21939949D01*
X5028169Y21810518D01*
X5107096Y21662857D01*
X5155701Y21502627D01*
X5172112Y21336000D01*
X5155701Y21169373D01*
X5107096Y21009143D01*
X5028169Y20861482D01*
X4921949Y20732051D01*
X4792518Y20625831D01*
X4704436Y20578750D01*
X4644855Y20546903D01*
X4564742Y20522602D01*
X4484627Y20498299D01*
X4359752Y20486000D01*
X4276248Y20486000D01*
X4151373Y20498299D01*
X4071258Y20522602D01*
X3991145Y20546903D01*
X3931564Y20578750D01*
X3843482Y20625831D01*
X3714051Y20732051D01*
X3607831Y20861482D01*
X3528904Y21009143D01*
X3480299Y21169373D01*
X3463888Y21336000D01*
X3480299Y21502627D01*
X3528904Y21662857D01*
X3607831Y21810518D01*
X3714051Y21939949D01*
X3843482Y22046169D01*
X3991143Y22125096D01*
X3991145Y22125097D01*
X4072417Y22149750D01*
X4151373Y22173701D01*
X4276248Y22186000D01*
X4359752Y22186000D01*
X4484627Y22173701D01*
X4484627Y22173701D01*
G37*
G36*
X79104610Y23680964D02*
G01*
X79332095Y23586736D01*
X79332097Y23586735D01*
X79536828Y23449938D01*
X79710938Y23275828D01*
X79837174Y23086903D01*
X79847736Y23071095D01*
X79941964Y22843610D01*
X79990000Y22602116D01*
X79990000Y22355884D01*
X79941964Y22114390D01*
X79857333Y21910075D01*
X79847735Y21886903D01*
X79710938Y21682172D01*
X79536828Y21508062D01*
X79332097Y21371265D01*
X79332096Y21371264D01*
X79332095Y21371264D01*
X79104610Y21277036D01*
X78863116Y21229000D01*
X78616884Y21229000D01*
X78375390Y21277036D01*
X78147905Y21371264D01*
X78147904Y21371264D01*
X78147903Y21371265D01*
X77943172Y21508062D01*
X77769062Y21682172D01*
X77632265Y21886903D01*
X77622667Y21910075D01*
X77538036Y22114390D01*
X77490000Y22355884D01*
X77490000Y22602116D01*
X77538036Y22843610D01*
X77632264Y23071095D01*
X77642827Y23086903D01*
X77769062Y23275828D01*
X77943172Y23449938D01*
X78147903Y23586735D01*
X78147905Y23586736D01*
X78375390Y23680964D01*
X78616884Y23729000D01*
X78863116Y23729000D01*
X79104610Y23680964D01*
X79104610Y23680964D01*
G37*
G36*
X46273991Y22693425D02*
G01*
X46307879Y22683145D01*
X46339112Y22666450D01*
X46366486Y22643986D01*
X46388950Y22616612D01*
X46405645Y22585379D01*
X46415925Y22551491D01*
X46420000Y22510112D01*
X46420000Y21909888D01*
X46415925Y21868509D01*
X46405645Y21834621D01*
X46388950Y21803388D01*
X46366486Y21776014D01*
X46339112Y21753550D01*
X46307879Y21736855D01*
X46273991Y21726575D01*
X46232612Y21722500D01*
X45207388Y21722500D01*
X45166009Y21726575D01*
X45132121Y21736855D01*
X45100888Y21753550D01*
X45073514Y21776014D01*
X45051050Y21803388D01*
X45034355Y21834621D01*
X45024075Y21868509D01*
X45020000Y21909888D01*
X45020000Y22510112D01*
X45024075Y22551491D01*
X45034355Y22585379D01*
X45051050Y22616612D01*
X45073514Y22643986D01*
X45100888Y22666450D01*
X45132121Y22683145D01*
X45166009Y22693425D01*
X45207388Y22697500D01*
X46232612Y22697500D01*
X46273991Y22693425D01*
X46273991Y22693425D01*
G37*
G36*
X17153991Y23301925D02*
G01*
X17187879Y23291645D01*
X17219112Y23274950D01*
X17246486Y23252486D01*
X17268950Y23225112D01*
X17285645Y23193879D01*
X17295925Y23159991D01*
X17300000Y23118612D01*
X17300000Y22093388D01*
X17295925Y22052009D01*
X17285645Y22018121D01*
X17268950Y21986888D01*
X17246486Y21959514D01*
X17219112Y21937050D01*
X17187879Y21920355D01*
X17153991Y21910075D01*
X17112612Y21906000D01*
X16512388Y21906000D01*
X16471009Y21910075D01*
X16437121Y21920355D01*
X16405888Y21937050D01*
X16378514Y21959514D01*
X16356050Y21986888D01*
X16339355Y22018121D01*
X16329075Y22052009D01*
X16325000Y22093388D01*
X16325000Y23118612D01*
X16329075Y23159991D01*
X16339355Y23193879D01*
X16356050Y23225112D01*
X16378514Y23252486D01*
X16405888Y23274950D01*
X16437121Y23291645D01*
X16471009Y23301925D01*
X16512388Y23306000D01*
X17112612Y23306000D01*
X17153991Y23301925D01*
X17153991Y23301925D01*
G37*
G36*
X15278991Y23301925D02*
G01*
X15312879Y23291645D01*
X15344112Y23274950D01*
X15371486Y23252486D01*
X15393950Y23225112D01*
X15410645Y23193879D01*
X15420925Y23159991D01*
X15425000Y23118612D01*
X15425000Y22093388D01*
X15420925Y22052009D01*
X15410645Y22018121D01*
X15393950Y21986888D01*
X15371486Y21959514D01*
X15344112Y21937050D01*
X15312879Y21920355D01*
X15278991Y21910075D01*
X15237612Y21906000D01*
X14637388Y21906000D01*
X14596009Y21910075D01*
X14562121Y21920355D01*
X14530888Y21937050D01*
X14503514Y21959514D01*
X14481050Y21986888D01*
X14464355Y22018121D01*
X14454075Y22052009D01*
X14450000Y22093388D01*
X14450000Y23118612D01*
X14454075Y23159991D01*
X14464355Y23193879D01*
X14481050Y23225112D01*
X14503514Y23252486D01*
X14530888Y23274950D01*
X14562121Y23291645D01*
X14596009Y23301925D01*
X14637388Y23306000D01*
X15237612Y23306000D01*
X15278991Y23301925D01*
X15278991Y23301925D01*
G37*
G36*
X12419290Y24405881D02*
G01*
X12483689Y24393071D01*
X12665678Y24317689D01*
X12829463Y24208251D01*
X12968751Y24068963D01*
X13078189Y23905178D01*
X13153571Y23723189D01*
X13161970Y23680964D01*
X13192000Y23529993D01*
X13192000Y23333007D01*
X13179875Y23272052D01*
X13153571Y23139811D01*
X13078189Y22957822D01*
X12968751Y22794037D01*
X12829463Y22654749D01*
X12665678Y22545311D01*
X12483689Y22469929D01*
X12419290Y22457119D01*
X12290493Y22431500D01*
X12093507Y22431500D01*
X11964710Y22457119D01*
X11900311Y22469929D01*
X11718322Y22545311D01*
X11554537Y22654749D01*
X11415249Y22794037D01*
X11305811Y22957822D01*
X11230429Y23139811D01*
X11204125Y23272052D01*
X11192000Y23333007D01*
X11192000Y23529993D01*
X11222030Y23680964D01*
X11230429Y23723189D01*
X11305811Y23905178D01*
X11415249Y24068963D01*
X11554537Y24208251D01*
X11718322Y24317689D01*
X11900311Y24393071D01*
X11964710Y24405881D01*
X12093507Y24431500D01*
X12290493Y24431500D01*
X12419290Y24405881D01*
X12419290Y24405881D01*
G37*
G36*
X4484627Y24713701D02*
G01*
X4564742Y24689399D01*
X4644855Y24665097D01*
X4644857Y24665096D01*
X4792518Y24586169D01*
X4921949Y24479949D01*
X5028169Y24350518D01*
X5102982Y24210554D01*
X5107097Y24202855D01*
X5131398Y24122742D01*
X5155701Y24042627D01*
X5172112Y23876000D01*
X5155701Y23709373D01*
X5155700Y23709371D01*
X5118500Y23586735D01*
X5107096Y23549143D01*
X5028169Y23401482D01*
X4921949Y23272051D01*
X4792518Y23165831D01*
X4644857Y23086904D01*
X4644855Y23086903D01*
X4564742Y23062601D01*
X4484627Y23038299D01*
X4359752Y23026000D01*
X4276248Y23026000D01*
X4151373Y23038299D01*
X4071258Y23062601D01*
X3991145Y23086903D01*
X3991143Y23086904D01*
X3843482Y23165831D01*
X3714051Y23272051D01*
X3607831Y23401482D01*
X3528904Y23549143D01*
X3517501Y23586735D01*
X3480300Y23709371D01*
X3480299Y23709373D01*
X3463888Y23876000D01*
X3480299Y24042627D01*
X3504602Y24122742D01*
X3528903Y24202855D01*
X3533018Y24210554D01*
X3607831Y24350518D01*
X3714051Y24479949D01*
X3843482Y24586169D01*
X3991143Y24665096D01*
X3991145Y24665097D01*
X4071258Y24689399D01*
X4151373Y24713701D01*
X4276248Y24726000D01*
X4359752Y24726000D01*
X4484627Y24713701D01*
X4484627Y24713701D01*
G37*
G36*
X7024627Y24713701D02*
G01*
X7104742Y24689399D01*
X7184855Y24665097D01*
X7184857Y24665096D01*
X7332518Y24586169D01*
X7461949Y24479949D01*
X7568169Y24350518D01*
X7642982Y24210554D01*
X7647097Y24202855D01*
X7671398Y24122742D01*
X7695701Y24042627D01*
X7712112Y23876000D01*
X7695701Y23709373D01*
X7695700Y23709371D01*
X7658500Y23586735D01*
X7647096Y23549143D01*
X7568169Y23401482D01*
X7461949Y23272051D01*
X7332518Y23165831D01*
X7184857Y23086904D01*
X7184855Y23086903D01*
X7104742Y23062601D01*
X7024627Y23038299D01*
X6899752Y23026000D01*
X6816248Y23026000D01*
X6691373Y23038299D01*
X6611258Y23062601D01*
X6531145Y23086903D01*
X6531143Y23086904D01*
X6383482Y23165831D01*
X6254051Y23272051D01*
X6147831Y23401482D01*
X6068904Y23549143D01*
X6057501Y23586735D01*
X6020300Y23709371D01*
X6020299Y23709373D01*
X6003888Y23876000D01*
X6020299Y24042627D01*
X6044602Y24122742D01*
X6068903Y24202855D01*
X6073018Y24210554D01*
X6147831Y24350518D01*
X6254051Y24479949D01*
X6383482Y24586169D01*
X6531143Y24665096D01*
X6531145Y24665097D01*
X6611258Y24689399D01*
X6691373Y24713701D01*
X6816248Y24726000D01*
X6899752Y24726000D01*
X7024627Y24713701D01*
X7024627Y24713701D01*
G37*
G36*
X44615991Y25587925D02*
G01*
X44649879Y25577645D01*
X44681112Y25560950D01*
X44708486Y25538486D01*
X44730950Y25511112D01*
X44747645Y25479879D01*
X44757925Y25445991D01*
X44762000Y25404612D01*
X44762000Y24379388D01*
X44757925Y24338009D01*
X44747645Y24304121D01*
X44730950Y24272888D01*
X44708486Y24245514D01*
X44681112Y24223050D01*
X44649879Y24206355D01*
X44615991Y24196075D01*
X44574612Y24192000D01*
X43974388Y24192000D01*
X43933009Y24196075D01*
X43899121Y24206355D01*
X43867888Y24223050D01*
X43840514Y24245514D01*
X43818050Y24272888D01*
X43801355Y24304121D01*
X43791075Y24338009D01*
X43787000Y24379388D01*
X43787000Y25404612D01*
X43791075Y25445991D01*
X43801355Y25479879D01*
X43818050Y25511112D01*
X43840514Y25538486D01*
X43867888Y25560950D01*
X43899121Y25577645D01*
X43933009Y25587925D01*
X43974388Y25592000D01*
X44574612Y25592000D01*
X44615991Y25587925D01*
X44615991Y25587925D01*
G37*
G36*
X46490991Y25587925D02*
G01*
X46524879Y25577645D01*
X46556112Y25560950D01*
X46583486Y25538486D01*
X46605950Y25511112D01*
X46622645Y25479879D01*
X46632925Y25445991D01*
X46637000Y25404612D01*
X46637000Y24379388D01*
X46632925Y24338009D01*
X46622645Y24304121D01*
X46605950Y24272888D01*
X46583486Y24245514D01*
X46556112Y24223050D01*
X46524879Y24206355D01*
X46490991Y24196075D01*
X46449612Y24192000D01*
X45849388Y24192000D01*
X45808009Y24196075D01*
X45774121Y24206355D01*
X45742888Y24223050D01*
X45715514Y24245514D01*
X45693050Y24272888D01*
X45676355Y24304121D01*
X45666075Y24338009D01*
X45662000Y24379388D01*
X45662000Y25404612D01*
X45666075Y25445991D01*
X45676355Y25479879D01*
X45693050Y25511112D01*
X45715514Y25538486D01*
X45742888Y25560950D01*
X45774121Y25577645D01*
X45808009Y25587925D01*
X45849388Y25592000D01*
X46449612Y25592000D01*
X46490991Y25587925D01*
X46490991Y25587925D01*
G37*
G36*
X50783000Y24285000D02*
G01*
X48583000Y24285000D01*
X48583000Y25485000D01*
X50783000Y25485000D01*
X50783000Y24285000D01*
X50783000Y24285000D01*
G37*
G36*
X64210000Y24286000D02*
G01*
X62010000Y24286000D01*
X62010000Y25486000D01*
X64210000Y25486000D01*
X64210000Y24286000D01*
X64210000Y24286000D01*
G37*
G36*
X16736024Y26399045D02*
G01*
X16768738Y26389121D01*
X16798885Y26373007D01*
X16825315Y26351315D01*
X16847007Y26324885D01*
X16863121Y26294738D01*
X16873045Y26262024D01*
X16877000Y26221862D01*
X16877000Y25334138D01*
X16873045Y25293976D01*
X16863121Y25261262D01*
X16847007Y25231115D01*
X16825315Y25204685D01*
X16798885Y25182993D01*
X16768738Y25166879D01*
X16736024Y25156955D01*
X16695862Y25153000D01*
X15308138Y25153000D01*
X15267976Y25156955D01*
X15235262Y25166879D01*
X15205115Y25182993D01*
X15178685Y25204685D01*
X15156993Y25231115D01*
X15140879Y25261262D01*
X15130955Y25293976D01*
X15127000Y25334138D01*
X15127000Y26221862D01*
X15130955Y26262024D01*
X15140879Y26294738D01*
X15156993Y26324885D01*
X15178685Y26351315D01*
X15205115Y26373007D01*
X15235262Y26389121D01*
X15267976Y26399045D01*
X15308138Y26403000D01*
X16695862Y26403000D01*
X16736024Y26399045D01*
X16736024Y26399045D01*
G37*
G36*
X7024627Y27253701D02*
G01*
X7104742Y27229399D01*
X7184855Y27205097D01*
X7184857Y27205096D01*
X7332518Y27126169D01*
X7461949Y27019949D01*
X7568169Y26890518D01*
X7647096Y26742857D01*
X7695701Y26582627D01*
X7712112Y26416000D01*
X7695701Y26249373D01*
X7647096Y26089143D01*
X7568169Y25941482D01*
X7461949Y25812051D01*
X7332518Y25705831D01*
X7184857Y25626904D01*
X7184855Y25626903D01*
X7104742Y25602601D01*
X7024627Y25578299D01*
X6899752Y25566000D01*
X6816248Y25566000D01*
X6691373Y25578299D01*
X6611258Y25602601D01*
X6531145Y25626903D01*
X6531143Y25626904D01*
X6383482Y25705831D01*
X6254051Y25812051D01*
X6147831Y25941482D01*
X6068904Y26089143D01*
X6020299Y26249373D01*
X6003888Y26416000D01*
X6020299Y26582627D01*
X6068904Y26742857D01*
X6147831Y26890518D01*
X6254051Y27019949D01*
X6383482Y27126169D01*
X6531143Y27205096D01*
X6531145Y27205097D01*
X6611258Y27229399D01*
X6691373Y27253701D01*
X6816248Y27266000D01*
X6899752Y27266000D01*
X7024627Y27253701D01*
X7024627Y27253701D01*
G37*
G36*
X4484627Y27253701D02*
G01*
X4564742Y27229399D01*
X4644855Y27205097D01*
X4644857Y27205096D01*
X4792518Y27126169D01*
X4921949Y27019949D01*
X5028169Y26890518D01*
X5107096Y26742857D01*
X5155701Y26582627D01*
X5172112Y26416000D01*
X5155701Y26249373D01*
X5107096Y26089143D01*
X5028169Y25941482D01*
X4921949Y25812051D01*
X4792518Y25705831D01*
X4644857Y25626904D01*
X4644855Y25626903D01*
X4564742Y25602601D01*
X4484627Y25578299D01*
X4359752Y25566000D01*
X4276248Y25566000D01*
X4151373Y25578299D01*
X4071258Y25602601D01*
X3991145Y25626903D01*
X3991143Y25626904D01*
X3843482Y25705831D01*
X3714051Y25812051D01*
X3607831Y25941482D01*
X3528904Y26089143D01*
X3480299Y26249373D01*
X3463888Y26416000D01*
X3480299Y26582627D01*
X3528904Y26742857D01*
X3607831Y26890518D01*
X3714051Y27019949D01*
X3843482Y27126169D01*
X3991143Y27205096D01*
X3991145Y27205097D01*
X4071258Y27229399D01*
X4151373Y27253701D01*
X4276248Y27266000D01*
X4359752Y27266000D01*
X4484627Y27253701D01*
X4484627Y27253701D01*
G37*
G36*
X12419290Y28279381D02*
G01*
X12483689Y28266571D01*
X12665678Y28191189D01*
X12829463Y28081751D01*
X12968751Y27942463D01*
X13078189Y27778678D01*
X13153571Y27596689D01*
X13153571Y27596688D01*
X13192000Y27403493D01*
X13192000Y27206507D01*
X13166381Y27077710D01*
X13153571Y27013311D01*
X13078189Y26831322D01*
X12968751Y26667537D01*
X12829463Y26528249D01*
X12665678Y26418811D01*
X12483689Y26343429D01*
X12419290Y26330619D01*
X12290493Y26305000D01*
X12093507Y26305000D01*
X11964710Y26330619D01*
X11900311Y26343429D01*
X11718322Y26418811D01*
X11554537Y26528249D01*
X11415249Y26667537D01*
X11305811Y26831322D01*
X11230429Y27013311D01*
X11217619Y27077710D01*
X11192000Y27206507D01*
X11192000Y27403493D01*
X11230429Y27596688D01*
X11230429Y27596689D01*
X11305811Y27778678D01*
X11415249Y27942463D01*
X11554537Y28081751D01*
X11718322Y28191189D01*
X11900311Y28266571D01*
X11964710Y28279381D01*
X12093507Y28305000D01*
X12290493Y28305000D01*
X12419290Y28279381D01*
X12419290Y28279381D01*
G37*
G36*
X79104610Y28760964D02*
G01*
X79332095Y28666736D01*
X79332097Y28666735D01*
X79536828Y28529938D01*
X79710938Y28355828D01*
X79845644Y28154227D01*
X79847736Y28151095D01*
X79941964Y27923610D01*
X79990000Y27682116D01*
X79990000Y27435884D01*
X79941964Y27194390D01*
X79866958Y27013311D01*
X79847735Y26966903D01*
X79710938Y26762172D01*
X79536828Y26588062D01*
X79332097Y26451265D01*
X79332096Y26451264D01*
X79332095Y26451264D01*
X79104610Y26357036D01*
X78863116Y26309000D01*
X78616884Y26309000D01*
X78375390Y26357036D01*
X78147905Y26451264D01*
X78147904Y26451264D01*
X78147903Y26451265D01*
X77943172Y26588062D01*
X77769062Y26762172D01*
X77632265Y26966903D01*
X77613042Y27013311D01*
X77538036Y27194390D01*
X77490000Y27435884D01*
X77490000Y27682116D01*
X77538036Y27923610D01*
X77632264Y28151095D01*
X77634357Y28154227D01*
X77769062Y28355828D01*
X77943172Y28529938D01*
X78147903Y28666735D01*
X78147905Y28666736D01*
X78375390Y28760964D01*
X78616884Y28809000D01*
X78863116Y28809000D01*
X79104610Y28760964D01*
X79104610Y28760964D01*
G37*
G36*
X45093991Y28000925D02*
G01*
X45127879Y27990645D01*
X45159112Y27973950D01*
X45186486Y27951486D01*
X45208950Y27924112D01*
X45225645Y27892879D01*
X45235925Y27858991D01*
X45240000Y27817612D01*
X45240000Y26792388D01*
X45235925Y26751009D01*
X45225645Y26717121D01*
X45208950Y26685888D01*
X45186486Y26658514D01*
X45159112Y26636050D01*
X45127879Y26619355D01*
X45093991Y26609075D01*
X45052612Y26605000D01*
X44452388Y26605000D01*
X44411009Y26609075D01*
X44377121Y26619355D01*
X44345888Y26636050D01*
X44318514Y26658514D01*
X44296050Y26685888D01*
X44279355Y26717121D01*
X44269075Y26751009D01*
X44265000Y26792388D01*
X44265000Y27817612D01*
X44269075Y27858991D01*
X44279355Y27892879D01*
X44296050Y27924112D01*
X44318514Y27951486D01*
X44345888Y27973950D01*
X44377121Y27990645D01*
X44411009Y28000925D01*
X44452388Y28005000D01*
X45052612Y28005000D01*
X45093991Y28000925D01*
X45093991Y28000925D01*
G37*
G36*
X43218991Y28000925D02*
G01*
X43252879Y27990645D01*
X43284112Y27973950D01*
X43311486Y27951486D01*
X43333950Y27924112D01*
X43350645Y27892879D01*
X43360925Y27858991D01*
X43365000Y27817612D01*
X43365000Y26792388D01*
X43360925Y26751009D01*
X43350645Y26717121D01*
X43333950Y26685888D01*
X43311486Y26658514D01*
X43284112Y26636050D01*
X43252879Y26619355D01*
X43218991Y26609075D01*
X43177612Y26605000D01*
X42577388Y26605000D01*
X42536009Y26609075D01*
X42502121Y26619355D01*
X42470888Y26636050D01*
X42443514Y26658514D01*
X42421050Y26685888D01*
X42404355Y26717121D01*
X42394075Y26751009D01*
X42390000Y26792388D01*
X42390000Y27817612D01*
X42394075Y27858991D01*
X42404355Y27892879D01*
X42421050Y27924112D01*
X42443514Y27951486D01*
X42470888Y27973950D01*
X42502121Y27990645D01*
X42536009Y28000925D01*
X42577388Y28005000D01*
X43177612Y28005000D01*
X43218991Y28000925D01*
X43218991Y28000925D01*
G37*
G36*
X16736024Y29199045D02*
G01*
X16768738Y29189121D01*
X16798885Y29173007D01*
X16825315Y29151315D01*
X16847007Y29124885D01*
X16863121Y29094738D01*
X16873045Y29062024D01*
X16877000Y29021862D01*
X16877000Y28134138D01*
X16873045Y28093976D01*
X16863121Y28061262D01*
X16847007Y28031115D01*
X16825315Y28004685D01*
X16798885Y27982993D01*
X16768738Y27966879D01*
X16736024Y27956955D01*
X16695862Y27953000D01*
X15308138Y27953000D01*
X15267976Y27956955D01*
X15235262Y27966879D01*
X15205115Y27982993D01*
X15178685Y28004685D01*
X15156993Y28031115D01*
X15140879Y28061262D01*
X15130955Y28093976D01*
X15127000Y28134138D01*
X15127000Y29021862D01*
X15130955Y29062024D01*
X15140879Y29094738D01*
X15156993Y29124885D01*
X15178685Y29151315D01*
X15205115Y29173007D01*
X15235262Y29189121D01*
X15267976Y29199045D01*
X15308138Y29203000D01*
X16695862Y29203000D01*
X16736024Y29199045D01*
X16736024Y29199045D01*
G37*
G36*
X7024627Y29793701D02*
G01*
X7104742Y29769398D01*
X7184855Y29745097D01*
X7184857Y29745096D01*
X7332518Y29666169D01*
X7461949Y29559949D01*
X7568169Y29430518D01*
X7647096Y29282857D01*
X7695701Y29122627D01*
X7712112Y28956000D01*
X7695701Y28789373D01*
X7695700Y28789371D01*
X7658500Y28666735D01*
X7647096Y28629143D01*
X7568169Y28481482D01*
X7461949Y28352051D01*
X7332518Y28245831D01*
X7184857Y28166904D01*
X7184855Y28166903D01*
X7104742Y28142602D01*
X7024627Y28118299D01*
X6899752Y28106000D01*
X6816248Y28106000D01*
X6691373Y28118299D01*
X6611258Y28142602D01*
X6531145Y28166903D01*
X6531143Y28166904D01*
X6383482Y28245831D01*
X6254051Y28352051D01*
X6147831Y28481482D01*
X6068904Y28629143D01*
X6057501Y28666735D01*
X6020300Y28789371D01*
X6020299Y28789373D01*
X6003888Y28956000D01*
X6020299Y29122627D01*
X6068904Y29282857D01*
X6147831Y29430518D01*
X6254051Y29559949D01*
X6383482Y29666169D01*
X6531143Y29745096D01*
X6531145Y29745097D01*
X6611258Y29769398D01*
X6691373Y29793701D01*
X6816248Y29806000D01*
X6899752Y29806000D01*
X7024627Y29793701D01*
X7024627Y29793701D01*
G37*
G36*
X5168000Y28106000D02*
G01*
X3468000Y28106000D01*
X3468000Y29806000D01*
X5168000Y29806000D01*
X5168000Y28106000D01*
X5168000Y28106000D01*
G37*
G36*
X41123491Y30223425D02*
G01*
X41157379Y30213145D01*
X41188612Y30196450D01*
X41215986Y30173986D01*
X41238450Y30146612D01*
X41255145Y30115379D01*
X41265425Y30081491D01*
X41269500Y30040112D01*
X41269500Y29014888D01*
X41265425Y28973509D01*
X41255145Y28939621D01*
X41238450Y28908388D01*
X41215986Y28881014D01*
X41188612Y28858550D01*
X41157379Y28841855D01*
X41123491Y28831575D01*
X41082112Y28827500D01*
X40481888Y28827500D01*
X40440509Y28831575D01*
X40406621Y28841855D01*
X40375388Y28858550D01*
X40348014Y28881014D01*
X40325550Y28908388D01*
X40308855Y28939621D01*
X40298575Y28973509D01*
X40294500Y29014888D01*
X40294500Y30040112D01*
X40298575Y30081491D01*
X40308855Y30115379D01*
X40325550Y30146612D01*
X40348014Y30173986D01*
X40375388Y30196450D01*
X40406621Y30213145D01*
X40440509Y30223425D01*
X40481888Y30227500D01*
X41082112Y30227500D01*
X41123491Y30223425D01*
X41123491Y30223425D01*
G37*
G36*
X42998491Y30223425D02*
G01*
X43032379Y30213145D01*
X43063612Y30196450D01*
X43090986Y30173986D01*
X43113450Y30146612D01*
X43130145Y30115379D01*
X43140425Y30081491D01*
X43144500Y30040112D01*
X43144500Y29014888D01*
X43140425Y28973509D01*
X43130145Y28939621D01*
X43113450Y28908388D01*
X43090986Y28881014D01*
X43063612Y28858550D01*
X43032379Y28841855D01*
X42998491Y28831575D01*
X42957112Y28827500D01*
X42356888Y28827500D01*
X42315509Y28831575D01*
X42281621Y28841855D01*
X42250388Y28858550D01*
X42223014Y28881014D01*
X42200550Y28908388D01*
X42183855Y28939621D01*
X42173575Y28973509D01*
X42169500Y29014888D01*
X42169500Y30040112D01*
X42173575Y30081491D01*
X42183855Y30115379D01*
X42200550Y30146612D01*
X42223014Y30173986D01*
X42250388Y30196450D01*
X42281621Y30213145D01*
X42315509Y30223425D01*
X42356888Y30227500D01*
X42957112Y30227500D01*
X42998491Y30223425D01*
X42998491Y30223425D01*
G37*
G36*
X12110991Y30914925D02*
G01*
X12144879Y30904645D01*
X12176112Y30887950D01*
X12203486Y30865486D01*
X12225950Y30838112D01*
X12242645Y30806879D01*
X12252925Y30772991D01*
X12257000Y30731612D01*
X12257000Y30131388D01*
X12252925Y30090009D01*
X12242645Y30056121D01*
X12225950Y30024888D01*
X12203486Y29997514D01*
X12176112Y29975050D01*
X12144879Y29958355D01*
X12110991Y29948075D01*
X12069612Y29944000D01*
X11044388Y29944000D01*
X11003009Y29948075D01*
X10969121Y29958355D01*
X10937888Y29975050D01*
X10910514Y29997514D01*
X10888050Y30024888D01*
X10871355Y30056121D01*
X10861075Y30090009D01*
X10857000Y30131388D01*
X10857000Y30731612D01*
X10861075Y30772991D01*
X10871355Y30806879D01*
X10888050Y30838112D01*
X10910514Y30865486D01*
X10937888Y30887950D01*
X10969121Y30904645D01*
X11003009Y30914925D01*
X11044388Y30919000D01*
X12069612Y30919000D01*
X12110991Y30914925D01*
X12110991Y30914925D01*
G37*
G36*
X59148000Y30374000D02*
G01*
X52748000Y30374000D01*
X52748000Y36174000D01*
X59148000Y36174000D01*
X59148000Y30374000D01*
X59148000Y30374000D01*
G37*
G36*
X72610000Y30375000D02*
G01*
X66210000Y30375000D01*
X66210000Y36175000D01*
X72610000Y36175000D01*
X72610000Y30375000D01*
X72610000Y30375000D01*
G37*
G36*
X50748000Y30394000D02*
G01*
X48548000Y30394000D01*
X48548000Y31594000D01*
X50748000Y31594000D01*
X50748000Y30394000D01*
X50748000Y30394000D01*
G37*
G36*
X64210000Y30395000D02*
G01*
X62010000Y30395000D01*
X62010000Y31595000D01*
X64210000Y31595000D01*
X64210000Y30395000D01*
X64210000Y30395000D01*
G37*
G36*
X46273991Y31422925D02*
G01*
X46307879Y31412645D01*
X46339112Y31395950D01*
X46366486Y31373486D01*
X46388950Y31346112D01*
X46405645Y31314879D01*
X46415925Y31280991D01*
X46420000Y31239612D01*
X46420000Y30639388D01*
X46415925Y30598009D01*
X46405645Y30564121D01*
X46388950Y30532888D01*
X46366486Y30505514D01*
X46339112Y30483050D01*
X46307879Y30466355D01*
X46273991Y30456075D01*
X46232612Y30452000D01*
X45207388Y30452000D01*
X45166009Y30456075D01*
X45132121Y30466355D01*
X45100888Y30483050D01*
X45073514Y30505514D01*
X45051050Y30532888D01*
X45034355Y30564121D01*
X45024075Y30598009D01*
X45020000Y30639388D01*
X45020000Y31239612D01*
X45024075Y31280991D01*
X45034355Y31314879D01*
X45051050Y31346112D01*
X45073514Y31373486D01*
X45100888Y31395950D01*
X45132121Y31412645D01*
X45166009Y31422925D01*
X45207388Y31427000D01*
X46232612Y31427000D01*
X46273991Y31422925D01*
X46273991Y31422925D01*
G37*
G36*
X12110991Y32789925D02*
G01*
X12144879Y32779645D01*
X12176112Y32762950D01*
X12203486Y32740486D01*
X12225950Y32713112D01*
X12242645Y32681879D01*
X12252925Y32647991D01*
X12257000Y32606612D01*
X12257000Y32006388D01*
X12252925Y31965009D01*
X12242645Y31931121D01*
X12225950Y31899888D01*
X12203486Y31872514D01*
X12176112Y31850050D01*
X12144879Y31833355D01*
X12110991Y31823075D01*
X12069612Y31819000D01*
X11044388Y31819000D01*
X11003009Y31823075D01*
X10969121Y31833355D01*
X10937888Y31850050D01*
X10910514Y31872514D01*
X10888050Y31899888D01*
X10871355Y31931121D01*
X10861075Y31965009D01*
X10857000Y32006388D01*
X10857000Y32606612D01*
X10861075Y32647991D01*
X10871355Y32681879D01*
X10888050Y32713112D01*
X10910514Y32740486D01*
X10937888Y32762950D01*
X10969121Y32779645D01*
X11003009Y32789925D01*
X11044388Y32794000D01*
X12069612Y32794000D01*
X12110991Y32789925D01*
X12110991Y32789925D01*
G37*
G36*
X42463991Y33073925D02*
G01*
X42497879Y33063645D01*
X42529112Y33046950D01*
X42556486Y33024486D01*
X42578950Y32997112D01*
X42595645Y32965879D01*
X42605925Y32931991D01*
X42610000Y32890612D01*
X42610000Y32290388D01*
X42605925Y32249009D01*
X42595645Y32215121D01*
X42578950Y32183888D01*
X42556486Y32156514D01*
X42529112Y32134050D01*
X42497879Y32117355D01*
X42463991Y32107075D01*
X42422612Y32103000D01*
X41397388Y32103000D01*
X41356009Y32107075D01*
X41322121Y32117355D01*
X41290888Y32134050D01*
X41263514Y32156514D01*
X41241050Y32183888D01*
X41224355Y32215121D01*
X41214075Y32249009D01*
X41210000Y32290388D01*
X41210000Y32890612D01*
X41214075Y32931991D01*
X41224355Y32965879D01*
X41241050Y32997112D01*
X41263514Y33024486D01*
X41290888Y33046950D01*
X41322121Y33063645D01*
X41356009Y33073925D01*
X41397388Y33078000D01*
X42422612Y33078000D01*
X42463991Y33073925D01*
X42463991Y33073925D01*
G37*
G36*
X46273991Y33297925D02*
G01*
X46307879Y33287645D01*
X46339112Y33270950D01*
X46366486Y33248486D01*
X46388950Y33221112D01*
X46405645Y33189879D01*
X46415925Y33155991D01*
X46420000Y33114612D01*
X46420000Y32514388D01*
X46415925Y32473009D01*
X46405645Y32439121D01*
X46388950Y32407888D01*
X46366486Y32380514D01*
X46339112Y32358050D01*
X46307879Y32341355D01*
X46273991Y32331075D01*
X46232612Y32327000D01*
X45207388Y32327000D01*
X45166009Y32331075D01*
X45132121Y32341355D01*
X45100888Y32358050D01*
X45073514Y32380514D01*
X45051050Y32407888D01*
X45034355Y32439121D01*
X45024075Y32473009D01*
X45020000Y32514388D01*
X45020000Y33114612D01*
X45024075Y33155991D01*
X45034355Y33189879D01*
X45051050Y33221112D01*
X45073514Y33248486D01*
X45100888Y33270950D01*
X45132121Y33287645D01*
X45166009Y33297925D01*
X45207388Y33302000D01*
X46232612Y33302000D01*
X46273991Y33297925D01*
X46273991Y33297925D01*
G37*
G36*
X42463991Y34948925D02*
G01*
X42497879Y34938645D01*
X42529112Y34921950D01*
X42556486Y34899486D01*
X42578950Y34872112D01*
X42595645Y34840879D01*
X42605925Y34806991D01*
X42610000Y34765612D01*
X42610000Y34165388D01*
X42605925Y34124009D01*
X42595645Y34090121D01*
X42578950Y34058888D01*
X42556486Y34031514D01*
X42529112Y34009050D01*
X42497879Y33992355D01*
X42463991Y33982075D01*
X42422612Y33978000D01*
X41397388Y33978000D01*
X41356009Y33982075D01*
X41322121Y33992355D01*
X41290888Y34009050D01*
X41263514Y34031514D01*
X41241050Y34058888D01*
X41224355Y34090121D01*
X41214075Y34124009D01*
X41210000Y34165388D01*
X41210000Y34765612D01*
X41214075Y34806991D01*
X41224355Y34840879D01*
X41241050Y34872112D01*
X41263514Y34899486D01*
X41290888Y34921950D01*
X41322121Y34938645D01*
X41356009Y34948925D01*
X41397388Y34953000D01*
X42422612Y34953000D01*
X42463991Y34948925D01*
X42463991Y34948925D01*
G37*
G36*
X40394991Y36001925D02*
G01*
X40428879Y35991645D01*
X40460112Y35974950D01*
X40487486Y35952486D01*
X40509950Y35925112D01*
X40526645Y35893879D01*
X40536925Y35859991D01*
X40541000Y35818612D01*
X40541000Y34793388D01*
X40536925Y34752009D01*
X40526645Y34718121D01*
X40509950Y34686888D01*
X40487486Y34659514D01*
X40460112Y34637050D01*
X40428879Y34620355D01*
X40394991Y34610075D01*
X40353612Y34606000D01*
X39753388Y34606000D01*
X39712009Y34610075D01*
X39678121Y34620355D01*
X39646888Y34637050D01*
X39619514Y34659514D01*
X39597050Y34686888D01*
X39580355Y34718121D01*
X39570075Y34752009D01*
X39566000Y34793388D01*
X39566000Y35818612D01*
X39570075Y35859991D01*
X39580355Y35893879D01*
X39597050Y35925112D01*
X39619514Y35952486D01*
X39646888Y35974950D01*
X39678121Y35991645D01*
X39712009Y36001925D01*
X39753388Y36006000D01*
X40353612Y36006000D01*
X40394991Y36001925D01*
X40394991Y36001925D01*
G37*
G36*
X38519991Y36001925D02*
G01*
X38553879Y35991645D01*
X38585112Y35974950D01*
X38612486Y35952486D01*
X38634950Y35925112D01*
X38651645Y35893879D01*
X38661925Y35859991D01*
X38666000Y35818612D01*
X38666000Y34793388D01*
X38661925Y34752009D01*
X38651645Y34718121D01*
X38634950Y34686888D01*
X38612486Y34659514D01*
X38585112Y34637050D01*
X38553879Y34620355D01*
X38519991Y34610075D01*
X38478612Y34606000D01*
X37878388Y34606000D01*
X37837009Y34610075D01*
X37803121Y34620355D01*
X37771888Y34637050D01*
X37744514Y34659514D01*
X37722050Y34686888D01*
X37705355Y34718121D01*
X37695075Y34752009D01*
X37691000Y34793388D01*
X37691000Y35818612D01*
X37695075Y35859991D01*
X37705355Y35893879D01*
X37722050Y35925112D01*
X37744514Y35952486D01*
X37771888Y35974950D01*
X37803121Y35991645D01*
X37837009Y36001925D01*
X37878388Y36006000D01*
X38478612Y36006000D01*
X38519991Y36001925D01*
X38519991Y36001925D01*
G37*
G36*
X46998991Y36255925D02*
G01*
X47032879Y36245645D01*
X47064112Y36228950D01*
X47091486Y36206486D01*
X47113950Y36179112D01*
X47130645Y36147879D01*
X47140925Y36113991D01*
X47145000Y36072612D01*
X47145000Y35047388D01*
X47140925Y35006009D01*
X47130645Y34972121D01*
X47113950Y34940888D01*
X47091486Y34913514D01*
X47064112Y34891050D01*
X47032879Y34874355D01*
X46998991Y34864075D01*
X46957612Y34860000D01*
X46357388Y34860000D01*
X46316009Y34864075D01*
X46282121Y34874355D01*
X46250888Y34891050D01*
X46223514Y34913514D01*
X46201050Y34940888D01*
X46184355Y34972121D01*
X46174075Y35006009D01*
X46170000Y35047388D01*
X46170000Y36072612D01*
X46174075Y36113991D01*
X46184355Y36147879D01*
X46201050Y36179112D01*
X46223514Y36206486D01*
X46250888Y36228950D01*
X46282121Y36245645D01*
X46316009Y36255925D01*
X46357388Y36260000D01*
X46957612Y36260000D01*
X46998991Y36255925D01*
X46998991Y36255925D01*
G37*
G36*
X45123991Y36255925D02*
G01*
X45157879Y36245645D01*
X45189112Y36228950D01*
X45216486Y36206486D01*
X45238950Y36179112D01*
X45255645Y36147879D01*
X45265925Y36113991D01*
X45270000Y36072612D01*
X45270000Y35047388D01*
X45265925Y35006009D01*
X45255645Y34972121D01*
X45238950Y34940888D01*
X45216486Y34913514D01*
X45189112Y34891050D01*
X45157879Y34874355D01*
X45123991Y34864075D01*
X45082612Y34860000D01*
X44482388Y34860000D01*
X44441009Y34864075D01*
X44407121Y34874355D01*
X44375888Y34891050D01*
X44348514Y34913514D01*
X44326050Y34940888D01*
X44309355Y34972121D01*
X44299075Y35006009D01*
X44295000Y35047388D01*
X44295000Y36072612D01*
X44299075Y36113991D01*
X44309355Y36147879D01*
X44326050Y36179112D01*
X44348514Y36206486D01*
X44375888Y36228950D01*
X44407121Y36245645D01*
X44441009Y36255925D01*
X44482388Y36260000D01*
X45082612Y36260000D01*
X45123991Y36255925D01*
X45123991Y36255925D01*
G37*
G36*
X50748000Y34954000D02*
G01*
X48548000Y34954000D01*
X48548000Y36154000D01*
X50748000Y36154000D01*
X50748000Y34954000D01*
X50748000Y34954000D01*
G37*
G36*
X64210000Y34955000D02*
G01*
X62010000Y34955000D01*
X62010000Y36155000D01*
X64210000Y36155000D01*
X64210000Y34955000D01*
X64210000Y34955000D01*
G37*
G36*
X9603471Y37245141D02*
G01*
X9681827Y37237424D01*
X9832628Y37191679D01*
X9832630Y37191678D01*
X9971605Y37117394D01*
X9971607Y37117393D01*
X9971606Y37117393D01*
X10093422Y37017422D01*
X10193393Y36895606D01*
X10267679Y36756628D01*
X10313424Y36605827D01*
X10328870Y36449000D01*
X10313424Y36292173D01*
X10267679Y36141372D01*
X10267678Y36141370D01*
X10193394Y36002395D01*
X10093422Y35880578D01*
X9971605Y35780606D01*
X9937263Y35762250D01*
X9832628Y35706321D01*
X9681827Y35660576D01*
X9603471Y35652859D01*
X9564294Y35649000D01*
X9485706Y35649000D01*
X9446529Y35652859D01*
X9368173Y35660576D01*
X9217372Y35706321D01*
X9112737Y35762250D01*
X9078395Y35780606D01*
X8956578Y35880578D01*
X8856606Y36002395D01*
X8782322Y36141370D01*
X8782321Y36141372D01*
X8736576Y36292173D01*
X8721130Y36449000D01*
X8736576Y36605827D01*
X8782321Y36756628D01*
X8856607Y36895606D01*
X8956578Y37017422D01*
X9078394Y37117393D01*
X9078393Y37117393D01*
X9078395Y37117394D01*
X9217370Y37191678D01*
X9217372Y37191679D01*
X9368173Y37237424D01*
X9446529Y37245141D01*
X9485706Y37249000D01*
X9564294Y37249000D01*
X9603471Y37245141D01*
X9603471Y37245141D01*
G37*
G36*
X1983471Y37245141D02*
G01*
X2061827Y37237424D01*
X2212628Y37191679D01*
X2212630Y37191678D01*
X2351605Y37117394D01*
X2351607Y37117393D01*
X2351606Y37117393D01*
X2473422Y37017422D01*
X2573393Y36895606D01*
X2647679Y36756628D01*
X2693424Y36605827D01*
X2708870Y36449000D01*
X2693424Y36292173D01*
X2647679Y36141372D01*
X2647678Y36141370D01*
X2573394Y36002395D01*
X2473422Y35880578D01*
X2351605Y35780606D01*
X2317263Y35762250D01*
X2212628Y35706321D01*
X2061827Y35660576D01*
X1983471Y35652859D01*
X1944294Y35649000D01*
X1865706Y35649000D01*
X1826529Y35652859D01*
X1748173Y35660576D01*
X1597372Y35706321D01*
X1492737Y35762250D01*
X1458395Y35780606D01*
X1336578Y35880578D01*
X1236606Y36002395D01*
X1162322Y36141370D01*
X1162321Y36141372D01*
X1116576Y36292173D01*
X1101130Y36449000D01*
X1116576Y36605827D01*
X1162321Y36756628D01*
X1236607Y36895606D01*
X1336578Y37017422D01*
X1458394Y37117393D01*
X1458393Y37117393D01*
X1458395Y37117394D01*
X1597370Y37191678D01*
X1597372Y37191679D01*
X1748173Y37237424D01*
X1826529Y37245141D01*
X1865706Y37249000D01*
X1944294Y37249000D01*
X1983471Y37245141D01*
X1983471Y37245141D01*
G37*
G36*
X23382971Y38959641D02*
G01*
X23461327Y38951924D01*
X23612128Y38906179D01*
X23612130Y38906178D01*
X23751105Y38831894D01*
X23751107Y38831893D01*
X23751106Y38831893D01*
X23872922Y38731922D01*
X23972893Y38610106D01*
X24047179Y38471128D01*
X24092924Y38320327D01*
X24108370Y38163500D01*
X24092924Y38006673D01*
X24047179Y37855872D01*
X24047178Y37855870D01*
X23972894Y37716895D01*
X23872922Y37595078D01*
X23751105Y37495106D01*
X23650479Y37441320D01*
X23612128Y37420821D01*
X23461327Y37375076D01*
X23382971Y37367359D01*
X23343794Y37363500D01*
X23265206Y37363500D01*
X23226029Y37367359D01*
X23147673Y37375076D01*
X22996872Y37420821D01*
X22958521Y37441320D01*
X22857895Y37495106D01*
X22736078Y37595078D01*
X22636106Y37716895D01*
X22561822Y37855870D01*
X22561821Y37855872D01*
X22516076Y38006673D01*
X22500630Y38163500D01*
X22516076Y38320327D01*
X22561821Y38471128D01*
X22636107Y38610106D01*
X22736078Y38731922D01*
X22857894Y38831893D01*
X22857893Y38831893D01*
X22857895Y38831894D01*
X22996870Y38906178D01*
X22996872Y38906179D01*
X23147673Y38951924D01*
X23226029Y38959641D01*
X23265206Y38963500D01*
X23343794Y38963500D01*
X23382971Y38959641D01*
X23382971Y38959641D01*
G37*
G36*
X20842971Y38959641D02*
G01*
X20921327Y38951924D01*
X21072128Y38906179D01*
X21072130Y38906178D01*
X21211105Y38831894D01*
X21211107Y38831893D01*
X21211106Y38831893D01*
X21332922Y38731922D01*
X21432893Y38610106D01*
X21507179Y38471128D01*
X21552924Y38320327D01*
X21568370Y38163500D01*
X21552924Y38006673D01*
X21507179Y37855872D01*
X21507178Y37855870D01*
X21432894Y37716895D01*
X21332922Y37595078D01*
X21211105Y37495106D01*
X21110479Y37441320D01*
X21072128Y37420821D01*
X20921327Y37375076D01*
X20842971Y37367359D01*
X20803794Y37363500D01*
X20725206Y37363500D01*
X20686029Y37367359D01*
X20607673Y37375076D01*
X20456872Y37420821D01*
X20418521Y37441320D01*
X20317895Y37495106D01*
X20196078Y37595078D01*
X20096106Y37716895D01*
X20021822Y37855870D01*
X20021821Y37855872D01*
X19976076Y38006673D01*
X19960630Y38163500D01*
X19976076Y38320327D01*
X20021821Y38471128D01*
X20096107Y38610106D01*
X20196078Y38731922D01*
X20317894Y38831893D01*
X20317893Y38831893D01*
X20317895Y38831894D01*
X20456870Y38906178D01*
X20456872Y38906179D01*
X20607673Y38951924D01*
X20686029Y38959641D01*
X20725206Y38963500D01*
X20803794Y38963500D01*
X20842971Y38959641D01*
X20842971Y38959641D01*
G37*
G36*
X18302971Y38959641D02*
G01*
X18381327Y38951924D01*
X18532128Y38906179D01*
X18532130Y38906178D01*
X18671105Y38831894D01*
X18671107Y38831893D01*
X18671106Y38831893D01*
X18792922Y38731922D01*
X18892893Y38610106D01*
X18967179Y38471128D01*
X19012924Y38320327D01*
X19028370Y38163500D01*
X19012924Y38006673D01*
X18967179Y37855872D01*
X18967178Y37855870D01*
X18892894Y37716895D01*
X18792922Y37595078D01*
X18671105Y37495106D01*
X18570479Y37441320D01*
X18532128Y37420821D01*
X18381327Y37375076D01*
X18302971Y37367359D01*
X18263794Y37363500D01*
X18185206Y37363500D01*
X18146029Y37367359D01*
X18067673Y37375076D01*
X17916872Y37420821D01*
X17878521Y37441320D01*
X17777895Y37495106D01*
X17656078Y37595078D01*
X17556106Y37716895D01*
X17481822Y37855870D01*
X17481821Y37855872D01*
X17436076Y38006673D01*
X17420630Y38163500D01*
X17436076Y38320327D01*
X17481821Y38471128D01*
X17556107Y38610106D01*
X17656078Y38731922D01*
X17777894Y38831893D01*
X17777893Y38831893D01*
X17777895Y38831894D01*
X17916870Y38906178D01*
X17916872Y38906179D01*
X18067673Y38951924D01*
X18146029Y38959641D01*
X18185206Y38963500D01*
X18263794Y38963500D01*
X18302971Y38959641D01*
X18302971Y38959641D01*
G37*
G36*
X15762971Y38959641D02*
G01*
X15841327Y38951924D01*
X15992128Y38906179D01*
X15992130Y38906178D01*
X16131105Y38831894D01*
X16131107Y38831893D01*
X16131106Y38831893D01*
X16252922Y38731922D01*
X16352893Y38610106D01*
X16427179Y38471128D01*
X16472924Y38320327D01*
X16488370Y38163500D01*
X16472924Y38006673D01*
X16427179Y37855872D01*
X16427178Y37855870D01*
X16352894Y37716895D01*
X16252922Y37595078D01*
X16131105Y37495106D01*
X16030479Y37441320D01*
X15992128Y37420821D01*
X15841327Y37375076D01*
X15762971Y37367359D01*
X15723794Y37363500D01*
X15645206Y37363500D01*
X15606029Y37367359D01*
X15527673Y37375076D01*
X15376872Y37420821D01*
X15338521Y37441320D01*
X15237895Y37495106D01*
X15116078Y37595078D01*
X15016106Y37716895D01*
X14941822Y37855870D01*
X14941821Y37855872D01*
X14896076Y38006673D01*
X14880630Y38163500D01*
X14896076Y38320327D01*
X14941821Y38471128D01*
X15016107Y38610106D01*
X15116078Y38731922D01*
X15237894Y38831893D01*
X15237893Y38831893D01*
X15237895Y38831894D01*
X15376870Y38906178D01*
X15376872Y38906179D01*
X15527673Y38951924D01*
X15606029Y38959641D01*
X15645206Y38963500D01*
X15723794Y38963500D01*
X15762971Y38959641D01*
X15762971Y38959641D01*
G37*
G36*
X39390470Y38980140D02*
G01*
X39468826Y38972423D01*
X39619627Y38926678D01*
X39619629Y38926677D01*
X39758604Y38852393D01*
X39783240Y38832175D01*
X39880421Y38752421D01*
X39980392Y38630605D01*
X40054678Y38491627D01*
X40100423Y38340826D01*
X40115869Y38183999D01*
X40100423Y38027172D01*
X40054678Y37876371D01*
X40054677Y37876369D01*
X39980393Y37737394D01*
X39880421Y37615577D01*
X39758604Y37515605D01*
X39720253Y37495106D01*
X39619627Y37441320D01*
X39468826Y37395575D01*
X39390470Y37387858D01*
X39351293Y37383999D01*
X39272705Y37383999D01*
X39233528Y37387858D01*
X39155172Y37395575D01*
X39004371Y37441320D01*
X38903745Y37495106D01*
X38865394Y37515605D01*
X38743577Y37615577D01*
X38643605Y37737394D01*
X38569321Y37876369D01*
X38569320Y37876371D01*
X38523575Y38027172D01*
X38508129Y38183999D01*
X38523575Y38340826D01*
X38569320Y38491627D01*
X38643606Y38630605D01*
X38743577Y38752421D01*
X38840758Y38832175D01*
X38865394Y38852393D01*
X39004369Y38926677D01*
X39004371Y38926678D01*
X39155172Y38972423D01*
X39233528Y38980140D01*
X39272705Y38983999D01*
X39351293Y38983999D01*
X39390470Y38980140D01*
X39390470Y38980140D01*
G37*
G36*
X41930470Y38980140D02*
G01*
X42008826Y38972423D01*
X42159627Y38926678D01*
X42159629Y38926677D01*
X42298604Y38852393D01*
X42323240Y38832175D01*
X42420421Y38752421D01*
X42520392Y38630605D01*
X42594678Y38491627D01*
X42640423Y38340826D01*
X42655869Y38183999D01*
X42640423Y38027172D01*
X42594678Y37876371D01*
X42594677Y37876369D01*
X42520393Y37737394D01*
X42420421Y37615577D01*
X42298604Y37515605D01*
X42260253Y37495106D01*
X42159627Y37441320D01*
X42008826Y37395575D01*
X41930470Y37387858D01*
X41891293Y37383999D01*
X41812705Y37383999D01*
X41773528Y37387858D01*
X41695172Y37395575D01*
X41544371Y37441320D01*
X41443745Y37495106D01*
X41405394Y37515605D01*
X41283577Y37615577D01*
X41183605Y37737394D01*
X41109321Y37876369D01*
X41109320Y37876371D01*
X41063575Y38027172D01*
X41048129Y38183999D01*
X41063575Y38340826D01*
X41109320Y38491627D01*
X41183606Y38630605D01*
X41283577Y38752421D01*
X41380758Y38832175D01*
X41405394Y38852393D01*
X41544369Y38926677D01*
X41544371Y38926678D01*
X41695172Y38972423D01*
X41773528Y38980140D01*
X41812705Y38983999D01*
X41891293Y38983999D01*
X41930470Y38980140D01*
X41930470Y38980140D01*
G37*
G36*
X9603471Y39785141D02*
G01*
X9681827Y39777424D01*
X9832628Y39731679D01*
X9832630Y39731678D01*
X9971605Y39657394D01*
X10093422Y39557422D01*
X10193394Y39435605D01*
X10219091Y39387529D01*
X10267679Y39296628D01*
X10313424Y39145827D01*
X10328870Y38989000D01*
X10313424Y38832173D01*
X10283013Y38731922D01*
X10267678Y38681370D01*
X10193394Y38542395D01*
X10093422Y38420578D01*
X9971605Y38320606D01*
X9832630Y38246322D01*
X9832628Y38246321D01*
X9681827Y38200576D01*
X9603471Y38192859D01*
X9564294Y38189000D01*
X9485706Y38189000D01*
X9446529Y38192859D01*
X9368173Y38200576D01*
X9217372Y38246321D01*
X9217370Y38246322D01*
X9078395Y38320606D01*
X8956578Y38420578D01*
X8856606Y38542395D01*
X8782322Y38681370D01*
X8766987Y38731922D01*
X8736576Y38832173D01*
X8721130Y38989000D01*
X8736576Y39145827D01*
X8782321Y39296628D01*
X8830909Y39387529D01*
X8856606Y39435605D01*
X8956578Y39557422D01*
X9078395Y39657394D01*
X9217370Y39731678D01*
X9217372Y39731679D01*
X9368173Y39777424D01*
X9446529Y39785141D01*
X9485706Y39789000D01*
X9564294Y39789000D01*
X9603471Y39785141D01*
X9603471Y39785141D01*
G37*
G36*
X1983471Y39785141D02*
G01*
X2061827Y39777424D01*
X2212628Y39731679D01*
X2212630Y39731678D01*
X2351605Y39657394D01*
X2473422Y39557422D01*
X2573394Y39435605D01*
X2599091Y39387529D01*
X2647679Y39296628D01*
X2693424Y39145827D01*
X2708870Y38989000D01*
X2693424Y38832173D01*
X2663013Y38731922D01*
X2647678Y38681370D01*
X2573394Y38542395D01*
X2473422Y38420578D01*
X2351605Y38320606D01*
X2212630Y38246322D01*
X2212628Y38246321D01*
X2061827Y38200576D01*
X1983471Y38192859D01*
X1944294Y38189000D01*
X1865706Y38189000D01*
X1826529Y38192859D01*
X1748173Y38200576D01*
X1597372Y38246321D01*
X1597370Y38246322D01*
X1458395Y38320606D01*
X1336578Y38420578D01*
X1236606Y38542395D01*
X1162322Y38681370D01*
X1146987Y38731922D01*
X1116576Y38832173D01*
X1101130Y38989000D01*
X1116576Y39145827D01*
X1162321Y39296628D01*
X1210909Y39387529D01*
X1236606Y39435605D01*
X1336578Y39557422D01*
X1458395Y39657394D01*
X1597370Y39731678D01*
X1597372Y39731679D01*
X1748173Y39777424D01*
X1826529Y39785141D01*
X1865706Y39789000D01*
X1944294Y39789000D01*
X1983471Y39785141D01*
X1983471Y39785141D01*
G37*
G36*
X78850610Y41143464D02*
G01*
X79078095Y41049236D01*
X79078097Y41049235D01*
X79210781Y40960578D01*
X79282828Y40912438D01*
X79456938Y40738328D01*
X79593736Y40533595D01*
X79687964Y40306110D01*
X79736000Y40064616D01*
X79736000Y39818384D01*
X79687964Y39576890D01*
X79593736Y39349405D01*
X79593735Y39349403D01*
X79456938Y39144672D01*
X79282828Y38970562D01*
X79078097Y38833765D01*
X79078096Y38833764D01*
X79078095Y38833764D01*
X78850610Y38739536D01*
X78609116Y38691500D01*
X78362884Y38691500D01*
X78121390Y38739536D01*
X77893905Y38833764D01*
X77893904Y38833764D01*
X77893903Y38833765D01*
X77689172Y38970562D01*
X77515062Y39144672D01*
X77378265Y39349403D01*
X77378264Y39349405D01*
X77284036Y39576890D01*
X77236000Y39818384D01*
X77236000Y40064616D01*
X77284036Y40306110D01*
X77378264Y40533595D01*
X77515062Y40738328D01*
X77689172Y40912438D01*
X77761219Y40960578D01*
X77893903Y41049235D01*
X77893905Y41049236D01*
X78121390Y41143464D01*
X78362884Y41191500D01*
X78609116Y41191500D01*
X78850610Y41143464D01*
X78850610Y41143464D01*
G37*
G36*
X33326676Y39961628D02*
G01*
X33358424Y39948478D01*
X33399468Y39931477D01*
X33399471Y39931475D01*
X33464985Y39887700D01*
X33520700Y39831985D01*
X33529788Y39818384D01*
X33564477Y39766468D01*
X33578887Y39731678D01*
X33594628Y39693676D01*
X33610000Y39616397D01*
X33610000Y39537603D01*
X33594628Y39460324D01*
X33584389Y39435606D01*
X33564477Y39387532D01*
X33564475Y39387529D01*
X33520700Y39322015D01*
X33464985Y39266300D01*
X33399471Y39222525D01*
X33399468Y39222523D01*
X33358424Y39205522D01*
X33326676Y39192372D01*
X33249397Y39177000D01*
X33170603Y39177000D01*
X33093324Y39192372D01*
X33061576Y39205522D01*
X33020532Y39222523D01*
X33020529Y39222525D01*
X32955015Y39266300D01*
X32899300Y39322015D01*
X32855525Y39387529D01*
X32855523Y39387532D01*
X32835611Y39435606D01*
X32825372Y39460324D01*
X32810000Y39537603D01*
X32810000Y39616397D01*
X32825372Y39693676D01*
X32841113Y39731678D01*
X32855523Y39766468D01*
X32890212Y39818384D01*
X32899300Y39831985D01*
X32955015Y39887700D01*
X33020529Y39931475D01*
X33020532Y39931477D01*
X33061576Y39948478D01*
X33093324Y39961628D01*
X33170603Y39977000D01*
X33249397Y39977000D01*
X33326676Y39961628D01*
X33326676Y39961628D01*
G37*
G36*
X31326676Y39961628D02*
G01*
X31358424Y39948478D01*
X31399468Y39931477D01*
X31399471Y39931475D01*
X31464985Y39887700D01*
X31520700Y39831985D01*
X31529788Y39818384D01*
X31564477Y39766468D01*
X31578887Y39731678D01*
X31594628Y39693676D01*
X31610000Y39616397D01*
X31610000Y39537603D01*
X31594628Y39460324D01*
X31584389Y39435606D01*
X31564477Y39387532D01*
X31564475Y39387529D01*
X31520700Y39322015D01*
X31464985Y39266300D01*
X31399471Y39222525D01*
X31399468Y39222523D01*
X31358424Y39205522D01*
X31326676Y39192372D01*
X31249397Y39177000D01*
X31170603Y39177000D01*
X31093324Y39192372D01*
X31061576Y39205522D01*
X31020532Y39222523D01*
X31020529Y39222525D01*
X30955015Y39266300D01*
X30899300Y39322015D01*
X30855525Y39387529D01*
X30855523Y39387532D01*
X30835611Y39435606D01*
X30825372Y39460324D01*
X30810000Y39537603D01*
X30810000Y39616397D01*
X30825372Y39693676D01*
X30841113Y39731678D01*
X30855523Y39766468D01*
X30890212Y39818384D01*
X30899300Y39831985D01*
X30955015Y39887700D01*
X31020529Y39931475D01*
X31020532Y39931477D01*
X31061576Y39948478D01*
X31093324Y39961628D01*
X31170603Y39977000D01*
X31249397Y39977000D01*
X31326676Y39961628D01*
X31326676Y39961628D01*
G37*
G36*
X29326676Y39961628D02*
G01*
X29358424Y39948478D01*
X29399468Y39931477D01*
X29399471Y39931475D01*
X29464985Y39887700D01*
X29520700Y39831985D01*
X29529788Y39818384D01*
X29564477Y39766468D01*
X29578887Y39731678D01*
X29594628Y39693676D01*
X29610000Y39616397D01*
X29610000Y39537603D01*
X29594628Y39460324D01*
X29584389Y39435606D01*
X29564477Y39387532D01*
X29564475Y39387529D01*
X29520700Y39322015D01*
X29464985Y39266300D01*
X29399471Y39222525D01*
X29399468Y39222523D01*
X29358424Y39205522D01*
X29326676Y39192372D01*
X29249397Y39177000D01*
X29170603Y39177000D01*
X29093324Y39192372D01*
X29061576Y39205522D01*
X29020532Y39222523D01*
X29020529Y39222525D01*
X28955015Y39266300D01*
X28899300Y39322015D01*
X28855525Y39387529D01*
X28855523Y39387532D01*
X28835611Y39435606D01*
X28825372Y39460324D01*
X28810000Y39537603D01*
X28810000Y39616397D01*
X28825372Y39693676D01*
X28841113Y39731678D01*
X28855523Y39766468D01*
X28890212Y39818384D01*
X28899300Y39831985D01*
X28955015Y39887700D01*
X29020529Y39931475D01*
X29020532Y39931477D01*
X29061576Y39948478D01*
X29093324Y39961628D01*
X29170603Y39977000D01*
X29249397Y39977000D01*
X29326676Y39961628D01*
X29326676Y39961628D01*
G37*
G36*
X9603471Y42325141D02*
G01*
X9681827Y42317424D01*
X9832628Y42271679D01*
X9832630Y42271678D01*
X9971605Y42197394D01*
X9971607Y42197393D01*
X9971606Y42197393D01*
X10093422Y42097422D01*
X10193393Y41975606D01*
X10267679Y41836628D01*
X10313424Y41685827D01*
X10328870Y41529000D01*
X10313424Y41372173D01*
X10267679Y41221372D01*
X10267678Y41221370D01*
X10193394Y41082395D01*
X10093422Y40960578D01*
X9971605Y40860606D01*
X9832630Y40786322D01*
X9832628Y40786321D01*
X9681827Y40740576D01*
X9603471Y40732859D01*
X9564294Y40729000D01*
X9485706Y40729000D01*
X9446529Y40732859D01*
X9368173Y40740576D01*
X9217372Y40786321D01*
X9217370Y40786322D01*
X9078395Y40860606D01*
X8956578Y40960578D01*
X8856606Y41082395D01*
X8782322Y41221370D01*
X8782321Y41221372D01*
X8736576Y41372173D01*
X8721130Y41529000D01*
X8736576Y41685827D01*
X8782321Y41836628D01*
X8856607Y41975606D01*
X8956578Y42097422D01*
X9078394Y42197393D01*
X9078393Y42197393D01*
X9078395Y42197394D01*
X9217370Y42271678D01*
X9217372Y42271679D01*
X9368173Y42317424D01*
X9446529Y42325141D01*
X9485706Y42329000D01*
X9564294Y42329000D01*
X9603471Y42325141D01*
X9603471Y42325141D01*
G37*
G36*
X2705000Y40729000D02*
G01*
X1105000Y40729000D01*
X1105000Y42329000D01*
X2705000Y42329000D01*
X2705000Y40729000D01*
X2705000Y40729000D01*
G37*
G36*
X48703534Y44622357D02*
G01*
X48976515Y44509284D01*
X48976517Y44509283D01*
X49049789Y44460324D01*
X49222193Y44345127D01*
X49431127Y44136193D01*
X49595284Y43890515D01*
X49708357Y43617534D01*
X49766000Y43327738D01*
X49766000Y43032262D01*
X49708357Y42742466D01*
X49595284Y42469485D01*
X49595283Y42469483D01*
X49431126Y42223806D01*
X49222194Y42014874D01*
X48976517Y41850717D01*
X48976516Y41850716D01*
X48976515Y41850716D01*
X48703534Y41737643D01*
X48413738Y41680000D01*
X48118262Y41680000D01*
X47828466Y41737643D01*
X47555485Y41850716D01*
X47555484Y41850716D01*
X47555483Y41850717D01*
X47309806Y42014874D01*
X47100874Y42223806D01*
X46936717Y42469483D01*
X46936716Y42469485D01*
X46823643Y42742466D01*
X46766000Y43032262D01*
X46766000Y43327738D01*
X46823643Y43617534D01*
X46936716Y43890515D01*
X47100873Y44136193D01*
X47309807Y44345127D01*
X47482211Y44460324D01*
X47555483Y44509283D01*
X47555485Y44509284D01*
X47828466Y44622357D01*
X48118262Y44680000D01*
X48413738Y44680000D01*
X48703534Y44622357D01*
X48703534Y44622357D01*
G37*
G36*
X71303534Y44622357D02*
G01*
X71576515Y44509284D01*
X71576517Y44509283D01*
X71649789Y44460324D01*
X71822193Y44345127D01*
X72031127Y44136193D01*
X72195284Y43890515D01*
X72308357Y43617534D01*
X72366000Y43327738D01*
X72366000Y43032262D01*
X72308357Y42742466D01*
X72195284Y42469485D01*
X72195283Y42469483D01*
X72031126Y42223806D01*
X71822194Y42014874D01*
X71576517Y41850717D01*
X71576516Y41850716D01*
X71576515Y41850716D01*
X71303534Y41737643D01*
X71013738Y41680000D01*
X70718262Y41680000D01*
X70428466Y41737643D01*
X70155485Y41850716D01*
X70155484Y41850716D01*
X70155483Y41850717D01*
X69909806Y42014874D01*
X69700874Y42223806D01*
X69536717Y42469483D01*
X69536716Y42469485D01*
X69423643Y42742466D01*
X69366000Y43032262D01*
X69366000Y43327738D01*
X69423643Y43617534D01*
X69536716Y43890515D01*
X69700873Y44136193D01*
X69909807Y44345127D01*
X70082211Y44460324D01*
X70155483Y44509283D01*
X70155485Y44509284D01*
X70428466Y44622357D01*
X70718262Y44680000D01*
X71013738Y44680000D01*
X71303534Y44622357D01*
X71303534Y44622357D01*
G37*
G36*
X79736000Y43771500D02*
G01*
X77236000Y43771500D01*
X77236000Y46271500D01*
X79736000Y46271500D01*
X79736000Y43771500D01*
X79736000Y43771500D01*
G37*
G36*
X33326676Y44961628D02*
G01*
X33358424Y44948478D01*
X33399468Y44931477D01*
X33399471Y44931475D01*
X33464985Y44887700D01*
X33520700Y44831985D01*
X33520701Y44831983D01*
X33564477Y44766468D01*
X33581478Y44725424D01*
X33594628Y44693676D01*
X33610000Y44616397D01*
X33610000Y44537603D01*
X33594628Y44460324D01*
X33581478Y44428576D01*
X33564477Y44387532D01*
X33564475Y44387529D01*
X33520700Y44322015D01*
X33464985Y44266300D01*
X33399471Y44222525D01*
X33399468Y44222523D01*
X33358424Y44205522D01*
X33326676Y44192372D01*
X33249397Y44177000D01*
X33170603Y44177000D01*
X33093324Y44192372D01*
X33061576Y44205522D01*
X33020532Y44222523D01*
X33020529Y44222525D01*
X32955015Y44266300D01*
X32899300Y44322015D01*
X32855525Y44387529D01*
X32855523Y44387532D01*
X32838522Y44428576D01*
X32825372Y44460324D01*
X32810000Y44537603D01*
X32810000Y44616397D01*
X32825372Y44693676D01*
X32838522Y44725424D01*
X32855523Y44766468D01*
X32899299Y44831983D01*
X32899300Y44831985D01*
X32955015Y44887700D01*
X33020529Y44931475D01*
X33020532Y44931477D01*
X33061576Y44948478D01*
X33093324Y44961628D01*
X33170603Y44977000D01*
X33249397Y44977000D01*
X33326676Y44961628D01*
X33326676Y44961628D01*
G37*
G36*
X31326676Y44961628D02*
G01*
X31358424Y44948478D01*
X31399468Y44931477D01*
X31399471Y44931475D01*
X31464985Y44887700D01*
X31520700Y44831985D01*
X31520701Y44831983D01*
X31564477Y44766468D01*
X31581478Y44725424D01*
X31594628Y44693676D01*
X31610000Y44616397D01*
X31610000Y44537603D01*
X31594628Y44460324D01*
X31581478Y44428576D01*
X31564477Y44387532D01*
X31564475Y44387529D01*
X31520700Y44322015D01*
X31464985Y44266300D01*
X31399471Y44222525D01*
X31399468Y44222523D01*
X31358424Y44205522D01*
X31326676Y44192372D01*
X31249397Y44177000D01*
X31170603Y44177000D01*
X31093324Y44192372D01*
X31061576Y44205522D01*
X31020532Y44222523D01*
X31020529Y44222525D01*
X30955015Y44266300D01*
X30899300Y44322015D01*
X30855525Y44387529D01*
X30855523Y44387532D01*
X30838522Y44428576D01*
X30825372Y44460324D01*
X30810000Y44537603D01*
X30810000Y44616397D01*
X30825372Y44693676D01*
X30838522Y44725424D01*
X30855523Y44766468D01*
X30899299Y44831983D01*
X30899300Y44831985D01*
X30955015Y44887700D01*
X31020529Y44931475D01*
X31020532Y44931477D01*
X31061576Y44948478D01*
X31093324Y44961628D01*
X31170603Y44977000D01*
X31249397Y44977000D01*
X31326676Y44961628D01*
X31326676Y44961628D01*
G37*
G36*
X29326676Y44961628D02*
G01*
X29358424Y44948478D01*
X29399468Y44931477D01*
X29399471Y44931475D01*
X29464985Y44887700D01*
X29520700Y44831985D01*
X29520701Y44831983D01*
X29564477Y44766468D01*
X29581478Y44725424D01*
X29594628Y44693676D01*
X29610000Y44616397D01*
X29610000Y44537603D01*
X29594628Y44460324D01*
X29581478Y44428576D01*
X29564477Y44387532D01*
X29564475Y44387529D01*
X29520700Y44322015D01*
X29464985Y44266300D01*
X29399471Y44222525D01*
X29399468Y44222523D01*
X29358424Y44205522D01*
X29326676Y44192372D01*
X29249397Y44177000D01*
X29170603Y44177000D01*
X29093324Y44192372D01*
X29061576Y44205522D01*
X29020532Y44222523D01*
X29020529Y44222525D01*
X28955015Y44266300D01*
X28899300Y44322015D01*
X28855525Y44387529D01*
X28855523Y44387532D01*
X28838522Y44428576D01*
X28825372Y44460324D01*
X28810000Y44537603D01*
X28810000Y44616397D01*
X28825372Y44693676D01*
X28838522Y44725424D01*
X28855523Y44766468D01*
X28899299Y44831983D01*
X28899300Y44831985D01*
X28955015Y44887700D01*
X29020529Y44931475D01*
X29020532Y44931477D01*
X29061576Y44948478D01*
X29093324Y44961628D01*
X29170603Y44977000D01*
X29249397Y44977000D01*
X29326676Y44961628D01*
X29326676Y44961628D01*
G37*
G36*
X15762971Y46579641D02*
G01*
X15841327Y46571924D01*
X15992128Y46526179D01*
X15992130Y46526178D01*
X16131105Y46451894D01*
X16252922Y46351922D01*
X16352894Y46230105D01*
X16381680Y46176250D01*
X16427179Y46091128D01*
X16472924Y45940327D01*
X16488370Y45783500D01*
X16472924Y45626673D01*
X16427179Y45475872D01*
X16427178Y45475870D01*
X16352894Y45336895D01*
X16252922Y45215078D01*
X16131105Y45115106D01*
X16030479Y45061320D01*
X15992128Y45040821D01*
X15841327Y44995076D01*
X15762971Y44987359D01*
X15723794Y44983500D01*
X15645206Y44983500D01*
X15606029Y44987359D01*
X15527673Y44995076D01*
X15376872Y45040821D01*
X15338521Y45061320D01*
X15237895Y45115106D01*
X15116078Y45215078D01*
X15016106Y45336895D01*
X14941822Y45475870D01*
X14941821Y45475872D01*
X14896076Y45626673D01*
X14880630Y45783500D01*
X14896076Y45940327D01*
X14941821Y46091128D01*
X14987320Y46176250D01*
X15016106Y46230105D01*
X15116078Y46351922D01*
X15237895Y46451894D01*
X15376870Y46526178D01*
X15376872Y46526179D01*
X15527673Y46571924D01*
X15606029Y46579641D01*
X15645206Y46583500D01*
X15723794Y46583500D01*
X15762971Y46579641D01*
X15762971Y46579641D01*
G37*
G36*
X24104500Y44983500D02*
G01*
X22504500Y44983500D01*
X22504500Y46583500D01*
X24104500Y46583500D01*
X24104500Y44983500D01*
X24104500Y44983500D01*
G37*
G36*
X18302971Y46579641D02*
G01*
X18381327Y46571924D01*
X18532128Y46526179D01*
X18532130Y46526178D01*
X18671105Y46451894D01*
X18792922Y46351922D01*
X18892894Y46230105D01*
X18921680Y46176250D01*
X18967179Y46091128D01*
X19012924Y45940327D01*
X19028370Y45783500D01*
X19012924Y45626673D01*
X18967179Y45475872D01*
X18967178Y45475870D01*
X18892894Y45336895D01*
X18792922Y45215078D01*
X18671105Y45115106D01*
X18570479Y45061320D01*
X18532128Y45040821D01*
X18381327Y44995076D01*
X18302971Y44987359D01*
X18263794Y44983500D01*
X18185206Y44983500D01*
X18146029Y44987359D01*
X18067673Y44995076D01*
X17916872Y45040821D01*
X17878521Y45061320D01*
X17777895Y45115106D01*
X17656078Y45215078D01*
X17556106Y45336895D01*
X17481822Y45475870D01*
X17481821Y45475872D01*
X17436076Y45626673D01*
X17420630Y45783500D01*
X17436076Y45940327D01*
X17481821Y46091128D01*
X17527320Y46176250D01*
X17556106Y46230105D01*
X17656078Y46351922D01*
X17777895Y46451894D01*
X17916870Y46526178D01*
X17916872Y46526179D01*
X18067673Y46571924D01*
X18146029Y46579641D01*
X18185206Y46583500D01*
X18263794Y46583500D01*
X18302971Y46579641D01*
X18302971Y46579641D01*
G37*
G36*
X20842971Y46579641D02*
G01*
X20921327Y46571924D01*
X21072128Y46526179D01*
X21072130Y46526178D01*
X21211105Y46451894D01*
X21332922Y46351922D01*
X21432894Y46230105D01*
X21461680Y46176250D01*
X21507179Y46091128D01*
X21552924Y45940327D01*
X21568370Y45783500D01*
X21552924Y45626673D01*
X21507179Y45475872D01*
X21507178Y45475870D01*
X21432894Y45336895D01*
X21332922Y45215078D01*
X21211105Y45115106D01*
X21110479Y45061320D01*
X21072128Y45040821D01*
X20921327Y44995076D01*
X20842971Y44987359D01*
X20803794Y44983500D01*
X20725206Y44983500D01*
X20686029Y44987359D01*
X20607673Y44995076D01*
X20456872Y45040821D01*
X20418521Y45061320D01*
X20317895Y45115106D01*
X20196078Y45215078D01*
X20096106Y45336895D01*
X20021822Y45475870D01*
X20021821Y45475872D01*
X19976076Y45626673D01*
X19960630Y45783500D01*
X19976076Y45940327D01*
X20021821Y46091128D01*
X20067320Y46176250D01*
X20096106Y46230105D01*
X20196078Y46351922D01*
X20317895Y46451894D01*
X20456870Y46526178D01*
X20456872Y46526179D01*
X20607673Y46571924D01*
X20686029Y46579641D01*
X20725206Y46583500D01*
X20803794Y46583500D01*
X20842971Y46579641D01*
X20842971Y46579641D01*
G37*
G36*
X39390470Y46600140D02*
G01*
X39468826Y46592423D01*
X39619627Y46546678D01*
X39619629Y46546677D01*
X39758604Y46472393D01*
X39880421Y46372421D01*
X39899965Y46348607D01*
X39980392Y46250605D01*
X40054678Y46111627D01*
X40100423Y45960826D01*
X40115869Y45803999D01*
X40100423Y45647172D01*
X40054678Y45496371D01*
X40054677Y45496369D01*
X39980393Y45357394D01*
X39880421Y45235577D01*
X39758604Y45135605D01*
X39642440Y45073514D01*
X39619627Y45061320D01*
X39468826Y45015575D01*
X39390470Y45007858D01*
X39351293Y45003999D01*
X39272705Y45003999D01*
X39233528Y45007858D01*
X39155172Y45015575D01*
X39004371Y45061320D01*
X38981558Y45073514D01*
X38865394Y45135605D01*
X38743577Y45235577D01*
X38643605Y45357394D01*
X38569321Y45496369D01*
X38569320Y45496371D01*
X38523575Y45647172D01*
X38508129Y45803999D01*
X38523575Y45960826D01*
X38569320Y46111627D01*
X38643606Y46250605D01*
X38724034Y46348607D01*
X38743577Y46372421D01*
X38865394Y46472393D01*
X39004369Y46546677D01*
X39004371Y46546678D01*
X39155172Y46592423D01*
X39233528Y46600140D01*
X39272705Y46603999D01*
X39351293Y46603999D01*
X39390470Y46600140D01*
X39390470Y46600140D01*
G37*
G36*
X42651999Y45003999D02*
G01*
X41051999Y45003999D01*
X41051999Y46603999D01*
X42651999Y46603999D01*
X42651999Y45003999D01*
X42651999Y45003999D01*
G37*
G36*
X9152991Y46415925D02*
G01*
X9186879Y46405645D01*
X9218112Y46388950D01*
X9245486Y46366486D01*
X9267950Y46339112D01*
X9284645Y46307879D01*
X9294925Y46273991D01*
X9299000Y46232612D01*
X9299000Y45207388D01*
X9294925Y45166009D01*
X9284645Y45132121D01*
X9267950Y45100888D01*
X9245486Y45073514D01*
X9218112Y45051050D01*
X9186879Y45034355D01*
X9152991Y45024075D01*
X9111612Y45020000D01*
X8511388Y45020000D01*
X8470009Y45024075D01*
X8436121Y45034355D01*
X8404888Y45051050D01*
X8377514Y45073514D01*
X8355050Y45100888D01*
X8338355Y45132121D01*
X8328075Y45166009D01*
X8324000Y45207388D01*
X8324000Y46232612D01*
X8328075Y46273991D01*
X8338355Y46307879D01*
X8355050Y46339112D01*
X8377514Y46366486D01*
X8404888Y46388950D01*
X8436121Y46405645D01*
X8470009Y46415925D01*
X8511388Y46420000D01*
X9111612Y46420000D01*
X9152991Y46415925D01*
X9152991Y46415925D01*
G37*
G36*
X7277991Y46415925D02*
G01*
X7311879Y46405645D01*
X7343112Y46388950D01*
X7370486Y46366486D01*
X7392950Y46339112D01*
X7409645Y46307879D01*
X7419925Y46273991D01*
X7424000Y46232612D01*
X7424000Y45207388D01*
X7419925Y45166009D01*
X7409645Y45132121D01*
X7392950Y45100888D01*
X7370486Y45073514D01*
X7343112Y45051050D01*
X7311879Y45034355D01*
X7277991Y45024075D01*
X7236612Y45020000D01*
X6636388Y45020000D01*
X6595009Y45024075D01*
X6561121Y45034355D01*
X6529888Y45051050D01*
X6502514Y45073514D01*
X6480050Y45100888D01*
X6463355Y45132121D01*
X6453075Y45166009D01*
X6449000Y45207388D01*
X6449000Y46232612D01*
X6453075Y46273991D01*
X6463355Y46307879D01*
X6480050Y46339112D01*
X6502514Y46366486D01*
X6529888Y46388950D01*
X6561121Y46405645D01*
X6595009Y46415925D01*
X6636388Y46420000D01*
X7236612Y46420000D01*
X7277991Y46415925D01*
X7277991Y46415925D01*
G37*
G36*
X4326991Y46415925D02*
G01*
X4360879Y46405645D01*
X4392112Y46388950D01*
X4419486Y46366486D01*
X4441950Y46339112D01*
X4458645Y46307879D01*
X4468925Y46273991D01*
X4473000Y46232612D01*
X4473000Y45207388D01*
X4468925Y45166009D01*
X4458645Y45132121D01*
X4441950Y45100888D01*
X4419486Y45073514D01*
X4392112Y45051050D01*
X4360879Y45034355D01*
X4326991Y45024075D01*
X4285612Y45020000D01*
X3685388Y45020000D01*
X3644009Y45024075D01*
X3610121Y45034355D01*
X3578888Y45051050D01*
X3551514Y45073514D01*
X3529050Y45100888D01*
X3512355Y45132121D01*
X3502075Y45166009D01*
X3498000Y45207388D01*
X3498000Y46232612D01*
X3502075Y46273991D01*
X3512355Y46307879D01*
X3529050Y46339112D01*
X3551514Y46366486D01*
X3578888Y46388950D01*
X3610121Y46405645D01*
X3644009Y46415925D01*
X3685388Y46420000D01*
X4285612Y46420000D01*
X4326991Y46415925D01*
X4326991Y46415925D01*
G37*
G36*
X2451991Y46415925D02*
G01*
X2485879Y46405645D01*
X2517112Y46388950D01*
X2544486Y46366486D01*
X2566950Y46339112D01*
X2583645Y46307879D01*
X2593925Y46273991D01*
X2598000Y46232612D01*
X2598000Y45207388D01*
X2593925Y45166009D01*
X2583645Y45132121D01*
X2566950Y45100888D01*
X2544486Y45073514D01*
X2517112Y45051050D01*
X2485879Y45034355D01*
X2451991Y45024075D01*
X2410612Y45020000D01*
X1810388Y45020000D01*
X1769009Y45024075D01*
X1735121Y45034355D01*
X1703888Y45051050D01*
X1676514Y45073514D01*
X1654050Y45100888D01*
X1637355Y45132121D01*
X1627075Y45166009D01*
X1623000Y45207388D01*
X1623000Y46232612D01*
X1627075Y46273991D01*
X1637355Y46307879D01*
X1654050Y46339112D01*
X1676514Y46366486D01*
X1703888Y46388950D01*
X1735121Y46405645D01*
X1769009Y46415925D01*
X1810388Y46420000D01*
X2410612Y46420000D01*
X2451991Y46415925D01*
X2451991Y46415925D01*
G37*
G36*
X1880000Y47138000D02*
G01*
X330000Y47138000D01*
X330000Y48438000D01*
X1880000Y48438000D01*
X1880000Y47138000D01*
X1880000Y47138000D01*
G37*
G36*
X9830000Y47138000D02*
G01*
X8280000Y47138000D01*
X8280000Y48438000D01*
X9830000Y48438000D01*
X9830000Y47138000D01*
X9830000Y47138000D01*
G37*
G36*
X11475991Y49251425D02*
G01*
X11509879Y49241145D01*
X11541112Y49224450D01*
X11568486Y49201986D01*
X11590950Y49174612D01*
X11607645Y49143379D01*
X11617925Y49109491D01*
X11622000Y49068112D01*
X11622000Y48467888D01*
X11617925Y48426509D01*
X11607645Y48392621D01*
X11590950Y48361388D01*
X11568486Y48334014D01*
X11541112Y48311550D01*
X11509879Y48294855D01*
X11475991Y48284575D01*
X11434612Y48280500D01*
X10409388Y48280500D01*
X10368009Y48284575D01*
X10334121Y48294855D01*
X10302888Y48311550D01*
X10275514Y48334014D01*
X10253050Y48361388D01*
X10236355Y48392621D01*
X10226075Y48426509D01*
X10222000Y48467888D01*
X10222000Y49068112D01*
X10226075Y49109491D01*
X10236355Y49143379D01*
X10253050Y49174612D01*
X10275514Y49201986D01*
X10302888Y49224450D01*
X10334121Y49241145D01*
X10368009Y49251425D01*
X10409388Y49255500D01*
X11434612Y49255500D01*
X11475991Y49251425D01*
X11475991Y49251425D01*
G37*
G36*
X75664024Y50148045D02*
G01*
X75696738Y50138121D01*
X75726885Y50122007D01*
X75753315Y50100315D01*
X75775007Y50073885D01*
X75791121Y50043738D01*
X75801045Y50011024D01*
X75805000Y49970862D01*
X75805000Y49083138D01*
X75801045Y49042976D01*
X75791121Y49010262D01*
X75775007Y48980115D01*
X75753315Y48953685D01*
X75726885Y48931993D01*
X75696738Y48915879D01*
X75664024Y48905955D01*
X75623862Y48902000D01*
X74236138Y48902000D01*
X74195976Y48905955D01*
X74163262Y48915879D01*
X74133115Y48931993D01*
X74106685Y48953685D01*
X74084993Y48980115D01*
X74068879Y49010262D01*
X74058955Y49042976D01*
X74055000Y49083138D01*
X74055000Y49970862D01*
X74058955Y50011024D01*
X74068879Y50043738D01*
X74084993Y50073885D01*
X74106685Y50100315D01*
X74133115Y50122007D01*
X74163262Y50138121D01*
X74195976Y50148045D01*
X74236138Y50152000D01*
X75623862Y50152000D01*
X75664024Y50148045D01*
X75664024Y50148045D01*
G37*
G36*
X70838024Y50148045D02*
G01*
X70870738Y50138121D01*
X70900885Y50122007D01*
X70927315Y50100315D01*
X70949007Y50073885D01*
X70965121Y50043738D01*
X70975045Y50011024D01*
X70979000Y49970862D01*
X70979000Y49083138D01*
X70975045Y49042976D01*
X70965121Y49010262D01*
X70949007Y48980115D01*
X70927315Y48953685D01*
X70900885Y48931993D01*
X70870738Y48915879D01*
X70838024Y48905955D01*
X70797862Y48902000D01*
X69410138Y48902000D01*
X69369976Y48905955D01*
X69337262Y48915879D01*
X69307115Y48931993D01*
X69280685Y48953685D01*
X69258993Y48980115D01*
X69242879Y49010262D01*
X69232955Y49042976D01*
X69229000Y49083138D01*
X69229000Y49970862D01*
X69232955Y50011024D01*
X69242879Y50043738D01*
X69258993Y50073885D01*
X69280685Y50100315D01*
X69307115Y50122007D01*
X69337262Y50138121D01*
X69369976Y50148045D01*
X69410138Y50152000D01*
X70797862Y50152000D01*
X70838024Y50148045D01*
X70838024Y50148045D01*
G37*
G36*
X78077024Y50148045D02*
G01*
X78109738Y50138121D01*
X78139885Y50122007D01*
X78166315Y50100315D01*
X78188007Y50073885D01*
X78204121Y50043738D01*
X78214045Y50011024D01*
X78218000Y49970862D01*
X78218000Y49083138D01*
X78214045Y49042976D01*
X78204121Y49010262D01*
X78188007Y48980115D01*
X78166315Y48953685D01*
X78139885Y48931993D01*
X78109738Y48915879D01*
X78077024Y48905955D01*
X78036862Y48902000D01*
X76649138Y48902000D01*
X76608976Y48905955D01*
X76576262Y48915879D01*
X76546115Y48931993D01*
X76519685Y48953685D01*
X76497993Y48980115D01*
X76481879Y49010262D01*
X76471955Y49042976D01*
X76468000Y49083138D01*
X76468000Y49970862D01*
X76471955Y50011024D01*
X76481879Y50043738D01*
X76497993Y50073885D01*
X76519685Y50100315D01*
X76546115Y50122007D01*
X76576262Y50138121D01*
X76608976Y50148045D01*
X76649138Y50152000D01*
X78036862Y50152000D01*
X78077024Y50148045D01*
X78077024Y50148045D01*
G37*
G36*
X73251024Y50148045D02*
G01*
X73283738Y50138121D01*
X73313885Y50122007D01*
X73340315Y50100315D01*
X73362007Y50073885D01*
X73378121Y50043738D01*
X73388045Y50011024D01*
X73392000Y49970862D01*
X73392000Y49083138D01*
X73388045Y49042976D01*
X73378121Y49010262D01*
X73362007Y48980115D01*
X73340315Y48953685D01*
X73313885Y48931993D01*
X73283738Y48915879D01*
X73251024Y48905955D01*
X73210862Y48902000D01*
X71823138Y48902000D01*
X71782976Y48905955D01*
X71750262Y48915879D01*
X71720115Y48931993D01*
X71693685Y48953685D01*
X71671993Y48980115D01*
X71655879Y49010262D01*
X71645955Y49042976D01*
X71642000Y49083138D01*
X71642000Y49970862D01*
X71645955Y50011024D01*
X71655879Y50043738D01*
X71671993Y50073885D01*
X71693685Y50100315D01*
X71720115Y50122007D01*
X71750262Y50138121D01*
X71782976Y50148045D01*
X71823138Y50152000D01*
X73210862Y50152000D01*
X73251024Y50148045D01*
X73251024Y50148045D01*
G37*
G36*
X68425024Y50148045D02*
G01*
X68457738Y50138121D01*
X68487885Y50122007D01*
X68514315Y50100315D01*
X68536007Y50073885D01*
X68552121Y50043738D01*
X68562045Y50011024D01*
X68566000Y49970862D01*
X68566000Y49083138D01*
X68562045Y49042976D01*
X68552121Y49010262D01*
X68536007Y48980115D01*
X68514315Y48953685D01*
X68487885Y48931993D01*
X68457738Y48915879D01*
X68425024Y48905955D01*
X68384862Y48902000D01*
X66997138Y48902000D01*
X66956976Y48905955D01*
X66924262Y48915879D01*
X66894115Y48931993D01*
X66867685Y48953685D01*
X66845993Y48980115D01*
X66829879Y49010262D01*
X66819955Y49042976D01*
X66816000Y49083138D01*
X66816000Y49970862D01*
X66819955Y50011024D01*
X66829879Y50043738D01*
X66845993Y50073885D01*
X66867685Y50100315D01*
X66894115Y50122007D01*
X66924262Y50138121D01*
X66956976Y50148045D01*
X66997138Y50152000D01*
X68384862Y50152000D01*
X68425024Y50148045D01*
X68425024Y50148045D01*
G37*
G36*
X34205294Y51803504D02*
G01*
X34282396Y51780115D01*
X34368087Y51754121D01*
X34518107Y51673934D01*
X34518110Y51673932D01*
X34518111Y51673931D01*
X34649612Y51566012D01*
X34757531Y51434512D01*
X34757533Y51434508D01*
X34757534Y51434507D01*
X34837721Y51284487D01*
X34837722Y51284484D01*
X34887104Y51121695D01*
X34899600Y50994820D01*
X34899600Y50605181D01*
X34887104Y50478306D01*
X34850571Y50357872D01*
X34837721Y50315512D01*
X34757534Y50165493D01*
X34757531Y50165488D01*
X34649612Y50033988D01*
X34518112Y49926069D01*
X34518108Y49926067D01*
X34518107Y49926066D01*
X34368087Y49845879D01*
X34368084Y49845878D01*
X34205295Y49796496D01*
X34036000Y49779822D01*
X33866706Y49796496D01*
X33703917Y49845878D01*
X33703914Y49845879D01*
X33553894Y49926066D01*
X33553893Y49926067D01*
X33553889Y49926069D01*
X33422388Y50033988D01*
X33314469Y50165488D01*
X33291204Y50209014D01*
X33234279Y50315513D01*
X33223303Y50351697D01*
X33184896Y50478305D01*
X33172400Y50605180D01*
X33172400Y50994819D01*
X33184896Y51121694D01*
X33234278Y51284483D01*
X33234279Y51284487D01*
X33314466Y51434507D01*
X33314470Y51434512D01*
X33422388Y51566012D01*
X33553888Y51673931D01*
X33553892Y51673933D01*
X33553893Y51673934D01*
X33703913Y51754121D01*
X33703916Y51754122D01*
X33866705Y51803504D01*
X34036000Y51820178D01*
X34205294Y51803504D01*
X34205294Y51803504D01*
G37*
G36*
X31665294Y51803504D02*
G01*
X31742396Y51780115D01*
X31828087Y51754121D01*
X31978107Y51673934D01*
X31978110Y51673932D01*
X31978111Y51673931D01*
X32109612Y51566012D01*
X32217531Y51434512D01*
X32217533Y51434508D01*
X32217534Y51434507D01*
X32297721Y51284487D01*
X32297722Y51284484D01*
X32347104Y51121695D01*
X32359600Y50994820D01*
X32359600Y50605181D01*
X32347104Y50478306D01*
X32310571Y50357872D01*
X32297721Y50315512D01*
X32217534Y50165493D01*
X32217531Y50165488D01*
X32109612Y50033988D01*
X31978112Y49926069D01*
X31978108Y49926067D01*
X31978107Y49926066D01*
X31828087Y49845879D01*
X31828084Y49845878D01*
X31665295Y49796496D01*
X31496000Y49779822D01*
X31326706Y49796496D01*
X31163917Y49845878D01*
X31163914Y49845879D01*
X31013894Y49926066D01*
X31013893Y49926067D01*
X31013889Y49926069D01*
X30882388Y50033988D01*
X30774469Y50165488D01*
X30751204Y50209014D01*
X30694279Y50315513D01*
X30683303Y50351697D01*
X30644896Y50478305D01*
X30632400Y50605180D01*
X30632400Y50994819D01*
X30644896Y51121694D01*
X30694278Y51284483D01*
X30694279Y51284487D01*
X30774466Y51434507D01*
X30774470Y51434512D01*
X30882388Y51566012D01*
X31013888Y51673931D01*
X31013892Y51673933D01*
X31013893Y51673934D01*
X31163913Y51754121D01*
X31163916Y51754122D01*
X31326705Y51803504D01*
X31496000Y51820178D01*
X31665294Y51803504D01*
X31665294Y51803504D01*
G37*
G36*
X29125294Y51803504D02*
G01*
X29202396Y51780115D01*
X29288087Y51754121D01*
X29438107Y51673934D01*
X29438110Y51673932D01*
X29438111Y51673931D01*
X29569612Y51566012D01*
X29677531Y51434512D01*
X29677533Y51434508D01*
X29677534Y51434507D01*
X29757721Y51284487D01*
X29757722Y51284484D01*
X29807104Y51121695D01*
X29819600Y50994820D01*
X29819600Y50605181D01*
X29807104Y50478306D01*
X29770571Y50357872D01*
X29757721Y50315512D01*
X29677534Y50165493D01*
X29677531Y50165488D01*
X29569612Y50033988D01*
X29438112Y49926069D01*
X29438108Y49926067D01*
X29438107Y49926066D01*
X29288087Y49845879D01*
X29288084Y49845878D01*
X29125295Y49796496D01*
X28956000Y49779822D01*
X28786706Y49796496D01*
X28623917Y49845878D01*
X28623914Y49845879D01*
X28473894Y49926066D01*
X28473893Y49926067D01*
X28473889Y49926069D01*
X28342388Y50033988D01*
X28234469Y50165488D01*
X28211204Y50209014D01*
X28154279Y50315513D01*
X28143303Y50351697D01*
X28104896Y50478305D01*
X28092400Y50605180D01*
X28092400Y50994819D01*
X28104896Y51121694D01*
X28154278Y51284483D01*
X28154279Y51284487D01*
X28234466Y51434507D01*
X28234470Y51434512D01*
X28342388Y51566012D01*
X28473888Y51673931D01*
X28473892Y51673933D01*
X28473893Y51673934D01*
X28623913Y51754121D01*
X28623916Y51754122D01*
X28786705Y51803504D01*
X28956000Y51820178D01*
X29125294Y51803504D01*
X29125294Y51803504D01*
G37*
G36*
X26585294Y51803504D02*
G01*
X26662396Y51780115D01*
X26748087Y51754121D01*
X26898107Y51673934D01*
X26898110Y51673932D01*
X26898111Y51673931D01*
X27029612Y51566012D01*
X27137531Y51434512D01*
X27137533Y51434508D01*
X27137534Y51434507D01*
X27217721Y51284487D01*
X27217722Y51284484D01*
X27267104Y51121695D01*
X27279600Y50994820D01*
X27279600Y50605181D01*
X27267104Y50478306D01*
X27230571Y50357872D01*
X27217721Y50315512D01*
X27137534Y50165493D01*
X27137531Y50165488D01*
X27029612Y50033988D01*
X26898112Y49926069D01*
X26898108Y49926067D01*
X26898107Y49926066D01*
X26748087Y49845879D01*
X26748084Y49845878D01*
X26585295Y49796496D01*
X26416000Y49779822D01*
X26246706Y49796496D01*
X26083917Y49845878D01*
X26083914Y49845879D01*
X25933894Y49926066D01*
X25933893Y49926067D01*
X25933889Y49926069D01*
X25802388Y50033988D01*
X25694469Y50165488D01*
X25671204Y50209014D01*
X25614279Y50315513D01*
X25603303Y50351697D01*
X25564896Y50478305D01*
X25552400Y50605180D01*
X25552400Y50994819D01*
X25564896Y51121694D01*
X25614278Y51284483D01*
X25614279Y51284487D01*
X25694466Y51434507D01*
X25694470Y51434512D01*
X25802388Y51566012D01*
X25933888Y51673931D01*
X25933892Y51673933D01*
X25933893Y51673934D01*
X26083913Y51754121D01*
X26083916Y51754122D01*
X26246705Y51803504D01*
X26416000Y51820178D01*
X26585294Y51803504D01*
X26585294Y51803504D01*
G37*
G36*
X24045294Y51803504D02*
G01*
X24122396Y51780115D01*
X24208087Y51754121D01*
X24358107Y51673934D01*
X24358110Y51673932D01*
X24358111Y51673931D01*
X24489612Y51566012D01*
X24597531Y51434512D01*
X24597533Y51434508D01*
X24597534Y51434507D01*
X24677721Y51284487D01*
X24677722Y51284484D01*
X24727104Y51121695D01*
X24739600Y50994820D01*
X24739600Y50605181D01*
X24727104Y50478306D01*
X24690571Y50357872D01*
X24677721Y50315512D01*
X24597534Y50165493D01*
X24597531Y50165488D01*
X24489612Y50033988D01*
X24358112Y49926069D01*
X24358108Y49926067D01*
X24358107Y49926066D01*
X24208087Y49845879D01*
X24208084Y49845878D01*
X24045295Y49796496D01*
X23876000Y49779822D01*
X23706706Y49796496D01*
X23543917Y49845878D01*
X23543914Y49845879D01*
X23393894Y49926066D01*
X23393893Y49926067D01*
X23393889Y49926069D01*
X23262388Y50033988D01*
X23154469Y50165488D01*
X23131204Y50209014D01*
X23074279Y50315513D01*
X23063303Y50351697D01*
X23024896Y50478305D01*
X23012400Y50605180D01*
X23012400Y50994819D01*
X23024896Y51121694D01*
X23074278Y51284483D01*
X23074279Y51284487D01*
X23154466Y51434507D01*
X23154470Y51434512D01*
X23262388Y51566012D01*
X23393888Y51673931D01*
X23393892Y51673933D01*
X23393893Y51673934D01*
X23543913Y51754121D01*
X23543916Y51754122D01*
X23706705Y51803504D01*
X23876000Y51820178D01*
X24045294Y51803504D01*
X24045294Y51803504D01*
G37*
G36*
X21505294Y51803504D02*
G01*
X21582396Y51780115D01*
X21668087Y51754121D01*
X21818107Y51673934D01*
X21818110Y51673932D01*
X21818111Y51673931D01*
X21949612Y51566012D01*
X22057531Y51434512D01*
X22057533Y51434508D01*
X22057534Y51434507D01*
X22137721Y51284487D01*
X22137722Y51284484D01*
X22187104Y51121695D01*
X22199600Y50994820D01*
X22199600Y50605181D01*
X22187104Y50478306D01*
X22150571Y50357872D01*
X22137721Y50315512D01*
X22057534Y50165493D01*
X22057531Y50165488D01*
X21949612Y50033988D01*
X21818112Y49926069D01*
X21818108Y49926067D01*
X21818107Y49926066D01*
X21668087Y49845879D01*
X21668084Y49845878D01*
X21505295Y49796496D01*
X21336000Y49779822D01*
X21166706Y49796496D01*
X21003917Y49845878D01*
X21003914Y49845879D01*
X20853894Y49926066D01*
X20853893Y49926067D01*
X20853889Y49926069D01*
X20722388Y50033988D01*
X20614469Y50165488D01*
X20591204Y50209014D01*
X20534279Y50315513D01*
X20523303Y50351697D01*
X20484896Y50478305D01*
X20472400Y50605180D01*
X20472400Y50994819D01*
X20484896Y51121694D01*
X20534278Y51284483D01*
X20534279Y51284487D01*
X20614466Y51434507D01*
X20614470Y51434512D01*
X20722388Y51566012D01*
X20853888Y51673931D01*
X20853892Y51673933D01*
X20853893Y51673934D01*
X21003913Y51754121D01*
X21003916Y51754122D01*
X21166705Y51803504D01*
X21336000Y51820178D01*
X21505294Y51803504D01*
X21505294Y51803504D01*
G37*
G36*
X18965294Y51803504D02*
G01*
X19042396Y51780115D01*
X19128087Y51754121D01*
X19278107Y51673934D01*
X19278110Y51673932D01*
X19278111Y51673931D01*
X19409612Y51566012D01*
X19517531Y51434512D01*
X19517533Y51434508D01*
X19517534Y51434507D01*
X19597721Y51284487D01*
X19597722Y51284484D01*
X19647104Y51121695D01*
X19659600Y50994820D01*
X19659600Y50605181D01*
X19647104Y50478306D01*
X19610571Y50357872D01*
X19597721Y50315512D01*
X19517534Y50165493D01*
X19517531Y50165488D01*
X19409612Y50033988D01*
X19278112Y49926069D01*
X19278108Y49926067D01*
X19278107Y49926066D01*
X19128087Y49845879D01*
X19128084Y49845878D01*
X18965295Y49796496D01*
X18796000Y49779822D01*
X18626706Y49796496D01*
X18463917Y49845878D01*
X18463914Y49845879D01*
X18313894Y49926066D01*
X18313893Y49926067D01*
X18313889Y49926069D01*
X18182388Y50033988D01*
X18074469Y50165488D01*
X18051204Y50209014D01*
X17994279Y50315513D01*
X17983303Y50351697D01*
X17944896Y50478305D01*
X17932400Y50605180D01*
X17932400Y50994819D01*
X17944896Y51121694D01*
X17994278Y51284483D01*
X17994279Y51284487D01*
X18074466Y51434507D01*
X18074470Y51434512D01*
X18182388Y51566012D01*
X18313888Y51673931D01*
X18313892Y51673933D01*
X18313893Y51673934D01*
X18463913Y51754121D01*
X18463916Y51754122D01*
X18626705Y51803504D01*
X18796000Y51820178D01*
X18965294Y51803504D01*
X18965294Y51803504D01*
G37*
G36*
X36745294Y51803504D02*
G01*
X36822396Y51780115D01*
X36908087Y51754121D01*
X37058107Y51673934D01*
X37058110Y51673932D01*
X37058111Y51673931D01*
X37189612Y51566012D01*
X37297531Y51434512D01*
X37297533Y51434508D01*
X37297534Y51434507D01*
X37377721Y51284487D01*
X37377722Y51284484D01*
X37427104Y51121695D01*
X37439600Y50994820D01*
X37439600Y50605181D01*
X37427104Y50478306D01*
X37390571Y50357872D01*
X37377721Y50315512D01*
X37297534Y50165493D01*
X37297531Y50165488D01*
X37189612Y50033988D01*
X37058112Y49926069D01*
X37058108Y49926067D01*
X37058107Y49926066D01*
X36908087Y49845879D01*
X36908084Y49845878D01*
X36745295Y49796496D01*
X36576000Y49779822D01*
X36406706Y49796496D01*
X36243917Y49845878D01*
X36243914Y49845879D01*
X36093894Y49926066D01*
X36093893Y49926067D01*
X36093889Y49926069D01*
X35962388Y50033988D01*
X35854469Y50165488D01*
X35831204Y50209014D01*
X35774279Y50315513D01*
X35763303Y50351697D01*
X35724896Y50478305D01*
X35712400Y50605180D01*
X35712400Y50994819D01*
X35724896Y51121694D01*
X35774278Y51284483D01*
X35774279Y51284487D01*
X35854466Y51434507D01*
X35854470Y51434512D01*
X35962388Y51566012D01*
X36093888Y51673931D01*
X36093892Y51673933D01*
X36093893Y51673934D01*
X36243913Y51754121D01*
X36243916Y51754122D01*
X36406705Y51803504D01*
X36576000Y51820178D01*
X36745294Y51803504D01*
X36745294Y51803504D01*
G37*
G36*
X39285294Y51803504D02*
G01*
X39362396Y51780115D01*
X39448087Y51754121D01*
X39598107Y51673934D01*
X39598110Y51673932D01*
X39598111Y51673931D01*
X39729612Y51566012D01*
X39837531Y51434512D01*
X39837533Y51434508D01*
X39837534Y51434507D01*
X39917721Y51284487D01*
X39917722Y51284484D01*
X39967104Y51121695D01*
X39979600Y50994820D01*
X39979600Y50605181D01*
X39967104Y50478306D01*
X39930571Y50357872D01*
X39917721Y50315512D01*
X39837534Y50165493D01*
X39837531Y50165488D01*
X39729612Y50033988D01*
X39598112Y49926069D01*
X39598108Y49926067D01*
X39598107Y49926066D01*
X39448087Y49845879D01*
X39448084Y49845878D01*
X39285295Y49796496D01*
X39116000Y49779822D01*
X38946706Y49796496D01*
X38783917Y49845878D01*
X38783914Y49845879D01*
X38633894Y49926066D01*
X38633893Y49926067D01*
X38633889Y49926069D01*
X38502388Y50033988D01*
X38394469Y50165488D01*
X38371204Y50209014D01*
X38314279Y50315513D01*
X38303303Y50351697D01*
X38264896Y50478305D01*
X38252400Y50605180D01*
X38252400Y50994819D01*
X38264896Y51121694D01*
X38314278Y51284483D01*
X38314279Y51284487D01*
X38394466Y51434507D01*
X38394470Y51434512D01*
X38502388Y51566012D01*
X38633888Y51673931D01*
X38633892Y51673933D01*
X38633893Y51673934D01*
X38783913Y51754121D01*
X38783916Y51754122D01*
X38946705Y51803504D01*
X39116000Y51820178D01*
X39285294Y51803504D01*
X39285294Y51803504D01*
G37*
G36*
X41825294Y51803504D02*
G01*
X41902396Y51780115D01*
X41988087Y51754121D01*
X42138107Y51673934D01*
X42138110Y51673932D01*
X42138111Y51673931D01*
X42269612Y51566012D01*
X42377531Y51434512D01*
X42377533Y51434508D01*
X42377534Y51434507D01*
X42457721Y51284487D01*
X42457722Y51284484D01*
X42507104Y51121695D01*
X42519600Y50994820D01*
X42519600Y50605181D01*
X42507104Y50478306D01*
X42470571Y50357872D01*
X42457721Y50315512D01*
X42377534Y50165493D01*
X42377531Y50165488D01*
X42269612Y50033988D01*
X42138112Y49926069D01*
X42138108Y49926067D01*
X42138107Y49926066D01*
X41988087Y49845879D01*
X41988084Y49845878D01*
X41825295Y49796496D01*
X41656000Y49779822D01*
X41486706Y49796496D01*
X41323917Y49845878D01*
X41323914Y49845879D01*
X41173894Y49926066D01*
X41173893Y49926067D01*
X41173889Y49926069D01*
X41042388Y50033988D01*
X40934469Y50165488D01*
X40911204Y50209014D01*
X40854279Y50315513D01*
X40843303Y50351697D01*
X40804896Y50478305D01*
X40792400Y50605180D01*
X40792400Y50994819D01*
X40804896Y51121694D01*
X40854278Y51284483D01*
X40854279Y51284487D01*
X40934466Y51434507D01*
X40934470Y51434512D01*
X41042388Y51566012D01*
X41173888Y51673931D01*
X41173892Y51673933D01*
X41173893Y51673934D01*
X41323913Y51754121D01*
X41323916Y51754122D01*
X41486705Y51803504D01*
X41656000Y51820178D01*
X41825294Y51803504D01*
X41825294Y51803504D01*
G37*
G36*
X64350000Y49950000D02*
G01*
X62650000Y49950000D01*
X62650000Y51650000D01*
X64350000Y51650000D01*
X64350000Y49950000D01*
X64350000Y49950000D01*
G37*
G36*
X50966627Y51637701D02*
G01*
X51046742Y51613398D01*
X51126855Y51589097D01*
X51126857Y51589096D01*
X51274518Y51510169D01*
X51403949Y51403949D01*
X51501990Y51284484D01*
X51510168Y51274519D01*
X51589097Y51126855D01*
X51597410Y51099450D01*
X51637701Y50966627D01*
X51654112Y50800000D01*
X51637701Y50633373D01*
X51637700Y50633371D01*
X51590663Y50478306D01*
X51589096Y50473143D01*
X51510169Y50325482D01*
X51403949Y50196051D01*
X51274518Y50089831D01*
X51126857Y50010904D01*
X51126855Y50010903D01*
X51046742Y49986602D01*
X50966627Y49962299D01*
X50841752Y49950000D01*
X50758248Y49950000D01*
X50633373Y49962299D01*
X50553258Y49986602D01*
X50473145Y50010903D01*
X50473143Y50010904D01*
X50325482Y50089831D01*
X50196051Y50196051D01*
X50089831Y50325482D01*
X50010904Y50473143D01*
X50009338Y50478306D01*
X49962300Y50633371D01*
X49962299Y50633373D01*
X49945888Y50800000D01*
X49962299Y50966627D01*
X50002590Y51099450D01*
X50010903Y51126855D01*
X50089832Y51274519D01*
X50098010Y51284484D01*
X50196051Y51403949D01*
X50325482Y51510169D01*
X50473143Y51589096D01*
X50473145Y51589097D01*
X50553258Y51613398D01*
X50633373Y51637701D01*
X50758248Y51650000D01*
X50841752Y51650000D01*
X50966627Y51637701D01*
X50966627Y51637701D01*
G37*
G36*
X61126627Y51637701D02*
G01*
X61206742Y51613398D01*
X61286855Y51589097D01*
X61286857Y51589096D01*
X61434518Y51510169D01*
X61563949Y51403949D01*
X61661990Y51284484D01*
X61670168Y51274519D01*
X61749097Y51126855D01*
X61757410Y51099450D01*
X61797701Y50966627D01*
X61814112Y50800000D01*
X61797701Y50633373D01*
X61797700Y50633371D01*
X61750663Y50478306D01*
X61749096Y50473143D01*
X61670169Y50325482D01*
X61563949Y50196051D01*
X61434518Y50089831D01*
X61286857Y50010904D01*
X61286855Y50010903D01*
X61206742Y49986602D01*
X61126627Y49962299D01*
X61001752Y49950000D01*
X60918248Y49950000D01*
X60793373Y49962299D01*
X60713258Y49986602D01*
X60633145Y50010903D01*
X60633143Y50010904D01*
X60485482Y50089831D01*
X60356051Y50196051D01*
X60249831Y50325482D01*
X60170904Y50473143D01*
X60169338Y50478306D01*
X60122300Y50633371D01*
X60122299Y50633373D01*
X60105888Y50800000D01*
X60122299Y50966627D01*
X60162590Y51099450D01*
X60170903Y51126855D01*
X60249832Y51274519D01*
X60258010Y51284484D01*
X60356051Y51403949D01*
X60485482Y51510169D01*
X60633143Y51589096D01*
X60633145Y51589097D01*
X60713258Y51613398D01*
X60793373Y51637701D01*
X60918248Y51650000D01*
X61001752Y51650000D01*
X61126627Y51637701D01*
X61126627Y51637701D01*
G37*
G36*
X58586627Y51637701D02*
G01*
X58666742Y51613398D01*
X58746855Y51589097D01*
X58746857Y51589096D01*
X58894518Y51510169D01*
X59023949Y51403949D01*
X59121990Y51284484D01*
X59130168Y51274519D01*
X59209097Y51126855D01*
X59217410Y51099450D01*
X59257701Y50966627D01*
X59274112Y50800000D01*
X59257701Y50633373D01*
X59257700Y50633371D01*
X59210663Y50478306D01*
X59209096Y50473143D01*
X59130169Y50325482D01*
X59023949Y50196051D01*
X58894518Y50089831D01*
X58746857Y50010904D01*
X58746855Y50010903D01*
X58666742Y49986602D01*
X58586627Y49962299D01*
X58461752Y49950000D01*
X58378248Y49950000D01*
X58253373Y49962299D01*
X58173258Y49986602D01*
X58093145Y50010903D01*
X58093143Y50010904D01*
X57945482Y50089831D01*
X57816051Y50196051D01*
X57709831Y50325482D01*
X57630904Y50473143D01*
X57629338Y50478306D01*
X57582300Y50633371D01*
X57582299Y50633373D01*
X57565888Y50800000D01*
X57582299Y50966627D01*
X57622590Y51099450D01*
X57630903Y51126855D01*
X57709832Y51274519D01*
X57718010Y51284484D01*
X57816051Y51403949D01*
X57945482Y51510169D01*
X58093143Y51589096D01*
X58093145Y51589097D01*
X58173258Y51613398D01*
X58253373Y51637701D01*
X58378248Y51650000D01*
X58461752Y51650000D01*
X58586627Y51637701D01*
X58586627Y51637701D01*
G37*
G36*
X56046627Y51637701D02*
G01*
X56126742Y51613398D01*
X56206855Y51589097D01*
X56206857Y51589096D01*
X56354518Y51510169D01*
X56483949Y51403949D01*
X56581990Y51284484D01*
X56590168Y51274519D01*
X56669097Y51126855D01*
X56677410Y51099450D01*
X56717701Y50966627D01*
X56734112Y50800000D01*
X56717701Y50633373D01*
X56717700Y50633371D01*
X56670663Y50478306D01*
X56669096Y50473143D01*
X56590169Y50325482D01*
X56483949Y50196051D01*
X56354518Y50089831D01*
X56206857Y50010904D01*
X56206855Y50010903D01*
X56126742Y49986602D01*
X56046627Y49962299D01*
X55921752Y49950000D01*
X55838248Y49950000D01*
X55713373Y49962299D01*
X55633258Y49986602D01*
X55553145Y50010903D01*
X55553143Y50010904D01*
X55405482Y50089831D01*
X55276051Y50196051D01*
X55169831Y50325482D01*
X55090904Y50473143D01*
X55089338Y50478306D01*
X55042300Y50633371D01*
X55042299Y50633373D01*
X55025888Y50800000D01*
X55042299Y50966627D01*
X55082590Y51099450D01*
X55090903Y51126855D01*
X55169832Y51274519D01*
X55178010Y51284484D01*
X55276051Y51403949D01*
X55405482Y51510169D01*
X55553143Y51589096D01*
X55553145Y51589097D01*
X55633258Y51613398D01*
X55713373Y51637701D01*
X55838248Y51650000D01*
X55921752Y51650000D01*
X56046627Y51637701D01*
X56046627Y51637701D01*
G37*
G36*
X53506627Y51637701D02*
G01*
X53586742Y51613398D01*
X53666855Y51589097D01*
X53666857Y51589096D01*
X53814518Y51510169D01*
X53943949Y51403949D01*
X54041990Y51284484D01*
X54050168Y51274519D01*
X54129097Y51126855D01*
X54137410Y51099450D01*
X54177701Y50966627D01*
X54194112Y50800000D01*
X54177701Y50633373D01*
X54177700Y50633371D01*
X54130663Y50478306D01*
X54129096Y50473143D01*
X54050169Y50325482D01*
X53943949Y50196051D01*
X53814518Y50089831D01*
X53666857Y50010904D01*
X53666855Y50010903D01*
X53586742Y49986602D01*
X53506627Y49962299D01*
X53381752Y49950000D01*
X53298248Y49950000D01*
X53173373Y49962299D01*
X53093258Y49986602D01*
X53013145Y50010903D01*
X53013143Y50010904D01*
X52865482Y50089831D01*
X52736051Y50196051D01*
X52629831Y50325482D01*
X52550904Y50473143D01*
X52549338Y50478306D01*
X52502300Y50633371D01*
X52502299Y50633373D01*
X52485888Y50800000D01*
X52502299Y50966627D01*
X52542590Y51099450D01*
X52550903Y51126855D01*
X52629832Y51274519D01*
X52638010Y51284484D01*
X52736051Y51403949D01*
X52865482Y51510169D01*
X53013143Y51589096D01*
X53013145Y51589097D01*
X53093258Y51613398D01*
X53173373Y51637701D01*
X53298248Y51650000D01*
X53381752Y51650000D01*
X53506627Y51637701D01*
X53506627Y51637701D01*
G37*
G36*
X48426627Y51637701D02*
G01*
X48506742Y51613398D01*
X48586855Y51589097D01*
X48586857Y51589096D01*
X48734518Y51510169D01*
X48863949Y51403949D01*
X48961990Y51284484D01*
X48970168Y51274519D01*
X49049097Y51126855D01*
X49057410Y51099450D01*
X49097701Y50966627D01*
X49114112Y50800000D01*
X49097701Y50633373D01*
X49097700Y50633371D01*
X49050663Y50478306D01*
X49049096Y50473143D01*
X48970169Y50325482D01*
X48863949Y50196051D01*
X48734518Y50089831D01*
X48586857Y50010904D01*
X48586855Y50010903D01*
X48506742Y49986602D01*
X48426627Y49962299D01*
X48301752Y49950000D01*
X48218248Y49950000D01*
X48093373Y49962299D01*
X48013258Y49986602D01*
X47933145Y50010903D01*
X47933143Y50010904D01*
X47785482Y50089831D01*
X47656051Y50196051D01*
X47549831Y50325482D01*
X47470904Y50473143D01*
X47469338Y50478306D01*
X47422300Y50633371D01*
X47422299Y50633373D01*
X47405888Y50800000D01*
X47422299Y50966627D01*
X47462590Y51099450D01*
X47470903Y51126855D01*
X47549832Y51274519D01*
X47558010Y51284484D01*
X47656051Y51403949D01*
X47785482Y51510169D01*
X47933143Y51589096D01*
X47933145Y51589097D01*
X48013258Y51613398D01*
X48093373Y51637701D01*
X48218248Y51650000D01*
X48301752Y51650000D01*
X48426627Y51637701D01*
X48426627Y51637701D01*
G37*
G36*
X45886627Y51637701D02*
G01*
X45966742Y51613398D01*
X46046855Y51589097D01*
X46046857Y51589096D01*
X46194518Y51510169D01*
X46323949Y51403949D01*
X46421990Y51284484D01*
X46430168Y51274519D01*
X46509097Y51126855D01*
X46517410Y51099450D01*
X46557701Y50966627D01*
X46574112Y50800000D01*
X46557701Y50633373D01*
X46557700Y50633371D01*
X46510663Y50478306D01*
X46509096Y50473143D01*
X46430169Y50325482D01*
X46323949Y50196051D01*
X46194518Y50089831D01*
X46046857Y50010904D01*
X46046855Y50010903D01*
X45966742Y49986602D01*
X45886627Y49962299D01*
X45761752Y49950000D01*
X45678248Y49950000D01*
X45553373Y49962299D01*
X45473258Y49986602D01*
X45393145Y50010903D01*
X45393143Y50010904D01*
X45245482Y50089831D01*
X45116051Y50196051D01*
X45009831Y50325482D01*
X44930904Y50473143D01*
X44929338Y50478306D01*
X44882300Y50633371D01*
X44882299Y50633373D01*
X44865888Y50800000D01*
X44882299Y50966627D01*
X44922590Y51099450D01*
X44930903Y51126855D01*
X45009832Y51274519D01*
X45018010Y51284484D01*
X45116051Y51403949D01*
X45245482Y51510169D01*
X45393143Y51589096D01*
X45393145Y51589097D01*
X45473258Y51613398D01*
X45553373Y51637701D01*
X45678248Y51650000D01*
X45761752Y51650000D01*
X45886627Y51637701D01*
X45886627Y51637701D01*
G37*
G36*
X11475991Y51126425D02*
G01*
X11509879Y51116145D01*
X11541112Y51099450D01*
X11568486Y51076986D01*
X11590950Y51049612D01*
X11607645Y51018379D01*
X11617925Y50984491D01*
X11622000Y50943112D01*
X11622000Y50342888D01*
X11617925Y50301509D01*
X11607645Y50267621D01*
X11590950Y50236388D01*
X11568486Y50209014D01*
X11541112Y50186550D01*
X11509879Y50169855D01*
X11475991Y50159575D01*
X11434612Y50155500D01*
X10409388Y50155500D01*
X10368009Y50159575D01*
X10334121Y50169855D01*
X10302888Y50186550D01*
X10275514Y50209014D01*
X10253050Y50236388D01*
X10236355Y50267621D01*
X10226075Y50301509D01*
X10222000Y50342888D01*
X10222000Y50943112D01*
X10226075Y50984491D01*
X10236355Y51018379D01*
X10253050Y51049612D01*
X10275514Y51076986D01*
X10302888Y51099450D01*
X10334121Y51116145D01*
X10368009Y51126425D01*
X10409388Y51130500D01*
X11434612Y51130500D01*
X11475991Y51126425D01*
X11475991Y51126425D01*
G37*
G36*
X9830000Y51638000D02*
G01*
X8280000Y51638000D01*
X8280000Y52938000D01*
X9830000Y52938000D01*
X9830000Y51638000D01*
X9830000Y51638000D01*
G37*
G36*
X1880000Y51638000D02*
G01*
X330000Y51638000D01*
X330000Y52938000D01*
X1880000Y52938000D01*
X1880000Y51638000D01*
X1880000Y51638000D01*
G37*
G36*
X70838024Y52948045D02*
G01*
X70870738Y52938121D01*
X70900885Y52922007D01*
X70927315Y52900315D01*
X70949007Y52873885D01*
X70965121Y52843738D01*
X70975045Y52811024D01*
X70979000Y52770862D01*
X70979000Y51883138D01*
X70975045Y51842976D01*
X70965121Y51810262D01*
X70949007Y51780115D01*
X70927315Y51753685D01*
X70900885Y51731993D01*
X70870738Y51715879D01*
X70838024Y51705955D01*
X70797862Y51702000D01*
X69410138Y51702000D01*
X69369976Y51705955D01*
X69337262Y51715879D01*
X69307115Y51731993D01*
X69280685Y51753685D01*
X69258993Y51780115D01*
X69242879Y51810262D01*
X69232955Y51842976D01*
X69229000Y51883138D01*
X69229000Y52770862D01*
X69232955Y52811024D01*
X69242879Y52843738D01*
X69258993Y52873885D01*
X69280685Y52900315D01*
X69307115Y52922007D01*
X69337262Y52938121D01*
X69369976Y52948045D01*
X69410138Y52952000D01*
X70797862Y52952000D01*
X70838024Y52948045D01*
X70838024Y52948045D01*
G37*
G36*
X68425024Y52948045D02*
G01*
X68457738Y52938121D01*
X68487885Y52922007D01*
X68514315Y52900315D01*
X68536007Y52873885D01*
X68552121Y52843738D01*
X68562045Y52811024D01*
X68566000Y52770862D01*
X68566000Y51883138D01*
X68562045Y51842976D01*
X68552121Y51810262D01*
X68536007Y51780115D01*
X68514315Y51753685D01*
X68487885Y51731993D01*
X68457738Y51715879D01*
X68425024Y51705955D01*
X68384862Y51702000D01*
X66997138Y51702000D01*
X66956976Y51705955D01*
X66924262Y51715879D01*
X66894115Y51731993D01*
X66867685Y51753685D01*
X66845993Y51780115D01*
X66829879Y51810262D01*
X66819955Y51842976D01*
X66816000Y51883138D01*
X66816000Y52770862D01*
X66819955Y52811024D01*
X66829879Y52843738D01*
X66845993Y52873885D01*
X66867685Y52900315D01*
X66894115Y52922007D01*
X66924262Y52938121D01*
X66956976Y52948045D01*
X66997138Y52952000D01*
X68384862Y52952000D01*
X68425024Y52948045D01*
X68425024Y52948045D01*
G37*
G36*
X73251024Y52948045D02*
G01*
X73283738Y52938121D01*
X73313885Y52922007D01*
X73340315Y52900315D01*
X73362007Y52873885D01*
X73378121Y52843738D01*
X73388045Y52811024D01*
X73392000Y52770862D01*
X73392000Y51883138D01*
X73388045Y51842976D01*
X73378121Y51810262D01*
X73362007Y51780115D01*
X73340315Y51753685D01*
X73313885Y51731993D01*
X73283738Y51715879D01*
X73251024Y51705955D01*
X73210862Y51702000D01*
X71823138Y51702000D01*
X71782976Y51705955D01*
X71750262Y51715879D01*
X71720115Y51731993D01*
X71693685Y51753685D01*
X71671993Y51780115D01*
X71655879Y51810262D01*
X71645955Y51842976D01*
X71642000Y51883138D01*
X71642000Y52770862D01*
X71645955Y52811024D01*
X71655879Y52843738D01*
X71671993Y52873885D01*
X71693685Y52900315D01*
X71720115Y52922007D01*
X71750262Y52938121D01*
X71782976Y52948045D01*
X71823138Y52952000D01*
X73210862Y52952000D01*
X73251024Y52948045D01*
X73251024Y52948045D01*
G37*
G36*
X78077024Y52948045D02*
G01*
X78109738Y52938121D01*
X78139885Y52922007D01*
X78166315Y52900315D01*
X78188007Y52873885D01*
X78204121Y52843738D01*
X78214045Y52811024D01*
X78218000Y52770862D01*
X78218000Y51883138D01*
X78214045Y51842976D01*
X78204121Y51810262D01*
X78188007Y51780115D01*
X78166315Y51753685D01*
X78139885Y51731993D01*
X78109738Y51715879D01*
X78077024Y51705955D01*
X78036862Y51702000D01*
X76649138Y51702000D01*
X76608976Y51705955D01*
X76576262Y51715879D01*
X76546115Y51731993D01*
X76519685Y51753685D01*
X76497993Y51780115D01*
X76481879Y51810262D01*
X76471955Y51842976D01*
X76468000Y51883138D01*
X76468000Y52770862D01*
X76471955Y52811024D01*
X76481879Y52843738D01*
X76497993Y52873885D01*
X76519685Y52900315D01*
X76546115Y52922007D01*
X76576262Y52938121D01*
X76608976Y52948045D01*
X76649138Y52952000D01*
X78036862Y52952000D01*
X78077024Y52948045D01*
X78077024Y52948045D01*
G37*
G36*
X75664024Y52948045D02*
G01*
X75696738Y52938121D01*
X75726885Y52922007D01*
X75753315Y52900315D01*
X75775007Y52873885D01*
X75791121Y52843738D01*
X75801045Y52811024D01*
X75805000Y52770862D01*
X75805000Y51883138D01*
X75801045Y51842976D01*
X75791121Y51810262D01*
X75775007Y51780115D01*
X75753315Y51753685D01*
X75726885Y51731993D01*
X75696738Y51715879D01*
X75664024Y51705955D01*
X75623862Y51702000D01*
X74236138Y51702000D01*
X74195976Y51705955D01*
X74163262Y51715879D01*
X74133115Y51731993D01*
X74106685Y51753685D01*
X74084993Y51780115D01*
X74068879Y51810262D01*
X74058955Y51842976D01*
X74055000Y51883138D01*
X74055000Y52770862D01*
X74058955Y52811024D01*
X74068879Y52843738D01*
X74084993Y52873885D01*
X74106685Y52900315D01*
X74133115Y52922007D01*
X74163262Y52938121D01*
X74195976Y52948045D01*
X74236138Y52952000D01*
X75623862Y52952000D01*
X75664024Y52948045D01*
X75664024Y52948045D01*
G37*
M02*
